<svg xmlns="http://www.w3.org/2000/svg" width="203" height="232" viewBox="0 0 203 232">
  <g id="Discord-Logo-Black" transform="translate(-35 -20)">
    <path id="Path_7663" data-name="Path 7663" d="M106.032,103.9c-6.612,0-11.832,5.8-11.832,12.876s5.336,12.876,11.832,12.876c6.612,0,11.832-5.8,11.832-12.876C117.98,109.7,112.644,103.9,106.032,103.9Zm42.34,0c-6.612,0-11.832,5.8-11.832,12.876s5.336,12.876,11.832,12.876c6.612,0,11.832-5.8,11.832-12.876S154.984,103.9,148.372,103.9Z" transform="translate(9.472 13.424)" fill="#fff"/>
    <path id="Path_7664" data-name="Path 7664" d="M214.22,20H58.78A23.837,23.837,0,0,0,35,43.9V200.728a23.837,23.837,0,0,0,23.78,23.9H190.324l-6.148-21.46,14.848,13.8L213.06,229.96,238,252V43.9A23.837,23.837,0,0,0,214.22,20ZM169.444,171.5s-4.176-4.988-7.656-9.4c15.2-4.292,21-13.8,21-13.8a66.38,66.38,0,0,1-13.34,6.844,76.35,76.35,0,0,1-16.82,4.988,81.261,81.261,0,0,1-30.044-.116,97.376,97.376,0,0,1-17.052-4.988,67.984,67.984,0,0,1-8.468-3.944c-.348-.232-.7-.348-1.044-.58a1.6,1.6,0,0,1-.464-.348c-2.088-1.16-3.248-1.972-3.248-1.972s5.568,9.28,20.3,13.688c-3.48,4.408-7.772,9.628-7.772,9.628-25.636-.812-35.38-17.632-35.38-17.632,0-37.352,16.7-67.628,16.7-67.628,16.7-12.528,32.6-12.18,32.6-12.18l1.16,1.392C99.032,81.48,89.4,90.644,89.4,90.644s2.552-1.392,6.844-3.364c12.412-5.452,22.272-6.96,26.332-7.308a11.429,11.429,0,0,1,1.972-.232,98.15,98.15,0,0,1,23.432-.232A94.559,94.559,0,0,1,182.9,90.644s-9.164-8.7-28.884-14.732l1.624-1.856s15.892-.348,32.6,12.18c0,0,16.7,30.276,16.7,67.628C204.94,153.864,195.08,170.684,169.444,171.5Z" transform="translate(0 0)" fill="#fff"/>
  </g>
</svg>
