<svg xmlns="http://www.w3.org/2000/svg" width="224.901" height="238.933" viewBox="0 0 224.901 238.933">
  <g id="Steem_1_" data-name="Steem (1)" transform="translate(0.003 -0.018)">
    <path id="Path_7661" data-name="Path 7661" d="M27.117,141.1C16.751,149.785,6.051,160.485,1.7,173.536c-5.017,15.383,2,31.1,8.7,44.8,6.683,14.032,14.032,27.749,20.382,42.115,5.017,11.366,12.033,24.732,10.367,37.45-1.333,9.034-4.35,17.716-6.016,26.75-1.333,6.016,4.35,0,6.35-1.666,11.7-10.033,24.4-21.4,29.082-36.783,2.332-7.682,1-14.717-1.666-22.066-2.666-7.016-5.683-13.7-8.7-20.733-6.35-14.051-13.032-28.083-19.734-42.133-2.666-5.017-5.35-10.367-7.682-15.717A54.755,54.755,0,0,1,28.765,167.5a72.465,72.465,0,0,1,.333-14.717c.333-3.684,1.333-7.016,1.666-10.7.352-1.981-1.314-2.666-3.647-.981Zm153.112,0c-10.367,8.7-21.067,19.4-25.417,32.433-5.017,15.383,2,31.1,8.7,44.8,6.683,14.051,14.051,27.749,20.4,42.133,5.017,11.366,12.033,24.732,10.367,37.45-1.333,9.034-4.35,17.716-6.016,26.75-1.333,6.016,4.35,0,6.35-1.666,11.7-10.033,24.4-21.4,29.082-36.783,2.332-7.682,1-14.717-1.666-22.066-2.666-7.016-5.683-13.7-8.7-20.733-6.35-14.051-13.032-28.083-19.734-42.133-2.666-5.017-5.35-10.367-7.682-15.717A54.756,54.756,0,0,1,181.9,167.52a72.465,72.465,0,0,1,.333-14.717c.333-3.684,1.333-7.016,1.666-10.7.352-2-1.314-2.684-3.665-1Z" transform="translate(0 -114.191)" fill="#fff"/>
    <path id="Path_7662" data-name="Path 7662" d="M388.973,1.5c-11.7,9.7-24.4,21.4-31.433,35.1a40.265,40.265,0,0,0-3.017,29.749,287.894,287.894,0,0,0,13.032,35.765c9.7,22.4,22.4,43.466,31.766,66.2,3.351,8.016,7.016,17.049,7.682,26.083.666,11.033-3.017,22.733-6.016,33.1-.666,3.017-2.666,7.016-2.332,10.033.333,2.333,1.666,1.333,3.017.333a168.634,168.634,0,0,0,16.383-14.384c13.7-13.032,29.415-30.434,28.083-50.815-.666-8.367-4.684-16.383-8.016-24.065-3.684-9.015-7.682-17.7-11.7-26.4-7.349-16.383-15.05-32.433-23.066-48.483-2.666-5.683-6.016-11.033-8.016-16.716a72.8,72.8,0,0,1-4.684-23.732,113.087,113.087,0,0,1,.666-18.382c.333-4.017,1.666-7.682,1.666-11.7,1-3.684-1-4.017-4.017-1.685Z" transform="translate(-287.642)" fill="#fff"/>
  </g>
</svg>
