<svg id="undraw_friendship_mni7" xmlns="http://www.w3.org/2000/svg" xmlns:xlink="http://www.w3.org/1999/xlink" width="1039.424" height="710.803" viewBox="0 0 1039.424 710.803">
  <defs>
    <linearGradient id="linear-gradient" x1="-0.379" y1="0.5" x2="0.621" y2="0.5" gradientUnits="objectBoundingBox">
      <stop offset="0" stop-color="gray" stop-opacity="0.251"/>
      <stop offset="0.54" stop-color="gray" stop-opacity="0.122"/>
      <stop offset="1" stop-color="gray" stop-opacity="0.102"/>
    </linearGradient>
  </defs>
  <path id="Path_7457" data-name="Path 7457" d="M1070.154,360.37c-6.324,25.617-38.793,38.457-56.984,57.567-34.28,36.018-20.93,88.616.819,130.74,7.28,14.105,15.543,29.038,12.458,44.163-3.758,18.5-23.733,32.023-44.708,39.194-38.22,13.058-83.993,9.946-119.129-8.117-30.358-15.607-52.107-40.95-82.983-55.892-51.679-24.925-117.454-15.47-173.574,1.665-39.694,12.148-83.1,27.955-122.55,15.27-27.755-8.936-46.947-30.685-57.4-53.69-5.041-11.129-8.709-23.178-18.346-32-5.733-5.251-13.213-8.973-20.866-12.1-69.961-28.665-158.34-13.313-226.254-45.109-45.882-21.467-75.266-61.962-88.27-104.2s-11.493-86.514-8.19-130.012c2.348-30.94,6.561-63.9,30.458-87.761,25.28-25.234,68.66-34.58,107.881-29.821s74.757,21.895,106.033,42.024c39.13,25.171,75.33,56.5,123.314,66.694,32.678,6.943,67.049,3.139,100.756,1.82,56.347-2.193,112.713,2.73,168.742,8.044,27.3,2.612,54.691,5.351,81.755,9.318q9.1,1.329,18.2,2.867c3.039.519,6.079,1.056,9.1,1.611,2.366.428,4.723.91,7.08,1.338q5.578,1.083,11.12,2.275,15.916,3.413,31.522,7.781c36.164,10.2,65.156,28.729,99.309,41.669,22.259,8.436,46.528,10.765,67.6,21.5C1052.982,310.4,1076.806,333.434,1070.154,360.37Z" transform="translate(-31.859 -62.116)" fill="#e8e8f3" opacity="0.971"/>
  <circle id="Ellipse_231" data-name="Ellipse 231" cx="93.03" cy="93.03" r="93.03" transform="translate(762.318 248.695)" fill="#6c63ff"/>
  <circle id="Ellipse_232" data-name="Ellipse 232" cx="93.03" cy="93.03" r="93.03" transform="translate(663.383 223.278)" fill="#6c63ff"/>
  <circle id="Ellipse_233" data-name="Ellipse 233" cx="93.03" cy="93.03" r="93.03" transform="translate(554.474 224.188)" fill="#6c63ff"/>
  <circle id="Ellipse_234" data-name="Ellipse 234" cx="93.03" cy="93.03" r="93.03" transform="translate(519.075 248.695)" fill="#6c63ff"/>
  <circle id="Ellipse_235" data-name="Ellipse 235" cx="93.03" cy="93.03" r="93.03" transform="translate(459.169 256.866)" fill="#6c63ff"/>
  <circle id="Ellipse_236" data-name="Ellipse 236" cx="93.03" cy="93.03" r="93.03" transform="translate(434.663 183.347)" fill="#6c63ff"/>
  <circle id="Ellipse_237" data-name="Ellipse 237" cx="93.03" cy="93.03" r="93.03" transform="translate(461.89 98.025)" fill="#6c63ff"/>
  <circle id="Ellipse_238" data-name="Ellipse 238" cx="93.03" cy="93.03" r="93.03" transform="translate(513.624 98.025)" fill="#6c63ff"/>
  <circle id="Ellipse_239" data-name="Ellipse 239" cx="93.03" cy="93.03" r="93.03" transform="translate(543.581 59.905)" fill="#6c63ff"/>
  <circle id="Ellipse_240" data-name="Ellipse 240" cx="93.03" cy="93.03" r="93.03" transform="translate(619.821 101.656)" fill="#6c63ff"/>
  <circle id="Ellipse_241" data-name="Ellipse 241" cx="93.03" cy="93.03" r="93.03" transform="translate(797.718 183.347)" fill="#6c63ff"/>
  <circle id="Ellipse_242" data-name="Ellipse 242" cx="93.03" cy="93.03" r="93.03" transform="translate(744.164 137.055)" fill="#6c63ff"/>
  <circle id="Ellipse_243" data-name="Ellipse 243" cx="93.03" cy="93.03" r="93.03" transform="translate(709.675 90.764)" fill="#6c63ff"/>
  <circle id="Ellipse_244" data-name="Ellipse 244" cx="93.03" cy="93.03" r="93.03" transform="translate(644.327 20.875)" fill="#6c63ff"/>
  <circle id="Ellipse_245" data-name="Ellipse 245" cx="93.03" cy="93.03" r="93.03" transform="translate(765.949 98.025)" fill="#6c63ff"/>
  <g id="Group_1502" data-name="Group 1502" transform="translate(434.663 20.875)" opacity="0.1">
    <circle id="Ellipse_246" data-name="Ellipse 246" cx="93.03" cy="93.03" r="93.03" transform="translate(327.655 227.819)"/>
    <circle id="Ellipse_247" data-name="Ellipse 247" cx="93.03" cy="93.03" r="93.03" transform="translate(228.72 202.403)"/>
    <circle id="Ellipse_248" data-name="Ellipse 248" cx="93.03" cy="93.03" r="93.03" transform="translate(119.811 203.313)"/>
    <circle id="Ellipse_249" data-name="Ellipse 249" cx="93.03" cy="93.03" r="93.03" transform="translate(84.412 227.819)"/>
    <circle id="Ellipse_250" data-name="Ellipse 250" cx="93.03" cy="93.03" r="93.03" transform="translate(24.506 235.991)"/>
    <circle id="Ellipse_251" data-name="Ellipse 251" cx="93.03" cy="93.03" r="93.03" transform="translate(0 162.472)"/>
    <circle id="Ellipse_252" data-name="Ellipse 252" cx="93.03" cy="93.03" r="93.03" transform="translate(27.227 77.15)"/>
    <circle id="Ellipse_253" data-name="Ellipse 253" cx="93.03" cy="93.03" r="93.03" transform="translate(78.961 77.15)"/>
    <circle id="Ellipse_254" data-name="Ellipse 254" cx="93.03" cy="93.03" r="93.03" transform="translate(108.918 39.03)"/>
    <circle id="Ellipse_255" data-name="Ellipse 255" cx="93.03" cy="93.03" r="93.03" transform="translate(185.158 80.781)"/>
    <circle id="Ellipse_256" data-name="Ellipse 256" cx="93.03" cy="93.03" r="93.03" transform="translate(363.055 162.472)"/>
    <circle id="Ellipse_257" data-name="Ellipse 257" cx="93.03" cy="93.03" r="93.03" transform="translate(309.501 116.18)"/>
    <circle id="Ellipse_258" data-name="Ellipse 258" cx="93.03" cy="93.03" r="93.03" transform="translate(275.012 69.888)"/>
    <circle id="Ellipse_259" data-name="Ellipse 259" cx="93.03" cy="93.03" r="93.03" transform="translate(209.665)"/>
    <circle id="Ellipse_260" data-name="Ellipse 260" cx="93.03" cy="93.03" r="93.03" transform="translate(331.286 77.15)"/>
  </g>
  <path id="Path_7458" data-name="Path 7458" d="M915.38,601.619s56.875-47.8,28.738-115.871L915.981,475.21,885.45,569.2Z" transform="translate(-105.978 -96.867)" fill="#67647e"/>
  <path id="Path_7459" data-name="Path 7459" d="M918.65,471.65l6.734,2.521-29.976,92.283,26.154,28.319c-2.166,2.157-3.513,3.285-3.513,3.285L888.11,565.644Z" transform="translate(-106.218 -96.547)" opacity="0.1"/>
  <ellipse id="Ellipse_261" data-name="Ellipse 261" cx="506.416" cy="84.776" rx="506.416" ry="84.776" transform="translate(20.921 541.251)" fill="#fcfcfd" opacity="0.1"/>
  <path id="Path_7460" data-name="Path 7460" d="M1034.153,603.1a44.174,44.174,0,0,0-8.053,45.955c10.447,27.455-17.9,73.1-17.9,73.1l.91-.146c37.993-6.707,56.875-50.159,35.745-82.446C1036.956,627.579,1030.5,613.492,1034.153,603.1Z" transform="translate(-117.025 -108.377)" fill="#6c63ff"/>
  <path id="Path_7461" data-name="Path 7461" d="M1034.152,603.1s-10.447,22.677,0,41.178,1.82,70.416-25.962,77.878" transform="translate(-117.024 -108.377)" fill="none" stroke="#535461" stroke-miterlimit="10" stroke-width="1"/>
  <path id="Path_7462" data-name="Path 7462" d="M1066.636,685.307s-21.112-3.358-23.032,15.561-40.6,21.54-40.6,21.54l.728.482c31.932,20.93,62.453,13.35,57.849-14.478C1059.875,698.066,1060.011,687.673,1066.636,685.307Z" transform="translate(-116.557 -115.755)" fill="#6c63ff"/>
  <path id="Path_7463" data-name="Path 7463" d="M1066.636,685.307s-21.112-3.358-23.032,15.561-40.6,21.54-40.6,21.54l.728.482c31.932,20.93,62.453,13.35,57.849-14.478C1059.875,698.066,1060.011,687.673,1066.636,685.307Z" transform="translate(-116.557 -115.755)" fill="#f5f5f5" opacity="0.2"/>
  <path id="Path_7464" data-name="Path 7464" d="M1066.638,685.33s-16.38,3.64-15.042,18.5-24.333,32.76-48.585,18.6" transform="translate(-116.558 -115.778)" fill="none" stroke="#535461" stroke-miterlimit="10" stroke-width="1"/>
  <path id="Path_7465" data-name="Path 7465" d="M636.08,496.084l7.389,29.575s52.207,6.807,87.014,2.53a45.244,45.244,0,0,0,17.354-6.261c2.939-1.738,7.58-2.493,13.923,2.257,10.865,8.19,64.191,73.71,55.556,141.688a23.5,23.5,0,0,1-20.175,20.238h0a70.855,70.855,0,0,0-29.73,11.248l-26.39,17.572,270.589-5.915-28.092-34.007s-19.219-16.262-34.007-17.745c-4.313-.428-7.871-4.386-10.747-9.764-16.844-31.532-36.992-61.179-58.832-89.49-15.907-20.621-29.256-42.352-28.01-56,2.958-32.533,0-85.759,0-85.759L795.74,408.86s7.389,70.98-60.624,88.716S636.08,496.084,636.08,496.084Z" transform="translate(-83.535 -90.896)" fill="#67647e"/>
  <g id="Group_1503" data-name="Group 1503" transform="translate(552.536 317.982)" opacity="0.1">
    <path id="Path_7466" data-name="Path 7466" d="M681.916,509.4s31.049,19.219,99.072,1.474,60.624-88.716,60.624-88.716l10.693,1.392c-.2-4.55-.355-7.28-.355-7.28l-56.184-7.389s7.389,70.98-60.624,88.716-99.072-1.474-99.072-1.474l7.389,29.575s19.947,2.6,43.407,3.576Z" transform="translate(-636.07 -408.88)"/>
    <path id="Path_7467" data-name="Path 7467" d="M823.628,723.028a70.848,70.848,0,0,1,29.73-11.248h0a23.46,23.46,0,0,0,20.166-20.157c8.682-67.977-44.672-133.616-55.51-141.769-11.83-8.873-17.745,1.474-17.745,1.474a95.194,95.194,0,0,1-12.74,2.43c19.165,25.48,46.583,74.356,40.168,124.552a23.46,23.46,0,0,1-20.166,20.156h0a70.852,70.852,0,0,0-29.73,11.248l-26.39,17.572,68.032-1.483Z" transform="translate(-646.45 -421.244)"/>
  </g>
  <path id="Path_7468" data-name="Path 7468" d="M685.62,656.3S679.969,637.12,686.676,623a30.306,30.306,0,0,0,2.448-19.01,50.962,50.962,0,0,0-2.73-8.927" transform="translate(-87.794 -107.654)" fill="none" stroke="#535461" stroke-miterlimit="10" stroke-width="2"/>
  <path id="Path_7469" data-name="Path 7469" d="M690.49,584.829c0,2.348-4.259,9.173-4.259,9.173S682,587.177,682,584.829a4.259,4.259,0,0,1,8.518,0Z" transform="translate(-87.668 -106.35)" fill="#6c63ff"/>
  <path id="Path_7470" data-name="Path 7470" d="M698.224,598.9c-1.274,1.975-8.554,5.387-8.554,5.387s.136-8.035,1.41-10.01a4.259,4.259,0,1,1,7.144,4.632Z" transform="translate(-88.358 -107.399)" fill="#6c63ff"/>
  <path id="Path_7471" data-name="Path 7471" d="M697.731,623.2c-2.1,1.056-10.1.328-10.1.328s4.168-6.871,6.27-7.926a4.259,4.259,0,0,1,3.831,7.608Z" transform="translate(-88.175 -109.462)" fill="#6c63ff"/>
  <path id="Path_7472" data-name="Path 7472" d="M693.331,641.721c-1.893,1.4-9.9,2.029-9.9,2.029s2.948-7.48,4.841-8.873a4.259,4.259,0,0,1,5.06,6.843Z" transform="translate(-87.797 -111.171)" fill="#6c63ff"/>
  <path id="Path_7473" data-name="Path 7473" d="M679.719,605.286c1.683,1.638,9.546,3.34,9.546,3.34s-1.92-7.808-3.64-9.446a4.259,4.259,0,0,0-5.933,6.106Z" transform="translate(-87.352 -107.924)" fill="#6c63ff"/>
  <path id="Path_7474" data-name="Path 7474" d="M674.708,626.824c2.1,1.056,10.1.328,10.1.328s-4.168-6.871-6.27-7.926a4.259,4.259,0,0,0-3.831,7.608Z" transform="translate(-86.801 -109.787)" fill="#6c63ff"/>
  <path id="Path_7475" data-name="Path 7475" d="M672.9,648.561c1.893,1.4,9.9,2.029,9.9,2.029s-2.949-7.48-4.841-8.872a4.259,4.259,0,0,0-5.06,6.843Z" transform="translate(-86.706 -111.786)" fill="#6c63ff"/>
  <path id="Path_7476" data-name="Path 7476" d="M672.33,659.3s10.329-2.066,13.077-4.823,15.142-7.571,16.526-4.131,18.591,15.143,6.879,17.208-27.537,2.73-30.94,1.374S672.33,659.3,672.33,659.3Z" transform="translate(-86.798 -112.521)" fill="#a8a8a8"/>
  <path id="Path_7477" data-name="Path 7477" d="M708.826,667.3c-11.7,2.066-27.537,2.73-30.94,1.374-2.621-1.046-4.441-6.088-5.16-8.427l-.346.073s2.066,8.263,5.506,9.637,19.274.691,30.94-1.374c3.376-.6,4.341-1.993,3.977-3.767C712.511,665.947,711.337,666.839,708.826,667.3Z" transform="translate(-86.802 -113.521)" opacity="0.2"/>
  <path id="Path_7478" data-name="Path 7478" d="M860.5,728.416s31.331-6.27,39.694-14.624,45.955-22.978,50.132-12.531,56.42,45.955,20.93,52.225-83.556,8.354-94,4.177S860.5,728.416,860.5,728.416Z" transform="translate(-103.733 -116.885)" fill="#a8a8a8"/>
  <path id="Path_7479" data-name="Path 7479" d="M971.22,752.623c-35.49,6.27-83.556,8.354-94,4.177-7.954-3.185-13.486-18.473-15.67-25.58l-1.046.218s6.27,25.071,16.708,29.248,58.495,2.093,94-4.177c10.256-1.82,13.186-6.061,12.076-11.43C982.422,748.583,978.846,751.286,971.22,752.623Z" transform="translate(-103.733 -119.908)" opacity="0.2"/>
  <path id="Path_7480" data-name="Path 7480" d="M1092.867,534.766a19.86,19.86,0,0,1-3.376,10.474,19.857,19.857,0,0,1-3.431-10.456c0-5.778,1.493-10.465,3.376-10.474S1092.849,528.987,1092.867,534.766Z" transform="translate(-124.032 -101.286)" fill="#6c63ff"/>
  <path id="Path_7481" data-name="Path 7481" d="M810.577,529.185a19.855,19.855,0,0,1-3.4,10.465,19.855,19.855,0,0,1-3.4-10.465c0-5.779,1.52-10.465,3.4-10.465S810.577,523.407,810.577,529.185Z" transform="translate(-98.627 -100.783)" fill="#6c63ff"/>
  <path id="Path_7482" data-name="Path 7482" d="M1117.971,642.878a19.856,19.856,0,0,1,3.4,10.465,19.859,19.859,0,0,1-8.909-6.461c-3.4-4.677-4.923-9.364-3.4-10.465S1114.577,638.21,1117.971,642.878Z" transform="translate(-126.05 -111.355)" fill="#6c63ff"/>
  <path id="Path_7483" data-name="Path 7483" d="M998.777,582.3a19.857,19.857,0,0,1-3.4,10.465,19.857,19.857,0,0,1-3.4-10.465c0-5.779,1.52-10.465,3.4-10.465S998.777,576.535,998.777,582.3Z" transform="translate(-115.565 -105.563)" fill="#6c63ff"/>
  <path id="Path_7484" data-name="Path 7484" d="M928.9,544.1a19.856,19.856,0,0,1-3.4,10.465,19.857,19.857,0,0,1-3.4-10.465c0-5.778,1.52-10.465,3.4-10.465S928.9,538.317,928.9,544.1Z" transform="translate(-109.276 -102.125)" fill="#6c63ff"/>
  <path id="Path_7485" data-name="Path 7485" d="M885.333,567.673a19.854,19.854,0,0,1,2.247,10.775,19.854,19.854,0,0,1-8.19-7.389c-2.876-5.014-3.877-9.837-2.248-10.774S882.466,562.659,885.333,567.673Z" transform="translate(-105.16 -104.51)" fill="#6c63ff"/>
  <path id="Path_7486" data-name="Path 7486" d="M852.845,673.066a19.856,19.856,0,0,1-9.964,4.677,19.855,19.855,0,0,1,5.305-9.637c4.213-3.95,8.681-6.042,9.965-4.677S857.058,669.116,852.845,673.066Z" transform="translate(-102.147 -113.769)" fill="#6c63ff"/>
  <path id="Path_7487" data-name="Path 7487" d="M852.845,673.066a19.856,19.856,0,0,1-9.964,4.677,19.855,19.855,0,0,1,5.305-9.637c4.213-3.95,8.681-6.042,9.965-4.677S857.058,669.116,852.845,673.066Z" transform="translate(-102.147 -113.769)" opacity="0.1"/>
  <path id="Path_7488" data-name="Path 7488" d="M920.854,666.546a19.856,19.856,0,0,1-9.964,4.678,19.857,19.857,0,0,1,5.305-9.637c4.213-3.949,8.681-6.042,9.964-4.677S925.068,662.587,920.854,666.546Z" transform="translate(-108.268 -113.182)" fill="#6c63ff"/>
  <path id="Path_7489" data-name="Path 7489" d="M920.854,666.546a19.856,19.856,0,0,1-9.964,4.678,19.857,19.857,0,0,1,5.305-9.637c4.213-3.949,8.681-6.042,9.964-4.677S925.068,662.587,920.854,666.546Z" transform="translate(-108.268 -113.182)" opacity="0.1"/>
  <path id="Path_7490" data-name="Path 7490" d="M933.895,735.483a19.86,19.86,0,0,1-9.965,4.678,19.855,19.855,0,0,1,5.314-9.664c4.213-3.95,8.681-6.042,9.965-4.677S938.117,731.524,933.895,735.483Z" transform="translate(-109.441 -119.384)" fill="#6c63ff"/>
  <path id="Path_7491" data-name="Path 7491" d="M933.895,735.483a19.86,19.86,0,0,1-9.965,4.678,19.855,19.855,0,0,1,5.314-9.664c4.213-3.95,8.681-6.042,9.965-4.677S938.117,731.524,933.895,735.483Z" transform="translate(-109.441 -119.384)" opacity="0.1"/>
  <path id="Path_7492" data-name="Path 7492" d="M111.209,624.314c13.95,20.593,9.5,94.322,9.5,94.322s-70.116-23.214-84.066-43.8a45.036,45.036,0,0,1,74.575-50.514Z" transform="translate(-28.89 -108.507)" fill="#6c63ff"/>
  <path id="Path_7493" data-name="Path 7493" d="M111.209,624.314c13.95,20.593,9.5,94.322,9.5,94.322s-70.116-23.214-84.066-43.8a45.036,45.036,0,0,1,74.575-50.514Z" transform="translate(-28.89 -108.507)" opacity="0.1"/>
  <path id="Path_7494" data-name="Path 7494" d="M50.92,613.11s52.544,40.568,72.045,106.37" transform="translate(-30.872 -109.278)" fill="none" stroke="#535461" stroke-miterlimit="10" stroke-width="1"/>
  <path id="Path_7495" data-name="Path 7495" d="M142.579,668.552s-37.31-6.37-11.83,55.428c0,0,25.926-9.883,27.946-34.471a19.62,19.62,0,0,0-15.607-20.857Z" transform="translate(-37.256 -114.251)" fill="#6c63ff"/>
  <path id="Path_7496" data-name="Path 7496" d="M144.01,668.5s7.107,34.18-12.34,55.51" transform="translate(-38.14 -114.263)" fill="none" stroke="#535461" stroke-miterlimit="10" stroke-width="1"/>
  <path id="Path_7497" data-name="Path 7497" d="M1037.51,730.088s15.57-3.094,19.72-7.216,22.841-11.339,24.916-6.188,28.028,22.677,10.383,25.762-41.524,4.122-46.711,2.066S1037.51,730.088,1037.51,730.088Z" transform="translate(-119.663 -118.439)" fill="#a8a8a8"/>
  <path id="Path_7498" data-name="Path 7498" d="M1092.559,742.036c-17.645,3.094-41.523,4.123-46.71,2.066-3.949-1.574-6.7-9.1-7.79-12.622l-.519.109s3.112,12.367,8.309,14.432,29.065,1.029,46.71-2.065c5.1-.91,6.552-2.985,6.006-5.642C1098.1,740.034,1096.326,741.372,1092.559,742.036Z" transform="translate(-119.666 -119.931)" opacity="0.2"/>
  <circle id="Ellipse_262" data-name="Ellipse 262" cx="93.03" cy="93.03" r="93.03" transform="translate(762.318 227.819)" fill="#6c63ff"/>
  <circle id="Ellipse_263" data-name="Ellipse 263" cx="93.03" cy="93.03" r="93.03" transform="translate(663.383 202.403)" fill="#6c63ff"/>
  <circle id="Ellipse_264" data-name="Ellipse 264" cx="93.03" cy="93.03" r="93.03" transform="translate(554.474 203.313)" fill="#6c63ff"/>
  <circle id="Ellipse_265" data-name="Ellipse 265" cx="93.03" cy="93.03" r="93.03" transform="translate(519.075 227.819)" fill="#6c63ff"/>
  <circle id="Ellipse_266" data-name="Ellipse 266" cx="93.03" cy="93.03" r="93.03" transform="translate(459.169 235.991)" fill="#6c63ff"/>
  <circle id="Ellipse_267" data-name="Ellipse 267" cx="93.03" cy="93.03" r="93.03" transform="translate(434.663 162.472)" fill="#6c63ff"/>
  <circle id="Ellipse_268" data-name="Ellipse 268" cx="93.03" cy="93.03" r="93.03" transform="translate(461.89 77.15)" fill="#6c63ff"/>
  <circle id="Ellipse_269" data-name="Ellipse 269" cx="93.03" cy="93.03" r="93.03" transform="translate(513.624 77.15)" fill="#6c63ff"/>
  <circle id="Ellipse_270" data-name="Ellipse 270" cx="93.03" cy="93.03" r="93.03" transform="translate(543.581 39.03)" fill="#6c63ff"/>
  <circle id="Ellipse_271" data-name="Ellipse 271" cx="93.03" cy="93.03" r="93.03" transform="translate(619.821 80.781)" fill="#6c63ff"/>
  <circle id="Ellipse_272" data-name="Ellipse 272" cx="93.03" cy="93.03" r="93.03" transform="translate(797.718 162.472)" fill="#6c63ff"/>
  <circle id="Ellipse_273" data-name="Ellipse 273" cx="93.03" cy="93.03" r="93.03" transform="translate(744.164 116.18)" fill="#6c63ff"/>
  <circle id="Ellipse_274" data-name="Ellipse 274" cx="93.03" cy="93.03" r="93.03" transform="translate(709.675 69.888)" fill="#6c63ff"/>
  <circle id="Ellipse_275" data-name="Ellipse 275" cx="93.03" cy="93.03" r="93.03" transform="translate(644.327 0)" fill="#6c63ff"/>
  <circle id="Ellipse_276" data-name="Ellipse 276" cx="93.03" cy="93.03" r="93.03" transform="translate(765.949 77.15)" fill="#6c63ff"/>
  <path id="Path_7499" data-name="Path 7499" d="M1056.857,261.328S970.215,220.241,917.79,293.06" transform="translate(-108.889 -76.579)" opacity="0.1"/>
  <path id="Path_7500" data-name="Path 7500" d="M809.191,171s-95.841-2.894-114.661,84.83" transform="translate(-88.796 -69.488)" opacity="0.1"/>
  <path id="Path_7501" data-name="Path 7501" d="M675.857,379.017s-86.641-41.1-139.067,31.7" transform="translate(-74.6 -87.17)" opacity="0.1"/>
  <path id="Path_7502" data-name="Path 7502" d="M271.558,635s5,6.534-2.311,16.38-13.331,18.2-10.92,24.352c0,0,11.02-18.328,20.02-18.582S281.422,646.02,271.558,635Z" transform="translate(-49.49 -111.248)" fill="#6c63ff"/>
  <path id="Path_7503" data-name="Path 7503" d="M271.588,635a8.1,8.1,0,0,1,1.019,2.048c8.754,10.283,13.422,19.883,5,20.129-7.835.228-17.245,14.242-19.492,17.782a7.6,7.6,0,0,0,.264.81s11.02-18.328,20.02-18.582S281.452,646.02,271.588,635Z" transform="translate(-49.52 -111.248)" opacity="0.1"/>
  <path id="Path_7504" data-name="Path 7504" d="M283.017,644.012c0,2.3-.255,4.168-.573,4.168s-.573-1.82-.573-4.168.319-1.219.637-1.219S283.017,641.71,283.017,644.012Z" transform="translate(-51.657 -111.925)" fill="#ffd037"/>
  <path id="Path_7505" data-name="Path 7505" d="M286.24,647.013c-2.02,1.1-3.786,1.766-3.931,1.483s1.365-1.4,3.385-2.5,1.219-.3,1.374,0S288.26,645.949,286.24,647.013Z" transform="translate(-51.696 -112.187)" fill="#ffd037"/>
  <path id="Path_7506" data-name="Path 7506" d="M242.79,635s-5,6.534,2.311,16.38,13.332,18.2,10.92,24.352c0,0-11.02-18.328-20.02-18.582S232.916,646.02,242.79,635Z" transform="translate(-47.13 -111.248)" fill="#6c63ff"/>
  <path id="Path_7507" data-name="Path 7507" d="M242.788,635a8.1,8.1,0,0,0-1.019,2.048c-8.754,10.283-13.423,19.883-5.005,20.129,7.835.228,17.245,14.242,19.492,17.782a7.585,7.585,0,0,1-.264.81s-11.02-18.328-20.02-18.582S232.914,646.02,242.788,635Z" transform="translate(-47.128 -111.248)" opacity="0.1"/>
  <path id="Path_7508" data-name="Path 7508" d="M233.69,644.012c0,2.3.255,4.168.573,4.168s.573-1.82.573-4.168-.318-1.219-.637-1.219S233.69,641.71,233.69,644.012Z" transform="translate(-47.321 -111.925)" fill="#ffd037"/>
  <path id="Path_7509" data-name="Path 7509" d="M230.06,647.013c2.02,1.1,3.786,1.766,3.931,1.483s-1.365-1.4-3.385-2.5-1.219-.3-1.374,0S228.076,645.949,230.06,647.013Z" transform="translate(-46.885 -112.187)" fill="#ffd037"/>
  <path id="Path_7510" data-name="Path 7510" d="M235.44,678.1s13.978-.428,18.2-3.431,21.5-6.579,22.541-1.775,21,23.924,5.223,24.052-36.664-2.457-40.868-5.023S235.44,678.1,235.44,678.1Z" transform="translate(-47.479 -114.447)" fill="#a8a8a8"/>
  <path id="Path_7511" data-name="Path 7511" d="M281.677,696.029c-15.779.127-36.664-2.457-40.868-5.024-3.2-1.947-4.477-8.945-4.9-12.176h-.464s.91,11.275,5.087,13.832,25.089,5.15,40.868,5.023c4.55,0,6.124-1.656,6.042-4.059C286.81,695.092,285.09,696,281.677,696.029Z" transform="translate(-47.479 -115.193)" opacity="0.2"/>
  <path id="Path_7512" data-name="Path 7512" d="M145.092,776.073a10.621,10.621,0,0,0,3.485-5.26c.455-2.093-.437-4.6-2.439-5.36-2.239-.855-4.632.692-6.443,2.266s-3.895,3.358-6.27,3.021a9.537,9.537,0,0,0,2.948-8.927,3.731,3.731,0,0,0-.819-1.82c-1.247-1.329-3.494-.755-4.987.291-4.732,3.33-6.052,9.755-6.079,15.543-.473-2.084-.073-4.259-.091-6.37s-.6-4.55-2.4-5.66a7.279,7.279,0,0,0-3.64-.864c-2.129-.082-4.5.136-5.951,1.693-1.82,1.929-1.338,5.178.237,7.28s3.959,3.458,6.161,4.932a13.651,13.651,0,0,1,4.4,4.2,4.164,4.164,0,0,1,.328.746h13.332A37.156,37.156,0,0,0,145.092,776.073Z" transform="translate(-36.301 -122.428)" fill="#6c63ff"/>
  <path id="Path_7513" data-name="Path 7513" d="M1055.092,790.073a10.62,10.62,0,0,0,3.485-5.26c.455-2.093-.437-4.6-2.439-5.36-2.239-.855-4.632.692-6.443,2.266s-3.9,3.358-6.27,3.021a9.536,9.536,0,0,0,2.948-8.927,3.729,3.729,0,0,0-.819-1.82c-1.247-1.328-3.494-.755-4.987.291-4.732,3.331-6.052,9.755-6.079,15.543-.473-2.084-.073-4.259-.091-6.37s-.6-4.55-2.4-5.66a7.281,7.281,0,0,0-3.64-.864c-2.129-.082-4.5.136-5.951,1.693-1.82,1.929-1.338,5.178.236,7.28s3.958,3.458,6.161,4.932a13.648,13.648,0,0,1,4.4,4.2,4.174,4.174,0,0,1,.328.746h13.332A37.16,37.16,0,0,0,1055.092,790.073Z" transform="translate(-118.199 -123.688)" fill="#6c63ff"/>
  <path id="Path_7514" data-name="Path 7514" d="M712.705,785.983s-.91,14.251.91,16.617c0,0-41.787,7.6-47.011,5.223s-2.849-6.17,0-7.6,17.1-6.652,18.992-16.617c0,0-6.17-2.848,13.768.91S712.705,785.983,712.705,785.983Z" transform="translate(-86.004 -124.529)" fill="#dc9ba3"/>
  <path id="Path_7515" data-name="Path 7515" d="M712.705,785.983s-.91,14.251.91,16.617c0,0-41.787,7.6-47.011,5.223s-2.849-6.17,0-7.6,17.1-6.652,18.992-16.617c0,0-6.17-2.848,13.768.91S712.705,785.983,712.705,785.983Z" transform="translate(-86.004 -124.529)" opacity="0.05"/>
  <path id="Path_7516" data-name="Path 7516" d="M892.382,634.46s-5.223,8.545-1.9,25.171-8.545,16.617-8.545,16.617H858.2l-8.072-20.93,11.393.91s7.6-1.9,4.277-19.474Z" transform="translate(-102.799 -111.199)" fill="#ffd2d9"/>
  <path id="Path_7517" data-name="Path 7517" d="M818.123,611.044c3.64,11.566,8.19,25.653,10.62,33.161l1.729,5.305,15.67-16.143s-.692-1.6-1.72-3.84c-2.293-4.969-6.288-13.077-8.254-13.732,0,0,21.84-1.429,28.492,3.795s4.75-14.251,4.75-14.251-12.822-.91-17.572-3.795-30.394-5.7-30.394-5.7S812.9,594.418,818.123,611.044Z" transform="translate(-99.767 -107.722)" fill="#ffd2d9"/>
  <path id="Path_7518" data-name="Path 7518" d="M661.73,765.813l3.321,24.215,8.545-.91s.519-.491,1.392-1.274a56.915,56.915,0,0,1,11.684-8.19,14.314,14.314,0,0,1,4.969-1.483l-9.5-14.25a52.527,52.527,0,0,1-7.089,2.1,34.214,34.214,0,0,1-7.635.91A13.94,13.94,0,0,1,661.73,765.813Z" transform="translate(-85.844 -122.851)" fill="#ffd2d9"/>
  <path id="Path_7519" data-name="Path 7519" d="M687.735,776.515c4.277,3.795,23.742-4.277,27.072,8.072l3.058-11.712,9.418-36.036,1.292-4.96,7.844-.337,90.026-3.84,5.1-.218,2.73-.118-3.567-1.765-23.742-11.766s-8.554-.6-20.348-2.22h0c-17.881-2.448-43.216-7.28-57.521-15.825-23.742-14.25-32.76,33.716-32.76,33.716s-3.64,12.167-6.37,24.16a139.937,139.937,0,0,0-2.866,15.7C686.689,773.029,686.816,775.687,687.735,776.515Z" transform="translate(-88.107 -116.481)" fill="#e9e9ef"/>
  <path id="Path_7520" data-name="Path 7520" d="M687.734,776.513c4.277,3.795,23.742-4.277,27.073,8.072l3.057-11.712,9.419-36.036,1.292-4.959,8.09-.5,86.978-5.351,5.369-.337,1.656-.1,2.139-.137-25.88-11.639s-8.554-.6-20.348-2.22h0c-17.882-2.448-43.216-7.28-57.521-15.825-23.742-14.25-32.76,33.716-32.76,33.716s-3.64,12.167-6.37,24.161a139.957,139.957,0,0,0-2.867,15.7C686.688,773.028,686.815,775.685,687.734,776.513Z" transform="translate(-88.106 -116.479)" opacity="0.05"/>
  <path id="Path_7521" data-name="Path 7521" d="M676.38,765.982l8.308,9.746L688,779.614a14.319,14.319,0,0,1,4.969-1.483l-9.5-14.25A52.523,52.523,0,0,1,676.38,765.982Z" transform="translate(-87.162 -122.847)" opacity="0.1"/>
  <path id="Path_7522" data-name="Path 7522" d="M676.87,760.323l9.291,10.92,4.477,5.251v1.429c5.46,1.265,22.559-2.339,26.326-3.167l.737-.164c10.92.473,51.288-23.269,51.288-23.269s44.162,7.6,65.52,5.7c11.93-1.065,15.279-5.378,15.907-8.991a9.364,9.364,0,0,0-.71-5.26L830.6,729.346l-2.53-1.82-4.04-2.848s-7.025-1.593-15.943-3.558h0c-13.941-3.076-32.515-7.071-36.273-7.353-6.17-.473-21.84,4.75-30.867,15.2a26.671,26.671,0,0,1-5.205,4.25l-.246.164c-2.539,1.683-5.66,3.467-9.1,5.3-11.493,6.052-26.818,12.558-37.356,16.826C681.829,758.439,676.87,760.323,676.87,760.323Z" transform="translate(-87.206 -118.334)" fill="#e9e9ef"/>
  <path id="Path_7523" data-name="Path 7523" d="M661.73,766l3.321,24.215,8.545-.91s.519-.492,1.392-1.274c-1.893,0-5.014-.5-5.669-4.423,0,0,3.294-11.511-1.9-16.471A13.944,13.944,0,0,1,661.73,766Z" transform="translate(-85.844 -123.038)" opacity="0.1"/>
  <path id="Path_7524" data-name="Path 7524" d="M664.369,783.449s4.75-16.617-6.17-18.519l-18.045,7.125-20.93,1.429s-5.46,8.909,3.285,18.9a26.863,26.863,0,0,0,19.056,9.009l22.8,1.047,7.162-14.7S665.352,789.145,664.369,783.449Z" transform="translate(-81.867 -122.942)" fill="#dc9ba3"/>
  <path id="Path_7525" data-name="Path 7525" d="M796.45,713.44c2.393.7,12.294,3.64,22.432,7.671h0a124.942,124.942,0,0,1,14.615,6.743c.983.555,1.92,1.11,2.8,1.665a24.167,24.167,0,0,1,6.124,5.132c5.86,7.58,14.469,11.666,18.755,13.332a9.363,9.363,0,0,0-.71-5.26L841.359,729.3l2.73-.118-3.567-1.766,2.138-.136-25.88-11.639S808.244,715.06,796.45,713.44Z" transform="translate(-97.968 -118.308)" opacity="0.1"/>
  <path id="Path_7526" data-name="Path 7526" d="M830,647.548l1.729,5.305L847.4,636.71s-.692-1.6-1.72-3.84C843.65,637.047,834.2,644.382,830,647.548Z" transform="translate(-100.988 -111.056)" opacity="0.1"/>
  <path id="Path_7527" data-name="Path 7527" d="M883.712,655.329a27.639,27.639,0,0,0,1.229-4.951l20.411,7.089s14,10.683,12.585,33.952c0,0-17.29-6.37-24.934,1.183l-.155,1.338A61.734,61.734,0,0,1,876.1,729.267c-3.777,3.968-7.335,8.436-9.218,12.74,0,0-13.3-3.795-21.367-14.251S799,706.417,799,706.417s20.42.473,23.269-6.652,12.349-22.323,9.027-34.189-5.223-15.67-5.223-15.67,19.474-13.768,18.045-18.046l12.349,14.251,5.7,1.9a9.1,9.1,0,0,0-.673,3.476C861.162,664.384,879.38,667.478,883.712,655.329Z" transform="translate(-98.198 -110.965)" fill="#cedad5"/>
  <path id="Path_7528" data-name="Path 7528" d="M868.059,643.172a49.229,49.229,0,0,0-.719-5.287l26.59-2.375s-1.82,1.592-2.639,7.526c-3.121,1.82-6.761,4.35-10.656,4.35a20.8,20.8,0,0,1-12.576-4.214Z" transform="translate(-104.348 -111.294)" opacity="0.1"/>
  <circle id="Ellipse_277" data-name="Ellipse 277" cx="20.894" cy="20.894" r="20.894" transform="translate(755.157 493.585)" fill="#ffd2d9"/>
  <path id="Path_7529" data-name="Path 7529" d="M895.495,627.323h-2.848v-8.072l-2.848-8.545s-14.251-6.652-20.93-5.223l-5.187,4.723s-1.429-11.393,7.125-15.67,23.742-2.375,27.546.91,10.01,9.027,5.223,24.7L902.184,624S896.441,622.1,895.495,627.323Z" transform="translate(-104.011 -107.384)" fill="#844f6e"/>
  <g id="Group_1504" data-name="Group 1504" transform="translate(700.784 520.894)" opacity="0.05">
    <path id="Path_7530" data-name="Path 7530" d="M857.227,641.87l-1.556-.519-7.171-8.272a2.024,2.024,0,0,0,.046-1.219Z" transform="translate(-803.437 -631.86)"/>
    <path id="Path_7531" data-name="Path 7531" d="M868.423,658.586a10.757,10.757,0,0,1-6.525-10.465v-.8l.146.173,5.7,1.9a9.1,9.1,0,0,0-.673,3.476A11.345,11.345,0,0,0,868.423,658.586Z" transform="translate(-804.641 -633.252)"/>
    <path id="Path_7532" data-name="Path 7532" d="M807.37,713.36c11.9,4.141,28.019,10.665,32.924,17.008l.364.455c-13.04-8.945-41.678-17.08-41.678-17.08A74.037,74.037,0,0,0,807.37,713.36Z" transform="translate(-798.98 -639.195)"/>
    <path id="Path_7533" data-name="Path 7533" d="M866.432,739.783c1.884-4.286,5.46-8.763,9.218-12.74a61.734,61.734,0,0,0,16.744-35.326l.155-1.338c7.6-7.6,24.934-1.183,24.934-1.183.91-14.76-4.4-24.452-8.4-29.566l1.047.364s14,10.683,12.585,33.952c0,0-17.29-6.37-24.934,1.183l-.155,1.338a61.735,61.735,0,0,1-16.744,35.327c-3.777,3.968-7.334,8.436-9.218,12.74,0,0-11.575-3.312-19.674-12.231A49.135,49.135,0,0,0,866.432,739.783Z" transform="translate(-803.751 -634.359)"/>
  </g>
  <path id="Path_7534" data-name="Path 7534" d="M872.134,684.675s22.75,32.76,34.662,42.261,15.2-4.277,15.2-4.277V692.274l-20.93-2.375-.228,2.885-.255,3.294-19.474-20.93s-19.474-17.572-23.269-7.125S872.134,684.675,872.134,684.675Z" transform="translate(-103.446 -113.921)" fill="#ffd2d9"/>
  <path id="Path_7535" data-name="Path 7535" d="M905.19,695.275a45.246,45.246,0,0,0,9.009,4c4.486,1.383,9.628-.073,12.112-.965v-3.549l-20.93-2.375Z" transform="translate(-107.755 -116.413)" opacity="0.1"/>
  <path id="Path_7536" data-name="Path 7536" d="M926.255,691.141l1.219,5.087s-7.426,3.458-13.6,1.565a53.994,53.994,0,0,1-11.83-5.7c-.91-.473,3.795-5.7,3.795-5.7Z" transform="translate(-107.462 -115.874)" fill="#cedad5"/>
  <path id="Path_7537" data-name="Path 7537" d="M776.337,754.189a38.576,38.576,0,0,0-10.447-5.706,37.314,37.314,0,0,1-10.01-5.224" transform="translate(-94.317 -120.991)" opacity="0.1"/>
  <path id="Path_7538" data-name="Path 7538" d="M619.294,774.315l.774-.055c-1.128,2.867-2.73,9.874,3.931,17.527a26.863,26.863,0,0,0,18.992,9l22.113,1.037-.71,1.456-22.823-1.047a26.863,26.863,0,0,1-18.992-9C613.834,783.224,619.294,774.315,619.294,774.315Z" transform="translate(-81.873 -123.781)" fill="#fff" opacity="0.2"/>
  <path id="Path_7539" data-name="Path 7539" d="M707.99,796.69q-.1.427-.228.846C707.3,797.272,706.634,796.763,707.99,796.69Z" transform="translate(-89.935 -125.8)" fill="lime" opacity="0.05"/>
  <path id="Path_7540" data-name="Path 7540" d="M666.691,808.253c4.869,2.211,41.469-4.231,46.41-5.123a3.694,3.694,0,0,0,.564,1.32s-41.787,7.6-47.011,5.223c-2.73-1.219-3.358-2.821-2.994-4.277C663.961,806.415,664.816,807.425,666.691,808.253Z" transform="translate(-86.009 -126.379)" fill="#fff" opacity="0.2"/>
  <path id="Path_7541" data-name="Path 7541" d="M865.862,611.161a32.358,32.358,0,0,1-12.048-12.922,2.913,2.913,0,0,1-.446-1.993c.337-1.292,2.02-1.52,3.24-2.075,2.266-1.038,3.221-3.64,4.7-5.66a11.33,11.33,0,0,1,11.075-4.25c2.166.437,4.168,1.51,6.37,1.82,4.714.692,9.846-2.166,14.078,0a12.184,12.184,0,0,1,4.386,4.7c2.885,4.614,6.5,9.519,3.876,14.906a11.64,11.64,0,0,1-7.28,6.561c-3.376.9-7.28.146-10.72-.219-2.821-.309-5.788-.91-8.627-.655C871.121,611.716,869.037,613.072,865.862,611.161Z" transform="translate(-103.088 -106.664)" opacity="0.1"/>
  <path id="Path_7542" data-name="Path 7542" d="M865.862,610.111a32.357,32.357,0,0,1-12.048-12.922,2.911,2.911,0,0,1-.446-1.993c.337-1.292,2.02-1.519,3.24-2.075,2.266-1.037,3.221-3.64,4.7-5.66a11.33,11.33,0,0,1,11.075-4.25c2.166.437,4.168,1.511,6.37,1.82,4.714.692,9.846-2.166,14.078,0a12.186,12.186,0,0,1,4.386,4.7c2.885,4.614,6.5,9.519,3.876,14.906a11.64,11.64,0,0,1-7.28,6.561c-3.376.9-7.28.146-10.72-.219-2.821-.309-5.788-.91-8.627-.655C871.121,610.666,869.037,612.031,865.862,610.111Z" transform="translate(-103.088 -106.57)" fill="#844f6e"/>
  <path id="Path_7543" data-name="Path 7543" d="M436.94,721.8c0,9.792.546,16.262.546,16.262s13.987.783,13.6,13.75,54.364,15.716,54.364,15.716v-.391h0V764.2c5.205.774,10.775,1.4,13.9,1.1-.209,1.01-.455,2.075-.692,3.021-.255.255-5.3,5.351-5.132,10.774-.091,2.73,1.147,5.533,5.151,7.863,11.557,6.752,47.548,2.994,47.548,2.994,5.46-3.585,7.28-6.634,7.18-9.164.173-3.731-3.549-6.37-6.962-8.072a12.286,12.286,0,0,0-8.518-.91,40.883,40.883,0,0,1-11.748.865,18.2,18.2,0,0,1,.61-2.311c3.694,1.047,6.243,1.82,6.243,1.82s19.183-10.21,11.193-26.709a13.515,13.515,0,0,0-5.46-5.4c6.161-10.62,12.012-23.123,11.429-31.531-.974-14.032-28.838-10.975-39.276-9.328l-20.12-19.738c0-14.56.446-31.277-.91-34.9-2.4-6.288-1.6-5.46-3.194-8.245l-.064-.1c-.91-1.474-3.385-3.813-4.022-3.495a40.589,40.589,0,0,1,.118-8.69,24.8,24.8,0,0,0,17.09-23.46,24.276,24.276,0,0,0-2.73-11.2l.273-.118-2.639-12.977a2.157,2.157,0,0,1,.118-1.683c.273-.364.737-.473,1.092-.728a2.511,2.511,0,0,0,.428-3.057,4.166,4.166,0,0,0-.992-1.265c-2.22-2.521-6.943-1.62-9.846-1.993-3.931-.5-8.053-1.228-11.775.719a19.449,19.449,0,0,1-2.5,1.31,10.776,10.776,0,0,1-3.64.346,36.735,36.735,0,0,0-6.607.591c-2.839-1.028-6.179-.118-8.809,1.456a19.428,19.428,0,0,0-9.246,17.763,37.636,37.636,0,0,0,1.265,6.507l4.868,18.973a12.363,12.363,0,0,0,1.82,4.441,5.226,5.226,0,0,0,.728.783,4.214,4.214,0,0,0,3.877,1.474,2.627,2.627,0,0,0,.537-.191,26.9,26.9,0,0,1-1.156,5.879c-5.569,1.62-13.65,7.28-23.351,23.66C439.069,672.261,436.995,703.2,436.94,721.8Zm79.443-13.323Z" transform="translate(-65.613 -105.129)" fill="url(#linear-gradient)"/>
  <rect id="Rectangle_1667" data-name="Rectangle 1667" width="54.455" height="39.003" transform="translate(474.184 643.963) rotate(180)" fill="#5f5d7e"/>
  <path id="Path_7544" data-name="Path 7544" d="M532.558,714.69s40.55-8.5,41.705,8.5-23.942,50.96-23.942,50.96l-22.75-4.632,6.561-26.263s-25.871-5.8-27.418-6.179S532.558,714.69,532.558,714.69Z" transform="translate(-71.887 -118.229)" fill="#5f5d7e"/>
  <path id="Path_7545" data-name="Path 7545" d="M532.558,714.69s40.55-8.5,41.705,8.5-23.942,50.96-23.942,50.96l-22.75-4.632,6.561-26.263s-25.871-5.8-27.418-6.179S532.558,714.69,532.558,714.69Z" transform="translate(-71.887 -118.229)" opacity="0.1"/>
  <path id="Path_7546" data-name="Path 7546" d="M555.488,784.955s-3.858,7.335-2.73,10.429-27.418-4.25-27.418-4.25,2.321-8.882,1.929-10.01S555.488,784.955,555.488,784.955Z" transform="translate(-73.569 -124.384)" fill="#5f5d7e"/>
  <path id="Path_7547" data-name="Path 7547" d="M530.88,728.887l2.839,2.566,1.82,1.656s9.273,15.061,21.24,5.8-9.291-16.2-13.541-16.553a5.332,5.332,0,0,1-4-2.9,12.746,12.746,0,0,1-1.4-3.64Z" transform="translate(-74.068 -118.521)" fill="#fdc2cc"/>
  <path id="Path_7548" data-name="Path 7548" d="M530.88,728.887l2.839,2.566,1.82,1.656s9.273,15.061,21.24,5.8-9.291-16.2-13.541-16.553a5.332,5.332,0,0,1-4-2.9,12.746,12.746,0,0,1-1.4-3.64Z" transform="translate(-74.068 -118.521)" opacity="0.05"/>
  <path id="Path_7549" data-name="Path 7549" d="M555.488,784.955s-3.858,7.335-2.73,10.429-27.418-4.25-27.418-4.25,2.321-8.882,1.929-10.01S555.488,784.955,555.488,784.955Z" transform="translate(-73.569 -124.384)" opacity="0.1"/>
  <path id="Path_7550" data-name="Path 7550" d="M530.88,728.881l2.839,2.566c0-4.95,3.285-9.5,5.533-12.057a12.741,12.741,0,0,1-1.4-3.64Z" transform="translate(-74.068 -118.515)" opacity="0.1"/>
  <path id="Path_7551" data-name="Path 7551" d="M512.21,687.32l26.645,26.645s-9.273,8.108-7.335,16.608l-19.31-21.631Z" transform="translate(-72.387 -115.957)" fill="#c4c8e2"/>
  <path id="Path_7552" data-name="Path 7552" d="M512.42,687.32v21.631l3.094,3.467L524.7,722.7l7.034,7.881c-1.929-8.5,7.335-16.608,7.335-16.608Z" transform="translate(-72.406 -115.957)" opacity="0.1"/>
  <path id="Path_7553" data-name="Path 7553" d="M511.171,645.3s0,8.108-6.952,5.8-1.547,91.528-1.547,91.528,20.084-15.061,16.216-25.871-4.632-18.946-4.268-29.739S511.171,645.3,511.171,645.3Z" transform="translate(-71.349 -112.175)" fill="#d39999"/>
  <path id="Path_7554" data-name="Path 7554" d="M508.38,621.2s-5.8,15.834,0,27.81-34.38-6.57-34.38-6.57,8.882-4.25,5.8-24.716Z" transform="translate(-68.949 -109.693)" fill="#fdc2cc"/>
  <path id="Path_7555" data-name="Path 7555" d="M515.545,699.933a113.941,113.941,0,0,0,0,12.74l9.182,10.283a77.4,77.4,0,0,0-4.55-8.344c-1.429-2.211-1.747-11.029-1.82-21.094l-3.367-3.367C515.345,695.583,515.545,699.933,515.545,699.933Z" transform="translate(-72.638 -116.211)" opacity="0.1"/>
  <path id="Path_7556" data-name="Path 7556" d="M509,642.934c-.428-2.029,2.921,1.028,3.995,2.8l.055.1c1.547,2.73.773,1.929,3.094,8.108s-.773,50.96,2.73,56.421a86.888,86.888,0,0,1,6.179,11.975l-6.179-2.32s-2.32-6.952-3.858-8.5-.774-15.834-.774-15.834-1.156-24.716-2.321-30.121C511,661.216,509.906,647.2,509,642.934Z" transform="translate(-72.095 -111.902)" fill="#c4c8e2"/>
  <path id="Path_7557" data-name="Path 7557" d="M509,642.934c-.428-2.029,2.921,1.028,3.995,2.8l.055.1c1.547,2.73.773,1.929,3.094,8.108s-.773,50.96,2.73,56.421a86.888,86.888,0,0,1,6.179,11.975l-6.179-2.32s-2.32-6.952-3.858-8.5-.774-15.834-.774-15.834-1.156-24.716-2.321-30.121C511,661.216,509.906,647.2,509,642.934Z" transform="translate(-72.095 -111.902)" opacity="0.1"/>
  <path id="Path_7558" data-name="Path 7558" d="M499.05,748.839s61.016-2.32,68.742,13.9-10.811,26.272-10.811,26.272-25.871-8.108-31.668-6.952-26.263-3.094-26.263-3.094Z" transform="translate(-71.203 -121.483)" fill="#5f5d7e"/>
  <path id="Path_7559" data-name="Path 7559" d="M536.4,737.384s13.9-7.726,21.631-2.73,6.953,18.537-3.858,18.919-16.607-6.179-16.607-6.179Z" transform="translate(-74.564 -120.065)" fill="#fdc2cc"/>
  <path id="Path_7560" data-name="Path 7560" d="M484.033,637.136s-12.358-8.5-30.512,22.75-13.514,84.958-13.514,84.958,13.514.773,13.131,13.514,52.525,15.47,52.525,15.47-.773-126.672-6.179-130.13S484.033,637.136,484.033,637.136Z" transform="translate(-65.842 -111.345)" fill="#c4c8e2"/>
  <path id="Path_7561" data-name="Path 7561" d="M486.042,662.321a16.917,16.917,0,0,1,7.025,13.759c.064,11.566.346,36.491,1.52,41.2,1.547,6.179,24.716,14.287,36.691,13.9,0,0,5.8,10.811-1.156,13.131s-49.431,0-49.431,0-16.607-18.919-16.99-35.49-2.73-35.144,0-38.621C465.931,667.272,475.258,654.714,486.042,662.321Z" transform="translate(-67.904 -113.49)" opacity="0.1"/>
  <path id="Path_7562" data-name="Path 7562" d="M486.9,660.622a16.917,16.917,0,0,1,7.071,13.777c.064,11.566.346,36.491,1.52,41.2,1.547,6.179,24.716,14.287,36.691,13.9,0,0,5.8,10.811-1.156,13.131s-49.431,0-49.431,0-16.608-18.919-16.99-35.49-2.73-35.144,0-38.621C466.785,665.609,476.113,653.014,486.9,660.622Z" transform="translate(-67.985 -113.337)" fill="#c4c8e2"/>
  <path id="Path_7563" data-name="Path 7563" d="M571.892,793.08c5.542,2.73,11.966,8.354-.209,16.9,0,0-34.753,3.858-45.955-3.094s0-18.154,0-18.154,25.635,6.816,37.938,3.485A11.675,11.675,0,0,1,571.892,793.08Z" transform="translate(-73.156 -125.084)" fill="#4c4c56"/>
  <path id="Path_7564" data-name="Path 7564" d="M571.892,793.96c5.542,2.639,11.966,7.99-.209,16.171,0,0-34.753,3.695-45.955-2.957s0-17.363,0-17.363,25.635,6.516,37.938,3.34a12.157,12.157,0,0,1,8.226.81Z" transform="translate(-73.156 -125.181)" opacity="0.1"/>
  <path id="Path_7565" data-name="Path 7565" d="M490.35,692.62s1.929,24.333,14.678,29.739" transform="translate(-70.42 -116.434)" opacity="0.1"/>
  <path id="Path_7566" data-name="Path 7566" d="M508.533,624.094a49.554,49.554,0,0,0-2.284,10.319c-2.439.819-6.006-1.237-8.727-1.237-7.08,0-9.1-7.917-13.514-12.74,0-2.147-3.64,2.867-4.059.191Z" transform="translate(-69.484 -109.888)" opacity="0.1"/>
  <path id="Path_7567" data-name="Path 7567" d="M474,605.114a24.444,24.444,0,0,0,.737,5.988l.082.309a24.452,24.452,0,1,0-.819-6.288Z" transform="translate(-68.949 -106.36)" fill="#fdc2cc"/>
  <path id="Path_7568" data-name="Path 7568" d="M453.53,661.451a91.9,91.9,0,0,1,8.636-12.631,98.268,98.268,0,0,0-7.089,10.7c-18.155,31.286-13.514,84.958-13.514,84.958s13.513.773,13.131,13.514c-.346,11.439,42.233,14.787,50.96,15.352v2.02s-52.908-2.73-52.525-15.47S440,746.381,440,746.381,435.4,692.737,453.53,661.451Z" transform="translate(-65.842 -112.492)" opacity="0.1"/>
  <path id="Path_7569" data-name="Path 7569" d="M476.495,576.517c2.548-1.538,5.769-2.439,8.518-1.429a34.931,34.931,0,0,1,6.37-.583,10.232,10.232,0,0,0,3.476-.337,18.7,18.7,0,0,0,2.421-1.283c3.594-1.911,7.58-1.192,11.375-.7,3.085.4,8.3-.719,10.083,2.812a2.5,2.5,0,0,1-.41,3c-.346.255-.792.355-1.056.719a2.156,2.156,0,0,0-.118,1.656l2.548,12.74a9.573,9.573,0,0,1-7.58.346,21.289,21.289,0,0,1-2-.91c-1.9,1.238-3.867.3-6.17.792a7.032,7.032,0,0,0-3.476,2.275,20.237,20.237,0,0,0-5.16,10.274c-.255,1.447-.591,3.231-1.993,3.64a9.148,9.148,0,0,1-1.611.164c-2.53.328-3.567,3.322-5.2,5.3-1.984,2.4-5.542,3.968-5.76,7.08a4.732,4.732,0,0,1-.328,2.357,1.983,1.983,0,0,1-1.238.764,4.177,4.177,0,0,1-4.059-1.82,12.275,12.275,0,0,1-1.72-4.359l-4.7-18.655a37.584,37.584,0,0,1-1.228-6.37A19.2,19.2,0,0,1,476.495,576.517Z" transform="translate(-68.358 -105.545)" opacity="0.1"/>
  <path id="Path_7570" data-name="Path 7570" d="M476.1,576.137c2.548-1.538,5.77-2.439,8.518-1.429a34.92,34.92,0,0,1,6.37-.583,10.235,10.235,0,0,0,3.476-.337,18.694,18.694,0,0,0,2.421-1.283c3.595-1.911,7.58-1.192,11.375-.7,3.085.4,8.3-.719,10.083,2.812a2.5,2.5,0,0,1-.41,3c-.346.255-.792.355-1.056.719a2.156,2.156,0,0,0-.118,1.656l2.548,12.74a9.574,9.574,0,0,1-7.58.346,21.354,21.354,0,0,1-2-.91c-1.9,1.238-3.867.3-6.17.792a7.036,7.036,0,0,0-3.476,2.275,20.239,20.239,0,0,0-5.16,10.274c-.255,1.447-.592,3.231-1.993,3.64a9.171,9.171,0,0,1-1.611.164c-2.53.328-3.567,3.322-5.2,5.3-1.984,2.4-5.542,3.968-5.76,7.08a4.732,4.732,0,0,1-.328,2.357,1.984,1.984,0,0,1-1.238.765,4.177,4.177,0,0,1-4.059-1.82,12.277,12.277,0,0,1-1.72-4.359l-4.7-18.655a37.572,37.572,0,0,1-1.229-6.37,19.2,19.2,0,0,1,9.018-17.472Z" transform="translate(-68.323 -105.511)" fill="#865a61"/>
</svg>
