<svg xmlns="http://www.w3.org/2000/svg" width="68.067" height="68.067" viewBox="0 0 68.067 68.067">
  <g id="Group_1530" data-name="Group 1530" transform="translate(-235 -4240)">
    <g id="Group_1487" data-name="Group 1487" transform="translate(8 26.777)">
      <circle id="Ellipse_217" data-name="Ellipse 217" cx="28.078" cy="28.078" r="28.078" transform="translate(227 4213.223)" fill="#e8e8f3"/>
      <g id="baseline-business_center-24px" transform="translate(236.359 4222.583)">
        <path id="Path_7323" data-name="Path 7323" d="M0,0H58.708V58.708H0ZM24.462,12.231h9.785v4.892H24.462Zm0,0h9.785v4.892H24.462Z" fill="none"/>
        <path id="Path_7324" data-name="Path 7324" d="M21.569,34.8V32.354H4.471l-.024,9.785a4.875,4.875,0,0,0,4.892,4.892H43.585a4.875,4.875,0,0,0,4.892-4.892V32.354H31.354V34.8ZM46.031,12.785H36.222V7.892L31.329,3H21.545L16.652,7.892v4.892H6.892A4.907,4.907,0,0,0,2,17.677v7.338a4.875,4.875,0,0,0,4.892,4.892H21.569V25.015h9.785v4.892H46.031a4.907,4.907,0,0,0,4.892-4.892V17.677A4.907,4.907,0,0,0,46.031,12.785Zm-14.677,0H21.569V7.892h9.785Z" transform="translate(2.892 4.338)" fill="#6361d0"/>
      </g>
    </g>
  </g>
</svg>
