<svg xmlns="http://www.w3.org/2000/svg" xmlns:xlink="http://www.w3.org/1999/xlink" width="1349.135" height="1018.52" viewBox="0 0 1349.135 1018.52">
  <defs>
    <linearGradient id="linear-gradient" x1="0.5" y1="1" x2="0.5" gradientUnits="objectBoundingBox">
      <stop offset="0" stop-color="gray" stop-opacity="0.251"/>
      <stop offset="0.54" stop-color="gray" stop-opacity="0.122"/>
      <stop offset="1" stop-color="gray" stop-opacity="0.102"/>
    </linearGradient>
    <linearGradient id="linear-gradient-2" x1="0.5" y1="1" x2="0.5" y2="0" xlink:href="#linear-gradient"/>
    <linearGradient id="linear-gradient-3" x1="3.499" y1="1.031" x2="3.499" y2="0.019" xlink:href="#linear-gradient"/>
  </defs>
  <g id="undraw_content_vbqo_1_" data-name="undraw_content_vbqo (1)" transform="translate(0 0.077)">
    <ellipse id="Ellipse_177" data-name="Ellipse 177" cx="118.151" cy="29.187" rx="118.151" ry="29.187" transform="translate(1090.092 955.207)" fill="#6361d0" opacity="0.1"/>
    <ellipse id="Ellipse_178" data-name="Ellipse 178" cx="118.151" cy="29.187" rx="118.151" ry="29.187" transform="translate(47.126 960.07)" fill="#6361d0" opacity="0.1"/>
    <path id="Path_7023" data-name="Path 7023" d="M761.187,291.592s-16.605-6.739-69.408,17.491S632.344,330.22,618.7,326.514s-21.244-4.579-35.949-24.784c0,0-10.339-56.036-20.335-64.723s-52.52,4.945-52.52,4.945-50.973,11.7-60.687-56.426c0,0,6.893-51.351-2.49-67.107,0,0,18.883,8.179,50.206-5.016s56.284,14.163,56.284,14.163,7.884,20.418,7.082,32.586,4.166,16.735,19.084,10.858c0,0,7.317-10.421-3.057-27.641s-17.774-30.06-14.871-43.432S572.66,68.072,599.4,58.748s63.071-11.07,80.514-18.329S701.575,28.44,701.575,28.44,690.823,39.227,716.139,84.8s9.17,65.36,9.17,65.36-13.454,32.055-72.819,29.505c0,0-57.205,2.089-25.965,26.354,0,0,19.981-4.072,49.841-13.561s51.422,29.682,56.768,56.945S761.187,291.592,761.187,291.592Z" transform="translate(46.951 -16.742)" fill="#6361d0"/>
    <path id="Path_7024" data-name="Path 7024" d="M654.882,57.763l.319-.083c2.29,8.7-23.286,43.668-45.132,71.438l-.259-.2C640.649,89.723,656.664,64.454,654.882,57.763Z" transform="translate(76.342 -11.473)" fill="#444053"/>
    <path id="Path_7025" data-name="Path 7025" d="M619.711,117.55l.13.354c-17.455,22.2-39.407,48.684-56.98,68.3-1.676,1.876-3.34,3.836-4.945,5.842l-.5-.413c1.6-2.006,3.281-3.977,4.957-5.9C579.938,166.175,602.268,139.738,619.711,117.55Z" transform="translate(66.901 -0.683)" fill="#444053"/>
    <path id="Path_7026" data-name="Path 7026" d="M563.984,179.88l.342.59C532.343,220.4,530.23,282.393,530.1,282.936l-6.75-7.789C523.491,274.6,531.777,220.078,563.984,179.88Z" transform="translate(60.761 10.549)" fill="#444053"/>
    <path id="Path_7027" data-name="Path 7027" d="M719.747,253.042s-37.767-19.6-67.095-12.569-95.6-24.855-95.6-24.855-28.1-11.424-33.742-24.43c0,0-19.273-20.37-20.371-30.922s-19.863-37.059-32.1-38.085" transform="translate(51.298 0.151)" fill="none" stroke="#444053" stroke-miterlimit="10" stroke-width="1"/>
    <path id="Path_7028" data-name="Path 7028" d="M679.711,253.28s-19.025-12.793-16.783-27.7" transform="translate(85.882 18.785)" fill="none" stroke="#444053" stroke-miterlimit="10" stroke-width="1"/>
    <path id="Path_7029" data-name="Path 7029" d="M656.993,270.468S629.848,260.6,627.11,221.95" transform="translate(79.46 18.131)" fill="none" stroke="#444053" stroke-miterlimit="10" stroke-width="1"/>
    <path id="Path_7030" data-name="Path 7030" d="M618.215,280.574s-25.965-21.539-17.337-59.164" transform="translate(74.416 18.034)" fill="none" stroke="#444053" stroke-miterlimit="10" stroke-width="1"/>
    <path id="Path_7031" data-name="Path 7031" d="M571.945,271.755s-17.29-36.244-1.912-59.825" transform="translate(68.025 16.325)" fill="none" stroke="#444053" stroke-miterlimit="10" stroke-width="1"/>
    <path id="Path_7032" data-name="Path 7032" d="M684.567,212.82s-19.651,6.232-15.437,16.523" transform="translate(86.926 16.486)" fill="none" stroke="#444053" stroke-miterlimit="10" stroke-width="1"/>
    <path id="Path_7033" data-name="Path 7033" d="M666.109,182.61s-26.283,8.344-26.909,45.521" transform="translate(81.639 11.041)" fill="none" stroke="#444053" stroke-miterlimit="10" stroke-width="1"/>
    <path id="Path_7034" data-name="Path 7034" d="M634.4,175.34s-23.911,29.505-22.152,56.355" transform="translate(76.764 9.731)" fill="none" stroke="#444053" stroke-miterlimit="10" stroke-width="1"/>
    <path id="Path_7035" data-name="Path 7035" d="M598.685,185.15s-23.758,22.707-20.725,35.347" transform="translate(70.554 11.499)" fill="none" stroke="#444053" stroke-miterlimit="10" stroke-width="1"/>
    <path id="Path_7036" data-name="Path 7036" d="M587.218,178.856s-22.282,4-25.4-3.316" transform="translate(67.694 9.767)" fill="none" stroke="#444053" stroke-miterlimit="10" stroke-width="1"/>
    <path id="Path_7037" data-name="Path 7037" d="M558.81,155.56s11.259,14.906,14.163,11.566" transform="translate(67.151 6.167)" fill="none" stroke="#444053" stroke-miterlimit="10" stroke-width="1"/>
    <path id="Path_7038" data-name="Path 7038" d="M663.877,149.533S607.723,153.581,595,136.68" transform="translate(73.673 2.764)" fill="none" stroke="#444053" stroke-miterlimit="10" stroke-width="1"/>
    <path id="Path_7039" data-name="Path 7039" d="M548.8,91.91s26.354,56.568,45.485,63.731" transform="translate(65.347 -5.304)" fill="none" stroke="#444053" stroke-miterlimit="10" stroke-width="1"/>
    <path id="Path_7040" data-name="Path 7040" d="M572.22,69.08s16.193,52.036,36.244,68.275" transform="translate(69.568 -9.418)" fill="none" stroke="#444053" stroke-miterlimit="10" stroke-width="1"/>
    <path id="Path_7041" data-name="Path 7041" d="M683.828,111.222s-42.712,18.329-68.358-.212" transform="translate(77.362 -1.862)" fill="none" stroke="#444053" stroke-miterlimit="10" stroke-width="0.75"/>
    <path id="Path_7042" data-name="Path 7042" d="M604.46,59.68s9.76,38.251,22.908,47.492" transform="translate(75.378 -11.112)" fill="none" stroke="#444053" stroke-miterlimit="10" stroke-width="0.75"/>
    <path id="Path_7043" data-name="Path 7043" d="M672.953,74.89s-23.994,9.088-32.963,2.124" transform="translate(81.781 -8.371)" fill="none" stroke="#444053" stroke-miterlimit="10" stroke-width="0.75"/>
    <path id="Path_7044" data-name="Path 7044" d="M542.776,166.15s0,33.341-9.076,35.713" transform="translate(62.626 8.075)" fill="none" stroke="#444053" stroke-miterlimit="10" stroke-width="1"/>
    <path id="Path_7045" data-name="Path 7045" d="M478.52,205.118s36.044,3.092,52.673-15.508" transform="translate(52.682 12.303)" fill="none" stroke="#444053" stroke-miterlimit="10" stroke-width="1"/>
    <path id="Path_7046" data-name="Path 7046" d="M538.516,132.78s-8.722,33.813-32.786,42.924" transform="translate(57.586 2.061)" fill="none" stroke="#444053" stroke-miterlimit="10" stroke-width="1"/>
    <path id="Path_7047" data-name="Path 7047" d="M460.2,174.664s25.516,8.875,47.456-13.714" transform="translate(49.38 7.138)" fill="none" stroke="#444053" stroke-miterlimit="10" stroke-width="1"/>
    <path id="Path_7048" data-name="Path 7048" d="M512.222,108.15s-2.361,28.715-18.022,42.157" transform="translate(55.508 -2.377)" fill="none" stroke="#444053" stroke-miterlimit="10" stroke-width="1"/>
    <path id="Path_7049" data-name="Path 7049" d="M461,136.521s21.173.154,26.13-6.751" transform="translate(49.524 1.519)" fill="none" stroke="#444053" stroke-miterlimit="10" stroke-width="1"/>
    <path id="Path_7050" data-name="Path 7050" d="M725.742,180.786c-84.267,14.056-168.664,6.491-249.91-3.989s-162.3-23.864-246.747-21.244c-54.29,1.7-114.681,12.369-152.247,45.108C40.7,232.161,35.53,275.226,35.872,314.173c.26,29.293,3.01,59.636,22.849,83.193,13.773,16.346,34.828,28.219,50.749,43.337,55.47,52.614,39.738,134.119,4.615,203.138-16.523,32.385-36.716,64.168-47.8,97.368s-12.18,68.96,8.686,96.447c20.7,27.251,60.3,42.948,101.5,51.363,83.665,17.078,176.524,8.261,266.339-4,198.795-27.275,395.371-71.391,591.381-115.425,72.548-16.287,145.414-32.668,215.212-56.65,38.758-13.289,78.189-30.013,103.009-56.461,31.5-33.577,31.783-79.924.661-108.037-52.213-47.208-169.018-38.333-209.606-92.057-22.353-29.505-13.254-69.184,3.824-104.059,36.587-74.825,108.285-148.294,97.958-223.485C1238.167,77.2,1188.149,33.956,1121.7,22c-69.633-12.522-158.633,8.391-198.016,59.742C883.135,134.758,800.142,168.394,725.742,180.786Z" transform="translate(-27.092 -18.54)" fill="#6361d0" opacity="0.1"/>
    <rect id="Rectangle_1551" data-name="Rectangle 1551" width="1121.591" height="635.344" rx="12.49" transform="translate(90.038 177.176)" fill="url(#linear-gradient)"/>
    <rect id="Rectangle_1552" data-name="Rectangle 1552" width="1118.157" height="624.297" rx="12.49" transform="translate(91.821 186.11)" fill="#fff"/>
    <rect id="Rectangle_1553" data-name="Rectangle 1553" width="1118.157" height="624.297" rx="12.49" transform="translate(91.821 186.11)" fill="#fff"/>
    <rect id="Rectangle_1554" data-name="Rectangle 1554" width="1118.157" height="624.297" rx="12.49" transform="translate(91.821 186.11)" fill="#5a5773" opacity="0.04"/>
    <path id="Path_7051" data-name="Path 7051" d="M1218.717,170.15H111.867a5.677,5.677,0,0,0-5.677,5.677v24.006H1224.347V175.874A5.677,5.677,0,0,0,1218.717,170.15Z" transform="translate(-14.417 8.796)" fill="#5a5773"/>
    <g id="buttons" transform="translate(106.479 186.11)">
      <circle id="Ellipse_179" data-name="Ellipse 179" cx="7.671" cy="7.671" r="7.671" fill="#fff"/>
      <circle id="Ellipse_180" data-name="Ellipse 180" cx="7.671" cy="7.671" r="7.671" transform="translate(20.654)" fill="#fff"/>
      <circle id="Ellipse_181" data-name="Ellipse 181" cx="7.671" cy="7.671" r="7.671" transform="translate(41.307)" fill="#fff"/>
    </g>
    <rect id="Rectangle_1555" data-name="Rectangle 1555" width="932.368" height="463.564" rx="10.19" transform="translate(166.67 346.831)" fill="#fff"/>
    <rect id="Rectangle_1556" data-name="Rectangle 1556" width="268.191" height="28.148" rx="3.86" transform="translate(127.132 240.128)" fill="#5a5773" opacity="0.2"/>
    <rect id="Rectangle_1557" data-name="Rectangle 1557" width="268.191" height="28.148" rx="3.86" transform="translate(632.854 400.637)" fill="#6361d0" opacity="0.2"/>
    <rect id="Rectangle_1558" data-name="Rectangle 1558" width="418.775" height="28.148" rx="3.86" transform="translate(632.854 479.452)" fill="#6361d0" opacity="0.2"/>
    <rect id="Rectangle_1559" data-name="Rectangle 1559" width="418.775" height="28.148" rx="3.86" transform="translate(632.854 525.48)" fill="#6361d0" opacity="0.2"/>
    <rect id="Rectangle_1560" data-name="Rectangle 1560" width="418.775" height="28.148" rx="3.86" transform="translate(632.854 571.508)" fill="#6361d0" opacity="0.2"/>
    <rect id="Rectangle_1561" data-name="Rectangle 1561" width="418.775" height="28.148" rx="3.86" transform="translate(632.854 617.537)" fill="#6361d0" opacity="0.2"/>
    <rect id="Rectangle_1562" data-name="Rectangle 1562" width="834.41" height="28.148" rx="3.86" transform="translate(217.218 668.286)" fill="#6361d0" opacity="0.2"/>
    <rect id="Rectangle_1563" data-name="Rectangle 1563" width="834.41" height="28.148" rx="3.86" transform="translate(217.218 714.314)" fill="#6361d0" opacity="0.2"/>
    <rect id="Rectangle_1564" data-name="Rectangle 1564" width="834.41" height="28.148" rx="3.86" transform="translate(217.218 760.342)" fill="#6361d0" opacity="0.2"/>
    <path id="Path_7052" data-name="Path 7052" d="M760.669,678.54s7,9.146-3.234,22.967-18.659,25.481-15.248,34.1c0,0,15.425-25.658,27.995-25.964S774.49,693.965,760.669,678.54Z" transform="translate(100.059 100.414)" fill="#6361d0"/>
    <path id="Path_7053" data-name="Path 7053" d="M760.609,678.54a11.336,11.336,0,0,1,1.428,2.868c12.262,14.4,18.789,27.841,7.011,28.172-10.976.318-24.148,19.946-27.3,24.891a9.079,9.079,0,0,0,.378,1.18s15.425-25.658,27.994-25.965S774.43,693.965,760.609,678.54Z" transform="translate(100.12 100.414)" opacity="0.1"/>
    <path id="Path_7054" data-name="Path 7054" d="M768.995,688.734c0,3.222-.354,5.83-.8,5.83s-.8-2.608-.8-5.83.449-1.7.9-1.7S768.995,685.512,768.995,688.734Z" transform="translate(104.74 101.88)" fill="#ffd037"/>
    <path id="Path_7055" data-name="Path 7055" d="M773.384,692.027c-2.833,1.534-5.3,2.467-5.512,2.077s1.912-1.959,4.721-3.541,1.711-.425,1.923,0S776.2,690.481,773.384,692.027Z" transform="translate(104.824 102.435)" fill="#ffd037"/>
    <path id="Path_7056" data-name="Path 7056" d="M728.808,678.54s-7,9.146,3.222,22.967,18.671,25.481,15.26,34.1c0,0-15.437-25.658-27.995-25.964S714.988,693.965,728.808,678.54Z" transform="translate(94.957 100.414)" fill="#6361d0"/>
    <path id="Path_7057" data-name="Path 7057" d="M728.808,678.54a11.074,11.074,0,0,0-1.44,2.868c-12.251,14.4-18.777,27.841-7,28.172,10.976.318,24.135,19.946,27.287,24.891a9.088,9.088,0,0,1-.366,1.18s-15.437-25.658-27.995-25.965S714.988,693.965,728.808,678.54Z" transform="translate(94.957 100.414)" opacity="0.1"/>
    <path id="Path_7058" data-name="Path 7058" d="M715.38,688.732c0,3.222.366,5.83.814,5.83s.8-2.608.8-5.83-.448-1.676-.885-1.676S715.38,685.511,715.38,688.732Z" transform="translate(95.367 101.882)" fill="#ffd037"/>
    <path id="Path_7059" data-name="Path 7059" d="M711.861,692.027c2.833,1.534,5.3,2.467,5.512,2.077s-1.912-1.959-4.721-3.541-1.711-.425-1.924,0S709.029,690.481,711.861,692.027Z" transform="translate(94.424 102.435)" fill="#ffd037"/>
    <ellipse id="Ellipse_182" data-name="Ellipse 182" cx="73.173" cy="11.224" rx="73.173" ry="11.224" transform="translate(769.074 883.568)" fill="#6361d0" opacity="0.1"/>
    <path id="Path_7060" data-name="Path 7060" d="M785.509,717.087l-.354,2.856-.484,4.036-.212,1.688-.484,4.036-.212,1.688-.5,4.024-5.594,45.91c-.508,4.1-7.2,7.294-15.343,7.294H733.272c-8.085,0-14.764-3.2-15.26-7.294l-5.618-45.875-.484-4.024-.213-1.688-.5-4.036-.2-1.688-.5-4.036-.354-2.856c-.271-2.361,3.352-4.273,7.919-4.273h59.506C782.145,712.815,785.768,714.762,785.509,717.087Z" transform="translate(94.423 106.597)" fill="#65617d"/>
    <path id="Path_7061" data-name="Path 7061" d="M756.645,700.32l-.484,4.036H682.516l-.5-4.036Z" transform="translate(122.909 126.221)" fill="#9d9cb5"/>
    <path id="Path_7062" data-name="Path 7062" d="M755.842,705.16l-.484,4.036H683.105l-.5-4.036Z" transform="translate(123.015 127.093)" fill="#9d9cb5"/>
    <path id="Path_7063" data-name="Path 7063" d="M755.037,710.01l-.5,4.036H683.693l-.483-4.036Z" transform="translate(123.123 127.967)" fill="#9d9cb5"/>
    <rect id="Rectangle_1565" data-name="Rectangle 1565" width="356.424" height="261.464" rx="8.5" transform="translate(217.218 385.023)" fill="#6361d0" opacity="0.2"/>
    <path id="Path_7064" data-name="Path 7064" d="M1187.774,613.156c.448-1.18-2.88-7.931-2.88-8.261s-3.434-4.072-3.434-6.161-4.544-6.609-4.544-6.609-6.1-2.526-6.763-8.037-7.306-5.606-7.317-5.606h0v-1.263a17.373,17.373,0,0,0-.814-6.432,6.478,6.478,0,0,0-3.765-3.2s-.672-4.3-1.994-5.618a6.315,6.315,0,0,1-1.558-5.9c.672-2.077-.885-7.365-4.1-8.143s-6.88-1.983-6.88-1.983l-.885.154-.437-.154a18.411,18.411,0,0,1-2.361.3,2.917,2.917,0,0,1-1.876-.614c-1.109-1.18-10.091-3.541-11.8-3.541s-6.432-2.207-6.432-2.207-3.329-2.526-4.721-3.635-3.812-5.134-4.178-5.748v-.083h0a20.366,20.366,0,0,1-1-2.892h0a26.008,26.008,0,0,0,4.119-5.677c.118-.212.224-.425.331-.649a2.488,2.488,0,0,0,.72-.106l.295-.118a4.793,4.793,0,0,0,2.361-2.809h0a7.6,7.6,0,0,0,.212-.732v-.248l.106-.5a2.284,2.284,0,0,1,0-.283l.071-.5v-.283a1.629,1.629,0,0,1,.083-.626h0a21.981,21.981,0,0,1,.341-2.36h0c.661-2.986,2.466-5.512,3.729-8.261h0c.177-.389.354-.791.507-1.18s.307-.885.437-1.334l.106-.413c.083-.33.153-.661.224-.991s0-.3.083-.448q.105-.673.177-1.381a17.057,17.057,0,0,0-1.18-7.73c-.826-2.066-2.065-3.93-2.9-6-1.275-3.128-1.617-6.68-3.163-9.666a11.508,11.508,0,0,0-13.809-5.618c-2.36.9-4.509,2.632-6.952,3.411-3.281,1.051-6.774.26-10.173-.2s-7.082-.519-9.867,1.7c-3.139,2.549-3.989,7.341-6.939,10.138-1.18,1.18-2.773,1.924-4.083,3.01a6.668,6.668,0,0,0-2.053,2.809l-.071.224a2.108,2.108,0,0,0-.071.295,2.8,2.8,0,0,0-.059.331,1.321,1.321,0,0,0,0,.224,2.487,2.487,0,0,0,0,.59h0a4.437,4.437,0,0,0,.083.555v.153a1.378,1.378,0,0,0,.142.46c.059.153,0,.059,0,.083s.13.342.2.507l.105.248a.2.2,0,0,0,.095.2,14.7,14.7,0,0,1,1.027,2.561,2.847,2.847,0,0,1-.106,1.688,4.989,4.989,0,0,1-1.181,1.617,22.826,22.826,0,0,0-5,8.014q-.2.519-.354,1.027h.154a6.722,6.722,0,0,0,.967.2,4.732,4.732,0,0,0,.555,0,8.643,8.643,0,0,0,2.266-.166l.566-.141a12.838,12.838,0,0,0,2.243-.814v1.05a26.177,26.177,0,0,0,14.552,23.416,4.882,4.882,0,0,0,.094.708l.071.6-.295-.283s-1.995-.991-3.883,1.865a12.536,12.536,0,0,1-5.429,4.19s-20.182,3.187-20.961,5.83l-9.441.554s-3.328.437-3.659,7.376-2.1,7.589-2.1,7.589-3.883,6.833-3.541,10.35a5.77,5.77,0,0,1-3,5.287l-.437,6.279s-3.659-.554-4.721,3.741a14.929,14.929,0,0,1-2.761,6.267s-6.1,5.075-6.432,9.359l-3.777,2.361s-8.757-1.983-10.752-5.5c0,0-.236-.236-.614-.578v-.083h0c-1.31-1.18-4.083-3.824-3.658-3.222a2.655,2.655,0,0,1,.177,1.771l-.649-.72-1.747-1.935s-14.163-13.266-22.424-14.316h0c-.106-.212-.649-2.36-2.065-1a11.566,11.566,0,0,0-.083,16.96l13.266,12.38.342.248,2.844,3.658a33.18,33.18,0,0,0-1.18,3.281v.106l-.212.637a1.406,1.406,0,0,0-.059.212c-.071.213-.13.413-.189.614l-.106.354v.212c-.319,1.109-.52,1.959-.614,2.431l-.744-.236.72.319v.342l.685.3c3.883,1.688,23.262,10.2,24.253,11.483s8.427,5.618,15.083,2.089,8.084-8.911,8.084-8.911,6.433-8.922,6.657-10.244,5.2-2.856,5.2-2.856.448,14.741-2.1,20.146-7.317,29.281-7.317,29.281a3.362,3.362,0,0,1,.944,0l-.284,1.381a3.207,3.207,0,0,1,1.18,0c-.354,2.714-2.36,15.343-2.36,15.343s-.661,5.724-1.77,7.707-1.18,12.333-1.18,12.333l-1.783,7.483s.236.519.673,1.286h0a19.157,19.157,0,0,0,5.1,6.6,13.078,13.078,0,0,1-.9,3.423,12.038,12.038,0,0,0-.886,5.287s-1.876,8.474-1.664,10.893-1.18,8.367-1.18,8.367l-2,19.155s-1.322,16.617-.661,21.137a40.557,40.557,0,0,1-.449,10.622s1.334,13.1,1,14.528-1.995,7.6-1,11.012.449,12.77.449,12.77.661,12.333,1.44,16.3a27.906,27.906,0,0,1-.224,9.029s-.779,8.474-1.109,8.474-3.21,5.83,2.655,11.554,2.23,4.839,2.23,4.839-4.721-2.361-4.107,2.431c.519,4.5,1.251,3.328,1.322,3.2l-1.109,3.623.779.106-.637.767a16.591,16.591,0,0,1-2.242,2.36,4.8,4.8,0,0,0-1.44,3.187s-8.2,8.922-15.851,13.431c-4.024,2.36-7.494,4.378-9,6.054-1.369,1.487-1.18,2.691,1.688,3.635,5.984,1.983,16.523,2.974,24.053.437a28.136,28.136,0,0,0,11.8-7.589s4.721-2.431,9.442-1.546,13.974-5.169,13.974-5.169l-.177-1.558-.484-4.508a3.541,3.541,0,0,1-.779-2.738,14.172,14.172,0,0,0-.389-3.966c-.083-.437-.166-.873-.248-1.274l.85-.165s-1.1-5.606.9-6.716,1.428-15.52,1.428-15.52-2.538-3.3-3.872-3.848-.118-7.388.118-8.261,1.995-17.951,1.995-17.951-.673-5.382.213-7.695-1.11-11.236-1.11-11.236a2.054,2.054,0,0,1,.555-2.419c1.18-1.322.779-13.1.779-13.1s-.106-5.9-.106-7.494,1.322-7.152,2.549-9.017.437-7.707.437-7.707h0l.071-.437a1.636,1.636,0,0,1,.095-.626l.094-.59a85.694,85.694,0,0,1,2.172-9.56c1.439-4.615,3.1-12.758,3.1-12.758l10.3-26.885.118-.319s4.721,8.8,4.721,16.959c0,0,1.18,9.8.9,12.44s.767,15.071.767,15.071,1.44,17.833,1.44,18.6,1.782,14.528,2.892,16.629-1.109,8.474-1.782,9.135.224,16.842.224,16.842-1.664,12.77-1.995,15.414-1.664,12.77-.555,16.735.661,4.508.661,4.508,4,4.084,1.664,4.414a6.1,6.1,0,0,0-4.437,8.026,105.857,105.857,0,0,0,4.886,11.8l1.841-.389v1.31l.13,6.562s.779,6.267.331,7.707c-.319,1.039-.767,5.972-.979,8.556-.083.944-.13,1.57-.13,1.57s0,5.83,12.31,4.072,14.517-6.609,14.517-6.609l.094-.6c.177-1.11.578-3.47.909-4.792.437-1.759-3.541-9.69-3.541-9.69s-.661-5.394-1.77-6.6a5.9,5.9,0,0,1-.9-2.361c-.094-.448-.189-.909-.259-1.357a8.011,8.011,0,0,1,.826.141s-.673-3.847,1.889-5.063,1.876-3.741,1.546-4.839.991-7.27.991-7.27a3.54,3.54,0,0,1,.885-3.541c1.558-1.546,2.773-12.333,2.773-12.333l.224-41.615s.779-7.376-.106-10.351-1.771-8.7-.555-10.244.106-8.686.106-8.686,0-15.083,1.664-18.884,1.109-27.416,1.109-27.416l.437-15.52s3.624-3.423,2.774-21.244c3.859-.248,8.261-.389,8.875.154,1.18.991,9.088,6.054,13.75,2.856a61.752,61.752,0,0,0,5.535-4.284l-1.959-33.046c1.181,1.841,1.959,3.057,1.959,3.057,0-4.615,13.088-19.592,13.088-19.592s12.192-15.744,14.847-17.609,7.872-11.8,7.872-11.8a47.872,47.872,0,0,1,2.667-5.5C1191.327,619.647,1187.338,614.36,1187.774,613.156Zm-28.6,11.554c-3.328.331-10.315,7.931-10.421,9.583a6.8,6.8,0,0,1-1.475,2.95c0-.661-.107-1.334-.166-2.018-.779-9.737-1.629-21.586-1.181-22.731.662-1.983.437-10.905.437-10.905h0l.13-.177c2.23,6.916,9.17,15.059,9.17,15.059s1.18,3.541,2.667,3.624S1159.178,624.71,1159.178,624.71Z" transform="translate(140.024 62.66)" fill="url(#linear-gradient-2)"/>
    <path id="Path_7065" data-name="Path 7065" d="M978.65,602.054s4.048-21.244,17.042-21.244l9.513,19.556-6.338,4.367S985.094,605.11,978.65,602.054Z" transform="translate(142.812 82.802)" fill="#65617d"/>
    <path id="Path_7066" data-name="Path 7066" d="M1005.205,600.313l-6.338,4.367s-9.689.306-16.617-1.393a19.188,19.188,0,0,1-3.6-1.18l.071-.342v-.071a47.2,47.2,0,0,1,2.455-7.79c.4-.955.85-1.935,1.345-2.915,1.9-3.659,4.58-7.258,8.262-9.029a11.211,11.211,0,0,1,4.331-1.18h.579l.212.437,3.21,6.609Z" transform="translate(142.812 82.797)" opacity="0.1"/>
    <path id="Path_7067" data-name="Path 7067" d="M1094.129,681.2s13.656-1.31,14.859-.319,8.958,6.007,13.538,2.833,1.534-14.163,1.534-14.635-.437-16.062-.437-16.062l-8.189-11.035-10.269-19.332-20.984-2.077.543,30.686-.106,15.732Z" transform="translate(161.829 89.967)" fill="#65617d"/>
    <path id="Path_7068" data-name="Path 7068" d="M1094.129,681.2s13.656-1.31,14.859-.319,8.958,6.007,13.538,2.833,1.534-14.163,1.534-14.635-.437-16.062-.437-16.062l-8.189-11.035-10.269-19.332-20.984-2.077.543,30.686-.106,15.732Z" transform="translate(161.829 89.967)" opacity="0.1"/>
    <path id="Path_7069" data-name="Path 7069" d="M995.542,583.371s-1.1,13.325-9.442,13.549c0,0-2.36-1.417-5.523-3.788-7.293-5.465-18.883-15.957-15.673-25.717,4.591-13.986,26.873,11.8,26.873,11.8l1.723,1.924Z" transform="translate(140.236 79.639)" fill="#fbbebe"/>
    <path id="Path_7070" data-name="Path 7070" d="M993.173,580.648s-1.1,13.324-9.441,13.549c0,0-2.361-1.417-5.523-3.789l-.708-.909a10.871,10.871,0,0,0,4.556,1.18,6.149,6.149,0,0,0,5.9-3.741,47.283,47.283,0,0,0,2.36-5.3,16.522,16.522,0,0,0,.838-3.269Z" transform="translate(142.605 82.362)" opacity="0.1"/>
    <path id="Path_7071" data-name="Path 7071" d="M989.454,604.959l-1.865-2.361-6.291-8.1-3.2-4.142a10.775,10.775,0,0,0,4.544,1.18,6.113,6.113,0,0,0,5.9-3.741,46.311,46.311,0,0,0,2.3-5.287c1.038-2.951,1.014-4.461.649-4.98s2.36,1.983,3.612,3.21h0l.6.566.224.448,3.293,6.373a1.677,1.677,0,0,1,0,.271C999.462,590.407,1000.524,603.141,989.454,604.959Z" transform="translate(142.712 82.198)" fill="#e7effd"/>
    <path id="Path_7072" data-name="Path 7072" d="M1052.466,841.677s-9.182,6.019-13.773,5.134a16.525,16.525,0,0,0-9.289,1.534,27.564,27.564,0,0,1-11.578,7.542c-7.436,2.514-17.81,1.522-23.71-.437-2.785-.932-3.01-2.136-1.664-3.611s4.91-3.647,8.875-6.007c7.542-4.485,15.626-13.325,15.626-13.325a4.721,4.721,0,0,1,1.417-3.175,16.274,16.274,0,0,0,2.207-2.36c1.181-1.381,2.278-2.833,2.278-2.833l27.039,1.015s.46,1.948.826,3.942a14.247,14.247,0,0,1,.377,3.93,3.541,3.541,0,0,0,.768,2.727l.483,4.461Z" transform="translate(145.155 126.654)" fill="#65617d"/>
    <path id="Path_7073" data-name="Path 7073" d="M1095.186,848.928c-.318,1.31-.72,3.647-.9,4.721a2,2,0,0,1-.082.6s-2.184,4.8-14.316,6.551-12.121-4.036-12.121-4.036l.118-1.57c.212-2.549.649-7.447.967-8.486.438-1.416-.318-7.648-.318-7.648l-.13-6.515-.094-4.52,20.063-2.077a38.6,38.6,0,0,0,.649,4.473,5.751,5.751,0,0,0,.885,2.36c1.085,1.18,1.747,6.55,1.747,6.55S1095.658,847.182,1095.186,848.928Z" transform="translate(158.873 126.979)" fill="#65617d"/>
    <path id="Path_7074" data-name="Path 7074" d="M1045.493,825.135s.46,1.947.826,3.942c-2.916.531-15.662,2.738-18.884,1.18-3.611-1.747-11.365-2.726-11.365-2.726l.13-.449c1.18-1.381,2.277-2.833,2.277-2.833Z" transform="translate(149.555 126.673)" opacity="0.1"/>
    <path id="Path_7075" data-name="Path 7075" d="M1089.008,830.453c-5.087-.862-16.263,1.18-20.654,2.124l-.094-4.52,20.063-2.077A38.645,38.645,0,0,0,1089.008,830.453Z" transform="translate(158.961 126.985)" opacity="0.1"/>
    <path id="Path_7076" data-name="Path 7076" d="M1110.085,699.564l-.424,15.343s.543,23.486-1.1,27.145-1.641,18.683-1.641,18.683,1.1,7.081-.106,8.627-.331,7.211.542,10.162.106,10.268.106,10.268l-.212,41.307s-1.18,10.7-2.738,12.239a3.6,3.6,0,0,0-.873,3.541s-1.31,6.114-.979,7.211.979,3.6-1.522,4.8-1.865,5.027-1.865,5.027c-6.008-1.428-23.05,2.36-23.05,2.36a104.567,104.567,0,0,1-4.815-11.7,6.055,6.055,0,0,1,4.379-7.979c2.289-.319-1.641-4.367-1.641-4.367s.437-.543-.662-4.485.224-13.985.555-16.605,1.96-15.343,1.96-15.343-.875-16.063-.212-16.712,2.832-7,1.746-9.064-2.844-15.732-2.844-16.523-1.416-18.47-1.416-18.47-1.311-12.345-.979-14.965-.886-12.345-.886-12.345c0-8.085-4.72-16.83-4.72-16.83l-.118.319-10.15,26.862s-1.64,8.084-3.057,12.676a83.256,83.256,0,0,0-2.136,9.442l-.094.59-.094.614-.071.437h0s.755,5.783-.449,7.648a27.279,27.279,0,0,0-2.5,8.958c0,1.534.106,7.436.106,7.436s.437,11.684-.767,12.982a2.043,2.043,0,0,0-.543,2.361s1.959,8.852,1.086,11.141-.213,7.648-.213,7.648-1.746,16.936-1.971,17.81-1.416,7.647-.106,8.19,3.824,3.824,3.824,3.824.542,14.316-1.417,15.4-.885,6.668-.885,6.668-15.838,3.057-19.438,1.31-11.365-2.726-11.365-2.726l1.086-3.541c-.071.13-.791,1.3-1.3-3.174-.555-4.721,4.036-2.361,4.036-2.361s3.612.874-2.183-4.8-2.951-11.471-2.62-11.471,1.086-8.415,1.086-8.415a27.828,27.828,0,0,0,.224-8.958c-.768-3.93-1.416-16.169-1.416-16.169s.543-9.288-.449-12.675.661-9.442.992-10.929-.992-14.422-.992-14.422a40.452,40.452,0,0,0,.449-10.622c-.662-4.485.648-20.984.648-20.984l1.971-19s1.417-5.9,1.18-8.261,1.641-10.811,1.641-10.811a11.993,11.993,0,0,1,.874-5.252c1.1-2.183,1.534-9.441,1.534-9.441l10.492-24.029,5.134-21.244,69.373-.661s.248,1.841.673,5.181,1.016,8.261,1.676,14.387c.6,5.547,1.262,12.073,1.912,19.332C1114.464,695.41,1110.085,699.564,1110.085,699.564Z" transform="translate(149.248 92.254)" fill="#3f3d56"/>
    <path id="Path_7077" data-name="Path 7077" d="M1095.628,530.068l-16.157,17.29s-20.749-8.261-18.564-11.153c.838-1.1.708-4.567.223-8.391-.767-6.054-2.359-12.982-2.359-12.982s36.268-5.9,33.2.212a10.054,10.054,0,0,0-.224,7.259A27.48,27.48,0,0,0,1095.628,530.068Z" transform="translate(157.25 70.45)" fill="#fbbebe"/>
    <path id="Path_7078" data-name="Path 7078" d="M1091.922,514.993c-1.109,2.242-1.641,2.455-.944,4.862-4.72,5.087-10.776,10.622-18.281,10.622a25.867,25.867,0,0,1-11.566-2.714c-.767-6.054-2.36-12.982-2.36-12.982S1094.991,508.88,1091.922,514.993Z" transform="translate(157.25 70.441)" opacity="0.1"/>
    <path id="Path_7079" data-name="Path 7079" d="M1100.551,509.129a26.006,26.006,0,1,1-52.011,0v-.378a26,26,0,0,1,52,.378Z" transform="translate(155.407 65.165)" fill="#fbbebe"/>
    <path id="Path_7080" data-name="Path 7080" d="M1106.969,652.673c-3.447,0-14.918.118-27.735.33h-.153l-4.237.071h-.13c-15.2.236-30.178-2.726-36.2-2.172-12.782,1.18,4.591-11.8,4.591-11.8a107.185,107.185,0,0,0,29.115,2.939l3.683-.189c11.613-.661,23.286-1.747,29.387-3.541C1105.718,641.662,1106.308,646.571,1106.969,652.673Z" transform="translate(152.755 93.164)" opacity="0.1"/>
    <path id="Path_7081" data-name="Path 7081" d="M1106.969,652.111c-3.447,0-14.918.13-27.735.331h-.153l-4.237.071h-.13c-15.2.248-30.178-2.727-36.2-2.16-12.782,1.18,4.591-11.8,4.591-11.8a106.644,106.644,0,0,0,29.115,2.939l3.683-.189c11.613-.649,23.286-1.747,29.387-3.541C1105.718,641.1,1106.308,646.01,1106.969,652.111Z" transform="translate(152.755 93.065)" fill="#5f5d7e"/>
    <path id="Path_7082" data-name="Path 7082" d="M1070.083,534.049l-20.063,9.442L1034.5,663.448s9.182-4.155,14.422-1.534,21.409.224,21.409.224,11.8-.661,13.549.661,22.294-5.465,22.294-5.465,3.718-8.261.874-9.619.874-14.162.874-14.162l-1.747-86.533-3.541-11.141-9.441-5.688-9.607,7.648-4.591.661Z" transform="translate(152.877 73.68)" opacity="0.1"/>
    <path id="Path_7083" data-name="Path 7083" d="M1070.088,532.937l-20.063,9.442L1034.47,662.348s9.182-4.155,14.422-1.534,21.409.224,21.409.224,11.8-.661,13.549.649,22.294-5.452,22.294-5.452,3.718-8.261.873-9.619.874-14.163.874-14.163l-1.747-86.533-3.541-11.142-9.441-5.688-9.607,7.648-4.591.661Z" transform="translate(152.871 73.481)" fill="#e7effd"/>
    <path id="Path_7084" data-name="Path 7084" d="M1066.762,537.331s5.8,6.881,5.689,8.261-.331,4.815-.331,4.815l-4.367,8.84s-2.36,11.035-2.36,13.336-3.823,22.176-3.823,22.176l-4.686,30.627-5.794,40.127,5.9,10.162,7-5.9,9.289-71.45,1.958-14.092s2.077-25.351,2.077-27.971a88.761,88.761,0,0,0-1.181-9.5s1.428-6.562,7.33-8.084-.449-.331-.449-.331l-3.375-2.726-2.951,1.18S1068.51,534.274,1066.762,537.331Z" transform="translate(155.866 74.658)" opacity="0.1"/>
    <path id="Path_7085" data-name="Path 7085" d="M1066.2,536.78s5.783,6.881,5.677,8.261-.331,4.8-.331,4.8l-4.366,8.852s-2.361,11.035-2.361,13.325-3.824,22.176-3.824,22.176l-4.579,30.591-5.794,40.127,5.9,10.162,6.987-5.9,9.289-71.45,1.971-14.092s2.077-25.351,2.077-27.971a89.488,89.488,0,0,0-1.18-9.512s1.416-6.55,7.318-8.084-.437-.319-.437-.319l-3.387-2.738-2.95,1.18S1067.945,533.724,1066.2,536.78Z" transform="translate(155.782 74.548)" fill="#6361d0"/>
    <path id="Path_7086" data-name="Path 7086" d="M1061.249,526.79s-.875.661-1.1,5.028-3.28,14.162-3.28,14.162,11.366-7.86,17.042-6.987Z" transform="translate(156.908 73.067)" opacity="0.1"/>
    <path id="Path_7087" data-name="Path 7087" d="M1061.249,525.68s-.875.661-1.1,5.028-3.28,14.163-3.28,14.163,11.366-7.86,17.042-6.987Z" transform="translate(156.908 72.867)" fill="#e7effd"/>
    <path id="Path_7088" data-name="Path 7088" d="M1089.605,523.83l-17.916,15.732s15.071,8.958,17.042,11.141,3.93-21.409,3.93-21.409Z" transform="translate(159.579 72.534)" opacity="0.1"/>
    <path id="Path_7089" data-name="Path 7089" d="M1090.155,522.72l-17.916,15.732s15.083,8.958,17.042,11.141,3.93-21.409,3.93-21.409Z" transform="translate(159.678 72.334)" fill="#e7effd"/>
    <path id="Path_7090" data-name="Path 7090" d="M1069.076,526.815s-1.96-.979-3.824,1.865a12.333,12.333,0,0,1-5.347,4.143s-19.887,3.175-20.654,5.795l-9.288.543s-3.281.437-3.541,7.329-2.077,7.53-2.077,7.53-3.824,6.775-3.541,10.268a5.747,5.747,0,0,1-2.95,5.252l13.655,35.5s.437,14.646-2.077,19.993-7.211,29.069-7.211,29.069,1.971-.437,1.854.873-2.361,15.626-2.361,15.626-.661,5.677-1.747,7.648-1.18,12.227-1.18,12.227l-1.747,7.436s4.143,9.288,10.48,7.978,17.8-26.118,17.8-26.118L1052.635,653l5.689-26.437,1.64-17.916,2.621-39.667,3.824-26.213S1070.61,528.68,1069.076,526.815Z" transform="translate(149.73 73.042)" opacity="0.1"/>
    <path id="Path_7091" data-name="Path 7091" d="M1068.528,525.7s-1.971-.979-3.824,1.865a12.4,12.4,0,0,1-5.358,4.142s-19.887,3.175-20.653,5.8l-9.277.543s-3.281.437-3.611,7.318-2.077,7.542-2.077,7.542-3.824,6.774-3.541,10.268a5.724,5.724,0,0,1-2.95,5.252l13.7,35.548s.437,14.646-2.077,19.993-7.211,29.069-7.211,29.069,1.971-.437,1.865.874-2.36,15.614-2.36,15.614-.649,5.688-1.747,7.648-1.18,12.239-1.18,12.239l-1.747,7.435s4.155,9.288,10.492,7.966,17.809-26.106,17.809-26.106l7.317-26.767,5.677-26.437,1.57-17.986,2.62-39.667,3.824-26.213S1070.05,527.569,1068.528,525.7Z" transform="translate(149.629 72.842)" fill="#65617d"/>
    <path id="Path_7092" data-name="Path 7092" d="M1005.3,600.41l-6.338,4.367s-9.689.307-16.617-1.392l-3.541-1.57-.708-.307.731.236a14.469,14.469,0,0,0,8.745.307c8.97-3.021,7.978-17.821,7.625-21.173a3.1,3.1,0,0,0-.071-.637h0v.083a5.913,5.913,0,0,0,.413.578l.4.425h0l3.281,6.3a1.8,1.8,0,0,1,0,.271Z" transform="translate(142.712 82.699)" opacity="0.1"/>
    <path id="Path_7093" data-name="Path 7093" d="M1027.16,561.14l-3.057.873-.437,6.22s-3.541-.543-4.591,3.718a15,15,0,0,1-2.727,6.232s-6.007,5.028-6.338,9.288l-3.717,2.29s-8.627-1.971-10.622-5.464c0,0,3.942,28.183-17.042,21.243,0,0,23.486,10.268,24.584,11.7s8.261,5.571,14.859,2.077,7.978-8.851,7.978-8.851,6.338-8.852,6.55-10.161,5.134-2.844,5.134-2.844l9.442-22.719Z" transform="translate(142.808 79.257)" fill="#65617d"/>
    <path id="Path_7094" data-name="Path 7094" d="M1085.069,537.142l3.163-14.422s1.428,4.721,2.845,5.795l4.721,3.541s4.721,2.184,6.338,2.184,10.492,2.36,11.578,3.54,5.463.33,5.463.33,3.6,1.18,6.775,1.971,4.721,6.007,4.037,8.085a6.312,6.312,0,0,0,1.534,5.9c1.31,1.31,1.971,5.571,1.971,5.571a6.4,6.4,0,0,1,3.706,3.163c1.1,2.361.768,7.648.768,7.648l-16.275,22.943s.213,8.852-.437,10.823,2.29,35.407,2.29,35.407l3.387,57.464a59.678,59.678,0,0,1-5.464,4.261c-.98.437-1.959-20.323-1.959-21.079s-25.246-37.767-25.246-37.767-3.387-5.464-3.387-6.668-3.164-12.239-3.164-12.239l-4.8-21.244Z" transform="translate(161.601 72.334)" opacity="0.1"/>
    <path id="Path_7095" data-name="Path 7095" d="M1139.1,569.207v1.251l-16.263,22.92h0s.223,8.852-.438,10.823c-.377,1.18.449,12.9,1.181,22.554.554,6.964,1.062,12.841,1.062,12.841l1.439,24.372,1.948,33.046a59.635,59.635,0,0,1-5.464,4.261c-.979.436-1.959-20.323-1.959-21.091s-25.245-37.766-25.245-37.766-3.387-5.465-3.387-6.668-3.164-12.239-3.164-12.239l-4.8-21.244,2.183-65.112,1.853-14.422s2.738,4.721,4.154,5.783l4.721,3.611s4.722,2.184,6.337,2.184,10.492,2.36,11.579,3.541,5.464.33,5.464.33,3.612,1.18,6.775,1.971,4.721,6.008,4.036,8.085a6.325,6.325,0,0,0,1.534,5.9c1.311,1.31,1.972,5.57,1.972,5.57a6.4,6.4,0,0,1,3.706,3.163A17.732,17.732,0,0,1,1139.1,569.207Z" transform="translate(161.799 72.335)" fill="#65617d"/>
    <path id="Path_7096" data-name="Path 7096" d="M1017.53,808.76c.543,0,23.486.873,23.049,4.591S1017.53,808.76,1017.53,808.76Z" transform="translate(149.818 123.882)" opacity="0.1"/>
    <path id="Path_7097" data-name="Path 7097" d="M1021.88,814s15.4,2.514,11.366,4.8S1021.88,814,1021.88,814Z" transform="translate(150.603 124.826)" opacity="0.1"/>
    <path id="Path_7098" data-name="Path 7098" d="M1070.39,806.73s25.563,2.183,21.74,5.015-12.889,3.281-13.325,3.388S1070.39,806.73,1070.39,806.73Z" transform="translate(159.344 123.516)" opacity="0.1"/>
    <path id="Path_7099" data-name="Path 7099" d="M1067.8,816.26s14.163,2.361,14.634,5.134S1067.8,816.26,1067.8,816.26Z" transform="translate(158.878 125.233)" opacity="0.1"/>
    <path id="Path_7100" data-name="Path 7100" d="M1074.46,760.53s12.982,3.057,13.772,5.134Z" transform="translate(160.078 115.19)" opacity="0.1"/>
    <path id="Path_7101" data-name="Path 7101" d="M1032.469,768.49s-6.774,1.971-.212,5.9S1032.469,768.49,1032.469,768.49Z" transform="translate(151.957 116.625)" opacity="0.1"/>
    <path id="Path_7102" data-name="Path 7102" d="M1057.43,679.932c.768,0,12.676-3.93,16.83-2.183a27.679,27.679,0,0,0,9.276,1.747Z" transform="translate(157.009 100.191)" opacity="0.1"/>
    <path id="Path_7103" data-name="Path 7103" d="M1061.1,691l-.118,1.086-10.186,26.673s-1.64,8.085-3.057,12.676a83.362,83.362,0,0,0-2.135,9.442l9.016-55.907Z" transform="translate(154.877 101.573)" opacity="0.1"/>
    <path id="Path_7104" data-name="Path 7104" d="M1073.217,651.9l-4.237.071h-.13l-2.49-11.011,3.682-.2Z" transform="translate(158.618 93.606)" fill="#3f3d56"/>
    <path id="Path_7105" data-name="Path 7105" d="M1122.555,640.5l-2.714,2.242-9.087,7.471s-24.572,13.112-31.347.661c-5.971-10.976,21.893-18.813,28.608-20.524l1.428-.342Z" transform="translate(160.819 91.669)" fill="#fbbebe"/>
    <path id="Path_7106" data-name="Path 7106" d="M1026.88,547.9s4.8,2.184,5.9,5.24S1026.88,547.9,1026.88,547.9Z" transform="translate(151.504 76.871)" opacity="0.1"/>
    <path id="Path_7107" data-name="Path 7107" d="M1015.027,575.67s-6.987,8.521-4.155,11.8S1015.027,575.67,1015.027,575.67Z" transform="translate(148.497 81.876)" opacity="0.1"/>
    <path id="Path_7108" data-name="Path 7108" d="M1121.224,552s-6.55.661-6.774,6.338Z" transform="translate(167.285 77.61)" opacity="0.1"/>
    <path id="Path_7109" data-name="Path 7109" d="M1068.72,631.1c.661-.661,15.732-22.943,19.237-20.972Z" transform="translate(159.044 88.064)" opacity="0.1"/>
    <path id="Path_7110" data-name="Path 7110" d="M1100.543,509.12a25.961,25.961,0,0,1-3.081,12.274h-.188c-1.652-.354-2.514-2.266-3.765-3.469a5.111,5.111,0,0,0-5.9-.826,6,6,0,0,0-2.9,5.606c-.826-3.541-.567-7.223-1.381-10.728s-3.257-7.081-6.609-7.081c-1.44,0-3.127.531-4.166-.555a10.318,10.318,0,0,1-1.18-2.467c-2.36-3.883-9.677-1.924-12.652.071s-6.432,5.157-10.126,6.857a26,26,0,1,1,52,.378Z" transform="translate(155.416 65.174)" opacity="0.1"/>
    <path id="Path_7111" data-name="Path 7111" d="M1072.342,503.3a16.615,16.615,0,0,0,1.181,2.479c1.038,1.074,2.727.519,4.166.543,3.352.059,5.807,3.611,6.61,7.081s.554,7.223,1.392,10.716a5.9,5.9,0,0,1,2.892-5.594,5.135,5.135,0,0,1,5.9.814c1.251,1.18,2.112,3.128,3.764,3.47s3.234-1.239,3.825-2.974a45.619,45.619,0,0,0,.944-5.441c.744-3.4,2.974-6.2,4.2-9.442a17.126,17.126,0,0,0-.106-12.2c-.827-2.054-2.042-3.895-2.868-5.9-1.263-3.1-1.594-6.621-3.128-9.583a11.33,11.33,0,0,0-13.608-5.594c-2.36.9-4.437,2.62-6.845,3.4-3.234,1.039-6.68.26-10.02-.212s-7.082-.508-9.725,1.688c-3.092,2.537-3.942,7.294-6.846,10.067-1.18,1.18-2.737,1.912-4.024,2.986a5.546,5.546,0,0,0-2.254,4.438c.2,2.266,2.36,4.32,1.594,6.42a4.979,4.979,0,0,1-1.181,1.593,22.875,22.875,0,0,0-5.287,9c5.9,1.818,12.18-4.626,16.747-7.671C1062.664,501.384,1069.947,499.425,1072.342,503.3Z" transform="translate(154.394 63.031)" fill="#7c5c5c"/>
    <path id="Path_7112" data-name="Path 7112" d="M1118.125,640.5l-2.714,2.242c-2.36-4-12.25-11.979-12.25-11.979l.425-.413,1.428-.342Z" transform="translate(165.25 91.669)" opacity="0.1"/>
    <path id="Path_7113" data-name="Path 7113" d="M1120.645,636.989s-.968,2.431-1.983,4.532-2.113,4.013-2.16,2.467c-.118-3.069-12.782-13.336-12.782-13.336l1.711-1.676,1.994-1.936Z" transform="translate(165.351 91.133)" fill="#e7effd"/>
    <path id="Path_7114" data-name="Path 7114" d="M1121.064,623.73,1122.5,648.1c-3.4-5.275-12.71-18.8-18.694-18.364l14.528-16.712A19.431,19.431,0,0,0,1120,610.89C1120.557,617.853,1121.064,623.73,1121.064,623.73Z" transform="translate(165.367 88.223)" opacity="0.1"/>
    <path id="Path_7115" data-name="Path 7115" d="M1120.383,636.989s-.969,2.431-1.983,4.532c-3.812-5.216-9.041-11.389-13.23-12.546l1.995-1.936Z" transform="translate(165.612 91.133)" opacity="0.1"/>
    <path id="Path_7116" data-name="Path 7116" d="M1131.457,560.58l3.931,3.057s6.562.118,7.211,5.571,6.668,7.978,6.668,7.978,4.473,4.485,4.473,6.562,3.387,5.783,3.387,6.113,3.281,6.987,2.845,8.191,3.54,6.444,2.289,8.415a50.681,50.681,0,0,0-2.62,5.464s-5.134,9.831-7.753,11.684-14.635,17.491-14.635,17.491-12.9,14.847-12.9,19.438c0,0-12.558-20.972-19.993-20.43l14.529-16.712s2.514-2.738,2.631-4.366,6.987-9.182,10.268-9.513c0,0,.543-4.473-.873-4.591s-2.62-3.541-2.62-3.541-9.619-11.365-9.725-18.576S1131.457,560.58,1131.457,560.58Z" transform="translate(165.466 79.156)" fill="#65617d"/>
    <path id="Path_7117" data-name="Path 7117" d="M1133.373,569.37s-9.182,6.774-7.21,8.969S1133.373,569.37,1133.373,569.37Z" transform="translate(169.345 80.74)" opacity="0.1"/>
    <path id="Path_7118" data-name="Path 7118" d="M1132.6,593.441s17.042-5.465,18.789,0Z" transform="translate(170.556 84.641)" opacity="0.1"/>
    <path id="Path_7119" data-name="Path 7119" d="M1052.466,839.236s-9.182,6.02-13.773,5.134a16.525,16.525,0,0,0-9.289,1.534,27.566,27.566,0,0,1-11.578,7.541c-7.436,2.514-17.81,1.523-23.71-.437-2.785-.932-3.01-2.136-1.664-3.612,6.408,1.275,20.748,3.812,24.607,1.971a102.4,102.4,0,0,0,12.239-7.648s9.441-1.31,10.7-1.31c.932,0,8.19-3,12.286-4.721Z" transform="translate(145.155 129.095)" opacity="0.1"/>
    <path id="Path_7120" data-name="Path 7120" d="M1094.319,849.45a2,2,0,0,1-.082.6s-2.184,4.8-14.316,6.55-12.121-4.036-12.121-4.036l.118-1.57C1071.753,852.459,1080.133,854.076,1094.319,849.45Z" transform="translate(158.878 131.214)" opacity="0.1"/>
    <path id="Path_7121" data-name="Path 7121" d="M1031.135,568.26s0,24.914-2.125,27.369S1031.135,568.26,1031.135,568.26Z" transform="translate(151.78 80.54)" opacity="0.1"/>
    <path id="Path_7122" data-name="Path 7122" d="M1114.17,575.07l3.174,8.9S1118.6,575.235,1114.17,575.07Z" transform="translate(167.234 81.768)" opacity="0.1"/>
    <g id="Group_1470" data-name="Group 1470" transform="translate(1197.373 555.08)" opacity="0.1">
      <path id="Path_7123" data-name="Path 7123" d="M1049.016,495.1c.8-2.042-1.3-4.06-1.57-6.255a4.02,4.02,0,0,0-.354,1.971c.142,1.664,1.369,3.21,1.688,4.721A2.779,2.779,0,0,0,1049.016,495.1Z" transform="translate(-1042.229 -488.85)"/>
      <path id="Path_7124" data-name="Path 7124" d="M1086.012,517.582c-.779-3.446-.542-7.081-1.345-10.539s-3.257-7.081-6.609-7.081c-1.44,0-3.128.519-4.167-.555-.637-.649-.755-1.676-1.18-2.479-2.361-3.871-9.678-1.9-12.665.083-4.46,2.962-10.621,9.182-16.333,7.766-.271.661-.531,1.333-.744,2.03,5.9,1.817,12.18-4.626,16.747-7.672,2.986-1.983,10.268-3.942,12.664-.071a16.507,16.507,0,0,0,1.18,2.479c1.039,1.074,2.726.519,4.166.543,3.353.059,5.807,3.611,6.609,7.081s.555,7.223,1.394,10.716a5.9,5.9,0,0,1,.283-2.3Z" transform="translate(-1042.97 -487.794)"/>
      <path id="Path_7125" data-name="Path 7125" d="M1095.864,510.91c-.59,1.735-2.147,3.328-3.836,2.974s-2.5-2.266-3.753-3.47a5.146,5.146,0,0,0-5.9-.826,5.973,5.973,0,0,0-2.9,5.3,5.7,5.7,0,0,1,2.573-3.163,5.133,5.133,0,0,1,5.9.814c1.252,1.18,2.113,3.127,3.765,3.469s3.233-1.239,3.824-2.974a13.942,13.942,0,0,0,.6-3.139A7.512,7.512,0,0,1,1095.864,510.91Z" transform="translate(-1036.393 -485.217)"/>
      <path id="Path_7126" data-name="Path 7126" d="M1098.41,498.371c-1.181,3.234-3.458,6.031-4.2,9.442-.141.685-.236,1.393-.318,2.1.755-3.4,2.962-6.184,4.189-9.442a16.366,16.366,0,0,0,1-4.532,16.318,16.318,0,0,1-.672,2.431Z" transform="translate(-1033.794 -487.572)"/>
    </g>
    <circle id="Ellipse_183" data-name="Ellipse 183" cx="0.271" cy="0.271" r="0.271" transform="translate(1103.829 644.445)" fill="#e6e8ec"/>
    <rect id="Rectangle_1566" data-name="Rectangle 1566" width="213.831" height="245.744" rx="6.61" transform="translate(1002.142 650.807)" fill="#fff"/>
    <rect id="Rectangle_1567" data-name="Rectangle 1567" width="213.831" height="245.744" rx="6.61" transform="translate(1002.142 650.807)" fill="#5a5773" opacity="0.1"/>
    <rect id="Rectangle_1568" data-name="Rectangle 1568" width="192.021" height="220.676" rx="6.61" transform="translate(1013.047 663.341)" fill="#fff"/>
    <rect id="Rectangle_1569" data-name="Rectangle 1569" width="131.735" height="45.462" rx="6.03" transform="translate(1040.983 707.599)" fill="#6361d0"/>
    <rect id="Rectangle_1570" data-name="Rectangle 1570" width="122.069" height="9.276" transform="translate(1045.822 769.69)" fill="#6361d0"/>
    <rect id="Rectangle_1571" data-name="Rectangle 1571" width="167.968" height="9.276" transform="translate(1025.074 789.269)" fill="#6361d0"/>
    <rect id="Rectangle_1572" data-name="Rectangle 1572" width="167.968" height="9.276" transform="translate(1025.074 809.876)" fill="#6361d0"/>
    <rect id="Rectangle_1573" data-name="Rectangle 1573" width="167.968" height="9.276" transform="translate(1025.074 830.482)" fill="#6361d0"/>
    <rect id="Rectangle_1574" data-name="Rectangle 1574" width="503.49" height="245.744" rx="6.61" transform="translate(0 569.573)" fill="#fff"/>
    <rect id="Rectangle_1575" data-name="Rectangle 1575" width="503.49" height="245.744" rx="6.61" transform="translate(0 569.573)" fill="#5a5773" opacity="0.1"/>
    <rect id="Rectangle_1576" data-name="Rectangle 1576" width="452.116" height="220.676" rx="6.61" transform="translate(25.681 582.107)" fill="#fff"/>
    <rect id="Rectangle_1577" data-name="Rectangle 1577" width="310.172" height="45.462" rx="6.03" transform="translate(91.478 626.376)" fill="#6361d0"/>
    <rect id="Rectangle_1578" data-name="Rectangle 1578" width="287.417" height="9.276" transform="translate(102.856 688.456)" fill="#6361d0"/>
    <rect id="Rectangle_1579" data-name="Rectangle 1579" width="395.489" height="9.276" transform="translate(53.995 708.035)" fill="#6361d0"/>
    <rect id="Rectangle_1580" data-name="Rectangle 1580" width="395.489" height="9.276" transform="translate(53.995 728.642)" fill="#6361d0"/>
    <rect id="Rectangle_1581" data-name="Rectangle 1581" width="395.489" height="9.276" transform="translate(53.995 749.248)" fill="#6361d0"/>
    <path id="Path_7127" data-name="Path 7127" d="M132.71,925.8c1.4-5.122,2.36-9.63,2.36-9.63a20.063,20.063,0,0,1,2.62-9.76v-1.416h0l.4-10.4a34.629,34.629,0,0,0-2.36-5.547c-1.747-3.34.59-15.248.59-15.248s7.589-16.606,6.314-27.381,16.075-47.008,16.075-47.008a46.6,46.6,0,0,0-1.086-10.622,8.139,8.139,0,0,1-.118-2.207,2.073,2.073,0,0,1,0-.271v.083c.507-7.081,6.6-20.064,6.6-20.064l.224-25.257s-3-15.012,3.541-34.757c2.3-6.893,3.812-12.416,4.8-16.688.118-.484.224-.944.319-1.393-11.9-2.289-20.984-4.154-20.984-4.154s8.061-28.774,12.982-33.671,9.241-20.737,9.241-20.737,3.234-20.417-.472-26.554-3.871-16.523-3.871-16.523-8.757-6.881-9.772-9.819-2.632-9.56-2.5-12.983,1.381-6.491,1.074-8.32,2.962-8.6,1.582-11.932a9.132,9.132,0,0,1-.472-3.174v-.094h0a44.169,44.169,0,0,1,1.121-8.486A24.079,24.079,0,0,1,170,527.373l.224-.779.59-2.018a9.861,9.861,0,0,1,.9-.5l.059-.744.189-2.939-1.133-6.7c-2.36-11.637,13.124-12.758,13.124-12.758a8.109,8.109,0,0,1,4.5-3.659c3.139-.968-.142,17.361-1.64,18.482-1.18.838-4.721,6.491-6.432,9.265h0l-.283.46a6.357,6.357,0,0,1,.684.767l-.743,3.978-.118.6a16.526,16.526,0,0,1,2.3,4.284s-2.939,2.974-2.5,6.444a20.758,20.758,0,0,1-1.18,7.943c.165-.177,2.231-2.242,4.19-1.652s7.412,2.466,7.412,2.466,4.1.885,3.682,1.782,2.632,5,2.632,5l11.484-10.067c.13-.319.248-.625.366-.944a26.362,26.362,0,0,0,1.18-4.567,24.693,24.693,0,0,1-3.541-1.263,7.71,7.71,0,0,1-3-2.077c-1.062-1.369-1.18-3.187-1.593-4.851-.755-3.257-2.526-6.208-3.765-9.335A29.849,29.849,0,0,1,196,507.475a11,11,0,0,1,1.888-4.721c1.912-2.419,5.228-3.3,7.695-5.193s4.119-4.874,6.952-6.255c2.573-1.251,5.63-.968,8.45-.4a45.149,45.149,0,0,1,15.4,6.267c1.581,1.026,3.316,2.207,5.193,1.935a7.162,7.162,0,0,0,3.895-2.632.869.869,0,0,1,0-.165l.13-.13A19.461,19.461,0,0,1,247,504.536a6.23,6.23,0,0,1-.094,1.322v.46a2.15,2.15,0,0,0,0,.389h0a1.95,1.95,0,0,0,.071.578,4.142,4.142,0,0,0,.98,1.546,8.435,8.435,0,0,1,.85,1.263,1.683,1.683,0,0,0-.13-.46,6.585,6.585,0,0,1,1.015,3.541,3.458,3.458,0,0,1-.932,2.466,10.933,10.933,0,0,1-1.865,1.393,21.185,21.185,0,0,1-10.952,21.586c-.142.307-.283.625-.413.944a26.391,26.391,0,0,0-2.479,12,2.831,2.831,0,0,0,.094.885c.094.295.271.319.39.484h0s18.293.885,22.754-2.856,10.5,9.949,10.5,9.949,6.515,1.523,7.872.307,9.017.165,9.017.165a16.524,16.524,0,0,1,11.59-3.741,33.865,33.865,0,0,1,8.58-4.343h0l.212-.071h0a9.253,9.253,0,0,1,4.143-.366s9.288-7.081,12.062-10.988S336.06,522.771,336.06,522.7l.083-.708.224-2.148a7.192,7.192,0,0,0,1.109.142l.283-.744a40.532,40.532,0,0,1,2.891-6s.106-2.726-.661-3.434.744-10.622.744-10.622,8.84-18.647,15.555-4.213c0,0,13.384,9.689,1.44,19.91,0,0-4.721,2.053-5.394,3.788-.472,1.18-2.16,4.272-3.293,6.362l-.507.932.13.118-.236,1.77-.094.7c2.113,1.31,3.541,2.585,3.151,3.541a20.068,20.068,0,0,0-1.5,4.851s-16.688,19.238-19.072,27.723c0,0-43.739,23.77-57.83,25.044l1.947,12.793a101.979,101.979,0,0,1,.165,10.374c-.3,2.714,1.109,15.118,1.109,15.118s1.735,18.246,3.706,20.866,1.18,13.5,1.18,13.5a91.935,91.935,0,0,0,2.219,15.531c1.794,6.975,0,15.449,0,15.449s6.5,16.606-10.138,4.874c0,0-8.356-.837-17.987-1.534v.956c0,1.251-.059,2.6-.094,4.013-.236,9.359-.673,22.247-1.475,31.984-1.416,17.219-7.978,51.139-7.978,51.139l-.661,17.136a22.717,22.717,0,0,1,.307,4.922,31.866,31.866,0,0,1-5.276,16.983l-1.759,11.389s-3.364,7.412-3.6,11.908a5.363,5.363,0,0,0,.094,1.1,8.761,8.761,0,0,1,.083,1.759c0,5.193-3.635,17.491-3.635,17.491s-.673,12.522-2.573,13.171c-1.629.567,1.865,7.306,2.9,9.241a1.936,1.936,0,0,0,.083-.354l.224.377a8.9,8.9,0,0,1,.46,3.2,4.567,4.567,0,0,1-2.254,4.319c-3.647,2.042-5.63,3.777-2.632,4.626a33.521,33.521,0,0,1,3.281.814l.177-.413a2.018,2.018,0,0,1,1.18,2.242,9.171,9.171,0,0,1-1.286,4.2,45.742,45.742,0,0,1-5.429,9.064l-1.44-.212a7.2,7.2,0,0,0,.779,1.569,6,6,0,0,0,2.054,1.971,6.565,6.565,0,0,0,2.526.968,7.283,7.283,0,0,1,5.217,2.8c1.77,2.49,2.821,5.83-.991,8.58l-13.584,4.107s-23.179,2.113-21.763-3.01,2.361-9.631,2.361-9.631a20.476,20.476,0,0,1,2.219-9.111,12.223,12.223,0,0,1,.873-1.322l-.814-.118s-1.346-11.508-3.564-13.738c-.5-.531-.6-.92-.472-1.18-.2-.626.389-.968,1.18-1.18a1.837,1.837,0,0,0,.154.448,11.364,11.364,0,0,1,2.242-.153s.98-5.96-1.369-8.261a2.243,2.243,0,0,1-.4-1.794,9.2,9.2,0,0,1,.342-2.431.874.874,0,0,0,.083.142c1.44-5.382,5.9-13.856,5.9-13.856s.389-5.441-1.027-7.683,1.334-29.576,1.334-29.576-.059-13.266,1.865-19.368-1.546-13.513-1.546-13.513a1.876,1.876,0,0,1,.059-.39.485.485,0,0,0,0-.106s.118-.814.307-2.077v.13c.519-3.541,1.475-9.808,2.113-12.735.909-4.143.744-24.147.744-24.147l-3.057-8.616-6.574,14.469-7.081,19.355s-3.316,4.013-3.541,8.262v.625a9.791,9.791,0,0,1,0,1.31,11.709,11.709,0,0,1-2.219,6.9s-2.042,9.194-4.721,11.448-2.891,6.8-2.891,6.8-3.706,13.313-5.3,15.614c-1.334,1.935-1.617,7.4-1.664,9.076h0v.484s-.625,4.792-.767,8.828v1.428a.26.26,0,0,1,0-.095,13.672,13.672,0,0,0,.26,3.269v-.484a34.333,34.333,0,0,1,.649,8.4c-.106,4.827-1.062,10.516-4.119,13.761-5.287,5.618-8.438,4.721-8.438,4.721s2.16,7.353,5.1,8.922a1.878,1.878,0,0,1,.319.212.725.725,0,0,1,.083-.413,3.54,3.54,0,0,1,.779,2.738c.095,3.2-2.124,8.261-4.131,10.622a5.9,5.9,0,0,1-2.585,1.393,4.339,4.339,0,0,0,.46.307,9.264,9.264,0,0,0,1.015.519,5.007,5.007,0,0,0,1.511.46,7.175,7.175,0,0,1,5.217,2.8c1.77,2.478,2.821,5.819-.991,8.568l-13.584,4.107S131.282,930.924,132.71,925.8Z" transform="translate(-9.649 66.346)" fill="url(#linear-gradient-3)"/>
    <path id="Path_7128" data-name="Path 7128" d="M210.271,873.252l13.159-4.119c3.694-2.762,2.679-6.1.968-8.592a6.892,6.892,0,0,0-5.039-2.773,6.164,6.164,0,0,1-2.455-.979,5.9,5.9,0,0,1-1.971-1.959,9.678,9.678,0,0,1-1.286-5.075s-14.092-4.721-18.152-.7a10.638,10.638,0,0,0-1.806,2.467,21.242,21.242,0,0,0-2.172,9.111s-.9,4.5-2.278,9.631S210.271,873.252,210.271,873.252Z" transform="translate(0.539 130.851)" fill="#2d293d"/>
    <path id="Path_7129" data-name="Path 7129" d="M156.664,865.77l13.159-4.119c3.694-2.762,2.679-6.1.968-8.58a6.892,6.892,0,0,0-5.051-2.785,4.644,4.644,0,0,1-1.464-.448,9.282,9.282,0,0,1-.98-.531c-3.541-2.136-3.269-7.081-3.269-7.081s-14.092-4.721-18.152-.7a10.435,10.435,0,0,0-1.44,1.794,20.594,20.594,0,0,0-2.549,9.784s-.909,4.509-2.278,9.631S156.664,865.77,156.664,865.77Z" transform="translate(-9.126 129.494)" fill="#2d293d"/>
    <path id="Path_7130" data-name="Path 7130" d="M194.794,849.058A10.632,10.632,0,0,0,193,851.525h0l21.244,3.293a9.681,9.681,0,0,1-1.286-5.075S198.9,845.034,194.794,849.058Z" transform="translate(1.228 130.851)" opacity="0.1"/>
    <path id="Path_7131" data-name="Path 7131" d="M139.713,843.369l-.153,4c3.116,5.606,19.226,5.028,23.994,2.467a9.215,9.215,0,0,1-.98-.531c-3.541-2.136-3.269-7.081-3.269-7.081s-14.092-4.721-18.152-.7A10.479,10.479,0,0,0,139.713,843.369Z" transform="translate(-8.403 129.494)" opacity="0.1"/>
    <path id="Path_7132" data-name="Path 7132" d="M138.2,860.382a36.669,36.669,0,0,1,2.36,5.547l-.578,14.328c3.4,6.137,22.353,4.863,25.021,1.7s5.712-11.6,2.868-13.16-4.933-8.922-4.933-8.922,3.057.85,8.191-4.721,4.166-18.565,3.364-21.681.531-13.431.531-13.431.094-7.27,1.641-9.571,5.146-15.614,5.146-15.614.165-4.544,2.8-6.8,4.626-11.46,4.626-11.46a11.875,11.875,0,0,0,2.113-7.731c-.366-4.555,3.446-9.324,3.446-9.324l6.928-19.355,6.373-14.481,2.939,8.651s.142,20-.744,24.147-2.36,15.177-2.36,15.177,3.352,7.4,1.487,13.513-1.841,19.367-1.841,19.367-2.691,27.345-1.322,29.576.98,7.671.98,7.671-8.049,15.685-5.783,17.963,1.322,8.262,1.322,8.262-5.075-.2-2.986,2.065,3.21,13.679,3.21,13.679l21.846,3.387a46.235,46.235,0,0,0,5.264-9.075c3.163-6.6-.307-6.008-3.2-6.845s-.979-2.585,2.549-4.626,1.723-7.022,1.723-7.022-4.921-9.1-3.069-9.748,2.5-13.171,2.5-13.171,4.2-14.752,3.446-18.777,3.434-13.5,3.434-13.5l1.7-11.377a31.428,31.428,0,0,0,4.827-21.444l.685-17.609s6.42-33.86,7.86-51.139c.9-11.023,1.345-26.094,1.546-35.5.118-5.287.165-8.781.165-8.781L176.174,649.36a64.442,64.442,0,0,1-1.877,11.59,172.377,172.377,0,0,1-4.721,16.7c-6.4,19.745-3.541,34.757-3.541,34.757l-.248,25.256s-7.553,16.618-6.314,22.483a47.966,47.966,0,0,1,1.039,10.622s-16.806,36.209-15.579,46.937-6.149,27.393-6.149,27.393S136.507,857.042,138.2,860.382Z" transform="translate(-8.761 95.156)" fill="#575988"/>
    <path id="Path_7133" data-name="Path 7133" d="M182.8,750.131,159.05,746S172.044,760.351,182.8,750.131Z" transform="translate(-4.891 112.572)" opacity="0.05"/>
    <path id="Path_7134" data-name="Path 7134" d="M162.981,726.39s-1.18,8.4,3.907,11.8C166.84,738.168,157.694,736.363,162.981,726.39Z" transform="translate(-4.479 109.037)" opacity="0.1"/>
    <path id="Path_7135" data-name="Path 7135" d="M164.85,703.67s19.32,17.2,26.626,16.122S164.85,703.67,164.85,703.67Z" transform="translate(-3.845 104.943)" opacity="0.1"/>
    <path id="Path_7136" data-name="Path 7136" d="M204,757s15.024,4.037,15.248,10.126S204,757,204,757Z" transform="translate(3.21 114.554)" opacity="0.1"/>
    <path id="Path_7137" data-name="Path 7137" d="M199.289,821s21.244,4.815,15.083,7.305-16.251,4.284-16.251,4.284S191.2,832.708,199.289,821Z" transform="translate(1.654 126.087)" opacity="0.05"/>
    <g id="Group_1471" data-name="Group 1471" transform="translate(128.825 755.114)" opacity="0.05">
      <path id="Path_7138" data-name="Path 7138" d="M215.608,831.461a4.249,4.249,0,0,0,2.077-3.021l.2.389s1.818,4.969-1.723,7.082c-.4.224-.779.46-1.18.685-.626-.142-1.31-.26-1.959-.449C210.144,835.261,212.067,833.515,215.608,831.461Z" transform="translate(-124.24 -627.686)"/>
      <path id="Path_7139" data-name="Path 7139" d="M191.72,829.451c-.567-.567-.484-1.959,0-3.741a10.138,10.138,0,0,1,1.015,5.311A4.127,4.127,0,0,0,191.72,829.451Z" transform="translate(-127.899 -628.178)"/>
      <path id="Path_7140" data-name="Path 7140" d="M197.447,752.48a24.691,24.691,0,0,1,1.18,6.739,25.736,25.736,0,0,0-1.487-4.65S197.27,753.754,197.447,752.48Z" transform="translate(-126.851 -641.374)"/>
      <path id="Path_7141" data-name="Path 7141" d="M156.192,743.114a8.662,8.662,0,0,1-.13-1.994c.224,1.369.366,2.632.449,3.741C156.416,744.294,156.31,743.716,156.192,743.114Z" transform="translate(-134.256 -643.422)"/>
      <path id="Path_7142" data-name="Path 7142" d="M195.793,807.788a12.022,12.022,0,0,1-.378-4.048,13.656,13.656,0,0,1,.85,5.122,4.992,4.992,0,0,0-.472-1.074Z" transform="translate(-127.168 -632.137)"/>
      <path id="Path_7143" data-name="Path 7143" d="M190.989,836a71.276,71.276,0,0,1,2.065,11.247l21.846,3.387a45.731,45.731,0,0,0,5.276-9.076c.283-.578.5-1.1.684-1.57,1.286.65,1.759,2.042-.13,5.96a46.292,46.292,0,0,1-5.264,9.064l-21.893-3.364s-1.18-11.5-3.293-13.75C189.3,836.779,190.033,836.271,190.989,836Z" transform="translate(-128.171 -626.324)"/>
      <path id="Path_7144" data-name="Path 7144" d="M216.969,836.564s-.661,12.522-2.5,13.171h0c-.838-2.113-1.381-4.1-.555-4.39,1.841-.661,2.514-13.171,2.514-13.171s4.2-14.741,3.446-18.777,3.423-13.49,3.423-13.49l1.711-11.389a31.429,31.429,0,0,0,4.827-21.445l.673-17.609s6.4-33.919,7.789-51.138c.885-11.023,1.334-26.095,1.546-35.5,0-1.7.071-3.21.094-4.485l.625.094s0,3.541-.165,8.769c-.2,9.442-.649,24.49-1.546,35.513-1.393,17.208-7.778,51.139-7.778,51.139l-.685,17.6a31.463,31.463,0,0,1-4.815,21.444l-1.723,11.389s-4.19,9.442-3.434,13.5S216.969,836.564,216.969,836.564Z" transform="translate(-123.902 -658.34)"/>
      <path id="Path_7145" data-name="Path 7145" d="M164.086,843.605a21.244,21.244,0,0,0,3.8-8.486c2.16,2.1-.708,9.854-3.246,12.864s-21.622,4.438-25.02-1.688l.13-3.458C144.471,847.889,161.56,846.6,164.086,843.605Z" transform="translate(-137.217 -626.482)"/>
      <path id="Path_7146" data-name="Path 7146" d="M137.65,824.021a36.647,36.647,0,0,1,2.36,5.547l-.106,2.538a39.59,39.59,0,0,0-1.676-3.706,10.94,10.94,0,0,1-.614-4.521Z" transform="translate(-137.584 -628.507)"/>
      <path id="Path_7147" data-name="Path 7147" d="M160.249,831.36a35.5,35.5,0,0,1-1.629-4.379s3.057.838,8.179-4.78c3.729-4.095,4.237-12.062,3.93-17.3.8,3.127,1.758,16.063-3.364,21.68C163.99,830.262,161.523,831.171,160.249,831.36Z" transform="translate(-133.793 -631.928)"/>
      <path id="Path_7148" data-name="Path 7148" d="M169.514,808.593a97.054,97.054,0,0,0-.779,10.751,15.333,15.333,0,0,0-.307-1.7c-.791-3.128.519-13.431.519-13.431s.106-7.27,1.64-9.572,5.146-15.614,5.146-15.614.177-4.532,2.809-6.8,4.626-11.46,4.626-11.46a11.943,11.943,0,0,0,2.113-7.73c-.366-4.556,3.446-9.324,3.446-9.324l6.928-19.355,6.373-14.481,2.939,8.663V721.3l-2.36-7.081-6.373,14.47-6.928,19.367s-3.812,4.721-3.446,9.324a11.873,11.873,0,0,1-2.112,7.73s-1.995,9.194-4.627,11.448-2.8,6.8-2.8,6.8-3.611,13.313-5.146,15.626S169.514,808.593,169.514,808.593Z" transform="translate(-132.071 -649.052)"/>
    </g>
    <path id="Path_7149" data-name="Path 7149" d="M167.315,512.612l1.109,6.68-.189,2.95-.142,2.172,7.542,1.074.909-1.534h0c1.676-2.773,5.146-8.427,6.243-9.277,1.44-1.121,4.65-19.45,1.605-18.482a7.966,7.966,0,0,0-4.367,3.659S165.084,500.987,167.315,512.612Z" transform="translate(-3.442 67.547)" fill="#ffcdd3"/>
    <path id="Path_7150" data-name="Path 7150" d="M167.94,520.545l7.542,1.074.909-1.534h0a6.692,6.692,0,0,0-8.261-1.7Z" transform="translate(-3.289 71.417)" opacity="0.1"/>
    <path id="Path_7151" data-name="Path 7151" d="M166.2,523.952l9.9,2.7.26-1.487.72-3.978a6.881,6.881,0,0,0-9.619-1.688l-.566,2.018Z" transform="translate(-3.602 71.526)" fill="#dce6f2"/>
    <path id="Path_7152" data-name="Path 7152" d="M303.74,520.792l10.433,6.137s.436-.838,1.05-1.983c1.1-2.089,2.726-5.228,3.187-6.362.7-1.735,5.228-3.8,5.228-3.8,11.578-10.232-1.369-19.9-1.369-19.9-6.491-14.434-15.06,4.225-15.06,4.225s-1.475,9.949-.732,10.622.637,3.435.637,3.435a40.124,40.124,0,0,0-2.809,6C303.941,520.143,303.74,520.792,303.74,520.792Z" transform="translate(21.184 66.33)" fill="#ffcdd3"/>
    <path id="Path_7153" data-name="Path 7153" d="M303.74,516.239l10.433,6.137s.436-.838,1.05-1.983c-1.464-1.31-6.633-5.9-8.391-5.712a12.655,12.655,0,0,1-2.526,0C303.941,515.59,303.74,516.239,303.74,516.239Z" transform="translate(21.184 70.884)" opacity="0.1"/>
    <path id="Path_7154" data-name="Path 7154" d="M302.71,519.308l11.8,6.362.331-2.573.236-1.77s-6.7-6.208-8.757-6.066a11.122,11.122,0,0,1-3.139-.13l-.212,2.148Z" transform="translate(20.999 70.966)" fill="#dce6f2"/>
    <path id="Path_7155" data-name="Path 7155" d="M190.45,554.461s52.012,7.908,42.37,4.367c-6.715-2.479-9.253-6.9-9.63-11.719a27.4,27.4,0,0,1,2.36-12.015,52.667,52.667,0,0,1,5.039-9.253s-39.089-23.5-31.866-3.222a32.032,32.032,0,0,1,1.9,9.548,26.907,26.907,0,0,1-1.393,9.536,28.559,28.559,0,0,1-8.781,12.758Z" transform="translate(0.768 70.83)" fill="#ffcdd3"/>
    <path id="Path_7156" data-name="Path 7156" d="M197.636,522.619a32.027,32.027,0,0,1,1.9,9.548c3.635,3.293,7.766,3.246,13.065,3.446,4.072.166,8.533,1.322,11.8-.519a52.685,52.685,0,0,1,5.039-9.253S190.413,502.343,197.636,522.619Z" transform="translate(1.902 70.83)" opacity="0.1"/>
    <circle id="Ellipse_184" data-name="Ellipse 184" cx="21.61" cy="21.61" r="21.61" transform="translate(194.381 564.651)" fill="#ffcdd3"/>
    <path id="Path_7157" data-name="Path 7157" d="M190.45,550.588s52.012,7.908,42.37,4.367c-6.715-2.478-9.253-6.9-9.63-11.719-2.49-2.915-7.636-5.146-10.952-6.362a15.735,15.735,0,0,0-9.442-.519,12.985,12.985,0,0,0-3.541,1.475,28.559,28.559,0,0,1-8.8,12.758Z" transform="translate(0.768 74.702)" opacity="0.1"/>
    <path id="Path_7158" data-name="Path 7158" d="M166.2,523.491l9.9,2.7.26-1.487a8.817,8.817,0,0,0-9.442-3.647Z" transform="translate(-3.602 71.988)" opacity="0.1"/>
    <path id="Path_7159" data-name="Path 7159" d="M302.71,518.971l11.8,6.361.331-2.573a89.39,89.39,0,0,0-11.92-5.76Z" transform="translate(20.999 71.303)" opacity="0.1"/>
    <path id="Path_7160" data-name="Path 7160" d="M168.65,660.949c20.064,3.977,48.743,9.241,53.357,8.025,3.836-1,15.933-.413,26.449.354.118-5.287.165-8.781.165-8.781L170.527,649.36A64.464,64.464,0,0,1,168.65,660.949Z" transform="translate(-3.161 95.156)" opacity="0.1"/>
    <path id="Path_7161" data-name="Path 7161" d="M151.72,679.178s66.163,14,73.4,12.1,43.845,1.865,43.845,1.865c16.086,11.708,9.819-4.886,9.819-4.886s1.782-8.474,0-15.449a94.414,94.414,0,0,1-2.136-15.531s.791-10.882-1.109-13.49S272,622.918,272,622.918s-1.334-12.4-1.05-15.119-.142-10.374-.142-10.374l-1.877-12.793c13.679-1.286,56.036-25.1,56.036-25.1,2.36-8.451,18.517-27.83,18.517-27.83a20.974,20.974,0,0,1,1.464-4.851c1.18-2.856-14.906-9.288-14.906-9.288s-12.758,14.41-15.4,18.305-11.7,11-11.7,11a8.872,8.872,0,0,0-4.013.366h-.212a32.424,32.424,0,0,0-8.262,4.355,15.813,15.813,0,0,0-11.236,3.741s-7.4-1.369-8.71-.154-7.624-.3-7.624-.3-5.9-13.667-10.162-9.926-22.035,2.88-22.035,2.88c-2.231-3.233-7.9-5.7-11.436-7a15.639,15.639,0,0,0-9.442-.52A12.281,12.281,0,0,0,206,541.978l-11.141,10.1s-2.939-4.107-2.538-5-3.541-1.77-3.541-1.77-5.2-1.842-7.176-2.455-3.895,1.463-4.06,1.652a20.986,20.986,0,0,0,1.18-7.943c-.413-3.47,2.419-6.456,2.419-6.456-5.748-15.85-20.583-3.328-20.583-3.328s-1.971,8.462-.637,11.8-1.841,10.1-1.558,11.932-.909,4.874-1.039,8.321,1.428,10.055,2.36,12.982,9.442,9.82,9.442,9.82.153,10.362,3.729,16.523.437,26.555.437,26.555-4.249,15.827-8.981,20.736S151.72,679.178,151.72,679.178Z" transform="translate(-6.212 71.404)" fill="#656691"/>
    <path id="Path_7162" data-name="Path 7162" d="M237.928,558.132s2.231-5.9,4.06-6.385a41.819,41.819,0,0,0,5.358-2.16l-1.086-2.278s-6.892,1.617-8.049,3.541S237.928,558.132,237.928,558.132Z" transform="translate(9.267 76.765)" opacity="0.1"/>
    <path id="Path_7163" data-name="Path 7163" d="M269.22,547.126c.3,1.829,16.381,4.084,16.381,4.084l-7.848-8.51h-.2A32.415,32.415,0,0,0,269.22,547.126Z" transform="translate(14.963 75.934)" opacity="0.1"/>
    <circle id="Ellipse_185" data-name="Ellipse 185" cx="1.452" cy="1.452" r="1.452" transform="translate(330.424 598.488)" fill="#575988"/>
    <circle id="Ellipse_186" data-name="Ellipse 186" cx="1.452" cy="1.452" r="1.452" transform="translate(328.453 601.32)" fill="#575988"/>
    <circle id="Ellipse_187" data-name="Ellipse 187" cx="1.452" cy="1.452" r="1.452" transform="translate(326.529 603.929)" fill="#575988"/>
    <circle id="Ellipse_188" data-name="Ellipse 188" cx="1.452" cy="1.452" r="1.452" transform="translate(324.523 606.761)" fill="#575988"/>
    <circle id="Ellipse_189" data-name="Ellipse 189" cx="1.18" cy="1.18" r="1.18" transform="translate(153.723 600.294)" fill="#575988"/>
    <circle id="Ellipse_190" data-name="Ellipse 190" cx="1.18" cy="1.18" r="1.18" transform="translate(153.439 602.961)" fill="#575988"/>
    <circle id="Ellipse_191" data-name="Ellipse 191" cx="1.18" cy="1.18" r="1.18" transform="translate(153.168 605.628)" fill="#575988"/>
    <path id="Path_7164" data-name="Path 7164" d="M247.4,598.15c.177-.2-42.724,49.887-73.338,18.813C174.06,616.963,223.983,625.7,247.4,598.15Z" transform="translate(-2.186 85.927)" opacity="0.1"/>
    <path id="Path_7165" data-name="Path 7165" d="M259.459,621.68s-24.513-.271-27.345,6.668l-.283,7.329a4.719,4.719,0,0,0,4.556.177c2.526-1.239,17.609-8.191,22.7-4.367Z" transform="translate(8.225 90.167)" opacity="0.1"/>
    <path id="Path_7166" data-name="Path 7166" d="M258.883,621.66s-23.427-.26-26.142,6.361l-.271,6.987a4.485,4.485,0,0,0,4.355.166c2.36-1.18,16.842-7.8,21.7-4.166Z" transform="translate(8.341 90.163)" fill="#656691"/>
    <path id="Path_7167" data-name="Path 7167" d="M249.552,576.2a79.55,79.55,0,0,1-10.114,15.921A63.811,63.811,0,0,1,224,605.906S249.009,579.5,249.552,576.2Z" transform="translate(6.814 81.971)" opacity="0.1"/>
    <path id="Path_7168" data-name="Path 7168" d="M255.73,552.36s-4.721,17.479-15.52,23.061Z" transform="translate(9.736 77.675)" opacity="0.1"/>
    <path id="Path_7169" data-name="Path 7169" d="M260.81,554.071c.118-.319,3.092,14.092-14.41,21.326C246.4,575.4,253.8,573.19,260.81,554.071Z" transform="translate(10.851 77.982)" opacity="0.1"/>
    <path id="Path_7170" data-name="Path 7170" d="M170.127,540.574c.271,0-8.7,5.252-11.177,7.742C159.009,548.316,164.969,540.008,170.127,540.574Z" transform="translate(-4.909 75.546)" opacity="0.1"/>
    <path id="Path_7171" data-name="Path 7171" d="M220.849,539.565a4.638,4.638,0,0,1-1.806,2.856,4.449,4.449,0,0,1-2.054.366c-6.6.165-13.466.189-19.45-2.585a7.339,7.339,0,0,1-2.892-2.077c-1.039-1.369-1.18-3.175-1.546-4.851-.732-3.257-2.443-6.2-3.635-9.324a30.685,30.685,0,0,1-1.5-16.523,11.059,11.059,0,0,1,1.829-4.721c1.841-2.419,5.063-3.3,7.447-5.2s3.989-4.874,6.751-6.267c2.478-1.251,5.441-.979,8.167-.4a42.872,42.872,0,0,1,14.989,6.291c1.522,1.027,3.2,2.2,5.016,1.924a6.986,6.986,0,0,0,3.848-2.714,20.064,20.064,0,0,1,1.251,9.442,4.073,4.073,0,0,0,0,1.416,4.307,4.307,0,0,0,.944,1.546c1.546,1.948,2.455,4.969.779,6.81-.732.8-1.829,1.18-2.537,2.042-1.275,1.464-.956,3.659-1,5.606a2.951,2.951,0,0,1-.543,1.9,2.821,2.821,0,0,1-2.691.531,7.336,7.336,0,0,0-2.832-.377,4.72,4.72,0,0,0-2.537,1.794C223.646,530.749,222.324,534.962,220.849,539.565Z" transform="translate(0.228 66.5)" fill="#2d293d"/>
    <g id="Group_1472" data-name="Group 1472" transform="translate(194.027 562.491)" opacity="0.1">
      <path id="Path_7172" data-name="Path 7172" d="M193.031,533.5a7.247,7.247,0,0,0,2.892,2.089c5.984,2.773,12.852,2.738,19.45,2.585a4.318,4.318,0,0,0,2.054-.377,4.581,4.581,0,0,0,1.806-2.845c1.452-4.615,2.8-8.816,6-12.569a4.72,4.72,0,0,1,2.537-1.806,7.576,7.576,0,0,1,2.833.378,2.786,2.786,0,0,0,2.691-.531,2.9,2.9,0,0,0,.543-1.888c0-1.947-.272-4.143,1-5.618.708-.814,1.806-1.18,2.537-2.03a4.272,4.272,0,0,0,.578-4.32c1.086,1.876,1.5,4.249.083,5.795-.732.8-1.817,1.18-2.537,2.042-1.275,1.463-.944,3.659-.991,5.606a2.892,2.892,0,0,1-.555,1.9,2.809,2.809,0,0,1-2.691.531,7.281,7.281,0,0,0-2.821-.378,4.722,4.722,0,0,0-2.549,1.806c-3.186,3.742-4.532,7.955-6,12.558a3.412,3.412,0,0,1-3.848,3.234c-6.6.153-13.466.177-19.462-2.6a7.391,7.391,0,0,1-2.892-2.077,5.665,5.665,0,0,1-.862-1.782A2.158,2.158,0,0,0,193.031,533.5Z" transform="translate(-192.83 -493.068)"/>
      <path id="Path_7173" data-name="Path 7173" d="M229.822,505.716a2.915,2.915,0,0,1-.614-1.18,4.07,4.07,0,0,1,0-1.416,20.122,20.122,0,0,0-.708-7.86l.118-.13a19.912,19.912,0,0,1,1.263,9.442A6.4,6.4,0,0,0,229.822,505.716Z" transform="translate(-186.402 -495.13)"/>
    </g>
    <path id="Path_7174" data-name="Path 7174" d="M223.067,543.517s-27.145,2.538-29.387-1.617" transform="translate(1.35 75.79)" opacity="0.1"/>
    <path id="Path_7175" data-name="Path 7175" d="M177.336,532.1s-15-.555-18.506,4.933" transform="translate(-4.93 74.022)" opacity="0.1"/>
  </g>
</svg>
