<svg id="Group_1548" data-name="Group 1548" xmlns="http://www.w3.org/2000/svg" xmlns:xlink="http://www.w3.org/1999/xlink" width="543.875" height="405.354" viewBox="0 0 543.875 405.354">
  <defs>
    <linearGradient id="linear-gradient" x1="0.5" y1="1" x2="0.5" gradientUnits="objectBoundingBox">
      <stop offset="0" stop-color="gray" stop-opacity="0.251"/>
      <stop offset="0.54" stop-color="gray" stop-opacity="0.122"/>
      <stop offset="1" stop-color="gray" stop-opacity="0.102"/>
    </linearGradient>
  </defs>
  <g id="undraw_studying_s3l7" transform="translate(0 0)">
    <path id="Path_6867" data-name="Path 6867" d="M605.416,264.434c-.1.575-.2,1.15-.3,1.725-3.482,19.586-9.166,38.468-17.619,55.8q-.416.863-.847,1.725A159.478,159.478,0,0,1,566.794,354.3c-4.211,5.079-8.8,9.9-14.26,13.382-7.651,4.878-16.6,6.861-25.388,8.483-9.135,1.689-18.389,3.081-27.622,4.622q-4.909.8-9.757,1.679c-8.92,1.612-17.773,3.477-26.415,5.947a137.315,137.315,0,0,0-30.811,12.674q-1.171.667-2.316,1.371c-.765.462-1.54.935-2.285,1.417s-1.494.96-2.234,1.448l-1.14.77c-.375.246-.745.514-1.114.76-1.1.75-2.182,1.541-3.266,2.3l-.041.031q-1.071.77-2.131,1.541c-4,2.963-7.913,6.065-11.811,9.177l-2.46,1.967q-1.905,1.51-3.81,3.014c-.745.591-1.5,1.176-2.249,1.761-.544.426-1.083.852-1.638,1.274-2.778,2.141-5.592,4.237-8.463,6.239-.683.478-1.376.955-2.054,1.422a108.3,108.3,0,0,1-18.25,10.055l-.082.036a72.418,72.418,0,0,1-9.7,3.343,58.045,58.045,0,0,1-5.71,1.238,50.471,50.471,0,0,1-15.483.267c-10.111-1.433-19.586-6.162-29.671-7.744-20.808-3.23-41.015,7.189-60.6,15.37q-7.189,3.009-14.538,5.649-4.868,1.756-9.783,3.343a308,308,0,0,1-61.381,13.131,141.832,141.832,0,0,1-26.061.7,88.064,88.064,0,0,1-9.757-1.268c-10.974-2.054-21.219-6.414-29.471-14.379-6.856-6.517-11.693-15.036-15.38-23.925q-2.224-5.356-3.918-10.958a122.22,122.22,0,0,1-3.99-17.886c-.2-1.366-.38-2.737-.514-4.108q-.4-3.528-.6-7.087A122.732,122.732,0,0,1,74.3,363.877c3.5-13.552,9.331-26.528,11.9-40.209.108-.575.205-1.15.3-1.725q.514-3.081.781-6.275c1.294-16.731-3.713-33.107-7.667-49.508-.139-.575-.277-1.15-.411-1.725q-.642-2.727-1.217-5.459c-3.661-17.347-4.663-35.911-1.412-53.221.1-.575.221-1.155.339-1.725a86.087,86.087,0,0,1,12-30c6.085-9.326,14.076-17.085,22.595-23.9q6.239-4.981,12.9-9.32,4.791-3.112,9.757-5.89a162.619,162.619,0,0,1,87.442-20.541q2.4.123,4.786.329,2.506.216,5,.514c19.426,2.244,38.329,7.805,57.119,13.891q9.444,3.081,18.856,6.162,4.19,1.366,8.375,2.7c13.685,4.319,27.6,8.216,41.636,11.154q4.884,1.027,9.757,1.874a230.616,230.616,0,0,0,34.2,3.523q6.676.164,13.352-.139,3.374-.154,6.753-.452c23.268-1.992,45.7-8.673,68.231-14.949,3.256-.909,6.517-1.813,9.757-2.686,4.283-1.15,8.571-2.265,12.874-3.292,26.8-6.434,50.674-2.737,75.585,10.532,5.649,3.014,11.3,6.65,14.789,12.278s4.339,12.6,4.986,19.3c.914,9.541,1.541,19.216,1.741,28.932,0,.575,0,1.15.036,1.725A307.825,307.825,0,0,1,605.416,264.434Z" transform="translate(-70.452 -83.95)" fill="#6361d0" opacity="0.1"/>
    <path id="Path_6868" data-name="Path 6868" d="M433.475,322.156h-1.751v1.725h1.982Zm-19.848,0a.112.112,0,0,0,0,.041l-.154,1.428v.257h15.2v-.1l1.083-1.623Zm-40.645,0v-55.8h17.46c-.185-.154-.375-.308-.57-.452l-.257-.2c-.108-.087-.216-.169-.329-.246s-.38-.272-.58-.406-.324-.221-.513-.329l-.118-.077H372.982v-3.055l-.406.2-.431.241h-.031l-.092.056-.267.175c-.092.056-.185.113-.272.175-.267.18-.513.375-.8.575l-.257.205c-.175.133-.339.272-.513.411-.683.56-1.356,1.145-2.054,1.684-.175.139-.349.272-.514.4a13.267,13.267,0,0,1-1.161.76,5.522,5.522,0,0,1-.514.282l-.288.134-.262.113h0a10.914,10.914,0,0,1-1.91.606v54.551h-26.19a.792.792,0,0,0,.051.18c.144.514.288,1.027.426,1.541H363.22V383.7h.4l.457.031.832.062,1.345.134.606.072.668.082h.1c.385.051.775.113,1.171.175l.252.041.565.092.811.144h0l1.946-.1h0l.267.056a1.559,1.559,0,0,1,.329.067V323.882h40.47v-.257l.154-1.428a.113.113,0,0,1,0-.041Zm60.493,0h-1.751v1.725h1.982Zm-20.941,0-.175,1.725h16.91l1.15-1.725Zm-39.541,0v-55.8h17.46c-.185-.154-.375-.308-.57-.452l-.257-.2c-.108-.087-.216-.169-.329-.246s-.38-.272-.58-.406-.323-.221-.514-.329l-.118-.077h-15.1v-3.055l-.406.2-.431.241h-.031l-.092.056-.267.175c-.092.056-.185.113-.272.175-.267.18-.513.375-.8.575l-.257.205c-.175.133-.339.272-.513.411-.683.56-1.356,1.145-2.054,1.684-.175.139-.349.272-.514.4a13.267,13.267,0,0,1-1.161.76,5.522,5.522,0,0,1-.514.282l-.288.134-.262.113h0a10.914,10.914,0,0,1-1.91.606v54.551h-26.19a.792.792,0,0,0,.051.18c.144.514.293,1.027.431,1.541H363.22v59.815l.4.026.457.031.832.062,1.345.133.606.072.668.082h.1c.385.051.775.113,1.171.175l.252.041.565.092.811.144h0l1.946-.1h0l.267.056a1.557,1.557,0,0,1,.329.067V323.882h39.392l.185-1.725Zm132.314-116.21H615.317c0-.575,0-1.15-.036-1.725H505.306V136.467c-3.266.873-6.527,1.777-9.757,2.686v65.068H375.9l-.3-.329.457-.513h0l44.5-48.841q-6.676.308-13.352.139l-34.221,37.538V151.169q-4.9-.847-9.757-1.874v41.03l-50.032-54.88c-6.28-2.054-12.561-4.144-18.857-6.162l68.005,74.609-.3.329H237.218V115.382q-2.5-.282-5-.513-2.388-.211-4.786-.329v89.681H139.993V135.1q-4.976,2.773-9.757,5.89v63.23H82.679c-.118.57-.236,1.15-.339,1.725h47.855v58.68H84.99c.134.575.272,1.15.411,1.725h44.815v55.8H92.271c-.1.575-.2,1.15-.3,1.725h38.247V479.915a88.034,88.034,0,0,0,9.757,1.268v-157.3h87.463V467.349q4.919-1.6,9.783-3.343V323.882H363.2v125.35a72.4,72.4,0,0,0,9.7-3.343l.082-.036V323.882H495.518v58.783q4.873-.878,9.757-1.679v-57.1H592.4q.431-.863.847-1.725H505.306v-55.8H610.9c.108-.575.206-1.15.3-1.725h-105.9Zm-365.308,0h87.437v58.68H139.993Zm0,116.21v-55.8h87.437v55.8Zm97.225-116.21H363.2v58.68H237.218Zm0,116.21v-55.8H363.2v55.8Zm258.3,0H372.982v-55.8H495.518Zm0-57.514H372.982V207.518l1.72-1.571H495.518Zm-81.891,57.514a.111.111,0,0,0,0,.041l-.154,1.428v.257h15.2v-.1l1.084-1.623Zm19.848,0h-1.751v1.725h1.982Zm-60.493,0v-55.8h17.46c-.185-.154-.375-.308-.57-.452l-.257-.2c-.108-.087-.216-.169-.329-.246s-.38-.272-.58-.406-.324-.221-.513-.329l-.118-.077h-15.1v-3.055l-.406.2-.431.241h-.031l-.092.056-.267.175c-.092.056-.185.113-.272.175-.267.18-.513.375-.8.575l-.257.205c-.175.133-.339.272-.513.411-.683.56-1.356,1.145-2.054,1.684-.175.139-.349.272-.514.4a13.267,13.267,0,0,1-1.161.76,5.522,5.522,0,0,1-.514.282l-.288.134-.262.113h0a10.914,10.914,0,0,1-1.91.606v54.551h-26.19a.792.792,0,0,0,.051.18c.144.514.288,1.027.426,1.541H363.22V383.7h.4l.457.031.832.062,1.345.134.606.072.668.082h.1c.385.051.775.113,1.171.175l.252.041.565.092.811.144h0l1.946-.1h0l.267.056a1.559,1.559,0,0,1,.329.067V323.882h40.47v-.257l.154-1.428a.113.113,0,0,1,0-.041Z" transform="translate(-76.235 -84.143)" fill="#6361d0" opacity="0.1"/>
    <path id="Path_6869" data-name="Path 6869" d="M273.415,210.387h.781a1.869,1.869,0,0,1-.929-1.5h0c0-1.191,1.458-2.162,3.24-2.162h22.672c1.782,0,3.24.971,3.24,2.162h0c0,1.186-1.458,2.162-3.24,2.162h-.755a1.874,1.874,0,0,1,.924,1.5c0,1.027-1.058,1.869-2.475,2.1H303.4c1.777,0,3.235.971,3.235,2.162s-1.458,2.157-3.235,2.157H280.7c-1.777,0-3.235-.971-3.235-2.157,0-1.027,1.058-1.869,2.475-2.1h-6.527c-1.777,0-3.235-.971-3.235-2.162S271.628,210.387,273.415,210.387Z" transform="translate(-167.616 -128.987)" fill="#6361d0" opacity="0.1"/>
    <path id="Path_6870" data-name="Path 6870" d="M751.935,250.457h.76a1.875,1.875,0,0,1-.929-1.51h0c0-1.186,1.458-2.157,3.24-2.157h22.672c1.782,0,3.24.971,3.24,2.157h0c0,1.191-1.458,2.162-3.24,2.162h-.755a1.88,1.88,0,0,1,.924,1.51c0,1.027-1.058,1.864-2.475,2.1H781.9c1.777,0,3.235.976,3.235,2.162s-1.459,2.162-3.235,2.162H759.232c-1.777,0-3.235-.971-3.235-2.162,0-1.027,1.058-1.869,2.475-2.1h-6.537c-1.777,0-3.235-.976-3.235-2.162S750.169,250.457,751.935,250.457Z" transform="translate(-400.406 -148.48)" fill="#6361d0" opacity="0.1"/>
    <path id="Path_6871" data-name="Path 6871" d="M205.685,421.922h.76a1.879,1.879,0,0,1-.924-1.51h0c0-1.186,1.453-2.162,3.235-2.162h22.672c1.782,0,3.24.976,3.24,2.162h0c0,1.191-1.458,2.162-3.24,2.162h-.755a1.88,1.88,0,0,1,.924,1.51c0,1.027-1.058,1.864-2.475,2.1h6.527c1.782,0,3.235.971,3.235,2.162s-1.453,2.162-3.235,2.162H212.972c-1.777,0-3.235-.976-3.235-2.162,0-1.027,1.063-1.869,2.475-2.1h-6.527c-1.777,0-3.235-.971-3.235-2.157S203.908,421.922,205.685,421.922Z" transform="translate(-134.667 -231.892)" fill="#6361d0" opacity="0.1"/>
    <path id="Path_6872" data-name="Path 6872" d="M684.737,713.44q-1.905,1.51-3.81,3.014c-.745.591-1.5,1.176-2.249,1.761-.544.426-1.083.852-1.638,1.273-2.778,2.141-5.592,4.237-8.463,6.239-.683.478-1.376.955-2.054,1.422a108.3,108.3,0,0,1-18.25,10.055l-.082.036v-23.8Z" transform="translate(-351.51 -375.496)" fill="#65617d"/>
    <path id="Path_6873" data-name="Path 6873" d="M608.467,412.733l.575-17.742c-.344-.267-.693-.514-1.027-.76a94.575,94.575,0,0,0-.9-15.821c-2.321-17.742-17.393-18.127-21.645-14.466a10.268,10.268,0,0,1-1.833,1.263c.385-2.532.863-5.068,1.207-7.574,1.859-13.516-1.027-28.721-11.513-37.456-4.391-3.651-9.757-5.9-14.579-8.951-8.637-5.448-15.462-13.5-24.2-18.8s-21-7.292-28.624-.472c-2.953,2.64-4.858,6.3-7.888,8.848-5.649,4.745-14.456,5.058-19.385,10.358h0c-.247.267-.483.539-.709.827-4.108,5.269-2.983,12.74-1.674,19.278,1.577,7.867.924,14.173,7.672,16.433.026.313.046.627.082.935a33.333,33.333,0,0,0,14.666,23.992l-1.094.39c-2.917,1.027-5.541,2.023-7.22,2.706-6.162,2.511-19.134,5.782-19.134,5.782s-.308,3.7-.252,9.151c-4.324,4.7-11.539,12.956-13.66,17.85-3.081,7.138-20.489,27.581-25.126,30.667s-9.664,6.748-9.664,6.748-7.343,4.052-10.82,4.437c-2.408.267-9.86-1.161-9.86-1.161s-29.758-36.46-27.828-8.483,25.7,28.927,25.7,28.927l23.966-.385s12.951,1.736,18.749-3.081c4.95-4.108,30.606-26.647,38.848-36.871.19.211.38.416.58.616,0,0,3.281-4.242,3.672,0s-2.131,6.162-.775,7.7,5.413,6.943,5.6,9.064-5.407,10.784,4.057,17.357c.149.1.308.2.483.3,1.69,3.846,7.061,7.61,7.061,7.61l28.988-.385,54.695,4.242s1.628-1.433,3.831-3.774c2.942,2.7,7.025,5.017,11.626,3.595,0,0,6.573-7.9,6.768-13.11,0,0-4.252-10.994-6.162-14.271s1.356-10.414,1.356-10.414,2.316-6.943,3.672-6.943.385-4.622.385-4.622a5.618,5.618,0,0,1-.58-5.207A49.832,49.832,0,0,0,608.467,412.733Z" transform="translate(-218.095 -168.332)" fill="url(#linear-gradient)"/>
    <path id="Path_6874" data-name="Path 6874" d="M710.991,476.073l-2.054,2.4h0l-8.3,9.664L689.8,488.8l-17.352,1.068s-23.4-28.192-19-34.329c1.6-2.213,1.859-5.135,1.541-7.893-.041-.38-.1-.76-.164-1.135a32.811,32.811,0,0,0-2.732-8.422l.575-.262.37-.169,20.459-9.336,5.063-2.311a13.671,13.671,0,0,0,1.386,4c.1.2.206.39.318.575,6.979,11.554,29.358,4.247,29.358,4.247Z" transform="translate(-353.408 -235.667)" fill="#ee8e9e"/>
    <path id="Path_6875" data-name="Path 6875" d="M791.953,466.1c-.154,6.994-1.294,10.014-1.294,10.014L761.7,480.522,760.618,473l-4.288-29.687,4.026-4.026a10.748,10.748,0,0,0,9.207-2.3c4.216-3.646,19.175-3.261,21.475,14.379A97.633,97.633,0,0,1,791.953,466.1Z" transform="translate(-404.118 -240.116)" fill="#ee8e9e"/>
    <path id="Path_6876" data-name="Path 6876" d="M796.9,626.393s6.517-7.862,6.712-13.038l-6.522-10.933-5.751-6.162L780.6,617S787.7,629.269,796.9,626.393Z" transform="translate(-415.925 -318.49)" fill="#dfe5ee"/>
    <path id="Path_6877" data-name="Path 6877" d="M796.9,626.393s6.517-7.862,6.712-13.038l-6.522-10.933-5.751-6.162L780.6,617S787.7,629.269,796.9,626.393Z" transform="translate(-415.925 -318.49)" opacity="0.1"/>
    <path id="Path_6878" data-name="Path 6878" d="M398.373,705.48c-.544.426-1.083.852-1.638,1.273-2.778,2.141-5.592,4.237-8.463,6.239-.683.478-1.376.955-2.054,1.422H222.4l-48.466-1.736-38.976-.329-9.757-.514L76.524,709.27a122.228,122.228,0,0,1-4.011-17.9c-.2-1.366-.38-2.737-.514-4.108l53.185,2.948,9.757.549,87.442,4.879,9.783.544,125.987,7.035,9.7.544h.082Z" transform="translate(-71.205 -362.76)" fill="#d48a9b"/>
    <path id="Path_6879" data-name="Path 6879" d="M463.508,636.273A137.313,137.313,0,0,0,432.7,648.947c-.775.447-1.541.9-2.316,1.371s-1.541.935-2.285,1.417-1.494.96-2.234,1.448l-1.14.77-1.114.76c-1.1.755-2.182,1.541-3.266,2.3l-.041.031q-1.071.77-2.131,1.541c-4,2.963-7.913,6.065-11.811,9.177q-1.232.986-2.47,1.967l-3.8,3.014c-.745.59-1.5,1.176-2.249,1.761-.544.426-1.084.852-1.638,1.273l-28.757-1.371h-.082l-9.7-.452-126.044-5.972-9.783-.467L134.4,663.361l-9.757-.467-52.692-2.48c-.2-1.366-.38-2.737-.514-4.108q-.4-3.528-.6-7.086l53.8-19,9.757-3.456,8.863-3.133,16.15.842,37.328,1.915h0l25.121,1.32,9.783.514,6.25.329h0l1.494.082h0l52.595,2.747h0l.555.036h0L316,632.637h.421l2.347.118h0l8,.421,10,.513h0l3.3.175h0l.621.036,4.663.241h0l1.33.067h0l4.452.236h0l1.772.1h.426l4.165.221,6.45.339h.031l2,.1h.216l1.2.067,2.937.154h0l2.568.134h.026l2.881.149h.046l2.182.118h0l1.674.087,5.941.313h0l1.068.057h.37l.514.031h0l1.741.092h0l.781.041h0l6.06.313h.555l8.945-.077h.062l34.01-.277h3.364l10.948-.087H455.7Z" transform="translate(-70.641 -331.805)" fill="#efc6cd"/>
    <path id="Path_6880" data-name="Path 6880" d="M387.717,644.171,390.88,661l86-1.294s6.47,1.869,6.327-3.307c0,0,13.09-12.371,79.39,2.013L537.146,638.42l-69.582,3.739L386.88,640Z" transform="translate(-224.388 -339)" fill="#6361d0"/>
    <path id="Path_6881" data-name="Path 6881" d="M391.59,640.9l3.019,18.266s73.947-2.157,85.573-.144L471.4,642.339S426.684,638.169,391.59,640.9Z" transform="translate(-226.679 -339.756)" fill="#fff"/>
    <path id="Path_6882" data-name="Path 6882" d="M391.59,640.9l3.019,18.266s73.947-2.157,85.573-.144L471.4,642.339S426.684,638.169,391.59,640.9Z" transform="translate(-226.679 -339.756)" opacity="0.1"/>
    <path id="Path_6883" data-name="Path 6883" d="M393.74,640.832l2.978,16.987s73.007-2,84.51-.134l-8.663-15.514S428.392,638.291,393.74,640.832Z" transform="translate(-227.725 -339.754)" fill="#fff"/>
    <path id="Path_6884" data-name="Path 6884" d="M396.35,641.9l2.9,15.888s71.4-1.874,82.677-.123l-8.473-14.517S430.247,639.5,396.35,641.9Z" transform="translate(-228.995 -340.294)" opacity="0.1"/>
    <path id="Path_6885" data-name="Path 6885" d="M397.47,640.777l2.917,15.919s71.405-1.874,82.677-.123L474.57,642.04S431.368,638.4,397.47,640.777Z" transform="translate(-229.54 -339.755)" fill="#fff"/>
    <path id="Path_6886" data-name="Path 6886" d="M289.355,557.41s3.738,4.884-1.72,12.263-9.967,13.6-8.144,18.2c0,0,8.216-13.7,14.943-13.865S296.734,565.647,289.355,557.41Z" transform="translate(-171.945 -299.591)" fill="#6361d0"/>
    <path id="Path_6887" data-name="Path 6887" d="M289.555,557.41a5.937,5.937,0,0,1,.765,1.54c6.542,7.7,10.029,14.892,3.738,15.046-5.859.164-12.884,10.64-14.569,13.29q.087.3.2.6s8.216-13.7,14.943-13.865S296.934,565.647,289.555,557.41Z" transform="translate(-172.145 -299.591)" opacity="0.1"/>
    <path id="Path_6888" data-name="Path 6888" d="M311.8,568.5c0,1.715-.2,3.112-.431,3.112s-.431-1.4-.431-3.112.241-.914.478-.914S311.8,566.775,311.8,568.5Z" transform="translate(-187.445 -304.447)" fill="#ffd037"/>
    <path id="Path_6889" data-name="Path 6889" d="M314.47,572.408c-1.51.827-2.824,1.325-2.937,1.114s1.027-1.027,2.527-1.869.914-.226,1.027,0S315.98,571.586,314.47,572.408Z" transform="translate(-187.729 -306.31)" fill="#ffd037"/>
    <path id="Path_6890" data-name="Path 6890" d="M252.715,557.41s-3.738,4.884,1.725,12.263,9.962,13.6,8.144,18.2c0,0-8.242-13.7-14.949-13.865S245.336,565.647,252.715,557.41Z" transform="translate(-155.04 -299.591)" fill="#6361d0"/>
    <path id="Path_6891" data-name="Path 6891" d="M252.715,557.41a6.158,6.158,0,0,0-.765,1.54c-6.542,7.7-10.029,14.892-3.738,15.046,5.859.164,12.889,10.64,14.574,13.29a6.214,6.214,0,0,1-.2.6s-8.242-13.7-14.949-13.865S245.336,565.647,252.715,557.41Z" transform="translate(-155.04 -299.591)" opacity="0.1"/>
    <path id="Path_6892" data-name="Path 6892" d="M247.13,568.5c0,1.715.2,3.112.431,3.112s.431-1.4.431-3.112-.241-.914-.478-.914S247.13,566.775,247.13,568.5Z" transform="translate(-156.403 -304.447)" fill="#ffd037"/>
    <path id="Path_6893" data-name="Path 6893" d="M241.622,572.408c1.51.827,2.83,1.325,2.942,1.114s-1.027-1.027-2.526-1.869-.914-.226-1.027,0S240.113,571.586,241.622,572.408Z" transform="translate(-153.278 -306.31)" fill="#ffd037"/>
    <path id="Path_6894" data-name="Path 6894" d="M280.911,601.75l-.185,1.541-.262,2.152-.108.9-.262,2.157-.113.9-.267,2.157-2.989,24.505c-.267,2.188-3.841,3.893-8.155,3.893H253.052c-4.314,0-7.883-1.7-8.15-3.893l-2.994-24.505-.262-2.157-.108-.9-.267-2.157-.108-.9-.262-2.152-.19-1.541c-.149-1.237,1.782-2.28,4.226-2.28h31.766C279.144,599.47,281.08,600.513,280.911,601.75Z" transform="translate(-153.277 -320.052)" fill="#65617d"/>
    <path id="Path_6895" data-name="Path 6895" d="M210.489,551.59l-.262,2.157H170.912l-.262-2.157Z" transform="translate(-83.024 -268.367)" fill="#9d9cb5"/>
    <path id="Path_6896" data-name="Path 6896" d="M210.469,557.54l-.262,2.157h-38.57l-.267-2.157Z" transform="translate(-83.374 -271.261)" fill="#9d9cb5"/>
    <path id="Path_6897" data-name="Path 6897" d="M210.45,563.49l-.262,2.152H172.362l-.262-2.152Z" transform="translate(-83.73 -274.156)" fill="#9d9cb5"/>
    <path id="Path_6898" data-name="Path 6898" d="M402.2,596.714s-9.973-9.587-9.587,2.876S402.2,596.714,402.2,596.714Z" transform="translate(-227.17 -316.998)" fill="#ee8e9e"/>
    <path id="Path_6899" data-name="Path 6899" d="M482.408,521.549c-.221.965-1.294,2.568-2.968,4.576-8.648,10.414-33.25,32.059-38.072,36.075-5.751,4.8-18.6,3.081-18.6,3.081l-23.776.385s-23.586-.961-25.506-28.757,27.612,8.437,27.612,8.437,7.395,1.417,9.783,1.15c3.451-.38,10.738-4.406,10.738-4.406s4.986-3.646,9.587-6.712,21.861-23.4,24.931-30.493c1.946-4.5,8.216-11.867,12.545-16.643,2.485-2.747,4.329-4.622,4.329-4.622S483.748,515.6,482.408,521.549Z" transform="translate(-217.828 -263.693)" fill="#ee8e9e"/>
    <path id="Path_6900" data-name="Path 6900" d="M572.676,521.529c-.221.965-1.294,2.568-2.968,4.575-8.73-8.889-10.553-26.626-10.758-37.9,2.485-2.747,4.329-4.622,4.329-4.622S574.017,515.583,572.676,521.529Z" transform="translate(-308.097 -263.674)" opacity="0.1"/>
    <path id="Path_6901" data-name="Path 6901" d="M708.932,489.51h0l-8.293,9.664-10.841.657L672.446,500.9s-23.4-28.192-19-34.329c1.6-2.213,1.859-5.135,1.541-7.893-.041-.38-.1-.76-.164-1.135a32.809,32.809,0,0,0-2.732-8.422l.575-.262.37-.169a36.815,36.815,0,0,1,1.879,7.862c.057.365.108.745.159,1.135.18,1.387.344,2.927.513,4.622,1.335,15.519,11.1,21.357,15.5,23.216a44.741,44.741,0,0,1,4.149,2.008,22.138,22.138,0,0,0,13.916,2.516c10.876-1.428,19.745-9.331,19.745-9.331l.046,7.78Z" transform="translate(-353.408 -246.7)" opacity="0.1"/>
    <path id="Path_6902" data-name="Path 6902" d="M664.9,547.506s-71.333-.2-80.736-6.712-3.831-15.149-4.026-17.259-4.216-7.477-5.556-9.017,1.15-3.451.765-7.667-3.641,0-3.641,0c-13.429-13.618-10.553-48.132-10.553-48.132s12.838-3.256,19-5.757c1.669-.678,4.267-1.643,7.189-2.686l1.084-.39c7.533-2.7,16.489-5.741,16.489-5.741s1.72-1.217,3.451,2.424a32,32,0,0,1,2.223,8.679c.057.365.108.745.159,1.135.18,1.386.344,2.927.514,4.622,1.335,15.519,11.1,21.357,15.5,23.216a44.672,44.672,0,0,1,4.149,2.008,22.138,22.138,0,0,0,13.916,2.516c10.876-1.428,19.745-9.331,19.745-9.331l.046,7.78.133,23.375Z" transform="translate(-309.044 -244.394)" fill="#dfe5ee"/>
    <path id="Path_6903" data-name="Path 6903" d="M683.852,584.106l-1.15,7.287s-28.382,7.092-39.5,9.2-35.094-.575-36.819,4.026,7.287,10.933,7.287,10.933l28.757-.385,54.269,4.221s20.71-18.22,14-30.878S683.852,584.106,683.852,584.106Z" transform="translate(-331.065 -311.292)" fill="#ee8e9e"/>
    <path id="Path_6904" data-name="Path 6904" d="M633.267,474.58s-13.043,10.738-10.548,15.919S633.267,474.58,633.267,474.58Z" transform="translate(-338.965 -259.295)" opacity="0.1"/>
    <path id="Path_6905" data-name="Path 6905" d="M600.353,512.29s-13.234,22.821-12.463,24.546,4.411,7.862,4.216,3.261S600.353,512.29,600.353,512.29Z" transform="translate(-322.159 -277.641)" opacity="0.1"/>
    <path id="Path_6906" data-name="Path 6906" d="M616.247,520.14s-3.081,14.189-6.136,20.135S616.247,520.14,616.247,520.14Z" transform="translate(-332.683 -281.459)" opacity="0.1"/>
    <path id="Path_6907" data-name="Path 6907" d="M660.94,430.61a33.174,33.174,0,0,1-25.214,17.059h-.062a33.117,33.117,0,0,1-23.345-6.111c7.7-2.783,17.573-6.131,17.573-6.131s1.72-1.217,3.451,2.424l25.892-11.811A13.721,13.721,0,0,0,660.94,430.61Z" transform="translate(-334.06 -235.682)" opacity="0.1"/>
    <path id="Path_6908" data-name="Path 6908" d="M652.027,370.353a33.024,33.024,0,0,1-4.365,16.463,33.417,33.417,0,0,1-4.945,6.583,33.035,33.035,0,0,1-20.109,9.942h-.067a32.416,32.416,0,0,1-3.687.21,33.174,33.174,0,0,1-32.963-29.436,32.2,32.2,0,0,1-.211-3.743,33.173,33.173,0,0,1,66.347,0Z" transform="translate(-321.1 -192.463)" fill="#ee8e9e"/>
    <path id="Path_6909" data-name="Path 6909" d="M754.55,508.659l3.081-4.622s16.874-20.135,33.379-7.287l-.575,17.645a46.779,46.779,0,0,1-1.921,8.216,5.612,5.612,0,0,0,.575,5.181s.96,4.622-.38,4.622-3.646,6.9-3.646,6.9-3.261,7.1-1.34,10.358,6.137,14.189,6.137,14.189-6.712-4.026-8.632-10.738c0,0-16.3-12.658-28.957-4.622Z" transform="translate(-402.143 -267.996)" opacity="0.1"/>
    <path id="Path_6910" data-name="Path 6910" d="M796.015,492.052c-.154,6.994-1.294,10.014-1.294,10.014l-28.957,4.411-1.084-7.518C768.47,495,782.253,482.433,796.015,492.052Z" transform="translate(-408.18 -266.07)" opacity="0.1"/>
    <path id="Path_6911" data-name="Path 6911" d="M754.55,506.659l3.081-4.622s16.874-20.135,33.379-7.287l-.575,17.645a46.778,46.778,0,0,1-1.921,8.216,5.612,5.612,0,0,0,.575,5.181s.96,4.622-.38,4.622-3.646,6.9-3.646,6.9-3.261,7.1-1.34,10.358,6.137,14.189,6.137,14.189-6.712-4.026-8.632-10.738c0,0-16.3-12.658-28.957-4.622Z" transform="translate(-402.143 -267.023)" fill="#dfe5ee"/>
    <path id="Path_6912" data-name="Path 6912" d="M784.617,496.61s-27.8,17.069-26.462,32.039C758.156,528.649,773.69,501.211,784.617,496.61Z" transform="translate(-404.983 -270.012)" opacity="0.1"/>
    <path id="Path_6913" data-name="Path 6913" d="M676.566,435.261l.134,23.375c-5.259.236-10.214-.447-14.132-3.851a16.959,16.959,0,0,1-5.135-9.192,32.57,32.57,0,0,1-.667-8.694.463.463,0,0,1,0-.087c.323-6.455,1.808-12.91,1.027-19.324s-4.668-13.182-11.015-14.533c-1.253-.272-2.66-.37-3.553-1.289-.986-1.027-.94-2.624-.832-4.046l.185-2.4c.046-.616.067-1.227.067-1.838a23.535,23.535,0,0,0-19-23.078l-.205-.036a12.975,12.975,0,0,0-5.433-.3c-3.4.786-5.6,4.082-8.73,5.649-6.008,3-16.027-.282-22.318-1.315-.411-.067-.8-.144-1.176-.231a32.193,32.193,0,0,1-.21-3.743,33.173,33.173,0,1,1,61.982,16.463c.1.2.205.39.318.575,6.979,11.554,29.358,4.247,29.358,4.247l1.346,41.231Z" transform="translate(-321.047 -192.446)" opacity="0.1"/>
    <path id="Path_6914" data-name="Path 6914" d="M602.353,352.542c3.112-1.571,5.31-4.868,8.73-5.649a13.1,13.1,0,0,1,5.438.3l.205.041a23.555,23.555,0,0,1,18.913,24.921l-.185,2.4c-.113,1.417-.159,3.025.837,4.041.888.919,2.3,1.027,3.548,1.284,6.347,1.356,10.235,8.088,11.015,14.538s-.729,12.925-1.027,19.406.894,13.634,5.793,17.891c7.7,6.676,19.411,2.876,29.6,2.265-4.509,0-7.888-4.652-8.134-9.151s1.756-8.781,3.672-12.838,3.836-8.422,3.41-12.91c-.585-6.162-5.443-11.1-7.3-17.028-2.167-6.9-.077-14.312.9-21.486,1.844-13.434-1.027-28.557-11.426-37.24-4.355-3.631-9.68-5.864-14.466-8.9-8.576-5.438-15.339-13.413-24.007-18.7s-20.839-7.251-28.4-.472c-2.927,2.624-4.817,6.265-7.826,8.8-5.88,4.956-15.226,5.048-19.94,11.128-4.057,5.233-2.958,12.663-1.659,19.159,1.731,8.663.755,15.406,10.013,16.946C586.326,352.265,596.34,355.546,602.353,352.542Z" transform="translate(-312.919 -169.943)" fill="#603556"/>
    <path id="Path_6915" data-name="Path 6915" d="M678.578,451.992c-7.42.909-14.774,1.376-20.176-3.307-4.9-4.257-6.106-11.405-5.793-17.891s1.813-12.966,1.027-19.411-4.668-13.177-11.015-14.533c-1.253-.267-2.655-.365-3.548-1.284-.991-1.027-.95-2.629-.837-4.047l.185-2.4a23.55,23.55,0,0,0-18.913-24.916l-.205-.041a13.1,13.1,0,0,0-5.438-.3c-3.4.786-5.6,4.108-8.73,5.649-6.013,3-16.022-.277-22.323-1.309-9.243-1.515-8.278-8.268-10.014-16.946-.971-4.848-1.828-10.219-.514-14.81a8.092,8.092,0,0,0-.709.827c-4.057,5.233-2.958,12.663-1.659,19.16,1.73,8.663.755,15.405,10.014,16.946,6.3,1.027,16.309,4.314,22.323,1.309,3.112-1.571,5.31-4.868,8.73-5.649a13.1,13.1,0,0,1,5.438.3l.205.041A23.555,23.555,0,0,1,635.54,394.3l-.185,2.4c-.113,1.417-.159,3.025.837,4.041.888.919,2.3,1.027,3.548,1.284,6.347,1.356,10.234,8.088,11.015,14.538s-.724,12.925-1.027,19.406.893,13.634,5.793,17.891c7.7,6.676,19.411,2.876,29.6,2.265A7.81,7.81,0,0,1,678.578,451.992Z" transform="translate(-312.856 -192.098)" opacity="0.1"/>
    <path id="Path_6916" data-name="Path 6916" d="M372.368,583.44l31.659-11.811A3.014,3.014,0,0,1,407.9,573.4h0a3.014,3.014,0,0,1-1.766,3.877l-31.659,11.811-6.789-.678Z" transform="translate(-215.053 -306.415)" fill="#5c5c8e"/>
    <path id="Path_6917" data-name="Path 6917" d="M406.929,572.879h0a3.015,3.015,0,0,1-1.772,3.877l-31.679,11.852-5.094-.513-.734.78,6.789.678L406.1,577.742a3.014,3.014,0,0,0,1.766-3.877h0a3.015,3.015,0,0,0-1.232-1.5A3.5,3.5,0,0,1,406.929,572.879Z" transform="translate(-215.033 -306.863)" fill="#fff" opacity="0.1"/>
    <path id="Path_6918" data-name="Path 6918" d="M301.938,539.52l2.105,5.644-5.567-.56-1.217-.123,1.664-1.767Z" transform="translate(-144.617 -262.495)" fill="#efc8c4"/>
    <path id="Path_6919" data-name="Path 6919" d="M369.368,601a1.345,1.345,0,0,1,.329.354.514.514,0,0,1,0,.55,1.092,1.092,0,0,1-.3.221,1.028,1.028,0,0,0-.452.76l-1.222-.118Z" transform="translate(-215.067 -320.796)" fill="#727a9c"/>
    <path id="Path_6920" data-name="Path 6920" d="M569.815,647.569s27.422-5.757,73.433,1.541l-18.024-13.228-32.793-6.712-23.2,6.162Z" transform="translate(-313.098 -334.5)" fill="#fff"/>
    <path id="Path_6921" data-name="Path 6921" d="M569.815,647.569s27.422-5.757,73.433,1.541l-18.024-13.228-32.793-6.712-23.2,6.162Z" transform="translate(-313.098 -334.5)" opacity="0.1"/>
    <path id="Path_6922" data-name="Path 6922" d="M555.82,655.289s13.808-37.354,84.731.118L615.1,639.025s-60.98-16.849-68.026,2.568Z" transform="translate(-302.317 -335.996)" fill="#fff"/>
    <path id="Path_6923" data-name="Path 6923" d="M555.786,652.692s13.809-39.936,84.731.719l-25.455-17.768s-61-20.15-68.062.94Z" transform="translate(-302.283 -333.425)" opacity="0.1"/>
    <path id="Path_6924" data-name="Path 6924" d="M555.82,652.564s13.808-40.527,84.731.128L615.1,634.924s-60.98-19.575-68.026,1.541Z" transform="translate(-302.317 -333.281)" fill="#fff"/>
    <path id="Path_6925" data-name="Path 6925" d="M555.8,651.013s13.808-45.041,84.731.693l-25.476-19.991s-60.981-20.541-68.026,3.163Z" transform="translate(-302.298 -331.72)" opacity="0.1"/>
    <path id="Path_6926" data-name="Path 6926" d="M555.8,650.443s13.808-45.59,84.731.144L615.056,630.6s-60.981-20.541-68.026,3.163Z" transform="translate(-302.298 -331.176)" fill="#fff"/>
    <path id="Path_6927" data-name="Path 6927" d="M970.78,668.71s-17.023,18.235-1.7,27.093a4.251,4.251,0,0,0,4.863,1.15s-.966-.858.97-2.511a11.472,11.472,0,0,0,1.823-2,5.649,5.649,0,0,0,1.058-3.42h0s2.229-7.236-4.853-16.628c0,0-.642-3.143-1.186-3.487l-1.294,4.38s3.251.827,4.473,3.3c0,0-4.283-3.364-4.7-2.66-.082.144-.58,2.357-.58,2.357s5.649,1.458,7.415,5.341c0,0-4.565-4.688-7.61-4.5l-.555,3.379s6.044,1.253,8.216,5.6c0,0-4.94-4.74-8.3-4.848l-.1,3.394s5.87,1.335,7.662,4.961c0,0-6.26-4.894-7.631-4.18a16.785,16.785,0,0,0,.513,3.944s4.19,1.027,5.043,3.256c0,0-4.529-2.829-4.92-2.4,0,0,1.217,4.036,2.912,5.757a12.774,12.774,0,0,1-3.533-5.536,7.045,7.045,0,0,0-.852,3.939s-1.679-1.859.57-4.919c0,0-.822-3.184-.616-3.687,0,0-2.645,2.706-3.323,5.135,0,0-.514-3.04,3.317-6.013v-3.42s-3.687,3.394-4.447,5.495c0,0-.051-3.184,4.524-6.352l.514-3.322a25.982,25.982,0,0,0-4.75,4.837s.585-2.968,4.93-5.782l.6-2.177s-2.444,2-3.081,2.64-.878.514-.878.514a10.784,10.784,0,0,1,4.211-4.077S971.063,668.828,970.78,668.71Z" transform="translate(-504.505 -353.736)" fill="#6361d0" opacity="0.1"/>
    <path id="Path_6928" data-name="Path 6928" d="M1112.53,90.91s-22.744,10.27-12.021,24.336a4.256,4.256,0,0,0,4.042,2.942s-.56-1.166,1.864-1.946a11.246,11.246,0,0,0,2.455-1.145,5.649,5.649,0,0,0,2.3-2.747h0s4.848-5.813,1.936-17.208c0,0,.621-3.148.251-3.677l-2.886,3.543s2.681,2.013,2.855,4.771c0,0-2.65-4.755-3.307-4.262-.134.1-1.443,1.946-1.443,1.946s4.622,3.523,4.781,7.79c0,0-2.4-6.09-5.289-7.1l-1.813,2.907s5.094,3.487,5.433,8.334c0,0-2.732-6.275-5.788-7.672l-1.4,3.081s4.9,3.5,5.135,7.533c0,0-3.887-6.933-5.428-6.8a15.946,15.946,0,0,0-1.027,3.836s3.461,2.568,3.4,4.95c0,0-3.081-4.355-3.595-4.108,0,0-.436,4.19.467,6.434a12.747,12.747,0,0,1-1.125-6.47,7.028,7.028,0,0,0-2.305,3.307s-.832-2.367,2.423-4.324c0,0,.468-3.251.853-3.636,0,0-3.487,1.474-5.038,3.435,0,0,.694-3,5.382-4.267l1.335-3.143s-4.709,1.7-6.224,3.348c0,0,1.181-2.958,6.624-4.108l1.751-2.865a26.235,26.235,0,0,0-6.25,2.629s1.69-2.506,6.784-3.43l1.392-1.777s-3.03.9-3.877,1.243-1.027.139-1.027.139a10.782,10.782,0,0,1,5.489-2.136S1112.715,91.115,1112.53,90.91Z" transform="translate(-570.156 -72.648)" fill="#6361d0" opacity="0.1"/>
    <path id="Path_6929" data-name="Path 6929" d="M685.322,103.29s-34.17,9.757-17.557,24.279c0,0,1.474,3.081,6.2,3.081,0,0-.883-1.191,2.773-1.915a21.714,21.714,0,0,0,3.687-1.089,6.578,6.578,0,0,0,3.4-2.716h0s7.189-5.751,2.47-17.347c0,0,.857-3.163.283-3.708l-4.273,3.5s4.108,2.111,4.452,4.9c0,0-4.144-4.873-5.135-4.4-.2.1-2.136,1.926-2.136,1.926s7.128,3.687,7.451,8.006c0,0-3.8-6.219-8.216-7.313l-2.67,2.886s7.806,3.661,8.447,8.571c0,0-4.3-6.414-8.966-7.908l-2.054,3.081s7.518,3.667,8.011,7.754c0,0-6.075-7.112-8.406-7.025,0,0-1.607,2.927-1.464,3.857,0,0,5.31,2.711,5.284,5.094,0,0-4.8-4.488-5.587-4.252,0,0-.544,4.226.883,6.517,0,0-2.475-3.292-1.879-6.568,0,0-2.716,1.361-3.4,3.276,0,0-1.325-2.408,3.554-4.3,0,0,.621-3.276,1.191-3.656,0,0-5.238,1.4-7.533,3.338,0,0,.966-3.02,8.031-4.17l1.941-3.143s-7.087,1.6-9.336,3.22c0,0,1.71-2.958,9.926-3.985l2.568-2.85s-6.286,1.063-9.4,2.491c0,0,2.491-2.491,10.178-3.287l2.054-1.756s-4.565.832-5.839,1.15-1.541.113-1.541.113a20.228,20.228,0,0,1,8.216-2.013S685.62,103.506,685.322,103.29Z" transform="translate(-358.817 -78.67)" fill="#6361d0" opacity="0.1"/>
    <path id="Path_6930" data-name="Path 6930" d="M895.785,817.59s17.2-18.071,1.967-27.078a4.258,4.258,0,0,0-4.853-1.2s.96.868-.991,2.506a11.606,11.606,0,0,0-1.844,1.982,5.613,5.613,0,0,0-1.089,3.41h0s-2.306,7.215,4.688,16.674c0,0,.611,3.148,1.15,3.5l1.34-4.37s-3.246-.858-4.442-3.343c0,0,4.247,3.4,4.668,2.7.087-.144.606-2.347.606-2.347s-5.649-1.54-7.364-5.412c0,0,4.519,4.735,7.569,4.575l.585-3.374s-6.029-1.31-8.17-5.649c0,0,4.894,4.786,8.252,4.93l.129-3.4s-5.859-1.417-7.636-5.063c0,0,6.213,4.96,7.59,4.257a15.3,15.3,0,0,0-.513-3.944s-4.18-1.1-5.012-3.307c0,0,4.5,2.876,4.894,2.444,0,0-1.176-4.047-2.855-5.782a12.769,12.769,0,0,1,3.482,5.567,7.019,7.019,0,0,0,.888-3.929s1.664,1.88-.616,4.915c0,0,.791,3.194.58,3.692,0,0,2.67-2.681,3.369-5.079,0,0,.513,3.045-3.374,5.977l-.051,3.42s3.718-3.358,4.5-5.453c0,0,0,3.189-4.586,6.311l-.513,3.317a26.056,26.056,0,0,0,4.8-4.791s-.616,2.958-4.986,5.731l-.621,2.172s2.465-1.977,3.122-2.609.883-.514.883-.514a10.747,10.747,0,0,1-4.252,4.036S895.528,817.466,895.785,817.59Z" transform="translate(-468.47 -412.236)" fill="#6361d0" opacity="0.1"/>
    <path id="Path_6931" data-name="Path 6931" d="M575.85,55.954s2.932,24.772,19.591,18.795a4.259,4.259,0,0,0,4.021-2.973s-1.284.185-1.294-2.362a11.5,11.5,0,0,0-.354-2.686,5.607,5.607,0,0,0-1.926-3.014h0s-4.088-6.378-15.852-7c0,0-2.814-1.541-3.43-1.345l2.511,3.815s2.727-1.951,5.407-1.284c0,0-5.33,1.1-5.058,1.869.051.159,1.417,1.962,1.417,1.962s4.8-3.389,8.909-2.234c0,0-6.527.452-8.355,2.9L583.63,65s4.858-3.81,9.587-2.675c0,0-6.809.719-9.063,3.21l2.557,2.27s4.807-3.625,8.73-2.65c0,0-7.785,1.623-8.124,3.127a16.426,16.426,0,0,0,3.353,2.147s3.513-2.521,5.741-1.751c0,0-5.084,1.633-5.007,2.208,0,0,3.867,1.674,6.275,1.489a13.031,13.031,0,0,1-6.506-.873,7.04,7.04,0,0,0,2.46,3.194s-2.506.077-3.394-3.595c0,0-2.958-1.428-3.209-1.905,0,0,.359,3.764,1.761,5.834,0,0-2.66-1.541-2.455-6.414l-2.568-2.224s.211,5.007,1.32,6.948c0,0-2.465-2.018-1.931-7.559l-2.2-2.532A26.09,26.09,0,0,0,581.576,70s-1.885-2.362-1.227-7.5l-1.279-1.864s-.046,3.158,0,4.072-.175,1-.175,1a10.782,10.782,0,0,1-.4-5.87S576.107,55.831,575.85,55.954Z" transform="translate(-316.318 -55.347)" fill="#6361d0" opacity="0.1"/>
    <path id="Path_6932" data-name="Path 6932" d="M794.518,734.13s-24.043-6.676-24.813,11.01a4.261,4.261,0,0,0,1.227,4.848s.313-1.253,2.676-.3a11.519,11.519,0,0,0,2.619.693,5.612,5.612,0,0,0,3.523-.647h0s7.446-1.366,12.5-11.986c0,0,2.491-2.018,2.568-2.665l-4.483.878s.77,3.266-.863,5.495c0,0,1.027-5.351.19-5.392-.17,0-2.357.57-2.357.57s1.314,5.68-1.309,9.043c0,0,2.054-6.214.477-8.833l-3.256,1.073s1.684,5.936-1.161,9.88c0,0,1.921-6.568.462-9.6l-3.05,1.484s1.541,5.823-.857,9.089c0,0,1.448-7.816.18-8.7a16.716,16.716,0,0,0-3.251,2.29s1.027,4.206-.555,5.978c0,0,.411-5.325-.149-5.469,0,0-3.02,2.943-3.759,5.243a12.767,12.767,0,0,1,3.276-5.69,7.054,7.054,0,0,0-3.887,1.063s.873-2.347,4.622-1.766c0,0,2.444-2.2,2.984-2.249,0,0-3.595-1.1-6.07-.586,0,0,2.455-1.869,6.866.164l3.04-1.541s-4.714-1.7-6.927-1.407c0,0,2.8-1.541,7.7,1.073l3.173-1.083a26.124,26.124,0,0,0-6.481-1.977s2.9-.847,7.405,1.7l2.208-.478s-2.906-1.243-3.774-1.541-.863-.513-.863-.513a10.781,10.781,0,0,1,5.562,1.849S794.534,734.412,794.518,734.13Z" transform="translate(-410.478 -384.96)" fill="#6361d0" opacity="0.1"/>
  </g>
</svg>
