<svg xmlns="http://www.w3.org/2000/svg" width="511.53" height="367.152" viewBox="0 0 511.53 367.152">
  <g id="Group_1546" data-name="Group 1546" transform="translate(0 0)">
    <path id="Path_7197" data-name="Path 7197" d="M507.628,150.29c-.093.575-.185,1.15-.288,1.725-3.3,19.586-8.7,38.468-16.719,55.8q-.395.863-.8,1.725a160.665,160.665,0,0,1-18.838,30.616c-4,5.079-8.352,9.9-13.532,13.382-7.261,4.878-15.749,6.861-24.091,8.483-8.669,1.689-17.45,3.081-26.211,4.622q-4.658.8-9.258,1.679a247.3,247.3,0,0,0-25.066,5.947,126.652,126.652,0,0,0-29.237,12.674q-1.111.668-2.2,1.371c-.726.462-1.462.935-2.168,1.417s-1.418.96-2.12,1.448l-1.082.77c-.356.246-.707.514-1.057.76-1.043.75-2.071,1.541-3.1,2.3l-.039.031q-1.016.77-2.022,1.541c-3.8,2.963-7.509,6.065-11.207,9.177l-2.334,1.967q-1.808,1.51-3.616,3.014c-.707.591-1.423,1.176-2.134,1.761-.517.426-1.028.852-1.554,1.274-2.636,2.141-5.306,4.237-8.03,6.239-.648.478-1.306.955-1.949,1.422A101.319,101.319,0,0,1,281.656,331.5l-.078.036a66.362,66.362,0,0,1-9.2,3.343,52.662,52.662,0,0,1-5.419,1.238,45.477,45.477,0,0,1-14.691.267c-9.595-1.433-18.585-6.162-28.155-7.744-19.745-3.23-38.919,7.189-57.5,15.37q-6.822,3.009-13.795,5.649Q148.2,351.41,143.537,353a279.419,279.419,0,0,1-58.245,13.131,127.753,127.753,0,0,1-24.729.7,79.507,79.507,0,0,1-9.258-1.268c-10.413-2.054-20.134-6.414-27.965-14.379-6.505-6.517-11.1-15.036-14.594-23.925Q6.636,321.9,5.028,316.3a127.875,127.875,0,0,1-3.786-17.886c-.19-1.366-.361-2.737-.487-4.108q-.38-3.528-.565-7.087a129.085,129.085,0,0,1,3.465-37.487c3.318-13.552,8.854-26.528,11.29-40.209.1-.575.195-1.15.287-1.725q.487-3.081.741-6.275c1.228-16.731-3.523-33.107-7.275-49.508-.132-.575-.263-1.15-.39-1.725q-.609-2.727-1.155-5.459c-3.474-17.347-4.425-35.911-1.34-53.221.1-.575.21-1.155.322-1.725a88.8,88.8,0,0,1,11.383-30c5.774-9.326,13.356-17.085,21.44-23.9q5.92-4.981,12.245-9.32,4.546-3.112,9.258-5.89C85.843,5.873,114.8-1.4,143.435.224q2.276.123,4.541.329,2.378.216,4.741.514c18.434,2.244,36.371,7.805,54.2,13.891q8.961,3.081,17.893,6.162,3.976,1.366,7.948,2.7a395.689,395.689,0,0,0,39.509,11.154Q276.9,36,281.525,36.843a208.042,208.042,0,0,0,32.448,3.523q6.335.164,12.669-.139,3.2-.154,6.408-.452c22.079-1.992,43.368-8.673,64.745-14.949,3.089-.909,6.184-1.813,9.258-2.686,4.064-1.15,8.133-2.265,12.216-3.292,25.426-6.434,48.085-2.737,71.723,10.532,5.36,3.014,10.72,6.65,14.034,12.278s4.117,12.6,4.731,19.3c.867,9.541,1.462,19.216,1.652,28.932,0,.575,0,1.15.034,1.725A324.1,324.1,0,0,1,507.628,150.29Z" transform="translate(511.53 367.152) rotate(180)" fill="#6361d0" opacity="0.1"/>
    <g id="undraw_candidate_ubwv" transform="translate(48.127 26.701)">
      <path id="Path_7177" data-name="Path 7177" d="M801.518,682.221l-2.264-28.141-6.469,29.758s.085,7.507.3,15.731h8.288C801.652,690.169,801.518,682.221,801.518,682.221Z" transform="translate(-485.349 -418.978)" fill="#f2f2f2"/>
      <path id="Path_7178" data-name="Path 7178" d="M536,689.932a57.3,57.3,0,0,1-1.346-8l-.906-9.734c-.381-2.666-.772-5.015-1.165-7.089-2.884-14.783-5.861-15.318-5.861-15.318-.128.1-.252.206-.38.318a9.593,9.593,0,0,0-.975,1.028c-4.742,6.026-7.958,21.657-9.648,32.026-.933,5.728-1.4,9.849-1.4,9.849s.423,1.756,1,4.26h21.637A38.47,38.47,0,0,0,536,689.932Z" transform="translate(-336.249 -416.682)" fill="#f2f2f2"/>
      <path id="Path_7179" data-name="Path 7179" d="M500.888,148H196.864A66.058,66.058,0,0,0,131,213.864V362.727a66.058,66.058,0,0,0,65.864,65.864h96.359l-1.243-5.854s-3.2-20.639,0-36.73a120.8,120.8,0,0,0,2.122-15.3,92.157,92.157,0,0,1,2.832-17.176c.085-.325.18-.646.268-.97-.78-.212-1.138-.382-.957-.489.5-.3.775-1.2.911-2.346A112.3,112.3,0,0,1,302,327.387c-3.232,2.029-5.377,2.244-6.782,1.458-4.936-1.348-2.887-12.45-2.887-12.45s3.068-24.013,4.087-32.707c.586-5,8.092-7.83,14.737-9.367a7.38,7.38,0,0,0,.884-4.6c-.022-.107-.053-.21-.081-.315-.845-1.877-2.562-3.421-3.207-5.364a5.659,5.659,0,0,1-.6-1.674c-.571-3.332,2.545-6.21,3.443-9.414a7.756,7.756,0,0,1-1.992-3.194c-1.369-2.807-.7-6.177,3.694-8.779.877-.519,1.807-.978,2.752-1.418a4.281,4.281,0,0,1,1.117-.512c3.145-1.423,6.306-2.8,8.189-5.569a4.945,4.945,0,0,1,1.694-1.916,3.267,3.267,0,0,1,1.167-.261c6.06-.465,11.548,4.732,17.579,3.987,1.827-.226,3.692-.994,5.446-.441a6.447,6.447,0,0,1,2.826,2.164,22.3,22.3,0,0,1,4.836,18.364c-.765,3.973-2.624,8.069-1.284,11.891.985,2.809,3.621,5.089,3.64,8.06.015,2.445-1.72,4.4-3.4,6.3q.327.334.638.687c4.1,4.669,3.323,8.654,2.745,10.249h0L359.145,312.9l-1.777,13.643s-.439,5.6-4.578,6.827a6.672,6.672,0,0,1-4.861.073c-1.347-.41-2.482-.82-3.446-1.218a45.5,45.5,0,0,1,2.223,14.607c-.355,8.046.711,8.745.711,8.745a1.443,1.443,0,0,1-.226.224,32.975,32.975,0,0,1-.129,28.461c-4.975,10.844.355,36.031.355,36.031s.379,3.929.55,8.3h76.321c-1.214-11.578-2.672-23.169-3.32-24.464-1.068-2.136.288-37.325.794-49.548-.225-.057-.445-.115-.652-.174-.361-.1-.685-.211-.985-.322a7.18,7.18,0,0,0,.2,1.848c.449,1.048-.628,1.819-2.459,2.344,1.065,5.2,2.38,14.866-2.07,16.74-4.577,1.927-4.669-9.78-4.417-15.882-.577.021-1.156.033-1.728.033-5.5,0,1.617-63.721,1.294-67.926s2.588-21.348,2.588-21.348.97-3.558,3.881-4.2,16.82-8.733,16.82-8.733a10.388,10.388,0,0,1,2.911-2.756v-.479a10.656,10.656,0,0,1,1.154-.934c-.17-2.826-.552-6.472-.831-8.936a11.289,11.289,0,0,1-3.035-5.807,17.805,17.805,0,0,1-1.694-1.5,8.825,8.825,0,0,1-2.169-5.508,17.4,17.4,0,0,1,.863-5.946,7.12,7.12,0,0,1,.749-1.816,6.572,6.572,0,0,1,1.693-1.679c.2-.146.4-.282.6-.419a5.666,5.666,0,0,1,1.83-2.077c1.651-1.084,3.775-1,5.75-.946h.089q.549-.088,1.1-.146a1.131,1.131,0,0,0,.884-.866l.8.77q.6-.009,1.2.021a8.593,8.593,0,0,1,.623-1.171l.439,1.254c.4.043.8.1,1.2.166l.943-.749c.07-.055.32.763.446,1.044.216.056.432.115.646.181.334-.015.705-.078.912-.074a6.1,6.1,0,0,1,3.251.81,6.982,6.982,0,0,1,2.066,2.385,15.448,15.448,0,0,1,2.306,6.653,7.711,7.711,0,0,1,1.279,2.859c.534,3.247-2.552,5.96-3.163,9.194-.326,1.725.046,3.635-.833,5.155a5.385,5.385,0,0,1-1.482,1.554,11.186,11.186,0,0,1-1.1.721,28.112,28.112,0,0,0,.669,5.814l.416,1.6c.647.467,1.345,1.006,2.111,1.639,0,0,9.057,3.881,12.291,5.822,2.844,1.706,5.935,1.914,6.861,4.137l.255.068s3.235,35.9,3.558,42.049,4.2,43.99,3.558,45.607c-.24.6-1.765,1.285-3.607,1.832,1.075,4.912,2.81,15.6-1.892,17.576-4.767,2.007-4.669-10.774-4.385-16.611-.636-.057-1.052-.224-1.114-.532-.053-.263-.221-1.451-.465-3.261-.4.063-.821.127-1.266.195l-.274.041c4.1,12.9-4.982,47.111-6.729,53.808-.913,3.5-1.9,12.151-2.785,20.906h40.008a66.058,66.058,0,0,0,65.864-65.864V213.864A66.058,66.058,0,0,0,500.888,148Z" transform="translate(-131 -148)" fill="#f2f2f2"/>
      <ellipse id="Ellipse_192" data-name="Ellipse 192" cx="44.133" cy="40.161" rx="44.133" ry="40.161" transform="translate(53.424 38.349)" fill="#3f3d56"/>
      <path id="Path_7180" data-name="Path 7180" d="M477.689,553.777h0s14.866-10.22,14.866-14.866,10.22-34.842,15.795-21.37-7.9,32.519-7.9,32.519-14.866,26.944-23.692,31.59-16.259,1.858-16.259,1.858V570.966l8.493-12.569A10.5,10.5,0,0,1,477.689,553.777Z" transform="translate(-307.429 -344.031)" fill="#ffb9b9"/>
      <path id="Path_7181" data-name="Path 7181" d="M406.544,446.336s22.278,7.044,24.6,10.3,3.252-2.323,9.756,19.047a223.348,223.348,0,0,1,8.13,42.042S433,523.064,434.861,543.969s-2.787,43.668-2.787,43.668h-5.8L413.492,548.15l15.33-59.928S407.029,451.37,406.544,446.336Z" transform="translate(-278.539 -307.743)" fill="#575a89"/>
      <circle id="Ellipse_193" data-name="Ellipse 193" cx="27.873" cy="27.873" r="27.873" transform="translate(92.679 63.412)" fill="#ffb9b9"/>
      <path id="Path_7182" data-name="Path 7182" d="M363.168,377.01s-7.9,26.015-.929,29.732,14.866,20.44,14.866,20.44l-12.079,13.472H337.153L324.61,426.717l-5.11-23.692,6.968-5.575s7.433-18.582,7.433-28.338S363.168,377.01,363.168,377.01Z" transform="translate(-231.931 -264.819)" fill="#ffb9b9"/>
      <path id="Path_7183" data-name="Path 7183" d="M352.64,441.067s-5.575-1.394-2.323,4.181,6.5,15.795-5.11,16.259-23.228-5.575-26.944-18.118-5.11-11.614-6.5-11.149S295.5,448.035,295.5,448.035l5.11,28.8,1.858,103.131h67.825s2.787-29.732-1.858-36.7,4.181-24.621,4.181-24.621,7.9-12.078,1.858-35.306S354.963,441.067,352.64,441.067Z" transform="translate(-219.081 -300.074)" fill="#6c63ff"/>
      <path id="Path_7184" data-name="Path 7184" d="M285.562,431.413a12.226,12.226,0,0,0-13.008,2.323c-6.039,5.575-19.511,10.22-19.511,13.008s11.614,82.226,3.716,96.163S240.5,579.142,240.5,579.142h38.75s6.312-23.228,12.816-35.771,6.039-47.849,4.181-58.534S285.562,431.413,285.562,431.413Z" transform="translate(-189.631 -299.247)" fill="#575a89"/>
      <path id="Path_7185" data-name="Path 7185" d="M118.5,542.539l2.262,24.621H145.87L143.586,536.5Z" transform="translate(-63.45 -287.266)" fill="#ffb9b9"/>
      <path id="Path_7186" data-name="Path 7186" d="M364.5,477.594l6.039,37.629H504.8L516.41,439.5Z" transform="translate(-195.17 -235.328)" fill="#3f3d56"/>
      <path id="Path_7187" data-name="Path 7187" d="M503.85,428.5l1.394,6.968L331.5,477.278v-6.039Z" transform="translate(-177.5 -229.438)" fill="#3f3d56"/>
      <path id="Path_7188" data-name="Path 7188" d="M543.429,453.894l-.929,7.9,10.22-1.394-4.181-7.9Z" transform="translate(-290.479 -242.289)" fill="#3f3d56"/>
      <path id="Path_7189" data-name="Path 7189" d="M554.5,431.464s20.44-1.394,26.015,14.4S599.1,490,604.207,494.179s10.685,15.33,9.756,19.047" transform="translate(-357.761 -299.763)" fill="none" stroke="#3f3d56" stroke-miterlimit="10" stroke-width="5"/>
      <path id="Path_7190" data-name="Path 7190" d="M547.614,426.449c0,2.181-2.319,3.949-6.039,3.949S536,428.63,536,426.449s1.854-3.949,5.575-3.949S547.614,424.268,547.614,426.449Z" transform="translate(-347.855 -294.98)" fill="#6c63ff"/>
      <path id="Path_7191" data-name="Path 7191" d="M443.92,511.682s3.484-14.633-3.02-36-7.433-15.795-9.756-19.047-24.6-10.3-24.6-10.3c.159,1.654,2.62,6.744,5.851,12.833a24.71,24.71,0,0,0-2.62-6.253c-3.252-5.575,2.323-4.181,2.323-4.181,2.323,0,15.795,19.047,21.834,42.274s-1.858,35.306-1.858,35.306Z" transform="translate(-278.539 -307.743)" fill="#575a89"/>
      <path id="Path_7192" data-name="Path 7192" d="M407,446s2.75,10.433,5.092,11.953S428.318,473.9,428.318,473.9l-1.807-11.639-7.433-11.149-1.977-1.435Z" transform="translate(-278.783 -307.563)" fill="#575a89"/>
      <path id="Path_7193" data-name="Path 7193" d="M255.187,487.425l.648-23.925s-15.281,6.5-16.675,34.377,2.323,80.368,7.433,80.833,29.267-5.11,29.267-5.11,3.716-67.36,2.323-76.187S255.187,487.425,255.187,487.425Z" transform="translate(-188.755 -316.933)" opacity="0.1"/>
      <path id="Path_7194" data-name="Path 7194" d="M252.6,463.5h-3.766s-15.281,6.5-16.675,34.377,2.323,80.368,7.433,80.833,29.267-5.11,29.267-5.11,3.716-67.36,2.323-76.187S252.6,463.5,252.6,463.5Z" transform="translate(-185.007 -316.933)" fill="#575a89"/>
      <ellipse id="Ellipse_194" data-name="Ellipse 194" cx="28.802" cy="32.287" rx="28.802" ry="32.287" transform="translate(58.534 51.566)" fill="#3f3d56"/>
      <ellipse id="Ellipse_195" data-name="Ellipse 195" cx="5.807" cy="8.594" rx="5.807" ry="8.594" transform="translate(102.202 92.911)" fill="#ffb9b9"/>
      <circle id="Ellipse_196" data-name="Ellipse 196" cx="23.692" cy="23.692" r="23.692" transform="translate(34.842 27.873)" fill="#3f3d56"/>
      <path id="Path_7195" data-name="Path 7195" d="M223.714,278.111a23.69,23.69,0,0,1-34.327-18.867,23.69,23.69,0,1,0,47,1.319A23.656,23.656,0,0,1,223.714,278.111Z" transform="translate(-162.118 -207.565)" fill="#3f3d56"/>
      <path id="Path_7196" data-name="Path 7196" d="M216.607,224.427a23.69,23.69,0,0,1,11.931-37.309,23.69,23.69,0,1,0,7.723,46.382A23.655,23.655,0,0,1,216.607,224.427Z" transform="translate(-171.071 -168.946)" fill="#3f3d56"/>
      <ellipse id="Ellipse_197" data-name="Ellipse 197" cx="16.724" cy="12.078" rx="16.724" ry="12.078" transform="translate(105.454 57.605)" fill="#3f3d56"/>
    </g>
  </g>
</svg>
