<svg xmlns="http://www.w3.org/2000/svg" width="76.005" height="75.153" viewBox="0 0 76.005 75.153">
  <g id="Group_1568" data-name="Group 1568" transform="translate(-453 -4045)">
    <g id="Group_1524" data-name="Group 1524">
      <g id="Group_1480" data-name="Group 1480" transform="translate(16.001 7.329)">
        <circle id="Ellipse_218" data-name="Ellipse 218" cx="28.078" cy="28.078" r="28.078" transform="translate(436.999 4056.669)" fill="#e8e8f3"/>
        <g id="baseline-brush-24px" transform="translate(443.805 4037.671)">
          <path id="Path_7311" data-name="Path 7311" d="M0,0H69.2V69.2H0Z" fill="none"/>
          <path id="Path_7312" data-name="Path 7312" d="M16.416,34.72a8.638,8.638,0,0,0-8.65,8.65A5.851,5.851,0,0,1,2,49.137,14.918,14.918,0,0,0,13.533,54.9,11.53,11.53,0,0,0,25.066,43.37,8.638,8.638,0,0,0,16.416,34.72ZM55.945,7.7,52.082,3.841a2.871,2.871,0,0,0-4.065,0L22.183,29.675,30.112,37.6,55.945,11.77A2.871,2.871,0,0,0,55.945,7.7Z" transform="translate(3.766 5.645)" fill="#6361d0"/>
        </g>
      </g>
    </g>
  </g>
</svg>
