<svg xmlns="http://www.w3.org/2000/svg" width="72.321" height="81.68" viewBox="0 0 72.321 81.68">
  <g id="Group_1567" data-name="Group 1567" transform="translate(-233 -4042)">
    <g id="Group_1523" data-name="Group 1523">
      <g id="Group_1481" data-name="Group 1481" transform="translate(3.362 -5.31)">
        <circle id="Ellipse_213" data-name="Ellipse 213" cx="28.078" cy="28.078" r="28.078" transform="translate(233.892 4047.31)" fill="#e8e8f3"/>
        <g id="baseline-directions_bike-24px" transform="translate(229.638 4056.669)">
          <path id="Path_7309" data-name="Path 7309" d="M0,0H72.321V72.321H0Z" fill="none"/>
          <path id="Path_7310" data-name="Path 7310" d="M46.707,13.554a6.027,6.027,0,1,0-6.027-6.027A6.044,6.044,0,0,0,46.707,13.554ZM15.067,33.14a15.067,15.067,0,0,0,0,30.134,15.067,15.067,0,0,0,0-30.134Zm0,25.614a10.547,10.547,0,0,1,0-21.094,10.547,10.547,0,0,1,0,21.094ZM32.544,28.62l7.232-7.232L42.187,23.8a21.111,21.111,0,0,0,15.368,6.328V24.1a14.971,14.971,0,0,1-10.848-4.52l-5.725-5.725a7.389,7.389,0,0,0-4.821-1.808,5.057,5.057,0,0,0-4.219,1.808L23.5,22.292A5.949,5.949,0,0,0,21.7,26.511,5.057,5.057,0,0,0,23.5,30.73l9.643,8.437V54.234h6.027V35.551Zm24.71,4.52A15.067,15.067,0,1,0,72.321,48.207,14.921,14.921,0,0,0,57.254,33.14Zm0,25.614A10.547,10.547,0,1,1,67.8,48.207,10.677,10.677,0,0,1,57.254,58.754Z" transform="translate(0 3.02)" fill="#6361d0"/>
        </g>
      </g>
    </g>
  </g>
</svg>
