<svg xmlns="http://www.w3.org/2000/svg" width="957.301" height="809.987" viewBox="0 0 957.301 809.987">
  <g id="undraw_work_time_lhoj" transform="translate(0 0.002)">
    <ellipse id="Ellipse_198" data-name="Ellipse 198" cx="40.638" cy="6.233" rx="40.638" ry="6.233" transform="translate(48.687 684.587)" fill="#6c63ff" opacity="0.1"/>
    <ellipse id="Ellipse_199" data-name="Ellipse 199" cx="40.638" cy="6.233" rx="40.638" ry="6.233" transform="translate(634.811 693.068)" fill="#6c63ff" opacity="0.1"/>
    <ellipse id="Ellipse_200" data-name="Ellipse 200" cx="40.638" cy="6.233" rx="40.638" ry="6.233" transform="translate(534.699 750.815)" fill="#6c63ff" opacity="0.1"/>
    <ellipse id="Ellipse_201" data-name="Ellipse 201" cx="40.638" cy="6.233" rx="40.638" ry="6.233" transform="translate(180.366 638.08)" fill="#6c63ff" opacity="0.1"/>
    <ellipse id="Ellipse_202" data-name="Ellipse 202" cx="233.097" cy="50.247" rx="233.097" ry="50.247" transform="translate(0 709.49)" fill="#6c63ff" opacity="0.1"/>
    <path id="Path_7201" data-name="Path 7201" d="M1037.658,595.824c-6.292,15.166-14.547,29.7-26.1,40.854-14.076,13.585-31.558,21-50.277,24.54a151.429,151.429,0,0,1-16.687,2.159,242.544,242.544,0,0,1-44.466-1.2,525.725,525.725,0,0,1-104.735-22.41q-8.393-2.709-16.687-5.7-12.515-4.486-24.8-9.629c-33.374-13.948-67.877-31.735-103.381-26.218-17.207,2.68-33.374,10.8-50.62,13.212a90.51,90.51,0,0,1-36.162-2.572,124.242,124.242,0,0,1-16.687-5.762,189.865,189.865,0,0,1-34.67-19.632c-26.012-18.179-49.354-40.716-76.74-56.461-30.194-17.364-63.617-25.619-97.668-31.774q-8.314-1.5-16.687-2.866c-15.754-2.6-31.548-5.006-47.116-7.853-15-2.768-30.262-6.154-43.317-14.478-9.315-5.939-17.148-14.164-24.333-22.832a272.377,272.377,0,0,1-33.884-52.24q-.736-1.473-1.443-2.945c-14.419-29.585-24.118-61.84-30.066-95.214-.177-.982-.344-1.963-.51-2.945-5.595-32.716-7.637-66.542-7.018-100.122l.059-2.945c.383-16.579,1.413-33.089,2.945-49.364,1.1-11.445,2.572-23.322,8.5-32.942s15.588-15.794,25.207-20.937C212.851,64.9,253.6,58.6,299.319,69.577c7.342,1.757,14.655,3.651,21.968,5.615,5.566,1.492,11.131,3.033,16.687,4.584C376.383,90.484,414.695,101.88,454.4,105.3q5.752.5,11.514.766,11.4.53,22.792.236a393.8,393.8,0,0,0,58.345-6.007q8.363-1.443,16.687-3.2c23.951-5,47.685-11.661,71.037-19.033q7.156-2.258,14.292-4.594c10.719-3.5,21.438-7.077,32.176-10.552C713.3,52.517,745.518,43.025,778.706,39.2q4.26-.481,8.52-.854c2.719-.236,5.448-.422,8.167-.56,51.484-2.748,103.557,9.669,149.2,35.082q8.5,4.721,16.687,10.051,11.357,7.391,22.017,15.9c14.567,11.632,28.2,24.873,38.586,40.785,10.12,15.5,16.687,32.9,20.466,51.2.206.982.4,1.963.579,2.945,5.546,29.536,3.818,61.212-2.4,90.806-.658,3.1-1.355,6.213-2.081,9.315-.226.982-.461,1.963-.7,2.945-6.714,27.985-15.293,55.891-13.055,84.5.285,3.6.736,7.175,1.325,10.709.167.982.334,1.963.52,2.945,4.378,23.342,14.331,45.487,20.3,68.6a211.354,211.354,0,0,1-9.178,132.249Z" transform="translate(-112.759 -37.41)" fill="#6c63ff" opacity="0.1"/>
    <path id="Path_7202" data-name="Path 7202" d="M961.282,193.754h81.658c-.177-.982-.373-1.963-.579-2.945H961.282V82.923Q953.1,77.6,944.6,72.872V190.809h-149.2V37.79c-2.719.137-5.448.324-8.167.559s-5.683.53-8.52.854V190.809h-213l-.51-.56L681.246,62.909c-10.739,3.475-21.457,7.048-32.176,10.552L563.74,167.094V97.088q-8.334,1.747-16.687,3.2v70.036l-58.346-64.029q-11.4.275-22.792-.236l76.721,84.191-.51.56H337.956V79.782c-5.556-1.551-11.121-3.092-16.687-4.584V190.809H133.639l-.059,2.945H321.289V293.876H140.6c.167.982.334,1.963.51,2.945h180.18v95.214H171.175q.707,1.472,1.443,2.945H321.289v97.432q8.363,1.374,16.687,2.866v-100.3H547.053v208.1a124.255,124.255,0,0,0,16.687,5.762V394.979H778.707V634.064q8.3,3,16.687,5.7V394.979H944.6V663.374a151.381,151.381,0,0,0,16.687-2.159V394.979h65.256c-.187-.982-.354-1.963-.52-2.945H961.233V296.821H1037.7c.235-.982.471-1.963.7-2.945H961.282Zm-16.687,0V293.876h-149.2V193.754ZM778.707,293.876H563.74V193.754H778.707ZM337.976,193.754H544.108l2.945,2.68v97.442H337.976Zm0,198.28V296.821H547.053v95.214Zm225.765,0V296.821H778.707v95.214Zm380.855,0h-149.2V296.821H944.6Z" transform="translate(-112.761 -37.417)" fill="#6c63ff" opacity="0.1"/>
    <path id="Path_7203" data-name="Path 7203" d="M885.667,126.323h-1.3a3.17,3.17,0,0,0,1.581-2.572h0c0-2.022-2.484-3.681-5.517-3.681H841.761c-3.033,0-5.526,1.659-5.526,3.681h0c0,2.032,2.493,3.691,5.526,3.691h1.3a3.181,3.181,0,0,0-1.58,2.572c0,1.728,1.806,3.19,4.221,3.583H834.546c-3.043,0-5.526,1.659-5.526,3.681s2.483,3.691,5.526,3.691H873.23c3.043,0,5.526-1.659,5.526-3.691,0-1.728-1.806-3.18-4.231-3.573h11.141c3.033,0,5.516-1.659,5.516-3.691S888.7,126.323,885.667,126.323Z" transform="translate(-125.567 -38.932)" fill="#6c63ff" opacity="0.1"/>
    <path id="Path_7204" data-name="Path 7204" d="M458.507,162.093h-1.3a3.219,3.219,0,0,0,1.58-2.572h0c0-2.032-2.483-3.691-5.526-3.691H414.581c-3.043,0-5.526,1.659-5.526,3.691h0c0,2.022,2.483,3.681,5.526,3.681h1.286a3.21,3.21,0,0,0-1.571,2.572c0,1.737,1.806,3.19,4.221,3.583H407.386c-3.043,0-5.526,1.659-5.526,3.691s2.484,3.681,5.526,3.681h38.684c3.043,0,5.526-1.659,5.526-3.681,0-1.737-1.816-3.19-4.231-3.583h11.141c3.033,0,5.516-1.659,5.516-3.691S461.54,162.093,458.507,162.093Z" transform="translate(-117.701 -39.591)" fill="#6c63ff" opacity="0.1"/>
    <path id="Path_7205" data-name="Path 7205" d="M946.127,315.153h-1.3a3.22,3.22,0,0,0,1.58-2.572h0c0-2.022-2.484-3.681-5.526-3.681H902.2c-3.043,0-5.526,1.659-5.526,3.681h0c0,2.022,2.483,3.681,5.526,3.681h1.286a3.2,3.2,0,0,0-1.571,2.572c0,1.728,1.806,3.19,4.221,3.583H895c-3.033,0-5.517,1.659-5.517,3.681s2.484,3.691,5.517,3.691h38.694c3.033,0,5.526-1.659,5.526-3.691,0-1.727-1.816-3.18-4.231-3.573h11.141c3.033,0,5.517-1.659,5.517-3.691S949.161,315.153,946.127,315.153Z" transform="translate(-126.68 -42.409)" fill="#6c63ff" opacity="0.1"/>
    <path id="Path_7206" data-name="Path 7206" d="M227.328,601.47,679.614,652.3v14.42L226.18,614.162Z" transform="translate(-4.165 -11.076)" fill="#eaecf0"/>
    <path id="Path_7207" data-name="Path 7207" d="M226.489,652.052H217.91V438.97l6.174,1.875.069,6.39Z" transform="translate(-4.013 -8.084)" fill="#eaecf0"/>
    <path id="Path_7208" data-name="Path 7208" d="M230.384,648.652l-3.779,3.436L224.269,447.27l-.069-6.39h4.466l.059,6.773Z" transform="translate(-4.129 -8.119)" fill="#d3dae1"/>
    <path id="Path_7209" data-name="Path 7209" d="M92.83,646.132,218.012,602.52v4.123L92.83,649.911Z" transform="translate(-1.709 -11.095)" fill="#d3dae1"/>
    <path id="Path_7210" data-name="Path 7210" d="M95.068,659.942l-2.238-9.953L218.012,606.72V615.3Z" transform="translate(-1.709 -11.173)" fill="#eaecf0"/>
    <path id="Path_7211" data-name="Path 7211" d="M687.991,425.14v281.6h-6.527l-.334-261.229-.01-8.353Z" transform="translate(-12.543 -7.829)" fill="#eaecf0"/>
    <path id="Path_7212" data-name="Path 7212" d="M692.92,423.74V704.307l-4.8,2.4v-281.6Z" transform="translate(-12.671 -7.803)" fill="#d3dae1"/>
    <path id="Path_7213" data-name="Path 7213" d="M586.13,704.75l93.506-52.26,6.606,3.838-100.112,54.6Z" transform="translate(-10.793 -12.015)" fill="#d3dae1"/>
    <path id="Path_7214" data-name="Path 7214" d="M589.055,722.677,586.13,711l100.112-54.6v11.328Z" transform="translate(-10.793 -12.087)" fill="#eaecf0"/>
    <path id="Path_7215" data-name="Path 7215" d="M574.76,470.906l.344,297.4h9.276L583.005,467.47Z" transform="translate(-10.584 -8.608)" fill="#eaecf0"/>
    <path id="Path_7216" data-name="Path 7216" d="M589,464.67V765.85l-4.466,2.4L583.16,467.418l.55-.255Z" transform="translate(-10.739 -8.557)" fill="#d3dae1"/>
    <path id="Path_7217" data-name="Path 7217" d="M91.41,701h-7.9L80.8,434.974l-.039-4.584h7.558l.059,5.232Z" transform="translate(-1.487 -7.926)" fill="#eaecf0"/>
    <path id="Path_7218" data-name="Path 7218" d="M97.039,698.942,91.552,701,88.519,435.622l-.059-5.232H94.3l.049,5.742Z" transform="translate(-1.629 -7.926)" fill="#d3dae1"/>
    <path id="Path_7219" data-name="Path 7219" d="M583.72,467.163l5.291-2.493v11.681l-5.154,1.718Z" transform="translate(-10.749 -8.557)" opacity="0.1"/>
    <path id="Path_7220" data-name="Path 7220" d="M692.791,423.74v17.855l-4.8,1.61-6.861,2.277-.01-8.353,6.871-12.015Z" transform="translate(-12.543 -7.803)" opacity="0.1"/>
    <path id="Path_7221" data-name="Path 7221" d="M690.987,388.75V438.2l-107.14,35.72-.687-52.888Z" transform="translate(-10.739 -7.159)" fill="#d48a9b"/>
    <path id="Path_7222" data-name="Path 7222" d="M79.36,384.748,220.168,357.97,681.71,388.183,573.883,420.468Z" transform="translate(-1.461 -6.592)" fill="#efc6cd"/>
    <path id="Path_7223" data-name="Path 7223" d="M94.159,430.39l.049,5.742-5.831-.51-7.578-.648-.039-4.584Z" transform="translate(-1.487 -7.926)" opacity="0.1"/>
    <path id="Path_7224" data-name="Path 7224" d="M228.609,447.618l-4.456-.383-6.243-.53V438.97l6.174,1.875h4.466Z" transform="translate(-4.013 -8.084)" opacity="0.1"/>
    <path id="Path_7225" data-name="Path 7225" d="M79.36,385.25v46.026l495.21,42.581-.687-52.888Z" transform="translate(-1.461 -7.094)" fill="#d48a9b"/>
    <path id="Path_7226" data-name="Path 7226" d="M478.157,440.56H413.48V417.09l64.677,4.555Z" transform="translate(-7.614 -7.681)" fill="#d48a9b"/>
    <path id="Path_7227" data-name="Path 7227" d="M478.157,440.56H413.48V417.09l64.677,4.555Z" transform="translate(-7.614 -7.681)" opacity="0.1"/>
    <path id="Path_7228" data-name="Path 7228" d="M324.96,411.85v37.084L573.252,467.82V428.331l-96.843-5.5-9.619,8.589L427.3,428.674l-14.076-10.307Z" transform="translate(-5.984 -7.584)" opacity="0.1"/>
    <path id="Path_7229" data-name="Path 7229" d="M323.56,410.44v37.094L571.852,466.42V426.931l-96.843-5.5-9.61,8.589-39.5-2.748-14.076-10.307Z" transform="translate(-5.958 -7.558)" fill="#fff"/>
    <path id="Path_7230" data-name="Path 7230" d="M167.418,400.3l58.718,4.123-.687,18.66H187.109L161.46,413Z" transform="translate(-2.973 -7.371)" fill="#d48a9b"/>
    <path id="Path_7231" data-name="Path 7231" d="M167.418,400.3l58.718,4.123-.687,18.66H187.109L161.46,413Z" transform="translate(-2.973 -7.371)" opacity="0.1"/>
    <path id="Path_7232" data-name="Path 7232" d="M87.76,395.05v33.315L313.044,446.22V410.844l-86.89-5.144-9.266,6.861-35.033-2.052-14.419-8.932Z" transform="translate(-1.616 -7.275)" opacity="0.1"/>
    <path id="Path_7233" data-name="Path 7233" d="M86.36,393.65v33.315L311.644,444.82V409.454l-86.89-5.154-9.266,6.871-35.033-2.061-14.419-8.932Z" transform="translate(-1.59 -7.249)" fill="#fff"/>
    <path id="Path_7234" data-name="Path 7234" d="M96.65,649.47l1.541-.53-.775,10.954-.766.275Z" transform="translate(-1.78 -11.95)" opacity="0.1"/>
    <path id="Path_7235" data-name="Path 7235" d="M577.051,393.78l31.578,2.071L556.3,411.517l-26.65-1.934Z" transform="translate(-9.753 -7.251)" opacity="0.1"/>
    <path id="Path_7236" data-name="Path 7236" d="M577.051,392.38l31.578,2.071L556.3,410.107l-26.65-1.924Z" transform="translate(-9.753 -7.226)" fill="#fff"/>
    <path id="Path_7237" data-name="Path 7237" d="M686.46,433.4c1.247-.53,2.572.471,3.926.726.756.147,1.541,0,2.3.147,1.551.206,3.092,1.246,4.564.716" transform="translate(-122.942 -44.699)" fill="#d3dae1"/>
    <path id="Path_7238" data-name="Path 7238" d="M684.8,434.367c1.237-.54,2.572.461,3.926.717.756.147,1.541,0,2.307.147,1.551.206,3.082,1.247,4.554.716" transform="translate(-122.911 -44.717)" fill="#d3dae1"/>
    <path id="Path_7239" data-name="Path 7239" d="M681,436.287c1.246-.53,2.581.471,3.926.726.756.147,1.541,0,2.307.147,1.551.206,3.082,1.247,4.555.717" transform="translate(-122.841 -44.752)" fill="#d3dae1"/>
    <circle id="Ellipse_203" data-name="Ellipse 203" cx="9.217" cy="9.217" r="9.217" transform="translate(39.862 714.467)" fill="#535461"/>
    <circle id="Ellipse_204" data-name="Ellipse 204" cx="9.217" cy="9.217" r="9.217" transform="translate(56.353 750.52)" fill="#535461"/>
    <circle id="Ellipse_205" data-name="Ellipse 205" cx="9.217" cy="9.217" r="9.217" transform="translate(220.798 757.048)" fill="#535461"/>
    <circle id="Ellipse_206" data-name="Ellipse 206" cx="9.217" cy="9.217" r="9.217" transform="translate(257.539 710)" fill="#535461"/>
    <rect id="Rectangle_1594" data-name="Rectangle 1594" width="11.543" height="72.117" transform="translate(151.213 560.907)" fill="#535461"/>
    <rect id="Rectangle_1595" data-name="Rectangle 1595" width="11.543" height="11.681" transform="translate(151.213 621.344)" opacity="0.1"/>
    <rect id="Rectangle_1596" data-name="Rectangle 1596" width="16" height="80.019" transform="translate(148.985 624.092)" fill="#3a3768"/>
    <path id="Path_7240" data-name="Path 7240" d="M380.135,754.12,275.38,749.83v16.854H396.949A18.571,18.571,0,0,0,380.135,754.12Z" transform="translate(-115.372 -50.529)" fill="#3a3768"/>
    <path id="Path_7241" data-name="Path 7241" d="M168.345,754.12,273.1,749.83v16.854H151.53A18.561,18.561,0,0,1,168.345,754.12Z" transform="translate(-113.091 -50.529)" fill="#3a3768"/>
    <path id="Path_7242" data-name="Path 7242" d="M262.36,751.548l-83.631,41.226a21.2,21.2,0,0,0-11.779,18.993v1.256l97.668-42.581,13.742-1.03,81.216,51.857h0a21.183,21.183,0,0,0-8.746-20.122L278.36,749.84Z" transform="translate(-113.375 -50.529)" fill="#3a3768"/>
    <path id="Path_7243" data-name="Path 7243" d="M277.963,608.83V616.6q-3.033.128-6.184.128c-1.816,0-3.6,0-5.359-.1v-7.8Z" transform="translate(-115.207 -47.933)" opacity="0.1"/>
    <ellipse id="Ellipse_207" data-name="Ellipse 207" cx="42.591" cy="12.456" rx="42.591" ry="12.456" transform="translate(113.982 541.138)" fill="#3a3768"/>
    <path id="Path_7244" data-name="Path 7244" d="M313.292,601.156a5.085,5.085,0,0,1-1.816,3.6c-5.261,5.124-21.526,8.834-40.765,8.834-18.817,0-34.768-3.573-40.412-8.51a5.4,5.4,0,0,1-2.189-3.927c0-6.871,19.072-12.456,42.6-12.456S313.292,594.275,313.292,601.156Z" transform="translate(-114.501 -47.562)" opacity="0.1"/>
    <path id="Path_7245" data-name="Path 7245" d="M313.662,601.157a5.085,5.085,0,0,1-1.816,3.6c-5.418-1.355-9.168-2.474-9.168-2.474s-37.546,2.1-72.009,2.817a5.4,5.4,0,0,1-2.189-3.926c0-6.871,19.072-12.456,42.6-12.456S313.662,594.276,313.662,601.157Z" transform="translate(-114.508 -47.562)" opacity="0.1"/>
    <path id="Path_7246" data-name="Path 7246" d="M162.363,434.014s14.086,38.468,13.4,61.477-11.681,66.277-11.681,66.277S153.1,596.8,181.258,599.892s120.2-2.061,120.2-2.061,34.355,10.3,45.33,5.831c4.27-1.728,7.971-5.536,10.9-9.551A19.975,19.975,0,0,0,352.5,565.6a59.5,59.5,0,0,0-16.559-7.107,13.3,13.3,0,0,0-3.779-.461l-120,2.365s-13.389-2.061-10.984-15.45,6.518-54.606,6.518-54.606.687-50.139-23.352-64.215S162.363,434.014,162.363,434.014Z" transform="translate(-113.283 -44.481)" fill="#3a3768"/>
    <path id="Path_7247" data-name="Path 7247" d="M162.363,433.893s14.086,38.458,13.4,61.467-11.681,66.286-11.681,66.286S153.1,596.67,181.258,599.762s120.2-2.071,120.2-2.071,34.355,10.307,45.33,5.89c4.27-1.737,7.971-5.546,10.9-9.551A19.985,19.985,0,0,0,352.5,565.5a60.1,60.1,0,0,0-16.559-7.107,12.947,12.947,0,0,0-3.779-.452l-120,2.326s-13.389-2.061-10.984-15.46,6.518-54.6,6.518-54.6.687-50.139-23.352-64.225S162.363,433.893,162.363,433.893Z" transform="translate(-113.283 -44.479)" opacity="0.1"/>
    <path id="Path_7248" data-name="Path 7248" d="M165.163,432.614s14.086,38.468,13.4,61.477-11.681,66.277-11.681,66.277S155.9,595.4,184.048,598.492s120.2-2.061,120.2-2.061,34.355,10.3,45.339,5.89c4.27-1.737,7.97-5.546,10.9-9.561a19.975,19.975,0,0,0-5.183-28.515,59.5,59.5,0,0,0-16.559-7.156,13.306,13.306,0,0,0-3.779-.461l-120,2.366s-13.389-2.061-10.984-15.45,6.518-54.606,6.518-54.606.687-50.139-23.352-64.215S165.163,432.614,165.163,432.614Z" transform="translate(-113.335 -44.456)" fill="#3a3768"/>
    <path id="Path_7249" data-name="Path 7249" d="M413.4,769.05v12.417s59.317,1.07,72.382,1.07,31.048-6.42,32.118-11.563-14.989-9.423-20.986-9.629-6.2-2.572-13.919-6.645c-4.348-2.3-10.954-8.962-15.882-14.331-3.8-4.142-6.6-7.509-6.6-7.509s-31.911-.638-41.119,4.5c-2.12,1.188-3.583,3.5-4.584,6.38C411.5,753.326,413.4,769.05,413.4,769.05Z" transform="translate(-117.903 -50.216)" fill="#434175"/>
    <path id="Path_7250" data-name="Path 7250" d="M414.85,743.735c6.694-2.326,45.86-3.229,52.3-3.367-3.8-4.142-6.6-7.509-6.6-7.509s-31.911-.638-41.119,4.5C417.314,738.543,415.851,740.849,414.85,743.735Z" transform="translate(-117.94 -50.216)" opacity="0.1"/>
    <path id="Path_7251" data-name="Path 7251" d="M239.54,542.03,243,544.121l1.3.785,5.036,3.023c26.915,16.226,100.328,60.191,104.352,59.877,1.05-.088,4.211-.56,8.579-1.276,1.158-.186,2.4-.383,3.71-.609,16.815-2.8,44.76-7.853,47.882-9.246,4.28-1.963,3.426,6.635,1.708,13.919s-2.994,42.208-1.07,46.684,1.07,11.779,1.07,11.779L413,708.242l1.718,8.324s-5.782,4.712-3.426,7.49.216,14.783.216,14.783c6.871-2.572,53.32-3.426,53.32-3.426s-1.963-17.138-.216-21.2.432-28.27.432-28.27,1.07-18.415-.854-22.694.638-31.7.638-31.7,1.718-16.275,2.14-49.472-18.846-34.257-18.846-34.257-2.562-.206-6.469-.579c-7.627-.736-20.348-2.13-28.849-3.927a49.68,49.68,0,0,1-5.153-1.374c-10.493-3.573-45.82-3.71-51.6-1.139a15.446,15.446,0,0,1-11.544,0h0l-4.5-7.283-42.954,3.661-4.545.393-42.287,3.6-2.945.255Z" transform="translate(-114.712 -46.546)" fill="#565387"/>
    <path id="Path_7252" data-name="Path 7252" d="M414.82,575.058c12.476,6.086,24.382-15.48,29.928-27.641-7.627-.736-20.348-2.13-28.849-3.926C410.314,552.825,402.854,569.237,414.82,575.058Z" transform="translate(-117.822 -46.729)" opacity="0.1"/>
    <path id="Path_7253" data-name="Path 7253" d="M376.76,426.826a12.951,12.951,0,0,0,1.512,4.182c4.613,9.345,17.973,28.584,17.973,28.584a30.957,30.957,0,0,1,9.816,9.816c3.642,6.213,4.712,20.77,4.712,20.77s8.137,32.333,11.985,36.839c1.963,2.248,1.07,3.583-.265,4.358a19.071,19.071,0,0,0-6.753,6.331c-5.615,9.021-14.577,26.935-1.963,33.079,17.129,8.353,33.2-35.425,33.2-35.425s-3.219-31.048-4.074-36.4-6-27.416-6-27.416-3.642-9.423-5.782-16.059-8.559-14.351-8.559-14.351-11.573-23.126-14.783-26.552c-1.492-1.59-3.583-3.593-5.389-5.281-2.091-1.963-3.818-3.495-3.818-3.495S376.544,421.7,376.76,426.826Z" transform="translate(-117.239 -44.194)" fill="#ee8e9e"/>
    <path id="Path_7254" data-name="Path 7254" d="M228.85,766.222l38.969,17.345s50.5,1.07,59.337-1.286,6.871-12.2-4.712-14.135-14.341-7.058-18.2-9.413c-2.6-1.59-11.838-11.868-17.56-18.375-2.758-3.131-4.712-5.4-4.712-5.4s-7.5-19.916-28.27-15.421a21.33,21.33,0,0,0-10.12,5.35c-11.2,10.366-12.172,30.871-12.172,30.871Z" transform="translate(-114.515 -49.959)" fill="#434175"/>
    <path id="Path_7255" data-name="Path 7255" d="M244.38,544.889l5.036,3.023c26.915,16.226,100.328,60.191,104.352,59.877,1.05-.088,4.211-.559,8.579-1.276,1.158-.187,2.4-.383,3.71-.609l.147-.245a49.085,49.085,0,0,0,4.908-12c4.5-17.129-17.776-30.194-17.776-30.194l-4.712-3.661c-5.35-9.011-43.9-17.531-43.9-17.531l-4.967-3.387L297.1,537.1l-.7-.461-6.027-4.054-30.194,2.14-8.972,5.762-.982.609-3.278,2.15Z" transform="translate(-114.801 -46.528)" opacity="0.1"/>
    <path id="Path_7256" data-name="Path 7256" d="M243.86,724.888c8.2,28.358,42.434,19.092,42.434,19.092l.648-3.593c-2.758-3.131-4.712-5.4-4.712-5.4s-7.5-19.917-28.27-15.421A21.327,21.327,0,0,0,243.86,724.888Z" transform="translate(-114.791 -49.959)" opacity="0.1"/>
    <path id="Path_7257" data-name="Path 7257" d="M234.568,592.777c12.633,0,45.153,15.2,45.153,15.2,6.635,5.144,15.627,3.426,15.627,3.426s-15.813,16.059-15.372,22.7-9,17.56-9,17.56l-29.124,57.6c2.15,40.9,44.112,29.556,44.112,29.556l1.718-9.639c2.572-1.286,6.429-14.135,6.429-14.135s0-5.134,2.562-6.635,7.921-16.923,7.921-16.923,11.563-19.484,10.915-22.046,8.353-15.627,8.353-15.627,15.2-14.989,14.557-17.669,12.231-16.392,12.231-16.392a43.091,43.091,0,0,0,11.367-13.271,49.207,49.207,0,0,0,4.908-12c3.622-13.8-10.12-24.962-15.607-28.78-1.325-.923-2.169-1.413-2.169-1.413l-4.712-3.661c-2.434-4.1-11.73-8.108-21.153-11.239-6.793-2.268-13.644-4.093-18.032-5.183-2.945-.717-4.712-1.119-4.712-1.119l-4.967-3.337-1.747-1.178-1.6-1.07-6.037-4.054-13.428.982L256,535.629l-8.962,5.772-4.28,2.749-16.736,10.8s-.442,4.113-.579,9.649V565.9C225.214,577.023,226.421,592.777,234.568,592.777Z" transform="translate(-114.452 -46.545)" fill="#565387"/>
    <path id="Path_7258" data-name="Path 7258" d="M300.4,349.16l4.515,16.059s7.931,27.632,8.785,29.556,21.595,21.418,22.488,21.84,12.162,6.871,12.162,6.871.893-35.337,0-45.6a29.332,29.332,0,0,1,.56-6.734c1.364-8.059,4.82-19.867,7.686-28.966,2.4-7.627,4.388-13.34,4.388-13.34s-50.11-2.15-48.392,2.778c.648,1.865.432,4.977-.187,8.1-1.04,5.144-3.19,10.287-4.525,9.894a17.6,17.6,0,0,0-3.975-.442C302.079,349.091,300.4,349.16,300.4,349.16Z" transform="translate(-115.832 -42.768)" fill="#ee8e9e"/>
    <path id="Path_7259" data-name="Path 7259" d="M312.65,339.7a37.065,37.065,0,0,0,44.171,2.464c2.4-7.627,4.388-13.34,4.388-13.34s-50.11-2.15-48.392,2.778C313.484,333.464,313.268,336.576,312.65,339.7Z" transform="translate(-116.058 -42.768)" opacity="0.1"/>
    <path id="Path_7260" data-name="Path 7260" d="M299.09,308.935a36.878,36.878,0,1,0,10.8-26.246,37.055,37.055,0,0,0-10.8,26.246Z" transform="translate(-115.808 -41.728)" fill="#ee8e9e"/>
    <path id="Path_7261" data-name="Path 7261" d="M300.4,349.549l4.515,16.059s7.931,27.632,8.785,29.556S335.3,416.582,336.189,417s12.162,6.871,12.162,6.871.893-35.337,0-45.6a29.332,29.332,0,0,1,.56-6.734L345.965,383.4l.216,23.774,1.708,1.286-3.848,5.782v-4.29S330.3,396.685,328.189,391.11s-9.816-15.646-9.816-15.646-8.834-14.724-8.991-17.325c-.167-1.963-3.858-6.635-5.477-8.579C302.079,349.481,300.4,349.549,300.4,349.549Z" transform="translate(-115.832 -43.158)" opacity="0.1"/>
    <path id="Path_7262" data-name="Path 7262" d="M376.76,426.826a12.948,12.948,0,0,0,1.512,4.182c4.682-.471,20.613-3.455,24.147-21.673-2.091-1.963-3.818-3.494-3.818-3.494S376.544,421.7,376.76,426.826Z" transform="translate(-117.239 -44.194)" opacity="0.1"/>
    <path id="Path_7263" data-name="Path 7263" d="M225.39,565.832c4.319-3.062,8.432-7.234,10.886-8.383,3.642-1.718,9.207-7.283,9.207-7.283s1.414-.982,3.583-2.238c3.975-2.326,10.493-5.7,15.48-6.115,4.466-.373,19.327-1.325,31.008-2.051l15.244-.982s13.919-4.908,19.916-1.718a63.174,63.174,0,0,0,13.487,4.908v-1.276h0l-4.5-7.283-47.5,4.054-6.037-4.054-30.194,2.14-8.962,5.772-7.735.658,3.455,2.091L226,554.867S225.488,559.658,225.39,565.832Z" transform="translate(-114.451 -46.544)" opacity="0.1"/>
    <path id="Path_7264" data-name="Path 7264" d="M218.949,564.318a19.5,19.5,0,0,0,6.272-3.2h0c4.309-3.053,8.412-7.215,10.856-8.363,3.642-1.718,9.207-7.283,9.207-7.283s11.357-7.715,19.062-8.353c2.1-.177,6.5-.481,11.779-.825l17.482-1.119,9.07-.569,7.921-.481s13.919-4.908,19.916-1.718A63.185,63.185,0,0,0,344,537.314s.216-14.989,1.963-21.2,4.064-17.561,4.064-17.561,1.963-15.627,3.858-22.694,9.423-46.468,13.281-49.079,5.988,1.963,5.988,1.963,25.7-.432,26.13-28.692c0,0-11.995-11.995-12.849-14.989s-12.2-14.135-12.2-14.135-6.429-11.995-13.742-12.211a57.658,57.658,0,0,0-10.307.324L344,384.2l.216,23.774,1.718,1.286-3.858,5.782v-4.211s-13.742-13.281-15.843-18.846-9.816-15.656-9.816-15.656S307.645,361.6,307.429,359s-6.213-9.453-6.213-9.453a15.216,15.216,0,0,0-3.642,0,3.923,3.923,0,0,1-1.59-.226,21.506,21.506,0,0,0-10.7-.609c-7.4,1.541-18.65,4.348-21.752,7.715-4.712,5.144-11.563,10.071-19.278,31.479L285.795,402.9l-3.553,6.763-33.06,62.821s-1.1,1.786-2.582,4.113h0c-1.963,3.023-4.505,6.979-6.2,9.148-2.994,3.858-2.14,16.059-2.14,16.059s-.638,5.781-2.778,7.931-1.728,10.052-1.728,10.052l-5.566,20.77s-5.144,4.712-5.144,6.871-4.064,8.137-4.064,8.137S212.765,565.81,218.949,564.318Z" transform="translate(-114.282 -43.135)" fill="#dfe5ee"/>
    <path id="Path_7265" data-name="Path 7265" d="M247.16,477.744h0a32.4,32.4,0,0,1,.658,3.583S264.73,520.943,266.87,523.3c.658.726,3.151,4.29,6.272,8.834l3.583,5.291c6.469,9.609,13.742,20.525,13.742,20.525l15.843,13.919s34.473,2.758,45.428-8.432c-1.325-.923-2.169-1.414-2.169-1.414l-4.712-3.661c-2.434-4.1-11.73-8.108-21.153-11.239-8.677.059-15.774.766-15.774.766l-2.258-5.948-2.356-6.2L291.3,504.247s-7.725-39.823-10.3-41.757-1.963-7.921-1.963-7.921,4.712-16.913,2.994-19.269,2.788-19.71,2.788-19.71a17.78,17.78,0,0,0-2.061-4.8L249.7,473.612S248.642,475.388,247.16,477.744Z" transform="translate(-114.852 -44.286)" opacity="0.1"/>
    <path id="Path_7266" data-name="Path 7266" d="M285.169,414.009s-4.5,17.345-2.778,19.7-3,19.268-3,19.268-.638,6,1.963,7.921,10.3,41.757,10.3,41.757l16.589,43.69s51.916-5.143,46.566,11.131-48.186,12.849-48.186,12.849l-15.843-13.919s-21.418-32.333-23.558-34.689-19.062-41.973-19.062-41.973-.854-7.921-4.5-11.995-.854-10.945-.854-10.945-4.5-51.8.216-58S280.261,395.378,285.169,414.009Z" transform="translate(-114.736 -44.01)" fill="#ee8e9e"/>
    <path id="Path_7267" data-name="Path 7267" d="M442.1,584.07s-13.5,4.505-17.109,10.925S442.1,584.07,442.1,584.07Z" transform="translate(-118.119 -47.477)" opacity="0.1"/>
    <path id="Path_7268" data-name="Path 7268" d="M435.114,569.68c-.422.638-18.473,18.748-17.345,23.126S435.114,569.68,435.114,569.68Z" transform="translate(-117.993 -47.212)" opacity="0.1"/>
    <path id="Path_7269" data-name="Path 7269" d="M334.028,582.77s-20.132,9.492-21.85,13.624S334.028,582.77,334.028,582.77Z" transform="translate(-116.048 -47.453)" opacity="0.1"/>
    <path id="Path_7270" data-name="Path 7270" d="M332.74,595.2s-18.169,7.705-20.613,9.639S332.74,595.2,332.74,595.2Z" transform="translate(-116.045 -47.682)" opacity="0.1"/>
    <path id="Path_7271" data-name="Path 7271" d="M324.372,611.977s-8.049,6-12.486,1.286S324.372,611.977,324.372,611.977Z" transform="translate(-116.03 -47.968)" opacity="0.1"/>
    <path id="Path_7272" data-name="Path 7272" d="M354.722,452.74c-.432.648-27.2,48.824-34.267,52.466S354.722,452.74,354.722,452.74Z" transform="translate(-116.187 -45.058)" opacity="0.1"/>
    <path id="Path_7273" data-name="Path 7273" d="M353.492,471.29c0,1.07-26.13,56.932-30.429,57.6S353.492,471.29,353.492,471.29Z" transform="translate(-116.243 -45.4)" opacity="0.1"/>
    <path id="Path_7274" data-name="Path 7274" d="M252.5,507.94s-12.6,26.944-17.511,28.525S252.5,507.94,252.5,507.94Z" transform="translate(-114.615 -46.075)" opacity="0.1"/>
    <path id="Path_7275" data-name="Path 7275" d="M250.52,495.72s-4.348,9.423-6.989,9.423S250.52,495.72,250.52,495.72Z" transform="translate(-114.777 -45.85)" opacity="0.1"/>
    <path id="Path_7276" data-name="Path 7276" d="M299.09,308.935a36.875,36.875,0,0,0,2.346,12.967,34.984,34.984,0,0,1,36.544-35.946c1.8.079,3.926.5,4.653,2.13a8.95,8.95,0,0,1,.442,2.709c.54,4.162,4.761,6.763,8.726,8.118s8.383,2.218,11.259,5.271c2.631,2.8,3.377,6.812,4.672,10.434a14.979,14.979,0,0,0,3.612,5.889,37.055,37.055,0,1,0-72.255-11.573Z" transform="translate(-115.808 -41.728)" opacity="0.1"/>
    <path id="Path_7277" data-name="Path 7277" d="M368.127,274.784c-3.043-4.132-8.442-5.566-13.134-7.646a41.669,41.669,0,0,1-23.352-28.378A14.626,14.626,0,0,0,333.075,257c-8.53-.579-17.953-1.561-23.735-7.853-1.315,4.535,2.621,9.688.471,13.889-1.845,3.612-6.871,3.926-10.12,6.38-3.465,2.572-4.613,7.234-4.829,11.543s.236,8.726-1.04,12.849c-.982,3.131-2.945,6.007-3.141,9.276a15.9,15.9,0,0,0,1.57,7.038,63.545,63.545,0,0,0,9.737,16.177,35.043,35.043,0,0,1,35.838-42.208c1.8.078,3.926.51,4.653,2.14a8.836,8.836,0,0,1,.442,2.709c.54,4.152,4.761,6.753,8.726,8.108s8.383,2.228,11.259,5.271c2.631,2.8,3.377,6.812,4.672,10.434s3.8,7.411,7.617,7.853c.874-5.379,1.757-10.8,1.217-16.255-.589-5.841-4.515-9.148-5.889-14.233C369.03,284.787,371.857,279.849,368.127,274.784Z" transform="translate(-115.654 -41.118)" fill="#603556"/>
    <path id="Path_7278" data-name="Path 7278" d="M258.618,381.135l-13.487,8.137S241.273,402.327,238.26,404c0,0,26.984-14.989,47.322,19.484,0,0-.638-4.5,2.14-6.635s2.14-11.347,2.14-11.347a38.811,38.811,0,0,0,1.963-4.505C293.69,396.33,283.629,369.356,258.618,381.135Z" transform="translate(-114.688 -43.685)" opacity="0.1"/>
    <path id="Path_7279" data-name="Path 7279" d="M258.138,380.255l-13.5,8.137s-3.858,13.065-6.871,14.783c0,0,26.984-15,47.322,19.484,0,0-.638-4.5,2.15-6.635s2.14-11.357,2.14-11.357a36.744,36.744,0,0,0,1.963-4.5C293.249,395.459,283.149,368.476,258.138,380.255Z" transform="translate(-114.679 -43.669)" fill="#dfe5ee"/>
    <g id="Group_1474" data-name="Group 1474" transform="translate(175.026 202.069)" opacity="0.1">
      <path id="Path_7280" data-name="Path 7280" d="M310.8,260.137c-.049-3.494-2.13-7.342-1.119-10.8l.177.187C310.107,253.1,312.09,256.859,310.8,260.137Z" transform="translate(-291.024 -243.382)"/>
      <path id="Path_7281" data-name="Path 7281" d="M295.366,279.078c-.206,3.926.147,7.853-.736,11.671.324-2.994.147-6.076.3-9.1a25.2,25.2,0,0,1,.56-4.26C295.435,277.989,295.386,278.519,295.366,279.078Z" transform="translate(-290.752 -243.898)"/>
      <path id="Path_7282" data-name="Path 7282" d="M290.68,304.227a10.651,10.651,0,0,1,.422-2.3,16.364,16.364,0,0,0,1.58,6.763,63.39,63.39,0,0,0,8.736,14.92,33.986,33.986,0,0,0,.569,3.828,63.544,63.544,0,0,1-9.737-16.177A15.9,15.9,0,0,1,290.68,304.227Z" transform="translate(-290.679 -244.35)"/>
      <path id="Path_7283" data-name="Path 7283" d="M334.228,254.509c-.825-.049-1.669-.108-2.5-.177A15.087,15.087,0,0,1,330.3,243.27,14.468,14.468,0,0,0,334.228,254.509Z" transform="translate(-291.4 -243.27)"/>
      <path id="Path_7284" data-name="Path 7284" d="M310.2,294.618a35.612,35.612,0,0,1,28.26-12.329c1.8.088,3.926.51,4.663,2.14a9.207,9.207,0,0,1,.442,2.709c.54,4.152,4.751,6.763,8.726,8.108s8.373,2.228,11.249,5.281c2.641,2.8,3.386,6.812,4.682,10.424s3.789,7.4,7.6,7.853l-.412,2.572c-3.818-.412-6.321-4.2-7.617-7.853s-2.042-7.637-4.672-10.434c-2.876-3.043-7.293-3.926-11.259-5.271s-8.186-3.926-8.726-8.108A8.83,8.83,0,0,0,342.69,287c-.766-1.63-2.856-2.061-4.653-2.14a34.866,34.866,0,0,0-35.828,28.064,35.454,35.454,0,0,1,7.99-18.307Z" transform="translate(-290.892 -243.988)"/>
    </g>
    <path id="Path_7285" data-name="Path 7285" d="M431.11,339.65v38.409l-36.751-2.945V339.65Z" transform="translate(-7.262 -6.255)" fill="#3a3768"/>
    <path id="Path_7286" data-name="Path 7286" d="M431.11,375.525v3.141l-36.751-2.945V372.58Z" transform="translate(-7.262 -6.861)" opacity="0.1"/>
    <path id="Path_7287" data-name="Path 7287" d="M554.538,418.84l-57.168-2.945h0a5.6,5.6,0,0,1,5.595-5.595l45.978,2.945A5.6,5.6,0,0,1,554.538,418.84Z" transform="translate(-119.46 -44.277)" fill="#3a3768"/>
    <path id="Path_7288" data-name="Path 7288" d="M622.918,385.283l-197.74-5.89a6.007,6.007,0,0,1-6.017-6.017V256.567a6.007,6.007,0,0,1,6.017-6.007l197.74,5.89a6.017,6.017,0,0,1,6.017,6.007V379.265A6.017,6.017,0,0,1,622.918,385.283Z" transform="translate(-118.019 -41.335)" fill="#3a3768"/>
    <path id="Path_7289" data-name="Path 7289" d="M511.789,339.615l-200.5-5.89V228.48l200.5,5.89Z" transform="translate(-5.732 -4.207)" fill="#6c63ff"/>
    <ellipse id="Ellipse_208" data-name="Ellipse 208" cx="1.767" cy="1.747" rx="1.767" ry="1.747" transform="translate(404.04 217.087)" fill="#fff"/>
    <path id="Path_7290" data-name="Path 7290" d="M431.073,347.049l-36.633-.589v1.247h36.633Z" transform="translate(-7.263 -6.38)" opacity="0.1"/>
    <path id="Path_7291" data-name="Path 7291" d="M363.506,383.88l50.169,3.288-10.69,15.362-55.155-5.889Z" transform="translate(-6.405 -7.069)" opacity="0.1"/>
    <path id="Path_7292" data-name="Path 7292" d="M362.506,382.88l50.169,3.288-10.69,15.362-55.155-5.889Z" transform="translate(-6.387 -7.051)" fill="#3a3768"/>
    <path id="Path_7293" data-name="Path 7293" d="M364.8,384.04l43.749,2.67-9.315,12.515-48.107-4.8Z" transform="translate(-6.466 -7.072)" fill="#d5e1f4"/>
    <ellipse id="Ellipse_209" data-name="Ellipse 209" cx="63.018" cy="9.669" rx="63.018" ry="9.669" transform="translate(804.144 770.064)" fill="#6c63ff" opacity="0.1"/>
    <path id="Path_7294" data-name="Path 7294" d="M1031.519,599.29s7,9.158-3.24,22.989-18.65,25.521-15.263,34.12c0,0,15.45-25.688,28.014-26.042S1045.378,614.711,1031.519,599.29Z" transform="translate(-128.941 -47.757)" fill="#6c63ff"/>
    <path id="Path_7295" data-name="Path 7295" d="M1031.526,599.29a11.5,11.5,0,0,1,1.423,2.866c12.27,14.42,18.807,27.867,7.018,28.2-10.984.314-24.157,19.946-27.318,24.913a11.756,11.756,0,0,0,.373,1.129s15.45-25.688,28.014-26.042S1045.386,614.711,1031.526,599.29Z" transform="translate(-128.948 -47.757)" opacity="0.1"/>
    <path id="Path_7296" data-name="Path 7296" d="M1045.11,611.141c0,3.22-.363,5.889-.805,5.889s-.814-2.621-.814-5.889.451-1.708.9-1.708S1045.11,607.921,1045.11,611.141Z" transform="translate(-129.516 -47.937)" fill="#ffd037"/>
    <path id="Path_7297" data-name="Path 7297" d="M1049.586,615.058c-2.827,1.541-5.3,2.474-5.507,2.081s1.9-1.963,4.731-3.5,1.718-.412,1.963,0S1052.423,613.517,1049.586,615.058Z" transform="translate(-129.527 -48.006)" fill="#ffd037"/>
    <path id="Path_7298" data-name="Path 7298" d="M993.9,599.29s-7.009,9.158,3.229,22.989,18.65,25.521,15.263,34.12c0,0-15.44-25.688-28.014-26.042S980.064,614.711,993.9,599.29Z" transform="translate(-128.313 -47.757)" fill="#6c63ff"/>
    <path id="Path_7299" data-name="Path 7299" d="M993.9,599.29a11.273,11.273,0,0,0-1.433,2.866c-12.26,14.419-18.8,27.867-7.009,28.2,10.984.314,24.157,19.946,27.308,24.913a9.472,9.472,0,0,1-.373,1.129s-15.44-25.688-28.014-26.042S980.064,614.711,993.9,599.29Z" transform="translate(-128.313 -47.757)" opacity="0.1"/>
    <path id="Path_7300" data-name="Path 7300" d="M980.93,611.141c0,3.22.353,5.889.8,5.889s.8-2.621.8-5.889-.451-1.708-.894-1.708S980.93,607.921,980.93,611.141Z" transform="translate(-128.364 -47.937)" fill="#ffd037"/>
    <path id="Path_7301" data-name="Path 7301" d="M976.337,615.058c2.837,1.541,5.3,2.474,5.516,2.081s-1.963-1.963-4.741-3.5-1.708-.412-1.963,0S973.51,613.517,976.337,615.058Z" transform="translate(-128.247 -48.006)" fill="#ffd037"/>
    <ellipse id="Ellipse_210" data-name="Ellipse 210" cx="73.226" cy="11.239" rx="73.226" ry="11.239" transform="translate(810.848 656.229)" fill="#6c63ff" opacity="0.1"/>
    <path id="Path_7302" data-name="Path 7302" d="M1050.016,644.81l-.353,2.866-.491,4.034-.206,1.688-.491,4.034-.206,1.688-.49,4.034-5.6,45.938c-.5,4.1-7.2,7.293-15.293,7.293H997.766c-8.088,0-14.773-3.19-15.274-7.293l-5.615-45.938-.491-4.034-.206-1.688-.5-4.034-.206-1.688-.491-4.034-.344-2.866c-.285-2.316,3.337-4.28,7.911-4.28H1042.1C1046.649,640.53,1050.3,642.493,1050.016,644.81Z" transform="translate(-128.248 -48.516)" fill="#65617d"/>
    <path id="Path_7303" data-name="Path 7303" d="M937.3,610.4l-.491,4.034H863.121l-.491-4.034Z" transform="translate(-15.885 -11.24)" fill="#9d9cb5"/>
    <path id="Path_7304" data-name="Path 7304" d="M936.615,616.23l-.49,4.044H863.831l-.5-4.044Z" transform="translate(-15.898 -11.348)" fill="#9d9cb5"/>
    <path id="Path_7305" data-name="Path 7305" d="M935.931,622.06l-.491,4.044h-70.9l-.491-4.044Z" transform="translate(-15.911 -11.455)" fill="#9d9cb5"/>
  </g>
</svg>
