<svg id="Group_1547" data-name="Group 1547" xmlns="http://www.w3.org/2000/svg" xmlns:xlink="http://www.w3.org/1999/xlink" width="492.348" height="373.204" viewBox="0 0 492.348 373.204">
  <defs>
    <linearGradient id="linear-gradient" x1="0.5" y1="1" x2="0.5" gradientUnits="objectBoundingBox">
      <stop offset="0" stop-color="gray" stop-opacity="0.251"/>
      <stop offset="0.54" stop-color="gray" stop-opacity="0.122"/>
      <stop offset="1" stop-color="gray" stop-opacity="0.102"/>
    </linearGradient>
    <linearGradient id="linear-gradient-2" y1="1" y2="0" xlink:href="#linear-gradient"/>
    <linearGradient id="linear-gradient-3" x1="0" y1="0.5" x2="1" y2="0.5" xlink:href="#linear-gradient"/>
    <linearGradient id="linear-gradient-4" x1="2.581" y1="1" x2="2.581" y2="0" xlink:href="#linear-gradient"/>
    <linearGradient id="linear-gradient-5" y1="1" y2="0" xlink:href="#linear-gradient"/>
    <linearGradient id="linear-gradient-6" x1="-25.357" y1="1.001" x2="-25.357" y2="0" xlink:href="#linear-gradient"/>
  </defs>
  <g id="undraw_people_search_wctu" transform="translate(0 0)">
    <path id="Path_6933" data-name="Path 6933" d="M506.121,226.454c-17.31,23.752-11.6,57.655-1.592,84.665,3.351,9.042,7.158,18.605,5.421,28.443-2.122,12.026-12.1,21.037-22.465,25.945-18.9,8.944-41.23,7.516-58.137-3.754-14.591-9.727-24.862-25.892-39.735-35.155-24.892-15.5-57.209-8.573-84.913,3.259-19.6,8.37-41.07,19.149-60.171,11.42C231.087,335.84,222.037,322,217.275,307.2c-2.3-7.145-3.909-14.9-8.489-20.493a31.338,31.338,0,0,0-10.023-7.578c-33.775-17.686-77.22-6.632-109.965-26.365-22.107-13.326-35.866-39.187-41.583-66.374s-4.3-55.886-2.025-84.1c1.618-20.047,4.178-41.468,16.231-57.222C74.167,28.415,95.532,21.8,114.637,24.405s36.233,13.22,51.217,25.887c18.742,15.8,35.986,35.641,59.3,41.641,15.877,4.085,32.745,1.194,49.25-.084,27.59-2.131,55.082.323,82.406,3.095,26.157,2.653,52.5,5.615,77.268,14.312,17.531,6.155,31.427,17.787,47.932,25.737,10.757,5.182,22.593,6.385,32.718,13.078,12.495,8.246,23.787,22.854,20.122,40.385C531.384,205.121,515.317,213.849,506.121,226.454Z" transform="translate(-43.2 -23.854)" fill="#6361d0" opacity="0.1"/>
    <g id="Group_1467" data-name="Group 1467" transform="translate(349.189 158.203)" opacity="0.5">
      <path id="Path_6934" data-name="Path 6934" d="M898.19,569.2s1.459-43.224,24.844-67.647A65.519,65.519,0,0,0,941,464.2a110.2,110.2,0,0,0,.548-20.148" transform="translate(-869.354 -416.467)" fill="none" stroke="#535461" stroke-miterlimit="10" stroke-width="2"/>
      <path id="Path_6935" data-name="Path 6935" d="M1006.87,393.778c-1.6,4.828-14.98,15.917-14.98,15.917s-4.1-16.894-2.5-21.718a9.207,9.207,0,1,1,17.478,5.8Z" transform="translate(-920.025 -381.666)" fill="#6361d0"/>
      <path id="Path_6936" data-name="Path 6936" d="M1015.223,459.387c-3.979,3.183-21.223,5.226-21.223,5.226s5.748-16.408,9.727-19.587a9.205,9.205,0,1,1,11.5,14.361Z" transform="translate(-922.802 -415.75)" fill="#6361d0"/>
      <path id="Path_6937" data-name="Path 6937" d="M979.872,560.112c-5.032.743-20.962-6.19-20.962-6.19s13.238-11.266,18.269-12.009a9.207,9.207,0,0,1,2.693,18.216Z" transform="translate(-903.227 -471.006)" fill="#6361d0"/>
      <path id="Path_6938" data-name="Path 6938" d="M934.4,632.282c-4.833,1.583-21.709-2.573-21.709-2.573s11.146-13.339,15.979-14.922a9.208,9.208,0,0,1,5.748,17.5Z" transform="translate(-877.443 -511.456)" fill="#6361d0"/>
      <path id="Path_6939" data-name="Path 6939" d="M950.5,463.546c2.348,4.51,17.336,13.339,17.336,13.339s1.362-17.327-.986-21.842a9.206,9.206,0,0,0-16.333,8.5Z" transform="translate(-897.964 -419.834)" fill="#6361d0"/>
      <path id="Path_6940" data-name="Path 6940" d="M897.394,545.262c3.59,3.6,20.515,7.547,20.515,7.547s-3.886-16.943-7.472-20.546a9.206,9.206,0,0,0-13.043,12.995Z" transform="translate(-867.412 -464.167)" fill="#6361d0"/>
      <path id="Path_6941" data-name="Path 6941" d="M860.15,635.453c2.927,4.156,18.946,10.908,18.946,10.908s-.964-17.354-3.9-21.515a9.205,9.205,0,1,0-15.033,10.611Z" transform="translate(-847.103 -515.013)" fill="#6361d0"/>
      <path id="Path_6942" data-name="Path 6942" d="M882.843,600.283s-13.264-19.3-10.939-37.449a35.478,35.478,0,0,0-4.191-22.045,59.708,59.708,0,0,0-6.243-8.949" transform="translate(-848.869 -465.442)" fill="none" stroke="#535461" stroke-miterlimit="10" stroke-width="2"/>
      <path id="Path_6943" data-name="Path 6943" d="M852.373,501.608c.853,2.617-1.4,11.752-1.4,11.752s-7.22-6.04-8.074-8.653a4.984,4.984,0,1,1,9.475-3.095Z" transform="translate(-838.37 -446.661)" fill="#6361d0"/>
      <path id="Path_6944" data-name="Path 6944" d="M880.765,525.029c-.7,2.653-7.565,9.1-7.565,9.1s-2.777-8.993-2.074-11.655a4.985,4.985,0,1,1,9.639,2.551Z" transform="translate(-854.192 -458.149)" fill="#6361d0"/>
      <path id="Path_6945" data-name="Path 6945" d="M896.574,578.446c-1.95,1.941-11.124,4.041-11.124,4.041s2.14-9.165,4.094-11.106a4.987,4.987,0,1,1,7.03,7.074Z" transform="translate(-862.246 -486.692)" fill="#6361d0"/>
      <path id="Path_6946" data-name="Path 6946" d="M901.3,624.816c-1.6,2.242-10.3,5.854-10.3,5.854s.561-9.4,2.157-11.637a4.985,4.985,0,0,1,8.127,5.774Z" transform="translate(-865.343 -512.913)" fill="#6361d0"/>
      <path id="Path_6947" data-name="Path 6947" d="M850.313,550.063c2.472,1.211,11.832.239,11.832.239s-4.983-7.985-7.455-9.192a4.983,4.983,0,1,0-4.377,8.953Z" transform="translate(-841.085 -470.33)" fill="#6361d0"/>
      <path id="Path_6948" data-name="Path 6948" d="M853.486,602.765c2.724.416,11.363-3.312,11.363-3.312s-7.145-6.128-9.864-6.526a4.984,4.984,0,0,0-1.5,9.855Z" transform="translate(-842.052 -499.488)" fill="#6361d0"/>
      <path id="Path_6949" data-name="Path 6949" d="M866.462,654.082c2.613.884,11.761-1.326,11.761-1.326s-6-7.247-8.617-8.118a4.985,4.985,0,1,0-3.144,9.462Z" transform="translate(-849.749 -528.225)" fill="#6361d0"/>
      <path id="Path_6950" data-name="Path 6950" d="M852.373,501.608c.853,2.617-1.4,11.752-1.4,11.752s-7.22-6.04-8.074-8.653a4.984,4.984,0,1,1,9.475-3.095Z" transform="translate(-838.37 -446.661)" fill="#fff" opacity="0.5"/>
      <path id="Path_6951" data-name="Path 6951" d="M880.765,525.029c-.7,2.653-7.565,9.1-7.565,9.1s-2.777-8.993-2.074-11.655a4.985,4.985,0,1,1,9.639,2.551Z" transform="translate(-854.192 -458.149)" fill="#fff" opacity="0.5"/>
      <path id="Path_6952" data-name="Path 6952" d="M896.574,578.446c-1.95,1.941-11.124,4.041-11.124,4.041s2.14-9.165,4.094-11.106a4.987,4.987,0,1,1,7.03,7.074Z" transform="translate(-862.246 -486.692)" fill="#fff" opacity="0.5"/>
      <path id="Path_6953" data-name="Path 6953" d="M901.3,624.816c-1.6,2.242-10.3,5.854-10.3,5.854s.561-9.4,2.157-11.637a4.985,4.985,0,0,1,8.127,5.774Z" transform="translate(-865.343 -512.913)" fill="#fff" opacity="0.5"/>
      <path id="Path_6954" data-name="Path 6954" d="M850.313,550.063c2.472,1.211,11.832.239,11.832.239s-4.983-7.985-7.455-9.192a4.983,4.983,0,1,0-4.377,8.953Z" transform="translate(-841.085 -470.33)" fill="#fff" opacity="0.5"/>
      <path id="Path_6955" data-name="Path 6955" d="M853.486,602.765c2.724.416,11.363-3.312,11.363-3.312s-7.145-6.128-9.864-6.526a4.984,4.984,0,0,0-1.5,9.855Z" transform="translate(-842.052 -499.488)" fill="#fff" opacity="0.5"/>
      <path id="Path_6956" data-name="Path 6956" d="M866.462,654.082c2.613.884,11.761-1.326,11.761-1.326s-6-7.247-8.617-8.118a4.985,4.985,0,1,0-3.144,9.462Z" transform="translate(-849.749 -528.225)" fill="#fff" opacity="0.5"/>
      <path id="Path_6957" data-name="Path 6957" d="M799.2,708.516h37.728l9.435-57.536H789.77Z" transform="translate(-789.77 -521.356)" fill="#474059"/>
      <path id="Path_6958" data-name="Path 6958" d="M796.99,650.98l8.812,53.764h31.746l-.619,3.771H799.2L789.77,650.98Z" transform="translate(-789.77 -521.356)" opacity="0.1"/>
    </g>
    <rect id="Rectangle_1539" data-name="Rectangle 1539" width="276.78" height="333.948" transform="translate(88.994 17.374)" fill="url(#linear-gradient)"/>
    <rect id="Rectangle_1540" data-name="Rectangle 1540" width="269.705" height="325.415" transform="translate(92.531 21.645)" fill="#fff"/>
    <rect id="Rectangle_1541" data-name="Rectangle 1541" width="108.766" height="5.306" transform="translate(197.318 58.343)" fill="#c0bccf"/>
    <rect id="Rectangle_1542" data-name="Rectangle 1542" width="108.766" height="5.306" transform="translate(197.318 75.144)" fill="#c0bccf"/>
    <rect id="Rectangle_1543" data-name="Rectangle 1543" width="56.594" height="5.306" transform="translate(223.405 91.946)" fill="#6361d0"/>
    <rect id="Rectangle_1544" data-name="Rectangle 1544" width="108.766" height="5.306" transform="translate(197.318 164.899)" fill="#c0bccf" opacity="0.5"/>
    <rect id="Rectangle_1545" data-name="Rectangle 1545" width="108.766" height="5.306" transform="translate(197.318 181.7)" fill="#c0bccf" opacity="0.5"/>
    <rect id="Rectangle_1546" data-name="Rectangle 1546" width="56.594" height="5.306" transform="translate(223.405 198.501)" fill="#6361d0" opacity="0.5"/>
    <rect id="Rectangle_1547" data-name="Rectangle 1547" width="108.766" height="5.306" transform="translate(197.318 271.454)" fill="#c0bccf" opacity="0.5"/>
    <rect id="Rectangle_1548" data-name="Rectangle 1548" width="108.766" height="5.306" transform="translate(197.318 288.256)" fill="#c0bccf" opacity="0.5"/>
    <rect id="Rectangle_1549" data-name="Rectangle 1549" width="56.594" height="5.306" transform="translate(223.405 305.057)" fill="#6361d0" opacity="0.5"/>
    <g id="Group_1468" data-name="Group 1468" transform="translate(107.122 154.282)" opacity="0.5">
      <path id="Path_6959" data-name="Path 6959" d="M345.611,402.864a29.924,29.924,0,0,1-7.238,19.565c-.23.27-.469.535-.712.8q-.181.2-.371.4a29.5,29.5,0,0,1-3.21,2.914l-.08.057a29.926,29.926,0,0,1-8.9,4.784l-.4.128c-.248.084-.5.159-.756.23l-.1.031a30.211,30.211,0,0,1-16.6,0h-.044c-.442-.128-.884-.261-1.291-.407l-.376-.133a29.141,29.141,0,0,1-4.156-1.839l-.084-.044a30.172,30.172,0,0,1-5.889-4.169l-.146-.137a28.082,28.082,0,0,1-2.569-2.653c-.106-.119-.208-.243-.31-.367-.194-.23-.38-.469-.566-.707a30.066,30.066,0,1,1,53.808-18.446Z" transform="translate(-285.48 -372.798)" fill="#c0bccf"/>
      <path id="Path_6960" data-name="Path 6960" d="M345.36,421.364l-2.281-1.026a9.036,9.036,0,0,0,.044-1.043,8.189,8.189,0,0,0,0-.884c-.226-2.326-1.707-4.351-2.755-6.477a18.4,18.4,0,0,1-1.8-6.19c-.279-2.653,0-5.4-.973-7.9a14.251,14.251,0,0,0-4.032-5.177,20.465,20.465,0,0,0-6.477-4.107,11.455,11.455,0,0,0-7.715-.208,16.644,16.644,0,0,0-5.558,4.015,18.681,18.681,0,0,0-3.139,3.573,15.448,15.448,0,0,0-1.768,5.4,82.624,82.624,0,0,0-1.088,9.028c-.172,2.525-.442,5.39-2.6,6.937-1.052.756-2.533,1.181-3.015,2.326a2.377,2.377,0,0,0-.159,1.083,3.974,3.974,0,0,0,.066.915c.031.177.066.349.11.526a38.807,38.807,0,0,0-1.556,4.722c-.323,1.194-.619,2.366-.884,3.5h1.1l4.121.1h.058l4.421.1h.022l4.121.1h.1l1.189.084h.389l16.478.38h.089l1.1.027h.385l3.3.075h0l4.864.111h.035l3.661.088h1.141l-.194-3.838C346.956,421.731,345.36,421.364,345.36,421.364Zm-18.512-.469c0,3.254-3.484,7.238-3.484,7.238l-3.506-4.775.128-.186,3.378,4.6s3.484-3.979,3.484-7.238a3.815,3.815,0,0,1,.279-.478l.079.248A4.7,4.7,0,0,0,326.848,420.9Zm5.359,12.769a2.663,2.663,0,0,0-.031-.5c-.031-.164-.026-.31-.049-.469s-.04-.314-.062-.473-.053-.314-.084-.473-.062-.314-.1-.473a.742.742,0,0,0-.035-.159q-.073-.312-.159-.623c-.058-.208-.093-.336-.146-.5a.682.682,0,0,0-.071-.221c-.027-.071-.075-.239-.115-.358l-.079-.23c-.035-.1-.071-.208-.111-.31-.066-.186-.137-.367-.208-.553s-.146-.367-.221-.548c-.15-.371-.314-.738-.477-1.11-.641-1.433-1.362-2.843-2.025-4.24a22.569,22.569,0,0,1-.946-2.246l-.084.11a4.711,4.711,0,0,0-.358.6c0,3.254-3.484,7.238-3.484,7.238l-3.506-4.775-3.068,4.421a3.578,3.578,0,0,0-1.229,2.043c-.1.287-.19.606-.279.937-.062.226-.119.442-.172.694-.031.119-.057.239-.084.363l-.08.376v.057c-.053.256-.106.522-.155.792s-.106.579-.155.884q-.053.287-.093.57c-.062.367-.115.738-.168,1.11-.031.217-.062.442-.089.641l-.106.822c.226.676.478,1.326.738,2.007a3.157,3.157,0,0,1,.287,1.136,32.224,32.224,0,0,0,16.6,0,.144.144,0,0,1,0-.04,4.614,4.614,0,0,1-.106-1.127h0a29.113,29.113,0,0,1,.442-3.166,10.828,10.828,0,0,0,.084-1.556v-.186c-.013-.168-.018-.318-.022-.464Zm0,0a2.663,2.663,0,0,0-.031-.5c-.031-.164-.026-.31-.049-.469s-.04-.314-.062-.473-.053-.314-.084-.473-.062-.314-.1-.473a.742.742,0,0,0-.035-.159q-.073-.312-.159-.623c-.058-.208-.093-.336-.146-.5a.682.682,0,0,0-.071-.221c-.027-.071-.075-.239-.115-.358l-.079-.23c-.035-.1-.071-.208-.111-.31-.066-.186-.137-.367-.208-.553s-.146-.367-.221-.548c-.15-.371-.314-.738-.477-1.11-.641-1.433-1.362-2.843-2.025-4.24a22.569,22.569,0,0,1-.946-2.246l-.084.11a4.711,4.711,0,0,0-.358.6c0,3.254-3.484,7.238-3.484,7.238l-3.506-4.775-3.068,4.421a3.578,3.578,0,0,0-1.229,2.043c-.1.287-.19.606-.279.937-.062.226-.119.442-.172.694-.031.119-.057.239-.084.363l-.08.376v.057c-.053.256-.106.522-.155.792s-.106.579-.155.884q-.053.287-.093.57c-.062.367-.115.738-.168,1.11-.031.217-.062.442-.089.641l-.106.822c.226.676.478,1.326.738,2.007a3.157,3.157,0,0,1,.287,1.136,32.224,32.224,0,0,0,16.6,0,.144.144,0,0,1,0-.04,4.614,4.614,0,0,1-.106-1.127h0a29.113,29.113,0,0,1,.442-3.166,10.828,10.828,0,0,0,.084-1.556v-.186c-.013-.168-.018-.318-.022-.464Zm0,0a2.663,2.663,0,0,0-.031-.5c-.031-.164-.026-.31-.049-.469s-.04-.314-.062-.473-.053-.314-.084-.473-.062-.314-.1-.473a.742.742,0,0,0-.035-.159q-.073-.312-.159-.623c-.058-.208-.093-.336-.146-.5a.682.682,0,0,0-.071-.221c-.027-.071-.075-.239-.115-.358l-.079-.23c-.035-.1-.071-.208-.111-.31-.066-.186-.137-.367-.208-.553s-.146-.367-.221-.548c-.15-.371-.314-.738-.477-1.11-.641-1.433-1.362-2.843-2.025-4.24a22.569,22.569,0,0,1-.946-2.246l-.084.11a4.711,4.711,0,0,0-.358.6c0,3.254-3.484,7.238-3.484,7.238l-3.506-4.775-3.068,4.421a3.578,3.578,0,0,0-1.229,2.043c-.1.287-.19.606-.279.937-.062.226-.119.442-.172.694-.031.119-.057.239-.084.363l-.08.376v.057c-.053.256-.106.522-.155.792s-.106.579-.155.884q-.053.287-.093.57c-.062.367-.115.738-.168,1.11-.031.217-.062.442-.089.641l-.106.822c.226.676.478,1.326.738,2.007a3.157,3.157,0,0,1,.287,1.136,32.224,32.224,0,0,0,16.6,0,.144.144,0,0,1,0-.04,4.614,4.614,0,0,1-.106-1.127h0a29.113,29.113,0,0,1,.442-3.166,10.828,10.828,0,0,0,.084-1.556v-.186c-.013-.168-.018-.318-.022-.464Zm0,0a2.663,2.663,0,0,0-.031-.5c-.031-.164-.026-.31-.049-.469s-.04-.314-.062-.473-.053-.314-.084-.473-.062-.314-.1-.473a.742.742,0,0,0-.035-.159q-.073-.312-.159-.623c-.058-.208-.093-.336-.146-.5a.682.682,0,0,0-.071-.221c-.027-.071-.075-.239-.115-.358l-.079-.23c-.035-.1-.071-.208-.111-.31-.066-.186-.137-.367-.208-.553s-.146-.367-.221-.548c-.15-.371-.314-.738-.477-1.11-.641-1.433-1.362-2.843-2.025-4.24a22.569,22.569,0,0,1-.946-2.246l-.084.11a4.711,4.711,0,0,0-.358.6c0,3.254-3.484,7.238-3.484,7.238l-3.506-4.775-3.068,4.421a3.578,3.578,0,0,0-1.229,2.043c-.1.287-.19.606-.279.937-.062.226-.119.442-.172.694-.031.119-.057.239-.084.363l-.08.376v.057c-.053.256-.106.522-.155.792s-.106.579-.155.884q-.053.287-.093.57c-.062.367-.115.738-.168,1.11-.031.217-.062.442-.089.641l-.106.822c.226.676.478,1.326.738,2.007a3.157,3.157,0,0,1,.287,1.136,32.224,32.224,0,0,0,16.6,0,.144.144,0,0,1,0-.04,4.614,4.614,0,0,1-.106-1.127h0a29.113,29.113,0,0,1,.442-3.166,10.828,10.828,0,0,0,.084-1.556v-.186c-.013-.168-.018-.318-.022-.464Z" transform="translate(-293.457 -381.155)" fill="url(#linear-gradient-2)"/>
      <rect id="Rectangle_1550" data-name="Rectangle 1550" width="20.338" height="13.706" transform="translate(18.57 21.67)" fill="#493545"/>
      <path id="Path_6961" data-name="Path 6961" d="M350.92,439.9l-8.511,11.991-8.9-.774s-11.606.769-3.869-8.122c3.718-4.275,4.934-7.839,5.2-10.381a8.039,8.039,0,0,0-.553-4.315l9.67-1.158a7.217,7.217,0,0,0-.159,4.037C345.009,436.2,350.92,439.9,350.92,439.9Z" transform="translate(-308.634 -403.113)" fill="#c77485"/>
      <path id="Path_6962" data-name="Path 6962" d="M353,431.152a9.665,9.665,0,0,1-8.958,1.441,8.039,8.039,0,0,0-.553-4.315l9.67-1.158A7.215,7.215,0,0,0,353,431.152Z" transform="translate(-317.841 -403.102)" opacity="0.1"/>
      <circle id="Ellipse_172" data-name="Ellipse 172" cx="9.67" cy="9.67" r="9.67" transform="translate(19.658 10.285)" fill="#c77485"/>
      <path id="Path_6963" data-name="Path 6963" d="M347.351,452.433l-.226-.884-.195-.778-.287-1.15-.053-.212-.044-.177s.23-.694-1.287-.469l-.283.049c-.239.049-.517.115-.836.2l-.287.088-.38.119h0a8.29,8.29,0,0,0-3.21,1.937,7.23,7.23,0,0,0-1.074,1.3c-.031.044-.053.084-.08.12a4.165,4.165,0,0,0-.279.513c0,3.484-3.484,7.737-3.484,7.737l-3.4-4.912-.066-.1-.809-1.176-.287-.38-.1-.133-1.769-2.374-.442-.592-.146-.2-.217-.287L327.6,450l-1.99,1.163-2.653,1.547-1.547,10.059v.279l.049.831.323,5.465v.075l-.566,2.264.084.044a29.151,29.151,0,0,0,4.156,1.839l.376.133c.442.146.858.279,1.291.407a1.557,1.557,0,0,1,.035.2v-.19a30.211,30.211,0,0,0,16.6,0l.1-.031c.252-.071.508-.146.756-.23l.4-.128a29.627,29.627,0,0,0,3.2-1.282l.371-7.914.265-5.708v-.327Z" transform="translate(-305.418 -415.151)" opacity="0.1"/>
      <path id="Path_6964" data-name="Path 6964" d="M344.29,467.629a3.061,3.061,0,0,0-.031-.531c-.031-.177-.026-.332-.049-.5s-.04-.336-.062-.5-.053-.336-.084-.5-.062-.336-.1-.5a.764.764,0,0,0-.035-.168c-.049-.221-.1-.442-.159-.667s-.093-.358-.146-.535a.754.754,0,0,0-.071-.234c-.027-.075-.075-.256-.115-.385l-.08-.248c-.035-.111-.071-.221-.111-.332-.066-.2-.137-.393-.208-.592s-.146-.393-.221-.588c-.15-.4-.314-.791-.477-1.185-.641-1.53-1.362-3.038-2.025-4.532a25.074,25.074,0,0,1-.946-2.4l-.084.119a5.112,5.112,0,0,0-.358.637c0,3.48-3.484,7.737-3.484,7.737l-3.506-5.107-3.068,4.718a3.854,3.854,0,0,0-1.229,2.184c-.1.31-.19.646-.279,1-.062.239-.119.491-.172.743-.031.128-.058.256-.084.389l-.08.4v.062c-.053.274-.106.557-.155.844s-.106.619-.155.933q-.053.305-.093.61c-.062.394-.115.792-.168,1.185-.031.23-.062.442-.088.685l-.106.884c.225.725.478,1.441.738,2.144a3.564,3.564,0,0,1,.287,1.216,30.212,30.212,0,0,0,16.6,0,.168.168,0,0,1,0-.044,5.263,5.263,0,0,1-.106-1.207h0a33.127,33.127,0,0,1,.442-3.382,12.376,12.376,0,0,0,.084-1.662v-.2C344.3,467.947,344.294,467.788,344.29,467.629Zm0,0a3.061,3.061,0,0,0-.031-.531c-.031-.177-.026-.332-.049-.5s-.04-.336-.062-.5-.053-.336-.084-.5-.062-.336-.1-.5a.764.764,0,0,0-.035-.168c-.049-.221-.1-.442-.159-.667s-.093-.358-.146-.535a.754.754,0,0,0-.071-.234c-.027-.075-.075-.256-.115-.385l-.08-.248c-.035-.111-.071-.221-.111-.332-.066-.2-.137-.393-.208-.592s-.146-.393-.221-.588c-.15-.4-.314-.791-.477-1.185-.641-1.53-1.362-3.038-2.025-4.532a25.074,25.074,0,0,1-.946-2.4l-.084.119a5.112,5.112,0,0,0-.358.637c0,3.48-3.484,7.737-3.484,7.737l-3.506-5.107-3.068,4.718a3.854,3.854,0,0,0-1.229,2.184c-.1.31-.19.646-.279,1-.062.239-.119.491-.172.743-.031.128-.058.256-.084.389l-.08.4v.062c-.053.274-.106.557-.155.844s-.106.619-.155.933q-.053.305-.093.61c-.062.394-.115.792-.168,1.185-.031.23-.062.442-.088.685l-.106.884c.225.725.478,1.441.738,2.144a3.564,3.564,0,0,1,.287,1.216,30.212,30.212,0,0,0,16.6,0,.168.168,0,0,1,0-.044,5.263,5.263,0,0,1-.106-1.207h0a33.127,33.127,0,0,1,.442-3.382,12.376,12.376,0,0,0,.084-1.662v-.2C344.3,467.947,344.294,467.788,344.29,467.629Zm0,0a3.061,3.061,0,0,0-.031-.531c-.031-.177-.026-.332-.049-.5s-.04-.336-.062-.5-.053-.336-.084-.5-.062-.336-.1-.5a.764.764,0,0,0-.035-.168c-.049-.221-.1-.442-.159-.667s-.093-.358-.146-.535a.754.754,0,0,0-.071-.234c-.027-.075-.075-.256-.115-.385l-.08-.248c-.035-.111-.071-.221-.111-.332-.066-.2-.137-.393-.208-.592s-.146-.393-.221-.588c-.15-.4-.314-.791-.477-1.185-.641-1.53-1.362-3.038-2.025-4.532a25.074,25.074,0,0,1-.946-2.4l-.084.119a5.112,5.112,0,0,0-.358.637c0,3.48-3.484,7.737-3.484,7.737l-3.506-5.107-3.068,4.718a3.854,3.854,0,0,0-1.229,2.184c-.1.31-.19.646-.279,1-.062.239-.119.491-.172.743-.031.128-.058.256-.084.389l-.08.4v.062c-.053.274-.106.557-.155.844s-.106.619-.155.933q-.053.305-.093.61c-.062.394-.115.792-.168,1.185-.031.23-.062.442-.088.685l-.106.884c.225.725.478,1.441.738,2.144a3.564,3.564,0,0,1,.287,1.216,30.212,30.212,0,0,0,16.6,0,.168.168,0,0,1,0-.044,5.263,5.263,0,0,1-.106-1.207h0a33.127,33.127,0,0,1,.442-3.382,12.376,12.376,0,0,0,.084-1.662v-.2C344.3,467.947,344.294,467.788,344.29,467.629Zm4.687-8.3-1.578-6.3-.27-1.079-.075-.3h0l-.385-1.539a.3.3,0,0,0,0-.04h0a.354.354,0,0,0-.031-.2c-.058-.115-.2-.234-.544-.265a2.74,2.74,0,0,0-.389,0h0a6.735,6.735,0,0,0-1.136.212c-.181.049-.376.1-.584.168l-.38.119h-.035a8.434,8.434,0,0,0-2.786,1.547,7.518,7.518,0,0,0-1.415,1.565l-.084.119a5.108,5.108,0,0,0-.358.637c0,3.48-3.484,7.737-3.484,7.737l-3.506-5.107-.2-.287-.035-.049-.508-.747-.385-.513-.1-.133-1.813-2.418h0l-.575-.783v-.027l-.2-.27-.38-.5-1.326.774-3.316,1.932-1.53,9.953v.106l.044.725.327,5.54v.314l-.5,1.994a29.145,29.145,0,0,0,4.156,1.839l.376.133c.442.146.858.279,1.291.407a1.578,1.578,0,0,1,.035.2v-.19a30.213,30.213,0,0,0,16.6,0l.1-.031c.252-.071.508-.146.756-.23l.4-.128a29.618,29.618,0,0,0,3.2-1.282l.367-7.905.265-5.646ZM327.232,474.6a1.562,1.562,0,0,1,.035.2v-.19Zm17.058-6.968a3.061,3.061,0,0,0-.031-.531c-.031-.177-.026-.332-.049-.5s-.04-.336-.062-.5-.053-.336-.084-.5-.062-.336-.1-.5a.764.764,0,0,0-.035-.168c-.049-.221-.1-.442-.159-.667s-.093-.358-.146-.535a.754.754,0,0,0-.071-.234c-.027-.075-.075-.256-.115-.385l-.08-.248c-.035-.111-.071-.221-.111-.332-.066-.2-.137-.393-.208-.592s-.146-.393-.221-.588c-.15-.4-.314-.791-.477-1.185-.641-1.53-1.362-3.038-2.025-4.532a25.074,25.074,0,0,1-.946-2.4l-.084.119a5.112,5.112,0,0,0-.358.637c0,3.48-3.484,7.737-3.484,7.737l-3.506-5.107-3.068,4.718a3.854,3.854,0,0,0-1.229,2.184c-.1.31-.19.646-.279,1-.062.239-.119.491-.172.743-.031.128-.058.256-.084.389l-.08.4v.062c-.053.274-.106.557-.155.844s-.106.619-.155.933q-.053.305-.093.61c-.062.394-.115.792-.168,1.185-.031.23-.062.442-.088.685l-.106.884c.225.725.478,1.441.738,2.144a3.564,3.564,0,0,1,.287,1.216,30.212,30.212,0,0,0,16.6,0,.168.168,0,0,1,0-.044,5.263,5.263,0,0,1-.106-1.207h0a33.127,33.127,0,0,1,.442-3.382,12.376,12.376,0,0,0,.084-1.662v-.2C344.3,467.947,344.294,467.788,344.29,467.629Zm0,0a3.061,3.061,0,0,0-.031-.531c-.031-.177-.026-.332-.049-.5s-.04-.336-.062-.5-.053-.336-.084-.5-.062-.336-.1-.5a.764.764,0,0,0-.035-.168c-.049-.221-.1-.442-.159-.667s-.093-.358-.146-.535a.754.754,0,0,0-.071-.234c-.027-.075-.075-.256-.115-.385l-.08-.248c-.035-.111-.071-.221-.111-.332-.066-.2-.137-.393-.208-.592s-.146-.393-.221-.588c-.15-.4-.314-.791-.477-1.185-.641-1.53-1.362-3.038-2.025-4.532a25.074,25.074,0,0,1-.946-2.4l-.084.119a5.112,5.112,0,0,0-.358.637c0,3.48-3.484,7.737-3.484,7.737l-3.506-5.107-3.068,4.718a3.854,3.854,0,0,0-1.229,2.184c-.1.31-.19.646-.279,1-.062.239-.119.491-.172.743-.031.128-.058.256-.084.389l-.08.4v.062c-.053.274-.106.557-.155.844s-.106.619-.155.933q-.053.305-.093.61c-.062.394-.115.792-.168,1.185-.031.23-.062.442-.088.685l-.106.884c.225.725.478,1.441.738,2.144a3.564,3.564,0,0,1,.287,1.216,30.212,30.212,0,0,0,16.6,0,.168.168,0,0,1,0-.044,5.263,5.263,0,0,1-.106-1.207h0a33.127,33.127,0,0,1,.442-3.382,12.376,12.376,0,0,0,.084-1.662v-.2C344.3,467.947,344.294,467.788,344.29,467.629Zm0,0a3.061,3.061,0,0,0-.031-.531c-.031-.177-.026-.332-.049-.5s-.04-.336-.062-.5-.053-.336-.084-.5-.062-.336-.1-.5a.764.764,0,0,0-.035-.168c-.049-.221-.1-.442-.159-.667s-.093-.358-.146-.535a.754.754,0,0,0-.071-.234c-.027-.075-.075-.256-.115-.385l-.08-.248c-.035-.111-.071-.221-.111-.332-.066-.2-.137-.393-.208-.592s-.146-.393-.221-.588c-.15-.4-.314-.791-.477-1.185-.641-1.53-1.362-3.038-2.025-4.532a25.074,25.074,0,0,1-.946-2.4l-.084.119a5.112,5.112,0,0,0-.358.637c0,3.48-3.484,7.737-3.484,7.737l-3.506-5.107-3.068,4.718a3.854,3.854,0,0,0-1.229,2.184c-.1.31-.19.646-.279,1-.062.239-.119.491-.172.743-.031.128-.058.256-.084.389l-.08.4v.062c-.053.274-.106.557-.155.844s-.106.619-.155.933q-.053.305-.093.61c-.062.394-.115.792-.168,1.185-.031.23-.062.442-.088.685l-.106.884c.225.725.478,1.441.738,2.144a3.564,3.564,0,0,1,.287,1.216,30.212,30.212,0,0,0,16.6,0,.168.168,0,0,1,0-.044,5.263,5.263,0,0,1-.106-1.207h0a33.127,33.127,0,0,1,.442-3.382,12.376,12.376,0,0,0,.084-1.662v-.2C344.3,467.947,344.294,467.788,344.29,467.629Zm0,0a3.061,3.061,0,0,0-.031-.531c-.031-.177-.026-.332-.049-.5s-.04-.336-.062-.5-.053-.336-.084-.5-.062-.336-.1-.5a.764.764,0,0,0-.035-.168c-.049-.221-.1-.442-.159-.667s-.093-.358-.146-.535a.754.754,0,0,0-.071-.234c-.027-.075-.075-.256-.115-.385l-.08-.248c-.035-.111-.071-.221-.111-.332-.066-.2-.137-.393-.208-.592s-.146-.393-.221-.588c-.15-.4-.314-.791-.477-1.185-.641-1.53-1.362-3.038-2.025-4.532a25.074,25.074,0,0,1-.946-2.4l-.084.119a5.112,5.112,0,0,0-.358.637c0,3.48-3.484,7.737-3.484,7.737l-3.506-5.107-3.068,4.718a3.854,3.854,0,0,0-1.229,2.184c-.1.31-.19.646-.279,1-.062.239-.119.491-.172.743-.031.128-.058.256-.084.389l-.08.4v.062c-.053.274-.106.557-.155.844s-.106.619-.155.933q-.053.305-.093.61c-.062.394-.115.792-.168,1.185-.031.23-.062.442-.088.685l-.106.884c.225.725.478,1.441.738,2.144a3.564,3.564,0,0,1,.287,1.216,30.212,30.212,0,0,0,16.6,0,.168.168,0,0,1,0-.044,5.263,5.263,0,0,1-.106-1.207h0a33.127,33.127,0,0,1,.442-3.382,12.376,12.376,0,0,0,.084-1.662v-.2C344.3,467.947,344.294,467.788,344.29,467.629Zm0,0a3.061,3.061,0,0,0-.031-.531c-.031-.177-.026-.332-.049-.5s-.04-.336-.062-.5-.053-.336-.084-.5-.062-.336-.1-.5a.764.764,0,0,0-.035-.168c-.049-.221-.1-.442-.159-.667s-.093-.358-.146-.535a.754.754,0,0,0-.071-.234c-.027-.075-.075-.256-.115-.385l-.08-.248c-.035-.111-.071-.221-.111-.332-.066-.2-.137-.393-.208-.592s-.146-.393-.221-.588c-.15-.4-.314-.791-.477-1.185-.641-1.53-1.362-3.038-2.025-4.532a25.074,25.074,0,0,1-.946-2.4l-.084.119a5.112,5.112,0,0,0-.358.637c0,3.48-3.484,7.737-3.484,7.737l-3.506-5.107-3.068,4.718a3.854,3.854,0,0,0-1.229,2.184c-.1.31-.19.646-.279,1-.062.239-.119.491-.172.743-.031.128-.058.256-.084.389l-.08.4v.062c-.053.274-.106.557-.155.844s-.106.619-.155.933q-.053.305-.093.61c-.062.394-.115.792-.168,1.185-.031.23-.062.442-.088.685l-.106.884c.225.725.478,1.441.738,2.144a3.564,3.564,0,0,1,.287,1.216,30.212,30.212,0,0,0,16.6,0,.168.168,0,0,1,0-.044,5.263,5.263,0,0,1-.106-1.207h0a33.127,33.127,0,0,1,.442-3.382,12.376,12.376,0,0,0,.084-1.662v-.2C344.3,467.947,344.294,467.788,344.29,467.629Zm0,0a3.061,3.061,0,0,0-.031-.531c-.031-.177-.026-.332-.049-.5s-.04-.336-.062-.5-.053-.336-.084-.5-.062-.336-.1-.5a.764.764,0,0,0-.035-.168c-.049-.221-.1-.442-.159-.667s-.093-.358-.146-.535a.754.754,0,0,0-.071-.234c-.027-.075-.075-.256-.115-.385l-.08-.248c-.035-.111-.071-.221-.111-.332-.066-.2-.137-.393-.208-.592s-.146-.393-.221-.588c-.15-.4-.314-.791-.477-1.185-.641-1.53-1.362-3.038-2.025-4.532a25.074,25.074,0,0,1-.946-2.4l-.084.119a5.112,5.112,0,0,0-.358.637c0,3.48-3.484,7.737-3.484,7.737l-3.506-5.107-3.068,4.718a3.854,3.854,0,0,0-1.229,2.184c-.1.31-.19.646-.279,1-.062.239-.119.491-.172.743-.031.128-.058.256-.084.389l-.08.4v.062c-.053.274-.106.557-.155.844s-.106.619-.155.933q-.053.305-.093.61c-.062.394-.115.792-.168,1.185-.031.23-.062.442-.088.685l-.106.884c.225.725.478,1.441.738,2.144a3.564,3.564,0,0,1,.287,1.216,30.212,30.212,0,0,0,16.6,0,.168.168,0,0,1,0-.044,5.263,5.263,0,0,1-.106-1.207h0a33.127,33.127,0,0,1,.442-3.382,12.376,12.376,0,0,0,.084-1.662v-.2C344.3,467.947,344.294,467.788,344.29,467.629Zm0,0a3.061,3.061,0,0,0-.031-.531c-.031-.177-.026-.332-.049-.5s-.04-.336-.062-.5-.053-.336-.084-.5-.062-.336-.1-.5a.764.764,0,0,0-.035-.168c-.049-.221-.1-.442-.159-.667s-.093-.358-.146-.535a.754.754,0,0,0-.071-.234c-.027-.075-.075-.256-.115-.385l-.08-.248c-.035-.111-.071-.221-.111-.332-.066-.2-.137-.393-.208-.592s-.146-.393-.221-.588c-.15-.4-.314-.791-.477-1.185-.641-1.53-1.362-3.038-2.025-4.532a25.074,25.074,0,0,1-.946-2.4l-.084.119a5.112,5.112,0,0,0-.358.637c0,3.48-3.484,7.737-3.484,7.737l-3.506-5.107-3.068,4.718a3.854,3.854,0,0,0-1.229,2.184c-.1.31-.19.646-.279,1-.062.239-.119.491-.172.743-.031.128-.058.256-.084.389l-.08.4v.062c-.053.274-.106.557-.155.844s-.106.619-.155.933q-.053.305-.093.61c-.062.394-.115.792-.168,1.185-.031.23-.062.442-.088.685l-.106.884c.225.725.478,1.441.738,2.144a3.564,3.564,0,0,1,.287,1.216,30.212,30.212,0,0,0,16.6,0,.168.168,0,0,1,0-.044,5.263,5.263,0,0,1-.106-1.207h0a33.127,33.127,0,0,1,.442-3.382,12.376,12.376,0,0,0,.084-1.662v-.2C344.3,467.947,344.294,467.788,344.29,467.629Zm0,0a3.061,3.061,0,0,0-.031-.531c-.031-.177-.026-.332-.049-.5s-.04-.336-.062-.5-.053-.336-.084-.5-.062-.336-.1-.5a.764.764,0,0,0-.035-.168c-.049-.221-.1-.442-.159-.667s-.093-.358-.146-.535a.754.754,0,0,0-.071-.234c-.027-.075-.075-.256-.115-.385l-.08-.248c-.035-.111-.071-.221-.111-.332-.066-.2-.137-.393-.208-.592s-.146-.393-.221-.588c-.15-.4-.314-.791-.477-1.185-.641-1.53-1.362-3.038-2.025-4.532a25.074,25.074,0,0,1-.946-2.4l-.084.119a5.112,5.112,0,0,0-.358.637c0,3.48-3.484,7.737-3.484,7.737l-3.506-5.107-3.068,4.718a3.854,3.854,0,0,0-1.229,2.184c-.1.31-.19.646-.279,1-.062.239-.119.491-.172.743-.031.128-.058.256-.084.389l-.08.4v.062c-.053.274-.106.557-.155.844s-.106.619-.155.933q-.053.305-.093.61c-.062.394-.115.792-.168,1.185-.031.23-.062.442-.088.685l-.106.884c.225.725.478,1.441.738,2.144a3.564,3.564,0,0,1,.287,1.216,30.212,30.212,0,0,0,16.6,0,.168.168,0,0,1,0-.044,5.263,5.263,0,0,1-.106-1.207h0a33.127,33.127,0,0,1,.442-3.382,12.376,12.376,0,0,0,.084-1.662v-.2C344.3,467.947,344.294,467.788,344.29,467.629Z" transform="translate(-305.541 -415.645)" fill="#fff"/>
      <path id="Path_6965" data-name="Path 6965" d="M321,456.452l-.3-.04a10.745,10.745,0,0,1-1.326-.265l-.164-.044c-1.079-.305-2.259-.853-2.525-1.817a1.72,1.72,0,0,1,.027-.942,8.074,8.074,0,0,1,.6-1.521V451.8a2.15,2.15,0,0,1,.111-.2,4.423,4.423,0,0,1,1.6-1.738l-.531.084-4.492.73-6.964,1.123s-1.238-.248-2.923,4.395a.722.722,0,0,1-.057.172c-.407,1.136-.836,2.556-1.278,4.328-.305,1.229-.584,2.436-.84,3.608-.075.354-.15.7-.221,1.048A28.089,28.089,0,0,0,304.289,468l.146.137a30.175,30.175,0,0,0,5.889,4.169l.084.044a29.128,29.128,0,0,0,4.156,1.839l.376.133c.08-.818.168-1.724.274-2.653a.753.753,0,0,1,.036-.279l.106-.884c.026-.226.057-.442.088-.685.053-.394.106-.792.168-1.185q.04-.305.093-.61c.049-.314.1-.628.155-.933s.1-.57.155-.844v-.062l.08-.4c.027-.133.053-.261.084-.389.053-.252.111-.5.172-.743.088-.358.181-.694.279-1a3.779,3.779,0,0,1,1.229-2.184l3.068-4.718.128-.2.057-.089Z" transform="translate(-294.54 -415.788)" opacity="0.1"/>
      <path id="Path_6966" data-name="Path 6966" d="M320.35,456.472l-3.259,5.005a3.74,3.74,0,0,0-1.207,2.118c-.1.327-.2.685-.3,1.061a52.865,52.865,0,0,0-1,5.788.687.687,0,0,1-.035.265c-.15,1.229-.274,2.436-.376,3.5a29.155,29.155,0,0,1-4.156-1.839l-.084-.044a30.182,30.182,0,0,1-5.889-4.169l-.146-.137a28.087,28.087,0,0,1-2.569-2.653c-.106-.119-.208-.243-.309-.367.049-.23.1-.442.15-.69.252-1.172.531-2.374.836-3.6a43.558,43.558,0,0,1,1.5-4.952,1.355,1.355,0,0,1,.057-.142c1.565-4.028,2.693-3.8,2.693-3.8l7.353-1.185,4.643-.752-.146.084a4.71,4.71,0,0,0-1.278,1.362l-.128.217c-.053.084-.1.177-.155.27a7.839,7.839,0,0,0-.61,1.547,1.627,1.627,0,0,0,.106,1.265,4.211,4.211,0,0,0,2.728,1.583l.172.044A11.073,11.073,0,0,0,320.35,456.472Z" transform="translate(-294.149 -415.799)" fill="#444176"/>
      <path id="Path_6967" data-name="Path 6967" d="M385.225,463.985l-.181-3.926c.774-6.19-.774-6.575-.774-6.575l-1.839-.884h-.049l-7.4-3.586-.287-.141-.088-.04h0l-.964-.469h0l-.61-.3-1.141-.553-.385-.186v1.534c0,.442.04.959.075,1.561.08,1.512.226,3.537.486,5.925.146,1.384.332,2.9.562,4.519.137.959.234,1.914.3,2.847a50.114,50.114,0,0,1-.292,9.418l.4-.128a29.933,29.933,0,0,0,8.9-4.784l.08-.057a29.486,29.486,0,0,0,3.21-2.914Z" transform="translate(-333.473 -414.376)" opacity="0.1"/>
      <path id="Path_6968" data-name="Path 6968" d="M386.094,463.957l-.181-3.935c.774-6.19-.774-6.575-.774-6.575l-2.211-1.07h-.044l-7.419-3.6-.34-.164-.066-.031-.544-.265-.721-.349-1.424-.69v.628h0v.778c0,.442.04,1.021.08,1.68.075,1.41.208,3.259.442,5.456.159,1.508.358,3.183.619,4.987q.2,1.446.292,2.861a50.05,50.05,0,0,1-.274,9.285,29.935,29.935,0,0,0,8.9-4.784l.08-.057a29.524,29.524,0,0,0,3.21-2.914q.194-.195.371-.4Z" transform="translate(-333.952 -414.349)" fill="#444176"/>
      <path id="Path_6969" data-name="Path 6969" d="M323.344,391.987a6.434,6.434,0,0,0-.606,2.211c-.473,1.729-2.348,2.812-2.777,4.554-.252,1.017.04,2.1-.133,3.13-.314,1.906-2.056,3.2-3.029,4.864a6.561,6.561,0,0,0-.4,5.7,9.151,9.151,0,0,1,.561,1.441,5.268,5.268,0,0,1-.137,2.211c-.332,1.574-.672,3.307.088,4.727a4.523,4.523,0,0,0,3.312,2.122,12.87,12.87,0,0,0,4.054-.186,11.73,11.73,0,0,0,4.236-1.238l-4.788-11.557a9.649,9.649,0,0,1-.973-3.639,8,8,0,0,1,.6-2.715,23.521,23.521,0,0,1,3.979-6.875c.694.8.641,2.029,1.22,2.923a4.61,4.61,0,0,0,1.972,1.472,65.326,65.326,0,0,0,6.981,2.918.915.915,0,0,1,.681,1.362l-1.8,7.446c-.4,1.64-.747,3.537.274,4.864s3.325,1.954,3.338,3.665a5.84,5.84,0,0,0,0,.813c.119.8,1.07,1.185,1.879,1.225a5.6,5.6,0,0,0,5.62-4.585c.442-2.927-1.494-5.624-2.3-8.476-1.362-4.8.442-10.426-2.233-14.639-2.166-3.418-6.115-4.346-9.864-4.771C330.458,390.647,325.2,389.541,323.344,391.987Z" transform="translate(-302.466 -382.639)" opacity="0.1"/>
      <path id="Path_6970" data-name="Path 6970" d="M323.344,390.987a6.432,6.432,0,0,0-.606,2.211c-.473,1.729-2.348,2.812-2.777,4.554-.252,1.017.04,2.1-.133,3.13-.314,1.906-2.056,3.2-3.029,4.864a6.561,6.561,0,0,0-.4,5.7,9.143,9.143,0,0,1,.561,1.441,5.268,5.268,0,0,1-.137,2.211c-.332,1.574-.672,3.307.088,4.726a4.523,4.523,0,0,0,3.312,2.122,12.868,12.868,0,0,0,4.054-.186,11.73,11.73,0,0,0,4.236-1.238l-4.788-11.558a9.648,9.648,0,0,1-.973-3.639,8,8,0,0,1,.6-2.715,23.521,23.521,0,0,1,3.979-6.875c.694.8.641,2.029,1.22,2.923a4.611,4.611,0,0,0,1.972,1.472,65.314,65.314,0,0,0,6.981,2.918.915.915,0,0,1,.681,1.362l-1.8,7.446c-.4,1.64-.747,3.537.274,4.863s3.325,1.954,3.338,3.665a5.843,5.843,0,0,0,0,.814c.119.8,1.07,1.185,1.879,1.225a5.6,5.6,0,0,0,5.62-4.585c.442-2.927-1.494-5.624-2.3-8.476-1.362-4.8.442-10.426-2.233-14.639-2.166-3.418-6.115-4.346-9.864-4.771C330.458,389.647,325.2,388.542,323.344,390.987Z" transform="translate(-302.466 -382.081)" fill="#493545"/>
    </g>
    <g id="Group_1469" data-name="Group 1469" transform="translate(107.122 260.838)" opacity="0.5">
      <path id="Path_6971" data-name="Path 6971" d="M345.611,643.865a29.924,29.924,0,0,1-7.238,19.565c-.23.27-.469.535-.712.8q-.181.2-.371.4a29.515,29.515,0,0,1-3.21,2.914l-.08.057a29.93,29.93,0,0,1-8.9,4.784l-.4.128c-.248.084-.5.159-.756.23l-.1.031a30.212,30.212,0,0,1-16.6,0h-.044c-.442-.128-.884-.261-1.291-.407l-.376-.133a29.154,29.154,0,0,1-4.156-1.839l-.084-.044a30.185,30.185,0,0,1-5.889-4.169l-.146-.137a28.093,28.093,0,0,1-2.569-2.653c-.106-.119-.208-.243-.309-.367-.194-.23-.38-.469-.566-.708a30.066,30.066,0,1,1,53.808-18.446Z" transform="translate(-285.48 -613.798)" fill="#c0bccf"/>
      <path id="Path_6972" data-name="Path 6972" d="M346.28,670.509l-.181-3.979c.774-6.292-.774-6.685-.774-6.685l-2.211-1.088-.044-.022-7.419-3.656-.34-.168-.044-.181s.146-.442-.588-.517a2.694,2.694,0,0,1-.186-1.127,4.835,4.835,0,0,1,1.216-2.211,9.082,9.082,0,0,0,1.455-6.442,15.153,15.153,0,0,0-2.467-6.225l-.141-.208a7.492,7.492,0,0,0,.261-1.954c0-5.089-5.147-9.214-11.5-9.214-5.748,0-10.536,3.4-11.367,7.835a4.024,4.024,0,0,0-.349.548c-1.167,2.184.637,3.816.694,6,.04,1.5-.968,2.79-1.769,4.063s-1.393,2.967-.57,4.223c.27.416.676.729.92,1.163.853,1.508-.566,3.236-1.083,4.89a4.663,4.663,0,0,0-.141.588l-3.413.557s-1.127-.23-2.693,3.864a1.36,1.36,0,0,0-.057.146,44.829,44.829,0,0,0-1.5,5.036q-.458,1.87-.836,3.657c-.053.234-.1.469-.15.7.1.124.2.252.309.371a28.353,28.353,0,0,0,2.569,2.706l.146.142a30.183,30.183,0,0,0,5.889,4.24l.084.044a28.923,28.923,0,0,0,4.156,1.87l.376.133c.442.15.858.283,1.291.416a1.6,1.6,0,0,1,.035.2v-.195a29.74,29.74,0,0,0,16.6,0l.1-.031c.252-.071.508-.15.756-.234l.4-.128a29.822,29.822,0,0,0,8.9-4.864l.08-.057a29.678,29.678,0,0,0,3.21-2.962q.195-.195.371-.4Z" transform="translate(-294.138 -621.068)" fill="url(#linear-gradient-3)"/>
      <path id="Path_6973" data-name="Path 6973" d="M323.1,651.264c.04,1.481-.968,2.746-1.769,3.979s-1.393,2.918-.57,4.152c.27.407.676.721.92,1.145.853,1.481-.566,3.183-1.083,4.811a6.039,6.039,0,0,0,1.353,5.5,14.652,14.652,0,0,0,4.74,3.462,42.3,42.3,0,0,0,11.726,4.174,11.225,11.225,0,0,0,6.429-.287,6.835,6.835,0,0,0,3.86-7.516c-.508-2.326-2.211-4.2-3.095-6.393a2.994,2.994,0,0,1-.292-1.384,4.675,4.675,0,0,1,1.216-2.167,8.842,8.842,0,0,0,1.433-6.292,14.764,14.764,0,0,0-2.467-6.128,6.709,6.709,0,0,0-1.769-1.945,7.759,7.759,0,0,0-3.307-1c-4.8-.672-9.776-1.406-14.617-1.654-1.53-.08-2.653.221-3.409,1.654C321.243,647.514,323.042,649.119,323.1,651.264Z" transform="translate(-304.941 -630.487)" fill="#444176"/>
      <path id="Path_6974" data-name="Path 6974" d="M354.187,679.916l-9.113,12.959-8.9-.774s-.292,3.1-3.869-8.122c-2-6.274,2.065-4.094,2.865-5.832s2.211-3.272,2.33-4.554a8.038,8.038,0,0,0-.553-4.315l9.67-1.158a7.214,7.214,0,0,0-.159,4.037C347.674,677.188,354.187,679.916,354.187,679.916Z" transform="translate(-311.3 -644.102)" fill="#c77485"/>
      <ellipse id="Ellipse_173" data-name="Ellipse 173" cx="11.496" cy="9.064" rx="11.496" ry="9.064" transform="translate(17.686 6.637)" fill="#444176"/>
      <path id="Path_6975" data-name="Path 6975" d="M353,672.152a9.665,9.665,0,0,1-8.958,1.441,8.04,8.04,0,0,0-.553-4.315l9.67-1.158A7.216,7.216,0,0,0,353,672.152Z" transform="translate(-317.841 -644.102)" opacity="0.1"/>
      <circle id="Ellipse_174" data-name="Ellipse 174" cx="9.67" cy="9.67" r="9.67" transform="translate(19.658 10.285)" fill="#c77485"/>
      <path id="Path_6976" data-name="Path 6976" d="M347.351,693.433l-.226-.884-.195-.778-.287-1.15-.053-.212-.044-.177s.23-.694-1.287-.469l-.283.049c-.239.049-.517.115-.836.2l-.287.089-.38.119h0a8.29,8.29,0,0,0-3.21,1.937,7.227,7.227,0,0,0-1.074,1.3c-.031.044-.053.084-.08.119a4.188,4.188,0,0,0-.279.513c0,3.484-3.484,7.737-3.484,7.737l-3.4-4.912-.066-.1-.809-1.176-.287-.38-.1-.133-1.769-2.374-.442-.593-.146-.2-.217-.287L327.6,691l-1.99,1.163-2.653,1.547-1.547,10.059v.278l.049.831.323,5.465v.075l-.566,2.264.084.044a29.165,29.165,0,0,0,4.156,1.839l.376.133c.442.146.858.279,1.291.407a1.55,1.55,0,0,1,.035.2v-.19a30.212,30.212,0,0,0,16.6,0l.1-.031c.252-.071.508-.146.756-.23l.4-.128a29.652,29.652,0,0,0,3.2-1.282l.371-7.914.265-5.708v-.327Z" transform="translate(-305.418 -656.151)" opacity="0.1"/>
      <path id="Path_6977" data-name="Path 6977" d="M344.29,708.629a3.061,3.061,0,0,0-.031-.531c-.031-.177-.026-.332-.049-.5s-.04-.336-.062-.5-.053-.336-.084-.5-.062-.336-.1-.5a.762.762,0,0,0-.035-.168c-.049-.221-.1-.442-.159-.668s-.093-.358-.146-.535a.753.753,0,0,0-.071-.234c-.027-.075-.075-.257-.115-.385l-.08-.248c-.035-.111-.071-.221-.111-.331-.066-.2-.137-.394-.208-.593s-.146-.393-.221-.588c-.15-.4-.314-.792-.477-1.185-.641-1.53-1.362-3.038-2.025-4.532a25.1,25.1,0,0,1-.946-2.4l-.084.119a5.1,5.1,0,0,0-.358.637c0,3.48-3.484,7.737-3.484,7.737l-3.506-5.107-3.068,4.718a3.854,3.854,0,0,0-1.229,2.184c-.1.31-.19.646-.279,1-.062.239-.119.491-.172.743-.031.128-.058.257-.084.389l-.08.4v.062c-.053.274-.106.557-.155.845s-.106.619-.155.933q-.053.305-.093.61c-.062.393-.115.792-.168,1.185-.031.23-.062.442-.088.685l-.106.884c.225.725.478,1.441.738,2.144a3.562,3.562,0,0,1,.287,1.216,30.211,30.211,0,0,0,16.6,0,.166.166,0,0,1,0-.044,5.263,5.263,0,0,1-.106-1.207h0a33.126,33.126,0,0,1,.442-3.383,12.374,12.374,0,0,0,.084-1.662v-.2C344.3,708.947,344.294,708.788,344.29,708.629Zm0,0a3.061,3.061,0,0,0-.031-.531c-.031-.177-.026-.332-.049-.5s-.04-.336-.062-.5-.053-.336-.084-.5-.062-.336-.1-.5a.762.762,0,0,0-.035-.168c-.049-.221-.1-.442-.159-.668s-.093-.358-.146-.535a.753.753,0,0,0-.071-.234c-.027-.075-.075-.257-.115-.385l-.08-.248c-.035-.111-.071-.221-.111-.331-.066-.2-.137-.394-.208-.593s-.146-.393-.221-.588c-.15-.4-.314-.792-.477-1.185-.641-1.53-1.362-3.038-2.025-4.532a25.1,25.1,0,0,1-.946-2.4l-.084.119a5.1,5.1,0,0,0-.358.637c0,3.48-3.484,7.737-3.484,7.737l-3.506-5.107-3.068,4.718a3.854,3.854,0,0,0-1.229,2.184c-.1.31-.19.646-.279,1-.062.239-.119.491-.172.743-.031.128-.058.257-.084.389l-.08.4v.062c-.053.274-.106.557-.155.845s-.106.619-.155.933q-.053.305-.093.61c-.062.393-.115.792-.168,1.185-.031.23-.062.442-.088.685l-.106.884c.225.725.478,1.441.738,2.144a3.562,3.562,0,0,1,.287,1.216,30.211,30.211,0,0,0,16.6,0,.166.166,0,0,1,0-.044,5.263,5.263,0,0,1-.106-1.207h0a33.126,33.126,0,0,1,.442-3.383,12.374,12.374,0,0,0,.084-1.662v-.2C344.3,708.947,344.294,708.788,344.29,708.629Zm0,0a3.061,3.061,0,0,0-.031-.531c-.031-.177-.026-.332-.049-.5s-.04-.336-.062-.5-.053-.336-.084-.5-.062-.336-.1-.5a.762.762,0,0,0-.035-.168c-.049-.221-.1-.442-.159-.668s-.093-.358-.146-.535a.753.753,0,0,0-.071-.234c-.027-.075-.075-.257-.115-.385l-.08-.248c-.035-.111-.071-.221-.111-.331-.066-.2-.137-.394-.208-.593s-.146-.393-.221-.588c-.15-.4-.314-.792-.477-1.185-.641-1.53-1.362-3.038-2.025-4.532a25.1,25.1,0,0,1-.946-2.4l-.084.119a5.1,5.1,0,0,0-.358.637c0,3.48-3.484,7.737-3.484,7.737l-3.506-5.107-3.068,4.718a3.854,3.854,0,0,0-1.229,2.184c-.1.31-.19.646-.279,1-.062.239-.119.491-.172.743-.031.128-.058.257-.084.389l-.08.4v.062c-.053.274-.106.557-.155.845s-.106.619-.155.933q-.053.305-.093.61c-.062.393-.115.792-.168,1.185-.031.23-.062.442-.088.685l-.106.884c.225.725.478,1.441.738,2.144a3.562,3.562,0,0,1,.287,1.216,30.211,30.211,0,0,0,16.6,0,.166.166,0,0,1,0-.044,5.263,5.263,0,0,1-.106-1.207h0a33.126,33.126,0,0,1,.442-3.383,12.374,12.374,0,0,0,.084-1.662v-.2C344.3,708.947,344.294,708.788,344.29,708.629Zm4.687-8.3-1.578-6.3-.27-1.079-.075-.3h0l-.385-1.539a.3.3,0,0,0,0-.04h0a.354.354,0,0,0-.031-.2c-.058-.115-.2-.234-.544-.265a2.777,2.777,0,0,0-.389,0h0a6.735,6.735,0,0,0-1.136.212c-.181.049-.376.1-.584.168l-.38.119h-.035a8.438,8.438,0,0,0-2.786,1.548,7.513,7.513,0,0,0-1.415,1.565l-.084.119a5.1,5.1,0,0,0-.358.637c0,3.48-3.484,7.738-3.484,7.738l-3.506-5.107-.2-.287-.035-.049-.508-.747-.385-.513-.1-.133-1.813-2.418h0l-.575-.783v-.027l-.2-.27-.38-.5-1.326.774-3.316,1.932-1.53,9.953v.106l.044.725.327,5.54v.314l-.5,1.994a29.152,29.152,0,0,0,4.156,1.839l.376.133c.442.146.858.279,1.291.407a1.574,1.574,0,0,1,.035.2v-.19a30.212,30.212,0,0,0,16.6,0l.1-.031c.252-.071.508-.146.756-.23l.4-.128a29.629,29.629,0,0,0,3.2-1.282l.367-7.906.265-5.646ZM327.232,715.6a1.558,1.558,0,0,1,.035.2v-.19Zm17.058-6.968a3.061,3.061,0,0,0-.031-.531c-.031-.177-.026-.332-.049-.5s-.04-.336-.062-.5-.053-.336-.084-.5-.062-.336-.1-.5a.762.762,0,0,0-.035-.168c-.049-.221-.1-.442-.159-.668s-.093-.358-.146-.535a.753.753,0,0,0-.071-.234c-.027-.075-.075-.257-.115-.385l-.08-.248c-.035-.111-.071-.221-.111-.331-.066-.2-.137-.394-.208-.593s-.146-.393-.221-.588c-.15-.4-.314-.792-.477-1.185-.641-1.53-1.362-3.038-2.025-4.532a25.1,25.1,0,0,1-.946-2.4l-.084.119a5.1,5.1,0,0,0-.358.637c0,3.48-3.484,7.737-3.484,7.737l-3.506-5.107-3.068,4.718a3.854,3.854,0,0,0-1.229,2.184c-.1.31-.19.646-.279,1-.062.239-.119.491-.172.743-.031.128-.058.257-.084.389l-.08.4v.062c-.053.274-.106.557-.155.845s-.106.619-.155.933q-.053.305-.093.61c-.062.393-.115.792-.168,1.185-.031.23-.062.442-.088.685l-.106.884c.225.725.478,1.441.738,2.144a3.562,3.562,0,0,1,.287,1.216,30.211,30.211,0,0,0,16.6,0,.166.166,0,0,1,0-.044,5.263,5.263,0,0,1-.106-1.207h0a33.126,33.126,0,0,1,.442-3.383,12.374,12.374,0,0,0,.084-1.662v-.2C344.3,708.947,344.294,708.788,344.29,708.629Zm0,0a3.061,3.061,0,0,0-.031-.531c-.031-.177-.026-.332-.049-.5s-.04-.336-.062-.5-.053-.336-.084-.5-.062-.336-.1-.5a.762.762,0,0,0-.035-.168c-.049-.221-.1-.442-.159-.668s-.093-.358-.146-.535a.753.753,0,0,0-.071-.234c-.027-.075-.075-.257-.115-.385l-.08-.248c-.035-.111-.071-.221-.111-.331-.066-.2-.137-.394-.208-.593s-.146-.393-.221-.588c-.15-.4-.314-.792-.477-1.185-.641-1.53-1.362-3.038-2.025-4.532a25.1,25.1,0,0,1-.946-2.4l-.084.119a5.1,5.1,0,0,0-.358.637c0,3.48-3.484,7.737-3.484,7.737l-3.506-5.107-3.068,4.718a3.854,3.854,0,0,0-1.229,2.184c-.1.31-.19.646-.279,1-.062.239-.119.491-.172.743-.031.128-.058.257-.084.389l-.08.4v.062c-.053.274-.106.557-.155.845s-.106.619-.155.933q-.053.305-.093.61c-.062.393-.115.792-.168,1.185-.031.23-.062.442-.088.685l-.106.884c.225.725.478,1.441.738,2.144a3.562,3.562,0,0,1,.287,1.216,30.211,30.211,0,0,0,16.6,0,.166.166,0,0,1,0-.044,5.263,5.263,0,0,1-.106-1.207h0a33.126,33.126,0,0,1,.442-3.383,12.374,12.374,0,0,0,.084-1.662v-.2C344.3,708.947,344.294,708.788,344.29,708.629Zm0,0a3.061,3.061,0,0,0-.031-.531c-.031-.177-.026-.332-.049-.5s-.04-.336-.062-.5-.053-.336-.084-.5-.062-.336-.1-.5a.762.762,0,0,0-.035-.168c-.049-.221-.1-.442-.159-.668s-.093-.358-.146-.535a.753.753,0,0,0-.071-.234c-.027-.075-.075-.257-.115-.385l-.08-.248c-.035-.111-.071-.221-.111-.331-.066-.2-.137-.394-.208-.593s-.146-.393-.221-.588c-.15-.4-.314-.792-.477-1.185-.641-1.53-1.362-3.038-2.025-4.532a25.1,25.1,0,0,1-.946-2.4l-.084.119a5.1,5.1,0,0,0-.358.637c0,3.48-3.484,7.737-3.484,7.737l-3.506-5.107-3.068,4.718a3.854,3.854,0,0,0-1.229,2.184c-.1.31-.19.646-.279,1-.062.239-.119.491-.172.743-.031.128-.058.257-.084.389l-.08.4v.062c-.053.274-.106.557-.155.845s-.106.619-.155.933q-.053.305-.093.61c-.062.393-.115.792-.168,1.185-.031.23-.062.442-.088.685l-.106.884c.225.725.478,1.441.738,2.144a3.562,3.562,0,0,1,.287,1.216,30.211,30.211,0,0,0,16.6,0,.166.166,0,0,1,0-.044,5.263,5.263,0,0,1-.106-1.207h0a33.126,33.126,0,0,1,.442-3.383,12.374,12.374,0,0,0,.084-1.662v-.2C344.3,708.947,344.294,708.788,344.29,708.629Zm0,0a3.061,3.061,0,0,0-.031-.531c-.031-.177-.026-.332-.049-.5s-.04-.336-.062-.5-.053-.336-.084-.5-.062-.336-.1-.5a.762.762,0,0,0-.035-.168c-.049-.221-.1-.442-.159-.668s-.093-.358-.146-.535a.753.753,0,0,0-.071-.234c-.027-.075-.075-.257-.115-.385l-.08-.248c-.035-.111-.071-.221-.111-.331-.066-.2-.137-.394-.208-.593s-.146-.393-.221-.588c-.15-.4-.314-.792-.477-1.185-.641-1.53-1.362-3.038-2.025-4.532a25.1,25.1,0,0,1-.946-2.4l-.084.119a5.1,5.1,0,0,0-.358.637c0,3.48-3.484,7.737-3.484,7.737l-3.506-5.107-3.068,4.718a3.854,3.854,0,0,0-1.229,2.184c-.1.31-.19.646-.279,1-.062.239-.119.491-.172.743-.031.128-.058.257-.084.389l-.08.4v.062c-.053.274-.106.557-.155.845s-.106.619-.155.933q-.053.305-.093.61c-.062.393-.115.792-.168,1.185-.031.23-.062.442-.088.685l-.106.884c.225.725.478,1.441.738,2.144a3.562,3.562,0,0,1,.287,1.216,30.211,30.211,0,0,0,16.6,0,.166.166,0,0,1,0-.044,5.263,5.263,0,0,1-.106-1.207h0a33.126,33.126,0,0,1,.442-3.383,12.374,12.374,0,0,0,.084-1.662v-.2C344.3,708.947,344.294,708.788,344.29,708.629Zm0,0a3.061,3.061,0,0,0-.031-.531c-.031-.177-.026-.332-.049-.5s-.04-.336-.062-.5-.053-.336-.084-.5-.062-.336-.1-.5a.762.762,0,0,0-.035-.168c-.049-.221-.1-.442-.159-.668s-.093-.358-.146-.535a.753.753,0,0,0-.071-.234c-.027-.075-.075-.257-.115-.385l-.08-.248c-.035-.111-.071-.221-.111-.331-.066-.2-.137-.394-.208-.593s-.146-.393-.221-.588c-.15-.4-.314-.792-.477-1.185-.641-1.53-1.362-3.038-2.025-4.532a25.1,25.1,0,0,1-.946-2.4l-.084.119a5.1,5.1,0,0,0-.358.637c0,3.48-3.484,7.737-3.484,7.737l-3.506-5.107-3.068,4.718a3.854,3.854,0,0,0-1.229,2.184c-.1.31-.19.646-.279,1-.062.239-.119.491-.172.743-.031.128-.058.257-.084.389l-.08.4v.062c-.053.274-.106.557-.155.845s-.106.619-.155.933q-.053.305-.093.61c-.062.393-.115.792-.168,1.185-.031.23-.062.442-.088.685l-.106.884c.225.725.478,1.441.738,2.144a3.562,3.562,0,0,1,.287,1.216,30.211,30.211,0,0,0,16.6,0,.166.166,0,0,1,0-.044,5.263,5.263,0,0,1-.106-1.207h0a33.126,33.126,0,0,1,.442-3.383,12.374,12.374,0,0,0,.084-1.662v-.2C344.3,708.947,344.294,708.788,344.29,708.629Zm0,0a3.061,3.061,0,0,0-.031-.531c-.031-.177-.026-.332-.049-.5s-.04-.336-.062-.5-.053-.336-.084-.5-.062-.336-.1-.5a.762.762,0,0,0-.035-.168c-.049-.221-.1-.442-.159-.668s-.093-.358-.146-.535a.753.753,0,0,0-.071-.234c-.027-.075-.075-.257-.115-.385l-.08-.248c-.035-.111-.071-.221-.111-.331-.066-.2-.137-.394-.208-.593s-.146-.393-.221-.588c-.15-.4-.314-.792-.477-1.185-.641-1.53-1.362-3.038-2.025-4.532a25.1,25.1,0,0,1-.946-2.4l-.084.119a5.1,5.1,0,0,0-.358.637c0,3.48-3.484,7.737-3.484,7.737l-3.506-5.107-3.068,4.718a3.854,3.854,0,0,0-1.229,2.184c-.1.31-.19.646-.279,1-.062.239-.119.491-.172.743-.031.128-.058.257-.084.389l-.08.4v.062c-.053.274-.106.557-.155.845s-.106.619-.155.933q-.053.305-.093.61c-.062.393-.115.792-.168,1.185-.031.23-.062.442-.088.685l-.106.884c.225.725.478,1.441.738,2.144a3.562,3.562,0,0,1,.287,1.216,30.211,30.211,0,0,0,16.6,0,.166.166,0,0,1,0-.044,5.263,5.263,0,0,1-.106-1.207h0a33.126,33.126,0,0,1,.442-3.383,12.374,12.374,0,0,0,.084-1.662v-.2C344.3,708.947,344.294,708.788,344.29,708.629Zm0,0a3.061,3.061,0,0,0-.031-.531c-.031-.177-.026-.332-.049-.5s-.04-.336-.062-.5-.053-.336-.084-.5-.062-.336-.1-.5a.762.762,0,0,0-.035-.168c-.049-.221-.1-.442-.159-.668s-.093-.358-.146-.535a.753.753,0,0,0-.071-.234c-.027-.075-.075-.257-.115-.385l-.08-.248c-.035-.111-.071-.221-.111-.331-.066-.2-.137-.394-.208-.593s-.146-.393-.221-.588c-.15-.4-.314-.792-.477-1.185-.641-1.53-1.362-3.038-2.025-4.532a25.1,25.1,0,0,1-.946-2.4l-.084.119a5.1,5.1,0,0,0-.358.637c0,3.48-3.484,7.737-3.484,7.737l-3.506-5.107-3.068,4.718a3.854,3.854,0,0,0-1.229,2.184c-.1.31-.19.646-.279,1-.062.239-.119.491-.172.743-.031.128-.058.257-.084.389l-.08.4v.062c-.053.274-.106.557-.155.845s-.106.619-.155.933q-.053.305-.093.61c-.062.393-.115.792-.168,1.185-.031.23-.062.442-.088.685l-.106.884c.225.725.478,1.441.738,2.144a3.562,3.562,0,0,1,.287,1.216,30.211,30.211,0,0,0,16.6,0,.166.166,0,0,1,0-.044,5.263,5.263,0,0,1-.106-1.207h0a33.126,33.126,0,0,1,.442-3.383,12.374,12.374,0,0,0,.084-1.662v-.2C344.3,708.947,344.294,708.788,344.29,708.629Zm0,0a3.061,3.061,0,0,0-.031-.531c-.031-.177-.026-.332-.049-.5s-.04-.336-.062-.5-.053-.336-.084-.5-.062-.336-.1-.5a.762.762,0,0,0-.035-.168c-.049-.221-.1-.442-.159-.668s-.093-.358-.146-.535a.753.753,0,0,0-.071-.234c-.027-.075-.075-.257-.115-.385l-.08-.248c-.035-.111-.071-.221-.111-.331-.066-.2-.137-.394-.208-.593s-.146-.393-.221-.588c-.15-.4-.314-.792-.477-1.185-.641-1.53-1.362-3.038-2.025-4.532a25.1,25.1,0,0,1-.946-2.4l-.084.119a5.1,5.1,0,0,0-.358.637c0,3.48-3.484,7.737-3.484,7.737l-3.506-5.107-3.068,4.718a3.854,3.854,0,0,0-1.229,2.184c-.1.31-.19.646-.279,1-.062.239-.119.491-.172.743-.031.128-.058.257-.084.389l-.08.4v.062c-.053.274-.106.557-.155.845s-.106.619-.155.933q-.053.305-.093.61c-.062.393-.115.792-.168,1.185-.031.23-.062.442-.088.685l-.106.884c.225.725.478,1.441.738,2.144a3.562,3.562,0,0,1,.287,1.216,30.211,30.211,0,0,0,16.6,0,.166.166,0,0,1,0-.044,5.263,5.263,0,0,1-.106-1.207h0a33.126,33.126,0,0,1,.442-3.383,12.374,12.374,0,0,0,.084-1.662v-.2C344.3,708.947,344.294,708.788,344.29,708.629Z" transform="translate(-305.541 -656.645)" fill="#444176"/>
      <path id="Path_6978" data-name="Path 6978" d="M321,697.452l-.3-.04a10.746,10.746,0,0,1-1.326-.265l-.164-.044c-1.079-.305-2.259-.853-2.525-1.817a1.721,1.721,0,0,1,.027-.942,8.079,8.079,0,0,1,.6-1.521V692.8a2.152,2.152,0,0,1,.111-.2,4.424,4.424,0,0,1,1.6-1.738l-.531.084-4.492.73-6.964,1.123s-1.238-.248-2.923,4.395a.719.719,0,0,1-.057.172c-.407,1.136-.836,2.556-1.278,4.329-.305,1.229-.584,2.436-.84,3.608-.075.354-.15.7-.221,1.048A28.072,28.072,0,0,0,304.289,709l.146.137a30.185,30.185,0,0,0,5.889,4.169l.084.044a29.136,29.136,0,0,0,4.156,1.839l.376.133c.08-.818.168-1.724.274-2.653a.752.752,0,0,1,.036-.279l.106-.884c.026-.226.057-.442.088-.685.053-.393.106-.792.168-1.185q.04-.305.093-.61c.049-.314.1-.628.155-.933s.1-.57.155-.844v-.062l.08-.4c.027-.133.053-.261.084-.389.053-.252.111-.5.172-.743.088-.358.181-.694.279-1a3.779,3.779,0,0,1,1.229-2.184l3.068-4.718.128-.2.057-.089Z" transform="translate(-294.54 -656.788)" opacity="0.1"/>
      <path id="Path_6979" data-name="Path 6979" d="M320.35,697.472l-3.259,5.005a3.74,3.74,0,0,0-1.207,2.118c-.1.327-.2.685-.3,1.061a52.862,52.862,0,0,0-1,5.788.686.686,0,0,1-.035.265c-.15,1.229-.274,2.436-.376,3.5a29.156,29.156,0,0,1-4.156-1.839l-.084-.044a30.183,30.183,0,0,1-5.889-4.169l-.146-.137a28.094,28.094,0,0,1-2.569-2.653c-.106-.119-.208-.243-.309-.367.049-.23.1-.442.15-.69.252-1.172.531-2.374.836-3.6a43.561,43.561,0,0,1,1.5-4.952,1.354,1.354,0,0,1,.057-.141c1.565-4.028,2.693-3.8,2.693-3.8l7.353-1.185,4.643-.752-.146.084a4.711,4.711,0,0,0-1.278,1.362l-.128.216c-.053.084-.1.177-.155.27a7.838,7.838,0,0,0-.61,1.548,1.627,1.627,0,0,0,.106,1.265,4.21,4.21,0,0,0,2.728,1.583l.172.044A11.074,11.074,0,0,0,320.35,697.472Z" transform="translate(-294.149 -656.799)" fill="#f1d2d7"/>
      <path id="Path_6980" data-name="Path 6980" d="M385.225,704.986l-.181-3.926c.774-6.19-.774-6.575-.774-6.575l-1.839-.884h-.049l-7.4-3.586-.287-.141-.088-.04h0l-.964-.469h0l-.61-.3-1.141-.553-.385-.186v1.534c0,.442.04.959.075,1.561.08,1.512.226,3.537.486,5.925.146,1.384.332,2.9.562,4.519.137.959.234,1.915.3,2.847a50.114,50.114,0,0,1-.292,9.418l.4-.128a29.934,29.934,0,0,0,8.9-4.784l.08-.057a29.5,29.5,0,0,0,3.21-2.914Z" transform="translate(-333.473 -655.377)" opacity="0.1"/>
      <path id="Path_6981" data-name="Path 6981" d="M386.094,704.958l-.181-3.935c.774-6.19-.774-6.575-.774-6.575l-2.211-1.07h-.044l-7.419-3.6-.34-.164-.066-.031-.544-.265-.721-.349-1.424-.69v.628h0v.778c0,.442.04,1.021.08,1.68.075,1.41.208,3.258.442,5.456.159,1.508.358,3.183.619,4.987q.2,1.446.292,2.861a50.05,50.05,0,0,1-.274,9.285,29.938,29.938,0,0,0,8.9-4.784l.08-.057a29.519,29.519,0,0,0,3.21-2.914q.194-.194.371-.4Z" transform="translate(-333.952 -655.349)" fill="#f1d2d7"/>
      <path id="Path_6982" data-name="Path 6982" d="M337.307,642.365c1.38-.234,2.768-.738,4.138-.442a13.551,13.551,0,0,1,3.161,1.534,8.182,8.182,0,0,0,3.263.862,1.919,1.919,0,0,0,1.2-.234,1.857,1.857,0,0,0,.535-1.822,10.458,10.458,0,0,0-2.653-4.97,9.723,9.723,0,0,0-1.662-1.684,8.78,8.78,0,0,0-5.655-1.282,14.167,14.167,0,0,0-6.477,1.662c-1.326.76-4.368,3.157-3.312,4.89C330.954,642.692,335.57,642.661,337.307,642.365Z" transform="translate(-310.107 -625.24)" opacity="0.1"/>
      <path id="Path_6983" data-name="Path 6983" d="M337.307,641.365c1.38-.234,2.768-.738,4.138-.442a13.555,13.555,0,0,1,3.161,1.534,8.184,8.184,0,0,0,3.263.862,1.919,1.919,0,0,0,1.2-.234,1.857,1.857,0,0,0,.535-1.822,10.459,10.459,0,0,0-2.653-4.97,9.719,9.719,0,0,0-1.662-1.685,8.781,8.781,0,0,0-5.655-1.282,14.166,14.166,0,0,0-6.477,1.662c-1.326.76-4.368,3.157-3.312,4.89C330.954,641.692,335.57,641.661,337.307,641.365Z" transform="translate(-310.107 -624.682)" fill="#444176"/>
    </g>
    <path id="Path_6984" data-name="Path 6984" d="M620.232,447.664h.066c.1,2.962.517,5.642,1.327,6.385,1.928,1.769,9.921-1.768,9.373-3.908-.111-.442-.3-1.167-.53-2.083,2.158-.27,4-.884,4.735-2.149l1.388,4.28.1.305h.106c.915,8.675,2.989,26.688,4.647,29.1,2.211,3.2,4.753,17.049,4.753,17.049l4.753,28.416s1.831,16.359,2.927,18.128a2.056,2.056,0,0,0,1.2.623,17.419,17.419,0,0,1-2.653,5.412c-2.211,2.485-5.12,7.459-7.68,7.105s-3.29,4.974,1.463,5.681c2.631.394,6.827-.084,10.05-.588,0,1.424.99,3.06,3.48,3.431,4.753.712,14.626-1.419,14.626-1.419s8.4-3.537,8.776-6.04c.265-1.813-1.021-9.09-1.738-12.906,1.326-2.127-.089-20.48-.089-20.48l-2.56-35.163s1.463-19.534,0-23.089c-.915-2.211-1.256-12.38-1.384-19.653l1.769.115a3.247,3.247,0,0,0,.274-.385l.442.031s2.211-2.485.367-6.393c-1.357-2.9-1.1-16.019-.884-22.549h0l.261-3.1a.882.882,0,0,0,.217-.336,32.43,32.43,0,0,0,9.873-2.989,10.02,10.02,0,0,0,2.591-1.574c1.831-1.769.729-12.433-2.927-28.416s-6.946-14.564-6.946-14.564-8.776-.712-12.8-6.04-6.725-5.257-6.725-5.257h0c-.1-.7-.172-1.357-.221-1.972,0-.23-.035-.442-.049-.672a11.688,11.688,0,0,0,3.042-4.611,22.846,22.846,0,0,0,2.622-1.145,3.116,3.116,0,0,0,.544-.5,4.47,4.47,0,0,0,1.411-2.781,11.377,11.377,0,0,0-.164-3.488,8.454,8.454,0,0,0-5.58-7.658q-5.8-3.046-11.633-6.031a6.42,6.42,0,0,0-2.489-.884c-1.556-.088-2.953.977-4.209,1.99a17.966,17.966,0,0,0-1.437,1.26,8.073,8.073,0,0,0-1.057,1.136,10.9,10.9,0,0,0-1.446,8.131,1.114,1.114,0,0,0,1.181.995,11.4,11.4,0,0,0-1.216,5.129,11.629,11.629,0,0,0,5.4,9.767c0,.248,0,.491.022.725a25.916,25.916,0,0,1-.088,2.719s-9.727,5.257-10.819,7.742-5.12,4.262-5.12,4.262-7.68,3.909-7.68,17.761l-4.023,19.534-.73,37.294s.5-.442,1.326-1.07c-.026.248-.049.5-.071.765a42.056,42.056,0,0,0-.111,4.284Zm49.122,96.524c-.15.57-.371,1.326-.65,2.211-.124-.734-.248-1.459-.371-2.149C668.651,544.218,668.991,544.2,669.354,544.187Z" transform="translate(-364.494 -191.795)" fill="url(#linear-gradient-4)"/>
    <path id="Path_6985" data-name="Path 6985" d="M686.459,809.177s-1.411,6.34-3.537,8.8-4.912,7.4-7.37,7.043-3.17,4.93,1.41,5.633,14.065-1.406,14.065-1.406,8.1-3.537,8.449-5.986-2.113-15.143-2.113-15.143Z" transform="translate(-394.881 -461.365)" fill="#53526b"/>
    <path id="Path_6986" data-name="Path 6986" d="M686.459,809.177s-1.411,6.34-3.537,8.8-4.912,7.4-7.37,7.043-3.17,4.93,1.41,5.633,14.065-1.406,14.065-1.406,8.1-3.537,8.449-5.986-2.113-15.143-2.113-15.143Z" transform="translate(-394.881 -461.365)" opacity="0.05"/>
    <path id="Path_6987" data-name="Path 6987" d="M715.92,815.541s-1.41,6.34-3.537,8.8-4.926,7.4-7.38,7.043-3.17,4.93,1.411,5.633,14.086-1.41,14.086-1.41,8.1-3.537,8.449-5.987-2.113-15.143-2.113-15.143Z" transform="translate(-411.312 -464.913)" fill="#53526b"/>
    <path id="Path_6988" data-name="Path 6988" d="M659.66,598.67s2.816,30.282,4.93,33.452,4.576,16.9,4.576,16.9l4.576,28.169s1.769,16.2,2.817,17.96,14.117,1,14.117,1l-8.126-93.265Z" transform="translate(-387.098 -344.521)" fill="#5f5d7e"/>
    <path id="Path_6989" data-name="Path 6989" d="M659.66,598.67s2.816,30.282,4.93,33.452,4.576,16.9,4.576,16.9l4.576,28.169s1.769,16.2,2.817,17.96,14.117,1,14.117,1l-8.126-93.265Z" transform="translate(-387.098 -344.521)" opacity="0.05"/>
    <path id="Path_6990" data-name="Path 6990" d="M646.92,566l.92,2.923,4.974,15.789.1.3h.027c.668.15,14.763,3.391,17.8,4.386a4.281,4.281,0,0,1,.482.181c1.41.7,3.17,26.055,3.17,26.055s1.057,23.946,1.768,25.706,3.537,38.024,5.284,36.972,14.436,0,14.436,0c1.41-1.41,0-20.422,0-20.422l-2.5-34.854s1.41-19.366,0-22.89-1.411-27.112-1.411-27.112l-28.823-4.505-2.785-.442Z" transform="translate(-379.991 -326.296)" fill="#5f5d7e"/>
    <path id="Path_6991" data-name="Path 6991" d="M649,571.365l4.974,15.789.12.31c.668.15,14.763,3.391,17.8,4.386h.305l-7.875-20.878-.226-.6-2.56.164Z" transform="translate(-381.152 -328.734)" opacity="0.02"/>
    <path id="Path_6992" data-name="Path 6992" d="M682.946,406.73s-13.03,14.087-21.13,2.463l-7.746,5.284,1.41,8.1L650.9,483.844s11.973-.354,20.422,2.463a13.105,13.105,0,0,0,13.733-3.17l-1.393-53.87,3.17-16.549Z" transform="translate(-382.211 -237.445)" opacity="0.1"/>
    <path id="Path_6993" data-name="Path 6993" d="M682.946,404.34s-13.03,14.087-21.13,2.463l-7.746,5.284,1.41,8.1L650.9,481.454s11.973-.354,20.422,2.463a13.105,13.105,0,0,0,13.733-3.17l-1.393-53.87,3.17-16.549Z" transform="translate(-382.211 -236.112)" fill="#53526b"/>
    <g id="TESLA" transform="translate(270.616 229.509)">
      <g id="g8">
        <path id="polyline10" d="M616.3,522.36v2.22h-.707V523.1H613v1.477h-.712v-2.215l4.006,0" transform="translate(-612.188 -520.91)" fill="#e82127"/>
        <path id="path12" d="M658.735,543.674H656a1.008,1.008,0,0,1-.743-.734h4.214a1.012,1.012,0,0,1-.743.734" transform="translate(-655.26 -542.94)" fill="#e82127"/>
      </g>
      <g id="g30" transform="translate(23.575 0.027)">
        <path id="path32" d="M713.187,543a1.021,1.021,0,0,1-.738.73H711.3l-.057.022v2.9h-.708v-2.9l-.066-.022h-1.15a1.034,1.034,0,0,1-.738-.73h4.607" transform="translate(-708.58 -543)" fill="#e82127"/>
      </g>
    </g>
    <path id="Path_6994" data-name="Path 6994" d="M641.169,569.2s0,9.157-2.113,13.03S624.62,584,624.62,584l2.463-13.03Z" transform="translate(-367.551 -328.081)" fill="#d6dbe6"/>
    <path id="Path_6995" data-name="Path 6995" d="M626.016,596.215c1.857,1.768,9.555-1.769,9.024-3.873-.371-1.49-1.671-6.822-2.41-9.847l-.513-2.127s-4.51-1.41-6.1,0c-.579.513-.986,2.533-1.176,4.974C624.512,589.583,624.844,595.092,626.016,596.215Z" transform="translate(-367.607 -333.962)" fill="#fdc2cc"/>
    <path id="Path_6996" data-name="Path 6996" d="M666,388.512l12.323,9.506s18.309-1.057,13.733-9.86a32.83,32.83,0,0,1-3.537-12.442,26.032,26.032,0,0,1,0-4.815s-16.9-15.475-14.789,2.113a39.864,39.864,0,0,1,.292,4.068C674.273,390.285,666,388.512,666,388.512Z" transform="translate(-390.635 -213.948)" fill="#fdc2cc"/>
    <path id="Path_6997" data-name="Path 6997" d="M683.329,373.015a39.864,39.864,0,0,1,.292,4.068,11.541,11.541,0,0,0,6.4,1.919c3.152,0,5.474-3.068,7.569-5.107-.234-2.923.526-2.993.526-2.993S681.216,355.409,683.329,373.015Z" transform="translate(-400.2 -213.944)" opacity="0.1"/>
    <circle id="Ellipse_175" data-name="Ellipse 175" cx="11.619" cy="11.619" r="11.619" transform="translate(278.199 141.116)" fill="#fdc2cc"/>
    <path id="Path_6998" data-name="Path 6998" d="M705.453,394.38s1.937.177,5.81,5.456,12.322,5.987,12.322,5.987,3.17-1.41,6.69,14.436,4.576,26.409,2.816,28.169-8.8,4.231-12.34,4.231c0,0-1.057,22.182.7,26.055s-.354,6.34-.354,6.34L705.625,484s-5.284-6.69-6.34-18.309-4.576-44.722-2.816-48.6,9.506-13.733,9.157-14.79S705.453,394.38,705.453,394.38Z" transform="translate(-407.362 -230.556)" opacity="0.1"/>
    <path id="Path_6999" data-name="Path 6999" d="M706.392,394.14s2.6-.071,6.477,5.213,12.318,5.987,12.318,5.987,3.17-1.41,6.69,14.436,4.576,26.409,2.816,28.169-8.8,4.227-12.322,4.227c0,0-1.057,22.182.7,26.055s-.354,6.34-.354,6.34l-15.475-1.057s-5.284-6.69-6.34-18.309-4.585-44.718-2.825-48.574,9.506-13.733,9.157-14.79S706.392,394.14,706.392,394.14Z" transform="translate(-408.261 -230.422)" fill="#d6dbe6"/>
    <path id="Path_7000" data-name="Path 7000" d="M625,585.333c1.685-1.286,4.863-3.289,7.79-2.847l-.513-2.127s-4.51-1.41-6.1,0C625.588,580.872,625.186,582.888,625,585.333Z" transform="translate(-367.763 -333.956)" opacity="0.1"/>
    <path id="Path_7001" data-name="Path 7001" d="M650.9,399.16s-8.98,5.81-10.037,8.277-4.93,4.227-4.93,4.227-7.392,3.873-7.392,17.606l-3.873,19.366,17.606,24.649s2.113-24.649,3.17-30.636,2.463-17.243,2.463-17.243,5.284-6.69,4.576-8.449S650.9,399.16,650.9,399.16Z" transform="translate(-367.579 -233.222)" opacity="0.1"/>
    <path id="Path_7002" data-name="Path 7002" d="M649.535,398.92s-9.365,5.213-10.417,7.676-4.93,4.227-4.93,4.227S626.8,414.7,626.8,428.428l-3.873,19.366-.7,36.972s6.34-5.987,10.916-3.17,7.393-9.157,7.393-9.157,2.113-24.649,3.17-30.636,2.463-17.243,2.463-17.243,5.283-6.69,4.576-8.449S649.535,398.92,649.535,398.92Z" transform="translate(-366.212 -233.088)" fill="#d6dbe6"/>
    <path id="Path_7003" data-name="Path 7003" d="M673.567,332.28a11.492,11.492,0,0,1,2.052-2.025c1.211-1.008,2.551-2.06,4.054-1.972a6.066,6.066,0,0,1,2.4.858q5.615,2.958,11.2,5.978a10.414,10.414,0,0,1,3.754,2.865,11.043,11.043,0,0,1,1.618,4.731,11.594,11.594,0,0,1,.159,3.458,4.338,4.338,0,0,1-1.53,2.9c-1,.729-2.379.734-3.219,1.689a9.41,9.41,0,0,0-1.043,2c-.345.672-.942,1.326-1.623,1.207a1.7,1.7,0,0,1-1.189-1.57,9.526,9.526,0,0,1,.128-2.211,5.235,5.235,0,0,0-.8-3.718c-.531-.672-1.291-1.079-1.8-1.769-1.229-1.662-.668-4.421-2.016-5.982a3.2,3.2,0,0,0-3.095-.884,13.228,13.228,0,0,0-3.095,1.326,22.991,22.991,0,0,1-4.24,1.636c-1.229.336-2.653,1.141-3.073-.5A10.9,10.9,0,0,1,673.567,332.28Z" transform="translate(-393.948 -193.68)" opacity="0.1"/>
    <path id="Path_7004" data-name="Path 7004" d="M674.364,331.49a11.5,11.5,0,0,1,2.052-2.025c1.211-1.008,2.551-2.06,4.055-1.972a6.065,6.065,0,0,1,2.4.858c3.74,1.972,6.849.106,11.2,5.978.929,1.256,2.794,1.53,3.754,2.865a11.04,11.04,0,0,1,1.618,4.731,11.592,11.592,0,0,1,.159,3.458,4.337,4.337,0,0,1-1.53,2.9c-1,.729-2.379.734-3.219,1.689a9.412,9.412,0,0,0-1.043,2c-.345.672-.942,1.326-1.623,1.207a1.7,1.7,0,0,1-1.189-1.57,9.53,9.53,0,0,1,.128-2.211,5.234,5.234,0,0,0-.8-3.718c-.531-.672-1.291-1.079-1.8-1.768-1.229-1.662-.668-4.421-2.016-5.982a3.2,3.2,0,0,0-3.095-.884,13.237,13.237,0,0,0-3.1,1.326,22.994,22.994,0,0,1-4.24,1.636c-1.229.336-2.653,1.141-3.073-.5A10.877,10.877,0,0,1,674.364,331.49Z" transform="translate(-394.392 -193.24)" fill="#865a61"/>
    <path id="Path_7005" data-name="Path 7005" d="M739.9,458.09s4.7,11.973,1.172,16.9l-7.746-1.769s7.043,2.113,5.986-2.113S739.9,458.09,739.9,458.09Z" transform="translate(-428.196 -266.097)" opacity="0.1"/>
    <path id="Path_7006" data-name="Path 7006" d="M737.56,523.22s-10.213.7-13.03-1.41a26.969,26.969,0,0,0,12.712,5.284Z" transform="translate(-423.287 -301.644)" opacity="0.1"/>
    <path id="Path_7007" data-name="Path 7007" d="M648.248,474s-5.284,16.2-4.93,18.663,1.057,29.579,1.057,29.579l1.057-.354-.354-29.579Z" transform="translate(-377.973 -274.973)" opacity="0.1"/>
    <path id="Path_7008" data-name="Path 7008" d="M443.639,259.905l-120.7-97.271a7.552,7.552,0,0,0-5.35-2.211h-5.129a65.437,65.437,0,1,0-11.332,11.332v5.124a7.552,7.552,0,0,0,2.211,5.35l120.7,97.271a7.516,7.516,0,0,0,10.673,0l8.9-8.887A7.591,7.591,0,0,0,443.639,259.905ZM260.827,160.424a16.692,16.692,0,1,1,0,.009Z" transform="translate(-128.123 -41.079)" fill="url(#linear-gradient-5)"/>
    <path id="Path_7009" data-name="Path 7009" d="M445.639,257.905l-120.7-97.271a7.552,7.552,0,0,0-5.35-2.211h-5.129a65.436,65.436,0,1,0-11.332,11.332v5.124a7.552,7.552,0,0,0,2.211,5.35l120.7,97.271a7.516,7.516,0,0,0,10.673,0l8.9-8.887a7.592,7.592,0,0,0,.031-10.709ZM262.827,158.424a16.692,16.692,0,1,1,0,.009Z" transform="translate(-129.239 -39.963)" fill="#6361d0"/>
    <path id="Path_7010" data-name="Path 7010" d="M719.1,482.587s-17.619-20.206-15.143-6.34c1.768,9.86,8.449,15.143,11.619,16.2S719.1,482.587,719.1,482.587Z" transform="translate(-411.678 -273.515)" fill="#fdc2cc"/>
    <path id="Path_7011" data-name="Path 7011" d="M733.409,454.51s.354,13.03,2.114,14.79-1.057,3.873-1.057,3.873l-7.043-1.769s1.769,11.62-5.633,10.213c0,0,4.93,4.576,9.86,5.284s4.576-1.057,4.576-1.057l7.393-8.8Z" transform="translate(-421.758 -264.1)" fill="#d6dbe6"/>
    <path id="Path_7012" data-name="Path 7012" d="M704.259,493.582l7.145-1.569-.955-3.294-4.421-1.768L700.28,489.6Z" transform="translate(-390.658 -271.647)" fill="#d6dbe6"/>
    <path id="Path_7013" data-name="Path 7013" d="M280.78,161.873a29.925,29.925,0,0,0,6,18.03c.394.526.8,1.035,1.234,1.534.23.27.469.535.712.8q.181.2.371.4a29.493,29.493,0,0,0,3.21,2.914l.08.057a29.942,29.942,0,0,0,8.9,4.784l.4.128c.248.084.5.159.756.23l.1.031c.128.035.256.075.389.106a29.937,29.937,0,0,0,7.883,1.048c.442,0,.906,0,1.357-.031a29.73,29.73,0,0,0,6.973-1.141h.044c.42-.124.836-.252,1.247-.394h.044l.376-.133a29.149,29.149,0,0,0,4.156-1.839l.084-.044c.146-.08.292-.159.442-.243a29.991,29.991,0,0,0,5.456-3.926l.146-.137a28.1,28.1,0,0,0,2.569-2.653l.093-.111c.075-.084.146-.168.217-.256.195-.23.38-.469.566-.707a30.066,30.066,0,1,0-53.817-18.442Z" transform="translate(-175.736 -84.08)" fill="#c0bccf"/>
    <path id="Path_7014" data-name="Path 7014" d="M298.793,180.009s6.522-.553,9.51-4.7c2.914-4.037,4.895-4.085,4.992-4.085h0c.075-.539.128-1.052.164-1.53v-.066a.885.885,0,0,1-.411.181c-.584.088-1.1-.464-1.388-1.052a8.212,8.212,0,0,0-.884-1.742c-.721-.831-1.9-.836-2.759-1.468a3.793,3.793,0,0,1-1.326-2.529,6.959,6.959,0,0,1-.053-1.105,12.247,12.247,0,0,1,.186-2.357,9.706,9.706,0,0,1,1.388-4.116c.818-1.154,2.418-1.4,3.214-2.494,3.727-5.111,6.385-3.488,9.59-5.2a5.137,5.137,0,0,1,2.052-.747c1.287-.075,2.436.844,3.471,1.72a9.913,9.913,0,0,1,1.769,1.769,9.6,9.6,0,0,1,1.4,5.368,8.04,8.04,0,0,1-.2,2.1c-.257,1.017-.951.951-1.711.721a9.188,9.188,0,0,1-3.122,11.531v.464a.831.831,0,0,0,0,.1,20.91,20.91,0,0,0,.071,2.113c.075.04,7.225,4.094,8.034,6.018s3.807,3.316,3.807,3.316,3.294,1.769,4.864,7.322l-.093.111a28.342,28.342,0,0,1-2.569,2.706l-.146.141a30.009,30.009,0,0,1-5.456,3.979c-.142.084-.287.168-.442.248l-.084.044a28.9,28.9,0,0,1-4.156,1.87l-.376.137h-.044c-.411.146-.827.274-1.247.4h-.044a29.277,29.277,0,0,1-6.973,1.158c-.442.022-.884.031-1.357.031a29.471,29.471,0,0,1-7.861-1.021c-.133-.031-.261-.071-.389-.106l-.1-.031c-.252-.071-.508-.15-.756-.234l-.4-.128a29.812,29.812,0,0,1-8.918-4.868l-.08-.057a29.682,29.682,0,0,1-3.21-2.962q-.19-.195-.371-.407c-.243-.265-.482-.535-.712-.809-.442-.508-.84-1.026-1.234-1.561C296.785,179.1,298.793,180.009,298.793,180.009Z" transform="translate(-183.346 -92.547)" fill="url(#linear-gradient-6)"/>
    <path id="Path_7015" data-name="Path 7015" d="M341.236,205.879l9.51-7.335s-6.371,1.366-6.19-8.816a.785.785,0,0,1,0-.1,26.068,26.068,0,0,1,.221-3.037c1.632-13.587-11.412-1.631-11.412-1.631a19.454,19.454,0,0,1,0,3.617v.1a25.265,25.265,0,0,1-2.715,9.6C327.11,205.061,341.236,205.879,341.236,205.879Z" transform="translate(-203.24 -111.015)" fill="#fdc2cc"/>
    <path id="Path_7016" data-name="Path 7016" d="M338.715,186.685c1.614,1.57,2.6,4.421,5.027,4.421a8.909,8.909,0,0,0,4.939-1.481,26.054,26.054,0,0,1,.221-3.037c1.632-13.587-11.412-1.632-11.412-1.632S338.887,184.475,338.715,186.685Z" transform="translate(-207.373 -111.015)" opacity="0.1"/>
    <circle id="Ellipse_176" data-name="Ellipse 176" cx="8.967" cy="8.967" r="8.967" transform="translate(127.403 61.716)" fill="#fdc2cc"/>
    <path id="Path_7017" data-name="Path 7017" d="M343.733,153.426a9.841,9.841,0,0,0-1.769-1.733c-1.035-.862-2.184-1.769-3.471-1.689a5.193,5.193,0,0,0-2.052.734c-3.206,1.689-5.863.093-9.59,5.116-.8,1.074-2.392,1.326-3.214,2.454a9.4,9.4,0,0,0-1.388,4.05,9.933,9.933,0,0,0-.137,2.962,3.711,3.711,0,0,0,1.326,2.485c.858.623,2.038.628,2.759,1.446a8.024,8.024,0,0,1,.884,1.711c.292.575.8,1.119,1.388,1.035a1.431,1.431,0,0,0,1.017-1.326,8.158,8.158,0,0,0-.111-1.888,4.516,4.516,0,0,1,.69-3.183c.442-.579,1.105-.924,1.543-1.512,1.052-1.419.575-3.8,1.729-5.12a2.737,2.737,0,0,1,2.653-.738,11.3,11.3,0,0,1,2.653,1.141,19.683,19.683,0,0,0,3.63,1.4c1.052.287,2.273.977,2.631-.442A9.345,9.345,0,0,0,343.733,153.426Z" transform="translate(-198.765 -94.225)" opacity="0.1"/>
    <path id="Path_7018" data-name="Path 7018" d="M343.733,152.426a9.841,9.841,0,0,0-1.769-1.733c-1.035-.862-2.184-1.769-3.471-1.689a5.2,5.2,0,0,0-2.052.734c-3.206,1.689-5.863.093-9.59,5.116-.8,1.074-2.392,1.326-3.214,2.454a9.4,9.4,0,0,0-1.388,4.05,9.933,9.933,0,0,0-.137,2.962,3.71,3.71,0,0,0,1.326,2.485c.858.623,2.038.628,2.759,1.446a8.025,8.025,0,0,1,.884,1.711c.292.575.8,1.119,1.388,1.035a1.431,1.431,0,0,0,1.017-1.326,8.157,8.157,0,0,0-.111-1.888,4.516,4.516,0,0,1,.69-3.183c.442-.579,1.105-.924,1.543-1.512,1.052-1.419.575-3.8,1.729-5.12a2.737,2.737,0,0,1,2.653-.738,11.3,11.3,0,0,1,2.653,1.141,19.688,19.688,0,0,0,3.63,1.4c1.052.287,2.273.977,2.631-.442A9.345,9.345,0,0,0,343.733,152.426Z" transform="translate(-198.765 -93.667)" fill="#865a61"/>
    <path id="Path_7019" data-name="Path 7019" d="M328.282,227.145l-.177,6.787a29.935,29.935,0,0,0,7.883,1.048c.442,0,.906,0,1.357-.031a29.728,29.728,0,0,0,6.972-1.141h.044c.42-.124.836-.252,1.247-.393h.044l.376-.133a29.147,29.147,0,0,0,4.156-1.839l.084-.044c.146-.08.292-.159.442-.243l-.685-9.148,1.092-6.274-5.978-4.072a10.519,10.519,0,0,1-1.123,1.362,7.518,7.518,0,0,1-2.043,1.512c-4.289,2.113-9.17-1.247-11.6-3.325l-.553-.491c-.628-.57-.986-.959-.986-.959l-2.989,4.616Z" transform="translate(-200.879 -127.564)" opacity="0.1"/>
    <path id="Path_7020" data-name="Path 7020" d="M328.282,228.145l-.177,6.787a29.935,29.935,0,0,0,7.883,1.048c.442,0,.906,0,1.357-.031a29.728,29.728,0,0,0,6.972-1.141h.044c.42-.124.836-.252,1.247-.394h.044l.376-.133a29.147,29.147,0,0,0,4.156-1.839l.084-.044c.146-.08.292-.159.442-.243l-.685-9.148,1.092-6.274-5.978-4.072a10.531,10.531,0,0,1-1.123,1.362,7.517,7.517,0,0,1-2.043,1.512c-4.289,2.113-9.17-1.247-11.6-3.325l-.553-.491c-.628-.57-.986-.959-.986-.959l-2.989,4.616Z" transform="translate(-200.879 -128.121)" fill="#53526b"/>
    <path id="Path_7021" data-name="Path 7021" d="M294.36,219.543c.394.526.8,1.035,1.234,1.534.23.27.469.535.712.8q.181.2.371.4a29.5,29.5,0,0,0,3.21,2.914l.08.057a29.939,29.939,0,0,0,8.9,4.784l.4.128c.248.084.5.159.756.23l.1.031c.128.035.256.075.389.106a29.938,29.938,0,0,0,7.883,1.048c.442,0,.906,0,1.357-.031.345-5.642.442-10.169-.1-11.332a18.254,18.254,0,0,0-1.092-1.954c-2.184-3.511-6.19-8.79-5.973-9.457a6.92,6.92,0,0,0,.181-.995c.234-1.742.469-4.93.469-4.93h0c-.1,0-2.078.049-4.992,4.019-2.989,4.077-9.51,4.62-9.51,4.62S296.752,210.625,294.36,219.543Z" transform="translate(-183.312 -123.72)" fill="#555388"/>
    <path id="Path_7022" data-name="Path 7022" d="M364.334,226.385s.327,2.6.756,5.717h.044l.376-.133a29.145,29.145,0,0,0,4.156-1.839l.084-.044c.146-.08.292-.159.442-.243a29.987,29.987,0,0,0,5.456-3.926l.146-.137a28.089,28.089,0,0,0,2.569-2.653l.093-.111c-1.578-5.478-4.863-7.2-4.863-7.2s-2.989-1.362-3.807-3.263-8.038-5.92-8.038-5.92v.031c0,.34-.115,3.457-.287,6.592-.111,2.038-.248,4.085-.407,5.385a6.286,6.286,0,0,1-.23,1.247C360.261,221.225,364.334,226.385,364.334,226.385Z" transform="translate(-220.359 -125.817)" fill="#555388"/>
  </g>
</svg>
