<svg xmlns="http://www.w3.org/2000/svg" width="69.15" height="56.155" viewBox="0 0 69.15 56.155">
  <g id="Group_1527" data-name="Group 1527" transform="translate(-959 -4246)">
    <g id="Group_1484" data-name="Group 1484" transform="translate(0 32.777)">
      <circle id="Ellipse_220" data-name="Ellipse 220" cx="28.078" cy="28.078" r="28.078" transform="translate(959 4213.223)" fill="#e8e8f3"/>
      <g id="baseline-computer-24px" transform="translate(974.315 4214.074)">
        <path id="Path_7321" data-name="Path 7321" d="M0,0H53.835V53.835H0Z" fill="none"/>
        <path id="Path_7322" data-name="Path 7322" d="M44.863,35.4a4.48,4.48,0,0,0,4.464-4.486l.022-22.431A4.5,4.5,0,0,0,44.863,4H8.973A4.5,4.5,0,0,0,4.486,8.486V30.918A4.5,4.5,0,0,0,8.973,35.4H0V39.89H53.835V35.4ZM8.973,8.486h35.89V30.918H8.973Z" transform="translate(0 4.973)" fill="#6361d0"/>
      </g>
    </g>
  </g>
</svg>
