<svg xmlns="http://www.w3.org/2000/svg" xmlns:xlink="http://www.w3.org/1999/xlink" width="415.185" height="308.88" viewBox="0 0 415.185 308.88">
  <defs>
    <linearGradient id="linear-gradient" x1="0.5" y1="1" x2="0.5" gradientUnits="objectBoundingBox">
      <stop offset="0" stop-color="gray" stop-opacity="0.251"/>
      <stop offset="0.54" stop-color="gray" stop-opacity="0.122"/>
      <stop offset="1" stop-color="gray" stop-opacity="0.102"/>
    </linearGradient>
    <linearGradient id="linear-gradient-2" y2="0" xlink:href="#linear-gradient"/>
  </defs>
  <g id="undraw_time_management_30iu" transform="translate(0)">
    <path id="Path_7573" data-name="Path 7573" d="M122.839,94.791c-2.584,1.072-5.235,2.448-6.655,4.859-1.5,2.548-1.324,5.711-1.044,8.659,2.44,25.565,8.867,52.753-2.232,75.91-5.387,11.235-14.4,20.237-21.565,30.44S78.765,237.6,82.092,249.6c4.063,14.666,19.229,22.8,29.452,34.083,6.691,7.379,11.382,16.346,17.626,24.109s14.8,14.6,24.765,15.058c14.334.66,26-11.718,40.051-14.586,14.4-2.936,28.9,4.535,40.571,13.478s22.293,19.777,35.9,25.361c15.022,6.171,31.956,5.227,47.77,8.935,14.4,3.38,27.652,10.567,41.946,14.4s31.048,3.6,42.122-6.187c14.434-12.8,13.3-35.6,22.517-52.525,8.563-15.73,25.325-25.121,36.607-39.027,20.3-25.029,19.637-63.284,2.4-90.5s-48.462-43.7-80.389-47.994c-14.4-1.932-29.224-1.668-43.066-6.063-37.051-11.758-59.1-53.889-96.927-62.656-24.045-5.563-47.43,4.071-67.911,15.93C157.742,91.707,141.34,87.116,122.839,94.791Z" transform="translate(-81.087 -63.864)" fill="#6c63ff" opacity="0.1"/>
    <path id="Path_7574" data-name="Path 7574" d="M198.371,347.69s-13.65,12.882-28.3,13.266a28.431,28.431,0,0,0-16.946,6.027,47.819,47.819,0,0,0-6.335,6.027" transform="translate(-120.512 -234.175)" fill="none" stroke="#535461" stroke-miterlimit="10" stroke-width="2"/>
    <path id="Path_7575" data-name="Path 7575" d="M120.054,410.962c1.968-1,9.479-.336,9.479-.336s-3.9,6.459-5.863,7.459a4,4,0,1,1-3.6-7.123Z" transform="translate(-103.015 -271.81)" fill="#6c63ff"/>
    <path id="Path_7576" data-name="Path 7576" d="M137.1,383.229c2.2.232,8.139,4.871,8.139,4.871s-6.8,3.3-8.975,3.076a4,4,0,0,1,.836-7.947Z" transform="translate(-112.156 -255.496)" fill="#6c63ff"/>
    <path id="Path_7577" data-name="Path 7577" d="M181.012,359.222c1.776,1.308,4.567,8.315,4.567,8.315s-7.523-.572-9.3-1.876a4,4,0,0,1,4.731-6.439Z" transform="translate(-137.316 -240.692)" fill="#6c63ff"/>
    <path id="Path_7578" data-name="Path 7578" d="M220.766,350.037c1.972.988,5.907,7.423,5.907,7.423s-7.511.708-9.483-.28a4,4,0,1,1,3.576-7.143Z" transform="translate(-161.317 -235.27)" fill="#6c63ff"/>
    <path id="Path_7579" data-name="Path 7579" d="M162.45,399.523c.656-2.108-1.264-9.4-1.264-9.4s-5.711,4.927-6.367,7.035a4,4,0,1,0,7.631,2.368Z" transform="translate(-125.186 -259.635)" fill="#6c63ff"/>
    <path id="Path_7580" data-name="Path 7580" d="M208.2,389.111c0-2.208-4.02-8.591-4.02-8.591s-3.975,6.4-3.971,8.615a4,4,0,0,0,8-.024Z" transform="translate(-152.567 -253.875)" fill="#6c63ff"/>
    <path id="Path_7581" data-name="Path 7581" d="M251.415,370.917c.368-2.176-2.512-9.147-2.512-9.147s-5,5.647-5.367,7.823a4,4,0,0,0,7.879,1.328Z" transform="translate(-178.548 -242.624)" fill="#6c63ff"/>
    <path id="Path_7582" data-name="Path 7582" d="M260.141,200.429S243.7,191.4,238.812,177.564a28.432,28.432,0,0,0-10.947-14.274,47.819,47.819,0,0,0-7.7-4.159" transform="translate(-164.544 -121.029)" fill="none" stroke="#535461" stroke-miterlimit="10" stroke-width="2"/>
    <path id="Path_7583" data-name="Path 7583" d="M202.326,135.813c1.556,1.564,3.232,8.919,3.232,8.919s-7.343-1.72-8.9-3.288a4,4,0,0,1,5.667-5.631Z" transform="translate(-149.82 -106.411)" fill="#6c63ff"/>
    <path id="Path_7584" data-name="Path 7584" d="M233.7,142.373c.456,2.16-2.132,9.243-2.132,9.243s-5.227-5.435-5.683-7.6a4,4,0,1,1,7.819-1.648Z" transform="translate(-167.899 -108.959)" fill="#6c63ff"/>
    <path id="Path_7585" data-name="Path 7585" d="M270.306,177.1c-.7,2.092-6.507,6.9-6.507,6.9s-1.768-7.331-1.072-9.427a4,4,0,0,1,7.6,2.524Z" transform="translate(-189.983 -128.651)" fill="#6c63ff"/>
    <path id="Path_7586" data-name="Path 7586" d="M291.11,212.356c-.332,2.18-5.247,7.9-5.247,7.9s-2.984-6.927-2.652-9.107a4,4,0,1,1,7.9,1.2Z" transform="translate(-202.357 -150.09)" fill="#6c63ff"/>
    <path id="Path_7587" data-name="Path 7587" d="M220.09,174.081c2.208-.024,8.559-4.1,8.559-4.1s-6.443-3.919-8.651-3.9a4,4,0,0,0,.092,8Z" transform="translate(-162.069 -125.205)" fill="#6c63ff"/>
    <path id="Path_7588" data-name="Path 7588" d="M243.246,214.584c2.1-.684,6.939-6.467,6.939-6.467s-7.323-1.812-9.419-1.128a4,4,0,1,0,2.48,7.6Z" transform="translate(-175.162 -149.654)" fill="#6c63ff"/>
    <path id="Path_7589" data-name="Path 7589" d="M274,249.977c2.184-.32,7.935-5.2,7.935-5.2s-6.911-3.024-9.091-2.7a4,4,0,1,0,1.16,7.907Z" transform="translate(-193.998 -170.786)" fill="#6c63ff"/>
    <circle id="Ellipse_278" data-name="Ellipse 278" cx="144.781" cy="144.781" r="144.781" transform="translate(63.965 8.961)" fill="url(#linear-gradient)"/>
    <circle id="Ellipse_279" data-name="Ellipse 279" cx="142.381" cy="142.381" r="142.381" transform="translate(66.364 11.361)" fill="#6361d0"/>
    <ellipse id="Ellipse_280" data-name="Ellipse 280" cx="113.185" cy="113.185" rx="113.185" ry="113.185" transform="translate(95.56 40.557)" fill="#dde1ec"/>
    <rect id="Rectangle_1671" data-name="Rectangle 1671" width="6.399" height="99.987" transform="translate(205.546 60.554)" fill="#535461" opacity="0.3"/>
    <g id="Group_1505" data-name="Group 1505" transform="translate(148.018 121.415)" opacity="0.1">
      <rect id="Rectangle_1672" data-name="Rectangle 1672" width="90.388" height="7.999" transform="translate(67.527 29.927)"/>
      <rect id="Rectangle_1673" data-name="Rectangle 1673" width="7.999" height="64.199" transform="translate(0 7.086) rotate(-62.36)"/>
      <ellipse id="Ellipse_281" data-name="Ellipse 281" cx="11.998" cy="11.998" rx="11.998" ry="11.998" transform="translate(48.729 21.928)"/>
    </g>
    <rect id="Rectangle_1674" data-name="Rectangle 1674" width="90.388" height="7.999" transform="translate(215.544 149.742)" fill="#535461"/>
    <rect id="Rectangle_1675" data-name="Rectangle 1675" width="64.199" height="7.999" transform="translate(151.757 119.824) rotate(27.64)" fill="#535461"/>
    <ellipse id="Ellipse_282" data-name="Ellipse 282" cx="11.998" cy="11.998" rx="11.998" ry="11.998" transform="translate(196.747 141.743)" fill="#535461"/>
    <g id="Group_1506" data-name="Group 1506" transform="translate(95.552 40.557)" opacity="0.1">
      <path id="Path_7590" data-name="Path 7590" d="M328.8,292.053A113.193,113.193,0,0,1,532.435,224,113.2,113.2,0,1,0,342.745,346.51,112.668,112.668,0,0,1,328.8,292.053Z" transform="translate(-320 -165.27)"/>
    </g>
    <path id="Path_7591" data-name="Path 7591" d="M724.947,203.589c-1.344-1.292-12.654,7.2-12.654,7.2s-4.028.736-3.068,3.5-4.219,18.242-4.219,18.242l-2.108-2.948a12.653,12.653,0,0,0-1.676-7.439c-.076-.124-.152-.244-.228-.356l.368-.128c-.14-1.888-3.16-4.763-4.763-6.171v-.608c.1-2.256,1-4.635,0-6.679-1.136-2.332-4.459-3.5-4.739-6.063-.168-1.528.864-2.908,1.32-4.379,1.088-3.52-1.172-7.111-3.331-10.143a14.192,14.192,0,0,0-2.644-3.048,12.83,12.83,0,0,0-3.176-1.7,81.2,81.2,0,0,0-9.663-2.8c-3.132-.832-6.019-1.228-9.2-.184a4.525,4.525,0,0,0-2,1.148c-.756.848-.856,2.056-1.352,3.068-.8,1.628-2.524,2.6-4.047,3.644s-3.052,2.476-3.059,4.275c0,2.556,2.919,4.163,3.9,6.543.912,2.216,0,4.683-.508,7.019a4.719,4.719,0,0,0-.06,2.316,4.977,4.977,0,0,0,.9,1.56c.6.8,1.252,1.544,1.9,2.3l-.3.116c-5.368-.552-8.819,6.263-8.819,6.263.248.052.484.112.716.18l-.228.3a29.094,29.094,0,0,0-3.94,6.891l-4.4,5.9s-.96-14.742,1.344-18.058S643.1,208,643.1,208s-9.6-10.687-10.931-9.767,3.26,12.53,7.287,14.374a17.7,17.7,0,0,1-.4,6.079c-.484,1.516-3.068,17.506-3.068,17.506s-2.3,13.45,8.247,6.8c6.851-4.311,11.278-11.734,13.534-16.4q.236-.492.444-.94a11.311,11.311,0,0,1,.212,1.5l.4,15.41a23.389,23.389,0,0,1-2.424,11.007l-4.7,9.531.524.16-.316.456c-3.1,4.555-8.359,14.8,2.476,20.017l14.4,1.844-.768,3.683s-5.943,11.238-7.671,18.978a56.859,56.859,0,0,1-4.987,13.634l.444.236c-.092.1-.188.212-.28.324a6.953,6.953,0,0,0-1.664,3.487l-1.952,2.768s-.768,11.422.768,14.19c.84,1.512,3.628,2.472,6,3.032,3.52.836,6.359-2.8,4.491-5.8l-.024-.04H663.1c-.4-1.86-1.624-7.631-1.224-9.823.112-.624.216-1.244.268-1.876a6.636,6.636,0,0,1,.744-2.372c.064-.124.132-.244.2-.364l.208.088c.644.276,1.28.536,1.884.764-.936.852-1.6,2.616-.8,6.243,0,0,.076,9.075.768,10.5s8.435,3.316,9.779,1.844-.864-6.543-.864-6.543l-.068.048c-.444-2.94-.992-8.2.356-10.275.544-.836,1.072-1.7,1.544-2.508l.292-.5h0c2.5,1.248,5.151,2.188,6.6,1.536,0,0,6.327-14.742,5.943-16.582s9.779-22.665,9.779-22.665,8.627-9.6-1.916-16.214c-3.348-2.108-5.787-3.523-7.559-4.479l-1.484-7.759a28.362,28.362,0,0,1,.4-12.262l1.6-6.1h0l.132-.52s4.027-8.291,3.835-12.162a2.8,2.8,0,0,1,.1-.892q.066.276.144.576a74.337,74.337,0,0,0,4.168,11.742c3.059,6.9,7.6,6.355,10.086,5.375a3.444,3.444,0,0,0,2.124-2.488c.9-4.3,3.356-16.33,3.512-19.653a55.876,55.876,0,0,1,.96-7.739C720.924,211.328,726.291,204.881,724.947,203.589Z" transform="translate(-411.624 -133.108)" fill="url(#linear-gradient-2)"/>
    <path id="Path_7592" data-name="Path 7592" d="M728.8,532.292s-.844,1.692-2,3.724c-.452.8-.956,1.66-1.472,2.488-1.828,2.924,0,12.238,0,12.238l-4,.548-4-2-.732-6.759v-4.943l4.559-5.1,2-2.208Z" transform="translate(-462.429 -343.739)" fill="#f8bdc5"/>
    <g id="Group_1507" data-name="Group 1507" transform="translate(258.723 186.541)" opacity="0.1">
      <path id="Path_7593" data-name="Path 7593" d="M735.631,532.292s-.844,1.692-2,3.724a49.561,49.561,0,0,1-5.111-3.143l-.352-.248-.188-.136,2-2.208Z" transform="translate(-727.98 -530.28)"/>
    </g>
    <path id="Path_7594" data-name="Path 7594" d="M747.2,410.953s-9.683,20.641-9.315,22.469-5.663,16.442-5.663,16.442c-1.376.648-3.9-.284-6.287-1.52a49.3,49.3,0,0,1-5.2-3.2l-.352-.248-.212-.152,15.894-44.026L722.007,390.4l-1.04-.764L714.68,385l19.2,3.472s.668-.084,4.2,1.892c1.7.948,4.052,2.368,7.307,4.5C755.419,401.454,747.2,410.953,747.2,410.953Z" transform="translate(-461.277 -256.563)" fill="#5e52ad"/>
    <g id="Group_1508" data-name="Group 1508" transform="translate(253.403 128.437)" opacity="0.03">
      <path id="Path_7595" data-name="Path 7595" d="M747.2,410.953s-9.683,20.641-9.315,22.469-5.663,16.442-5.663,16.442c-1.376.648-3.9-.284-6.287-1.52a49.3,49.3,0,0,1-5.2-3.2l-.352-.248-.212-.152,15.894-44.026L722.007,390.4l-1.04-.764L714.68,385l19.2,3.472s.668-.084,4.2,1.892c1.7.948,4.052,2.368,7.307,4.5C755.419,401.454,747.2,410.953,747.2,410.953Z" transform="translate(-714.68 -385)"/>
    </g>
    <path id="Path_7596" data-name="Path 7596" d="M717.273,544.412s-4.751-.732-3.1,6.943c0,0,.072,9,.732,10.4s8.039,3.288,9.315,1.828-.824-6.483-.824-6.483-5.387,3.927-6.851-.276S717.273,544.412,717.273,544.412Z" transform="translate(-460.762 -352.207)" fill="#5d3e53"/>
    <path id="Path_7597" data-name="Path 7597" d="M697.779,535.318a5.757,5.757,0,0,0-1.244,1.728,6.768,6.768,0,0,0-.708,2.352c-.048.624-.148,1.244-.252,1.86-.456,2.6,1.292,10.319,1.292,10.319l-6.943,1.1-2.556-2.74-.548-6.027a21.842,21.842,0,0,0,1.1-6.4,6.705,6.705,0,0,1,1.6-4,11.01,11.01,0,0,1,1.852-1.836S699.242,534.038,697.779,535.318Z" transform="translate(-444.559 -344.573)" fill="#f8bdc5"/>
    <g id="Group_1509" data-name="Group 1509" transform="translate(244.972 187.089)" opacity="0.1">
      <path id="Path_7598" data-name="Path 7598" d="M701.847,535.305a5.757,5.757,0,0,0-1.244,1.728c-2.844-1.284-5.831-2.9-6.919-3.5l-.084-.044a10.993,10.993,0,0,1,1.852-1.836S703.311,534.026,701.847,535.305Z" transform="translate(-693.6 -531.65)"/>
    </g>
    <path id="Path_7599" data-name="Path 7599" d="M713.41,405.473s-4.563,8.587-7.491,15.71c-1.92,4.679-5.887,15.822-8.4,22.917l-.368,1.048c-1.1,3.14-1.84,5.263-1.84,5.263a4.759,4.759,0,0,1-1.436-.212c-.432-.116-.916-.272-1.432-.464l-.58-.22c-.576-.224-1.2-.484-1.8-.756-2.9-1.3-6-2.984-7.123-3.6l-.424-.236a57.775,57.775,0,0,0,4.764-13.53c1.644-7.671,7.307-18.8,7.307-18.8l.732-3.656-13.7-1.828c-10.323-5.159-5.307-15.33-2.36-19.845A26.649,26.649,0,0,1,680.89,385l10.963,2.4s1.728.552,5.567,2.252l1.764.8c2.151.988,4.8,2.26,8,3.892C717.973,399.8,713.41,405.473,713.41,405.473Z" transform="translate(-437.717 -256.563)" fill="#5e52ad"/>
    <path id="Path_7600" data-name="Path 7600" d="M695.422,558.822a3.879,3.879,0,0,1-4.279,5.743c-2.244-.556-4.9-1.508-5.7-3.008-1.46-2.74-.732-14.066-.732-14.066l1.92-2.832s-1,12.514,1.372,13.6,7.4.508,7.4.508Z" transform="translate(-443.183 -352.367)" fill="#5d3e53"/>
    <path id="Path_7601" data-name="Path 7601" d="M701.659,181.925a4.272,4.272,0,0,0-1.92,1.14c-.72.84-.8,2.04-1.288,3.044-.76,1.6-2.4,2.58-3.856,3.6s-2.907,2.456-2.916,4.239c0,2.536,2.8,4.128,3.712,6.483.868,2.2,0,4.643-.484,6.959a4.861,4.861,0,0,0-.056,2.3,4.988,4.988,0,0,0,.856,1.548c1.764,2.4,3.955,4.527,5.135,7.259a22.474,22.474,0,0,1,1.38,6.619,33.262,33.262,0,0,1,.064,9.739.984.984,0,0,0,0,.588.911.911,0,0,0,.468.4,9.6,9.6,0,0,0,12.994-4.8c.8-1.812,1.108-4,2.692-5.175a1.348,1.348,0,0,1,.644-.292,1.885,1.885,0,0,1,1.04.348,10.241,10.241,0,0,0,6.839.688,6.356,6.356,0,0,0,3.716-1.848c1.8-2.144.8-5.347.92-8.143.1-2.236.956-4.6,0-6.619-1.08-2.312-4.251-3.472-4.515-6-.16-1.512.824-2.884,1.26-4.339,1.036-3.492-1.116-7.051-3.172-10.055a13.913,13.913,0,0,0-2.516-3.02,12.071,12.071,0,0,0-3.023-1.68,73.89,73.89,0,0,0-9.2-2.772C707.45,181.281,704.7,180.885,701.659,181.925Z" transform="translate(-447.475 -134.333)" fill="#85555c"/>
    <path id="Path_7602" data-name="Path 7602" d="M736.684,265.3h-10.6V248.127a31.986,31.986,0,0,0,.552-5v-1.72c-.1-2.048-.524-4.091-1.636-5.339-2.923-3.288,9.5-2.74,9.5-2.74a30.946,30.946,0,0,0,1.48,4.423,26.905,26.905,0,0,0,3.56,6.267,14.5,14.5,0,0,0,4.827,4.107C751.662,251.782,736.684,265.3,736.684,265.3Z" transform="translate(-467.203 -165.531)" fill="#f8bdc5"/>
    <g id="Group_1510" data-name="Group 1510" transform="translate(257.341 67.763)" opacity="0.1">
      <path id="Path_7603" data-name="Path 7603" d="M735.95,237.752a9.7,9.7,0,0,1-9.343,3.656c-.1-2.048-.524-4.091-1.636-5.339-2.924-3.288,9.5-2.74,9.5-2.74a30.933,30.933,0,0,0,1.48,4.423Z" transform="translate(-724.526 -233.294)"/>
    </g>
    <circle id="Ellipse_283" data-name="Ellipse 283" cx="9.683" cy="9.683" r="9.683" transform="translate(251.392 56.111)" fill="#f8bdc5"/>
    <path id="Path_7604" data-name="Path 7604" d="M803.363,252.739a57.566,57.566,0,0,0-.912,7.671c-.148,3.292-2.492,15.226-3.348,19.485a3.379,3.379,0,0,1-2.024,2.468c-2.376.972-6.7,1.516-9.6-5.327A75.772,75.772,0,0,1,783.51,265.4a31.458,31.458,0,0,1-.8-4.071l6.4-3.472a7.873,7.873,0,0,1,1.512,1.94,12.972,12.972,0,0,1,1.6,7.375l2,2.924s4.931-15.346,4-18.086,2.924-3.472,2.924-3.472,10.778-8.4,12.058-7.123S809.391,249.083,803.363,252.739Z" transform="translate(-502.098 -170.323)" fill="#f8bdc5"/>
    <path id="Path_7605" data-name="Path 7605" d="M663.726,252.215a43.214,43.214,0,0,1-1.72,4.2c-2.152,4.627-6.367,12-12.894,16.262-10.047,6.575-7.855-6.759-7.855-6.759s2.459-15.854,2.923-17.354a18.958,18.958,0,0,0,.364-6.027c-3.836-1.828-8.219-13.334-6.943-14.25s10.4,9.683,10.4,9.683,4.2,2,2,5.3-1.28,17.9-1.28,17.9l4.228-5.835A29.148,29.148,0,0,1,656.7,248.5c.8-1.092,1.36-1.752,1.36-1.752Z" transform="translate(-414.89 -162.492)" fill="#f8bdc5"/>
    <g id="Group_1511" data-name="Group 1511" transform="translate(280.604 87.527)" opacity="0.1">
      <path id="Path_7606" data-name="Path 7606" d="M790.613,284.654c-1.344.5-6.547,2.6-7.123,5.6a31.455,31.455,0,0,1-.8-4.071l6.4-3.472a7.89,7.89,0,0,1,1.524,1.944Z" transform="translate(-782.69 -282.71)"/>
    </g>
    <g id="Group_1512" data-name="Group 1512" transform="translate(241.813 84.247)" opacity="0.1">
      <path id="Path_7607" data-name="Path 7607" d="M692.723,279.985a43.171,43.171,0,0,1-1.72,4.2c-.248-1.808-1.268-6.431-5.3-7.923.8-1.092,1.36-1.752,1.36-1.752Z" transform="translate(-685.7 -274.51)"/>
    </g>
    <g id="Group_1513" data-name="Group 1513" transform="translate(258.883 77.596)" opacity="0.1">
      <path id="Path_7608" data-name="Path 7608" d="M738.979,280.053h-10.6V262.879a31.989,31.989,0,0,0,.552-5,6.59,6.59,0,0,1,1.64,5.363l5.663,12.8,2.744-11.314-.912-1.46,3.76-4.471a14.5,14.5,0,0,0,4.827,4.107C753.957,266.535,738.979,280.053,738.979,280.053Z" transform="translate(-728.38 -257.88)"/>
    </g>
    <g id="Group_1514" data-name="Group 1514" transform="translate(241.541 128.437)" opacity="0.1">
      <path id="Path_7609" data-name="Path 7609" d="M720.447,391.4s-8.3-.66-15.506-.972l-.724-.032c-1.024-.04-2-.072-2.956-.1-6.991-.168-14.9-2.612-16.242-3.04a26.686,26.686,0,0,1,1.632-2.26l10.963,2.4s1.728.552,5.567,2.252l-6.3-4.651,19.2,3.472s.668-.084,4.2,1.892Z" transform="translate(-685.02 -385)"/>
    </g>
    <path id="Path_7610" data-name="Path 7610" d="M712.666,265.414l-.912-1.46,4.056-4.851s8.363,4.1,10.554,3.2c0,0,5.3,4.4,5.48,6.943,0,0-7.671,2.556-7.491,6.4s-3.64,12.054-3.64,12.054l-1.6,6.567a29.231,29.231,0,0,0-.4,12.159l1.46,8.131s-11.51-.912-19.2-1.1-16.442-3.1-16.442-3.1l4.483-9.435a24,24,0,0,0,2.312-10.911l-.4-15.274s-.364-7.671-6.4-8.951c0,0,3.288-6.759,8.4-6.211,0,0,7.447-3.108,9.659-1.008a6.58,6.58,0,0,1,1.668,5.391l5.663,12.8Z" transform="translate(-443.185 -180.259)" fill="#ed677b"/>
    <g id="Group_1515" data-name="Group 1515" transform="translate(251.377 51.847)" opacity="0.1">
      <path id="Path_7611" data-name="Path 7611" d="M712.324,205.451c1.468,0,2.62-1.556,4.088-1.476a4.163,4.163,0,0,1,2.039.96,24.9,24.9,0,0,0,7.8,3.6,6.807,6.807,0,0,0,3.32.24,2.83,2.83,0,0,0,2.232-2.236,3.81,3.81,0,0,0-.192-1.452,17.944,17.944,0,0,0-7.815-10.315c-1.52-.932-3.376-1.644-5.059-1.06-1.52.524-2.5,1.948-3.6,3.12a13.68,13.68,0,0,1-2.8,2.272c-.8.484-2,.8-2.46,1.688C709.012,202.447,710.376,205.435,712.324,205.451Z" transform="translate(-709.613 -193.5)"/>
    </g>
    <path id="Path_7612" data-name="Path 7612" d="M712.324,204.541c1.468,0,2.62-1.556,4.088-1.476a4.163,4.163,0,0,1,2.039.96,24.9,24.9,0,0,0,7.8,3.6,6.806,6.806,0,0,0,3.32.24,2.83,2.83,0,0,0,2.232-2.236,3.81,3.81,0,0,0-.192-1.452,17.945,17.945,0,0,0-7.815-10.315c-1.52-.932-3.376-1.644-5.059-1.06-1.52.524-2.5,1.948-3.6,3.12a13.682,13.682,0,0,1-2.8,2.272c-.8.484-2,.8-2.46,1.688C709.012,201.553,710.376,204.521,712.324,204.541Z" transform="translate(-458.236 -141.107)" fill="#85555c"/>
    <path id="Path_7613" data-name="Path 7613" d="M705.32,326.79s8.951,3.288,14.8.732l2.923.184s4.859,3.408,10,1.884" transform="translate(-455.66 -221.634)" opacity="0.05"/>
    <path id="Path_7614" data-name="Path 7614" d="M809.887,313.09s-1.46,3.472-.732,4.567" transform="translate(-517.845 -213.413)" opacity="0.05"/>
    <path id="Path_7615" data-name="Path 7615" d="M665.58,310.35s.732,3.471,0,4.567" transform="translate(-431.814 -211.769)" opacity="0.05"/>
    <path id="Path_7616" data-name="Path 7616" d="M1009.177,508.14a39.955,39.955,0,0,0-7.287,41.562c9.447,24.829-16.19,66.119-16.19,66.119s.276-.04.8-.128c34.367-6.067,51.441-45.37,32.331-74.57C1011.709,530.265,1005.878,517.531,1009.177,508.14Z" transform="translate(-623.903 -330.454)" fill="#6c63ff"/>
    <path id="Path_7617" data-name="Path 7617" d="M1009.177,508.84a39.955,39.955,0,0,0-7.287,41.563c9.447,24.829-16.19,66.115-16.19,66.115s.276-.04.8-.128c34.367-6.067,51.441-45.37,32.331-74.57C1011.709,530.965,1005.878,518.231,1009.177,508.84Z" transform="translate(-623.903 -330.874)" opacity="0.1"/>
    <path id="Path_7618" data-name="Path 7618" d="M1009.171,508.14s-9.447,20.509,0,37.243,1.6,63.692-23.481,70.439" transform="translate(-623.897 -330.454)" fill="none" stroke="#535461" stroke-miterlimit="10" stroke-width="1"/>
    <path id="Path_7619" data-name="Path 7619" d="M1032.56,677.047s-19.094-3.04-20.833,14.07S975,710.6,975,710.6l.656.436c28.876,18.958,56.484,12.074,52.321-13.1C1026.441,688.581,1026.569,679.182,1032.56,677.047Z" transform="translate(-617.483 -431.681)" fill="#6c63ff"/>
    <path id="Path_7620" data-name="Path 7620" d="M1032.584,677.36s-14.822,3.252-13.6,16.73-22,29.632-43.946,16.826" transform="translate(-617.507 -431.995)" fill="none" stroke="#535461" stroke-miterlimit="10" stroke-width="1"/>
    <path id="Path_7621" data-name="Path 7621" d="M988.338,740.656s-15.038-3.008-19.05-7.019-22.057-11.026-24.061-6S918.159,749.695,935.2,752.7s40.1,4,45.114,2S988.338,740.656,988.338,740.656Z" transform="translate(-590.058 -461.115)" fill="#a8a8a8"/>
    <path id="Path_7622" data-name="Path 7622" d="M935.207,772.819c17.046,3.008,40.1,4,45.114,2,3.82-1.528,6.471-8.863,7.519-12.279l.5.1s-3.008,12.03-8.019,14.034-28.072,1-45.114-2c-4.919-.868-6.327-2.907-5.8-5.487C929.828,770.875,931.543,772.171,935.207,772.819Z" transform="translate(-590.064 -483.107)" opacity="0.2"/>
  </g>
</svg>
