<svg id="undraw_finish_line_katerina_limpitsouni_xy20_1_" data-name="undraw_finish_line_katerina_limpitsouni_xy20 (1)" xmlns="http://www.w3.org/2000/svg" width="452.985" height="301.404" viewBox="0 0 452.985 301.404">
  <path id="Path_7623" data-name="Path 7623" d="M346.171,164.469c-26.649-.947-52.03-9.549-76.25-18.941s-48.242-19.843-74.253-24.829c-16.73-3.208-35.865-3.661-49.342,5.308-12.975,8.647-17.166,23.532-19.419,37.359-1.7,10.4-2.693,21.346,1.952,31.084,3.228,6.761,8.952,12.443,12.913,18.921,13.782,22.532,4.039,50.318-10.891,72.318-7,10.323-15.132,20.176-20.539,31.154s-7.906,23.573-3.175,34.782c4.686,11.118,15.857,19.452,27.959,25.319,24.578,11.916,53.529,15.33,81.78,17.261,62.518,4.278,125.366,2.425,188.048.572,23.2-.688,46.5-1.383,69.316-4.97,12.674-1.993,25.756-5.155,34.959-12.785,11.678-9.689,14.572-26.1,6.745-38.245-13.127-20.378-49.412-25.439-58.6-47.312-5.048-12.036.136-25.447,7.478-36.61,15.746-23.948,42.136-44.96,43.523-72.339.955-18.8-11.731-37.631-31.348-46.529-20.559-9.326-49.074-8.153-64.235,7.284C397.156,159.149,369.7,165.264,346.171,164.469Z" transform="translate(-82.137 -104.354)" fill="#6c63ff" opacity="0.1"/>
  <ellipse id="Ellipse_284" data-name="Ellipse 284" cx="30.145" cy="5.798" rx="30.145" ry="5.798" transform="translate(40.368 289.809)" fill="#6c63ff"/>
  <ellipse id="Ellipse_285" data-name="Ellipse 285" cx="3.508" cy="4.595" rx="3.508" ry="4.595" transform="translate(66.499 288.549)" fill="#3f3d56"/>
  <ellipse id="Ellipse_286" data-name="Ellipse 286" cx="3.508" cy="4.595" rx="3.508" ry="4.595" transform="translate(66.499 282.933)" fill="#3f3d56"/>
  <ellipse id="Ellipse_287" data-name="Ellipse 287" cx="3.508" cy="4.595" rx="3.508" ry="4.595" transform="translate(66.499 277.316)" fill="#3f3d56"/>
  <ellipse id="Ellipse_288" data-name="Ellipse 288" cx="3.508" cy="4.595" rx="3.508" ry="4.595" transform="translate(66.499 271.704)" fill="#3f3d56"/>
  <ellipse id="Ellipse_289" data-name="Ellipse 289" cx="3.508" cy="4.595" rx="3.508" ry="4.595" transform="translate(66.499 266.087)" fill="#3f3d56"/>
  <ellipse id="Ellipse_290" data-name="Ellipse 290" cx="3.508" cy="4.595" rx="3.508" ry="4.595" transform="translate(66.499 260.471)" fill="#3f3d56"/>
  <ellipse id="Ellipse_291" data-name="Ellipse 291" cx="3.508" cy="4.595" rx="3.508" ry="4.595" transform="translate(66.499 254.854)" fill="#3f3d56"/>
  <path id="Path_7624" data-name="Path 7624" d="M209,581.941a16.667,16.667,0,0,0,1.309-1.923l-9.223-1.515,9.973.074a16.828,16.828,0,0,0,.321-13.321L198,572.2l12.353-9.059a16.812,16.812,0,1,0-27.769,18.813,16.947,16.947,0,0,0-1.919,3.068l11.974,6.218-12.765-4.282a16.8,16.8,0,0,0,2.709,15.787,16.812,16.812,0,1,0,26.427,0,16.812,16.812,0,0,0,0-20.79Z" transform="translate(-125.857 -360.921)" fill="#6c63ff"/>
  <path id="Path_7625" data-name="Path 7625" d="M179,645.648a16.742,16.742,0,0,0,3.6,10.393,16.812,16.812,0,1,0,26.427,0C211.266,653.187,179,643.766,179,645.648Z" transform="translate(-125.863 -414.239)" opacity="0.1"/>
  <path id="Path_7626" data-name="Path 7626" d="M575.821,613.653c.255,3.294,1.523,6.7,4.192,8.647s6.914,1.906,8.952-.7a10.019,10.019,0,0,0,1.487-3.232c1.717-5.427,2.936-11.365,1.054-16.738-4.245-.276-9.166-2.273-12.353,1.235A14.634,14.634,0,0,0,575.821,613.653Z" transform="translate(-359.259 -388.009)" fill="#3f3d56"/>
  <path id="Path_7627" data-name="Path 7627" d="M592.611,529.452c-.564,4.789-1.523,9.557-1.425,14.379.037,1.861.235,3.706.239,5.575a27.479,27.479,0,0,1-3.706,13.823,4.638,4.638,0,0,1-1.013,1.31,3.252,3.252,0,0,1-3.541.119,6.965,6.965,0,0,1-2.516-2.73c-3.068-5.254-3.154-11.641-4.369-17.6-.93-4.558-2.561-8.976-3.15-13.588-.383-2.969-.325-6-.934-8.927-.186-.885-.7-2.215-1.046-3.521a5.291,5.291,0,0,1-.165-3.1c.655-1.61,2.8-.984,4.2-.885a96.591,96.591,0,0,0,14.766-.037,1.269,1.269,0,0,1,1.709.885,19.982,19.982,0,0,1,.894,3.294A36.6,36.6,0,0,1,592.611,529.452Z" transform="translate(-356.342 -337.008)" fill="#fabdbd"/>
  <g id="Group_1516" data-name="Group 1516" transform="translate(214.48 177.101)" opacity="0.1">
    <path id="Path_7628" data-name="Path 7628" d="M607.962,514.481a3.646,3.646,0,0,0-.762,0c-2.355.189-4.714.284-7.07.3Q604.046,514.786,607.962,514.481Z" transform="translate(-588.067 -514.317)"/>
    <path id="Path_7629" data-name="Path 7629" d="M584.008,564.659a6.968,6.968,0,0,1-2.516-2.73c-3.068-5.254-3.154-11.641-4.369-17.6-.93-4.558-2.561-8.976-3.15-13.588-.383-2.969-.325-5.995-.935-8.927-.185-.885-.7-2.216-1.046-3.521a5.294,5.294,0,0,1-.165-3.1,1.753,1.753,0,0,1,1.647-1.07c-1.042-.07-2.059.053-2.471,1.07a5.294,5.294,0,0,0,.165,3.1c.342,1.3.86,2.635,1.046,3.521.609,2.932.552,5.958.935,8.927.589,4.616,2.219,9.034,3.15,13.588,1.215,5.958,1.3,12.353,4.369,17.6a6.969,6.969,0,0,0,2.516,2.73,3.658,3.658,0,0,0,2.158.436A3.8,3.8,0,0,1,584.008,564.659Z" transform="translate(-570.833 -514.111)"/>
  </g>
  <path id="Path_7630" data-name="Path 7630" d="M638.924,543.123c-2.471,4.941-2.059,11.941-2.059,11.941.412,16.471-6.177,51.059-6.177,51.059h-5.765s-.824-38.294,0-41.588-.412-14.824-1.647-30.882a82.443,82.443,0,0,1,2.923-27.51c.461-1.647.782-2.549.782-2.549s9.471-14,14.823-7.412c1.235,1.532,1.89,4.624,2.117,8.527C644.656,517.589,640.818,539.33,638.924,543.123Z" transform="translate(-387.087 -325.426)" fill="#fabdbd"/>
  <path id="Path_7631" data-name="Path 7631" d="M653.029,504.714c-.226-3.9-.873-7-2.117-8.528a4.241,4.241,0,0,0-4.043-1.717,4.39,4.39,0,0,1,2.808,1.717c1.235,1.532,1.89,4.624,2.116,8.528.733,12.88-3.1,34.621-5,38.413-2.47,4.941-2.059,11.941-2.059,11.941.411,16.471-6.177,51.059-6.177,51.059H639.8s6.589-34.588,6.177-51.059c0,0-.412-7,2.059-11.941C649.925,539.335,653.762,517.594,653.029,504.714Z" transform="translate(-396.193 -325.43)" opacity="0.1"/>
  <path id="Path_7632" data-name="Path 7632" d="M618.246,755.531a5.351,5.351,0,0,0-1.178,1.285c-.737,1.392.309,3.055,1.429,4.163s2.471,2.294,2.471,3.871a3.86,3.86,0,0,1-2.034,3.03c-.577.362-1.3.823-1.182,1.507a1.412,1.412,0,0,0,.219.482,6.374,6.374,0,0,0,4.212,2.553,19.007,19.007,0,0,0,5.048.041,1.015,1.015,0,0,0,.692-.239.937.937,0,0,0,.185-.568,7.4,7.4,0,0,1,.412-2.581c.535-1.075,1.766-1.623,2.471-2.586.988-1.318.852-3.15.477-4.752-.823-3.488-2.656-7.465-5.406-9.882C622.874,749.078,620.374,753.525,618.246,755.531Z" transform="translate(-383.406 -476.337)" fill="#3f3d56"/>
  <path id="Path_7633" data-name="Path 7633" d="M470.083,228.754c2.3-3.434,1.7-8.235-.646-11.653s-6.119-5.567-10.01-6.955a28.177,28.177,0,0,0-16.421-1.1c-4.291,1.116-8.145,3.451-12.188,5.254a52.414,52.414,0,0,1-22.762,4.529c-8.692-.243-18.217-2.471-25.509,2.281-13.349,8.684-7.412,32.319-20.041,42-3.405,2.611-7.692,3.751-11.48,5.765s-7.379,5.518-7.288,9.808a11.412,11.412,0,0,0,2.059,5.765A26.677,26.677,0,0,0,368.25,296.51a28.592,28.592,0,0,0,22.626-12.056c1.28-1.816,2.409-3.838,4.266-5.048,3.706-2.429,8.589-.729,13.012-.366,9.845.8,19.695-6.588,21.655-16.285.824-4.138.679-9.083,4.011-11.682,2.689-2.1,6.473-1.647,9.882-2.005,6.234-.646,11.155-4.529,14.539-9.6,1.552-2.326,1.734-5.106,3.85-6.938C464.372,230.512,467.9,232,470.083,228.754Z" transform="translate(-222.767 -157.11)" fill="#3f3d56"/>
  <g id="Group_1517" data-name="Group 1517" transform="translate(143.614 51.16)" opacity="0.1">
    <path id="Path_7634" data-name="Path 7634" d="M461.8,233.6a52.2,52.2,0,0,0,10.776-.823c-.98.029-1.968.029-2.952,0-6.823-.189-14.156-1.6-20.522.1C453.3,232.92,457.644,233.488,461.8,233.6Z" transform="translate(-428.36 -222.252)"/>
    <path id="Path_7635" data-name="Path 7635" d="M419.248,381.164c-1.857,1.211-2.985,3.232-4.266,5.048a28.926,28.926,0,0,1-16.252,11.2c.482.021.964.033,1.449.029a28.579,28.579,0,0,0,22.627-12.056c1.28-1.816,2.409-3.838,4.266-5.048l.321-.2C424.486,379.744,421.632,379.6,419.248,381.164Z" transform="translate(-398.73 -309.209)"/>
    <path id="Path_7636" data-name="Path 7636" d="M603.635,217.071c-2.343-3.4-6.119-5.567-10.01-6.955a28.178,28.178,0,0,0-16.422-1.1c-.124.029-.243.066-.362.1a31.517,31.517,0,0,1,8.96,1.828c3.891,1.388,7.667,3.553,10.01,6.955s2.944,8.235.646,11.653c-2.182,3.257-5.711,1.771-8.021,3.776-2.116,1.832-2.3,4.612-3.85,6.938-2.911,4.352-6.963,7.823-12.007,9.141,1.734-.206,3.562-.181,5.291-.362,6.234-.646,11.155-4.529,14.54-9.6,1.552-2.326,1.733-5.106,3.85-6.938,2.31-2.005,5.839-.519,8.021-3.776C606.583,225.29,605.986,220.472,603.635,217.071Z" transform="translate(-500.995 -208.252)"/>
    <path id="Path_7637" data-name="Path 7637" d="M526.181,309.239c-3.389.354-7.173-.091-9.882,2.005-3.331,2.6-3.171,7.544-4.011,11.682-1.445,7.235-7.317,13.2-14.288,15.421l.49.045c9.845.8,19.695-6.588,21.655-16.285.824-4.138.679-9.084,4.011-11.682a7.439,7.439,0,0,1,2.557-1.235C526.527,309.194,526.358,309.223,526.181,309.239Z" transform="translate(-457.124 -267.627)"/>
  </g>
  <path id="Path_7638" data-name="Path 7638" d="M592.733,178.632s-9.882,19.765-13.176,27.176-33.353,18.529-37.471,18.941a5.3,5.3,0,0,0-2.94,1.417,16.2,16.2,0,0,0-3.648,5.583s1.647,11.118-.412,29.647c-.041.358-.078.716-.111,1.062-1.8,17.632,1.964,21.791,1.964,21.791S497,299.484,498.234,279.72a89.555,89.555,0,0,0-.053-14.568,61.169,61.169,0,0,0-2.364-11.472c-.976-3.414-2.141-7.156-3.348-12.254a53.759,53.759,0,0,0-2.289-7.474c-.029-.074-.058-.148-.082-.218-2.059-5.11-4.118-6.761-5.3-7.3a17.8,17.8,0,0,1-3.162-1.779A166.328,166.328,0,0,1,462.4,208.484c-9.882-9.882-19.765-33.353-19.765-33.353s-2.882-13.588,3.706-24.706,3.706,21.823,3.706,21.823,11.941,16.059,14.824,23.471a12.384,12.384,0,0,0,5.765,6.778,68.358,68.358,0,0,1,9.116,5.7,53.229,53.229,0,0,0,6.131,4c4.6,2.471,10.117,5.258,14.712,5.991a13.87,13.87,0,0,0,2.17.185,2.248,2.248,0,0,0,1.812-.824c1.235-1.454,1.207-4.583.922-7.156a36.354,36.354,0,0,0-.675-3.965s13.382-8.441,12.971,1.853a11.5,11.5,0,0,0,.313,3.385,5.867,5.867,0,0,0,3.99,4.365,9.881,9.881,0,0,0,4.941.161,4.829,4.829,0,0,0,1.458-.5c1.235-.824,13.588-4.529,17.294-4.941s22.235-9.471,22.235-9.471l20.176-28s-.412-16.471,7.823-23.059S592.733,178.632,592.733,178.632Z" transform="translate(-280.572 -121.728)" fill="#fabdbd"/>
  <g id="Group_1518" data-name="Group 1518" transform="translate(161.426 29.434)" opacity="0.1">
    <path id="Path_7639" data-name="Path 7639" d="M667.1,394.5a82.158,82.158,0,0,0-.474,9.965c.041-2.174.186-4.657.474-7.494.033-.346.07-.7.111-1.062a161.466,161.466,0,0,0,1.029-19.1,165.4,165.4,0,0,1-1.029,16.631C667.19,393.8,667.136,394.158,667.1,394.5Z" transform="translate(-574.127 -285.678)"/>
    <path id="Path_7640" data-name="Path 7640" d="M595.012,289.07c-.276.161-.412.259-.412.259a35.269,35.269,0,0,1,.791,5.353A25.256,25.256,0,0,0,595.012,289.07Z" transform="translate(-531.761 -234.067)"/>
    <path id="Path_7641" data-name="Path 7641" d="M461.753,183.205c.2-2.882.5-8.05.445-12.645-.07,6.144-.618,12.411-.618,12.411Z" transform="translate(-453.513 -164.355)"/>
    <path id="Path_7642" data-name="Path 7642" d="M578.549,466.53a2.682,2.682,0,0,1-.029.482c-1.235,19.765,38.706,4.529,38.706,4.529a6.7,6.7,0,0,1-1.042-2.092C610.168,471.591,579.936,481.547,578.549,466.53Z" transform="translate(-522.285 -338.455)"/>
    <path id="Path_7643" data-name="Path 7643" d="M726.3,180.488s-9.882,19.765-13.177,27.176-33.353,18.529-37.47,18.941a5.3,5.3,0,0,0-2.94,1.416,16.193,16.193,0,0,0-3.648,5.583s.1.671.218,1.948a15.31,15.31,0,0,1,3.43-5.061,5.3,5.3,0,0,1,2.94-1.417c4.118-.412,34.176-11.529,37.47-18.941S726.3,182.959,726.3,182.959s6.963-21.144,6.2-27.469C731.858,163.594,726.3,180.488,726.3,180.488Z" transform="translate(-575.561 -155.49)"/>
    <path id="Path_7644" data-name="Path 7644" d="M498.171,289.143a61.18,61.18,0,0,0-2.363-11.472c-.976-3.414-2.141-7.156-3.348-12.254a53.79,53.79,0,0,0-2.289-7.474c-.029-.074-.058-.148-.082-.218-2.059-5.11-4.118-6.761-5.3-7.3a17.8,17.8,0,0,1-3.162-1.779,166.337,166.337,0,0,1-19.242-16.174c-9.882-9.882-19.765-33.353-19.765-33.353a37.224,37.224,0,0,1-.609-6,39.679,39.679,0,0,0,.609,8.474s9.882,23.471,19.765,33.353a166.348,166.348,0,0,0,19.242,16.174,17.8,17.8,0,0,0,3.187,1.779c1.174.535,3.228,2.186,5.3,7.3.025.07.054.144.082.218a53.751,53.751,0,0,1,2.277,7.474c1.207,5.1,2.372,8.841,3.348,12.254a61.17,61.17,0,0,1,2.363,11.472c.173,1.721.276,3.595.3,5.7A71.682,71.682,0,0,0,498.171,289.143Z" transform="translate(-441.99 -177.625)"/>
  </g>
  <path id="Path_7645" data-name="Path 7645" d="M607.546,341.839a24.5,24.5,0,0,0-1.647,3.245,19.608,19.608,0,0,0-.741,5.444,43.708,43.708,0,0,1-1.169,7.626,8.429,8.429,0,0,1-.412,1.35,3.576,3.576,0,0,1-.482.824,3.506,3.506,0,0,1-.766.7,8.961,8.961,0,0,1-1.4.762c-5.732,2.676-11.982,5.04-18.237,4.118a26.54,26.54,0,0,1-7.589-2.553c-2.265-1.1-4.826-2.4-7.173-1.491h0a3.609,3.609,0,0,1-1.149.358,1.081,1.081,0,0,1-.231-.021c-.774-.148-.774-2.759-.951-3.529-.675-2.957-.778-5.353-1.182-7.922a26.012,26.012,0,0,0-.992-4.188,49.448,49.448,0,0,1-2.145-15.515c0-.259-1.853,0-2.471-.025-.156,0-.243-.025-.206-.078a.827.827,0,0,1,.123-.14,1.884,1.884,0,0,1,.737-.367l.486-.144c2.545-.721,5.353-1.021,7.255-2.812,1.977-1.849,2.471-4.8,2.384-7.5a44.614,44.614,0,0,1-.379-4.727,13.856,13.856,0,0,0,2.17.185,2.248,2.248,0,0,0,1.812-.823,32.533,32.533,0,0,1,1.779,4.118,28.493,28.493,0,0,0,2.26,5.089,8.619,8.619,0,0,0,7.708,3.949,7.159,7.159,0,0,0,6.374-5.559c.474-2.615-.626-6.378-.6-9.1a9.883,9.883,0,0,0,4.941.161,4.5,4.5,0,0,1,.177.515c.926,3.179,2.162,6.827,5.271,7.955,2.01.725,4.385.181,6.242,1.235a3.99,3.99,0,0,1,.412.272,4.561,4.561,0,0,1,1.091,1.157,9.3,9.3,0,0,1,1.322,4.151A23.028,23.028,0,0,1,607.546,341.839Z" transform="translate(-349.157 -218.773)" fill="#6c63ff"/>
  <path id="Path_7646" data-name="Path 7646" d="M607.844,290.284a14.033,14.033,0,0,1-12.608-1.272,36.436,36.436,0,0,0-.675-3.965s13.383-8.441,12.97,1.853A11.508,11.508,0,0,0,607.844,290.284Z" transform="translate(-370.311 -200.349)" opacity="0.1"/>
  <ellipse id="Ellipse_292" data-name="Ellipse 292" cx="14" cy="14" rx="14" ry="14" transform="translate(218.481 62.05)" fill="#fabdbd"/>
  <path id="Path_7647" data-name="Path 7647" d="M555.06,342.724s27.176-17.294,111.588,1.235,133.412,3.706,133.412,3.706v19.353s-94.706,10.294-130.941,0-87.817-16.232-105.881-.292Z" transform="translate(-347.075 -231.88)" fill="#f86d70"/>
  <path id="Path_7648" data-name="Path 7648" d="M555.06,342.724s27.176-17.294,111.588,1.235,133.412,3.706,133.412,3.706v19.353s-94.706,10.294-130.941,0-87.817-16.232-105.881-.292Z" transform="translate(-347.075 -231.88)" opacity="0.1"/>
  <path id="Path_7649" data-name="Path 7649" d="M557.06,344.724s26.353-17.294,110.764,1.235,132.588,3.706,132.588,3.706l.412,17.706s-93.882,10.294-130.117,0S583.3,349.9,565.238,365.844Z" transform="translate(-348.252 -233.057)" fill="#f86d70"/>
  <path id="Path_7650" data-name="Path 7650" d="M258.835,378.558s-27.176,17.294-111.588-1.235-80.294-3.706-80.294-3.706V354.264s41.588-10.294,77.823,0,87.817,16.232,105.881.292Z" transform="translate(-59.934 -240.29)" fill="#f86d70"/>
  <path id="Path_7651" data-name="Path 7651" d="M258.835,378.558s-27.176,17.294-111.588-1.235-80.294-3.706-80.294-3.706V354.264s41.588-10.294,77.823,0,87.817,16.232,105.881.292Z" transform="translate(-59.934 -240.29)" opacity="0.1"/>
  <path id="Path_7652" data-name="Path 7652" d="M258.647,378.911s-26.353,17.294-110.764-1.235-79.47-3.706-79.47-3.706L68,356.264s40.765-10.294,77,0,87.405,17.467,105.469,1.528Z" transform="translate(-60.569 -241.467)" fill="#f86d70"/>
  <path id="Path_7653" data-name="Path 7653" d="M566.531,242.068c-.412-2.569-1.046-5.806,1.1-7.276a4.571,4.571,0,0,1,2.549-.659c4.451-.045,8.7,3.055,13.069,2.149a7.367,7.367,0,0,0,2.882-13.123,14.8,14.8,0,0,0-5.987-2.17c-5.522-1.136-11.286-2.269-16.738-.824s-10.434,6.333-10,11.941c.206,2.685,1.573,5.122,3,7.412,1.087,1.738,5.32,9.882,7.375,10.006C566.687,249.694,566.815,243.748,566.531,242.068Z" transform="translate(-346.09 -163.7)" fill="#3f3d56"/>
  <path id="Path_7654" data-name="Path 7654" d="M610.995,461.7s-28.412,7-37.882,0c0,0-4.118,16.059-2.882,24.294,0,0,20.177,1.235,22.235,2.471,0,0,.412-3.294,2.471-1.647,0,0,7-8.235,19.765-.823C614.7,485.994,617.171,466.641,610.995,461.7Z" transform="translate(-355.863 -306.18)" fill="#6c63ff"/>
  <path id="Path_7655" data-name="Path 7655" d="M598,227.586a8.172,8.172,0,0,0-.918-.576,7.35,7.35,0,0,1-4.031,12.052c-4.365.906-8.618-2.195-13.069-2.149a4.571,4.571,0,0,0-2.549.659c-2.149,1.47-1.519,4.706-1.108,7.276.272,1.68.16,7.626-2.73,7.465h-.049c.795.968,1.536,1.622,2.108,1.647,2.882.161,3-5.765,2.73-7.465-.412-2.569-1.042-5.806,1.108-7.276a4.571,4.571,0,0,1,2.549-.659c4.451-.045,8.7,3.055,13.069,2.149A7.366,7.366,0,0,0,598,227.586Z" transform="translate(-357.952 -168.126)" opacity="0.1"/>
  <g id="Group_1519" data-name="Group 1519" transform="translate(0 36.322)" opacity="0.1">
    <path id="Path_7656" data-name="Path 7656" d="M85.507,175.8S54.72,162.85,50.685,186.2a5.678,5.678,0,0,0,.824,6.642s.63-1.61,3.607.058a15.486,15.486,0,0,0,3.36,1.363A7.56,7.56,0,0,0,63.26,194h0s10.125-.548,18.641-13.794c0,0,3.648-2.256,3.834-3.1l-6.1.412s.465,4.468-2.059,7.148c0,0,2.244-6.93,1.165-7.128-.218-.041-3.224.358-3.224.358s.778,7.766-3.294,11.785c0,0,3.78-7.9,2.133-11.645l-4.5.869s1.235,8.169-3.22,12.925c0,0,3.661-8.4,2.248-12.67l-4.315,1.449s1.042,8-2.685,11.941c0,0,3.253-10.134,1.721-11.529,0,0-3.879,1.573-4.711,2.471,0,0,.618,5.765-1.754,7.824,0,0,1.458-7,.737-7.288,0,0-4.509,3.393-5.88,6.321a17.093,17.093,0,0,1,5.312-7,9.48,9.48,0,0,0-5.353.754s1.561-2.969,6.444-1.561c0,0,3.619-2.5,4.344-2.471,0,0-4.62-2.059-7.959-1.808,0,0,3.578-2.059,9.092,1.384l4.3-1.557s-5.966-3.059-8.96-3.047c0,0,3.978-1.536,10.08,2.746l4.4-.9s-4.941-3.026-8.272-3.731c0,0,4-.63,9.545,3.525l3.014-.255s-3.648-2.145-4.752-2.668-1.054-.865-1.054-.865a14.371,14.371,0,0,1,7.07,3.4S85.479,176.179,85.507,175.8Z" transform="translate(-49.953 -172.217)" fill="#6c63ff"/>
  </g>
  <g id="Group_1520" data-name="Group 1520" transform="translate(4.512 0)" opacity="0.1">
    <path id="Path_7657" data-name="Path 7657" d="M90.816,100.7S79.888,75.472,64.2,87.043a4.67,4.67,0,0,0-3.294,4.406s1.293-.6,2.108,2.088a12.925,12.925,0,0,0,1.235,2.726,6.176,6.176,0,0,0,2.961,2.565h0s6.325,5.444,18.941,2.425c0,0,3.455.741,4.048.342l-3.858-3.236s-2.265,2.919-5.3,3.063c0,0,5.283-2.841,4.752-3.574-.107-.148-2.116-1.622-2.116-1.622s-3.965,5.056-8.647,5.135c0,0,6.749-2.545,7.9-5.7L79.764,93.6s-3.928,5.555-9.277,5.843c0,0,6.959-2.882,8.552-6.242l-3.389-1.6s-3.936,5.353-8.388,5.555c0,0,7.7-4.167,7.585-5.868,0,0-3.2-1.276-4.212-1.2,0,0-2.911,3.768-5.509,3.661,0,0,4.855-3.331,4.587-3.912,0,0-4.612-.552-7.095.412a14.051,14.051,0,0,1,7.144-1.128,7.718,7.718,0,0,0-3.6-2.594s2.619-.877,4.719,2.742c0,0,3.574.572,3.99,1,0,0-1.565-3.866-3.706-5.608,0,0,3.294.824,4.612,6l3.438,1.528s-1.8-5.217-3.607-6.909c0,0,3.241,1.351,4.426,7.371l3.125,1.972s-1.215-4.612-2.788-6.909c0,0,2.734,1.9,3.665,7.527L85.974,96.8s-.947-3.352-1.305-4.291-.132-1.112-.132-1.112A11.863,11.863,0,0,1,86.8,97.448S90.594,100.915,90.816,100.7Z" transform="translate(-60.91 -84.006)" fill="#6c63ff"/>
  </g>
</svg>
